<svg width="263" height="384" viewBox="0 0 263 384" fill="none" xmlns="http://www.w3.org/2000/svg">
<path d="M227.863 258.347C222.746 247.233 199.003 250.647 188.041 249.071C177.692 247.785 168.043 250.428 158.57 254.129C152.757 252.135 146.775 249.386 141.117 247.539C146.837 245.591 152.24 243.042 157.325 239.894C165.352 239.26 173.367 244.543 181.521 242.844C193.907 240.443 193.268 226.194 197.596 216.689C201.36 209.019 222.819 185.931 208.47 182.306C193.662 178.54 180.052 193.411 173.94 204.472C169.139 213.228 165.171 225.152 158.698 233.794C152.443 238.789 145.559 242.888 138.062 246.697C132.412 245.154 127.241 244.663 122.431 246.591C130.265 237.767 137.789 228.647 145.002 219.23C145.453 219.068 145.75 218.758 145.587 218.306C146.172 217.383 146.913 216.608 147.498 215.684C159.992 198.562 170.025 179.978 176.529 159.804C176.677 159.649 176.825 159.494 176.974 159.339C181.619 150.434 187.225 143.633 193.614 137.876C202.721 137.976 211.259 146.131 219.716 144.424C225.006 143.548 225.386 140.353 228.637 136.638C233.362 131.07 238.002 128.387 244.442 124.753C251.784 120.796 271.551 103.208 257.524 93.9623C253.524 91.6239 246.309 94.5163 242.38 95.211C232.244 96.4996 221.295 95.5303 211.513 98.9352C195.255 104.457 193.63 119.212 191.702 133.973C186.956 138.632 182.824 143.579 179.616 149.114C181.137 142.858 182.504 136.455 183.264 130.065C184.447 122.3 184.719 114.556 184.689 106.818C187.037 103.427 190.154 100.475 191.422 96.3493C194.305 89.912 190.453 87.4186 190.465 81.5006C190.759 74.6659 197.311 69.3606 198.677 62.9572C200.89 53.8036 197.037 51.3102 192.027 44.7457C183.685 32.0345 190.716 1.98559 168.383 0.815386C146.966 -0.0718331 149.041 49.3476 149.807 62.5315C151.296 87.0794 170.78 89.6789 182.276 107.479C182.321 115.823 181.611 124.336 180.443 132.708C176.092 160.572 163.495 186.194 147.496 209.16C149.044 197.593 148.004 185.629 144.099 174.488C143.288 172.23 142.328 170.127 141.212 167.876C142.543 159.956 141.271 151.032 137.925 144.279C132.815 133.468 120.928 131.306 116.262 120.03C111.603 109.057 107.224 90.6434 90.4288 92.6876C78.0284 94.482 89.6003 128.364 95.3725 135.063C100.679 141.318 109.702 144.302 116.334 148.858C122.508 153.272 128.244 158.455 133.529 163.799C136.197 167.533 138.413 171.429 140.192 176.093C141.646 179.854 142.797 183.621 143.342 187.403C139.919 183.837 135.587 180.292 130.973 177.664C126.025 167.305 117.107 162.345 105.863 161.686C99.1756 161.228 79.3526 157.119 77.0975 164.453C75.8148 167.971 84.6814 190.078 88.0822 192.734C96.8805 199.062 108.305 188.033 115.986 185.586C119.745 184.136 131.328 186.305 133.239 183.683C136.936 186.028 140.337 188.684 143.759 192.249C144.397 199.973 143.517 207.731 143.096 215.631C140.889 218.563 138.682 221.495 136.475 224.428C120.709 244.354 102.931 262.656 85.4641 281.254C86.5344 275.161 86.8357 268.629 86.3752 261.963C88.7712 254.171 93.7704 247.383 95.5597 239.605C97.8556 227.566 71.6878 166.698 56.4472 176.75C46.8839 183.033 54.5432 224.74 58.3903 233.455C63.3741 245.331 75.7907 250.668 81.8111 261.458C82.8997 269.021 83.0784 276.604 82.5095 284.658C78.215 289.155 74.0757 293.799 69.7884 298.599C45.9822 325.077 21.2731 351.879 0.564475 381.02C-0.464984 382.409 1.84922 384.026 3.03391 382.786C20.6491 364.032 37.0223 344.093 53.7061 324.449C61.3228 319.272 70.4224 319.069 80.1501 319.762C85.2156 322.228 90.6131 325.901 93.9996 327.95C103.405 334.264 108.317 343.107 121.88 339.162C128.659 337.038 157.115 314.704 153.91 307.493C152.759 303.725 115.733 303.642 109.97 303.77C96.1649 303.927 85.1064 311.154 72.6294 316.136C68.2277 316.083 63.6851 316.488 59.6153 317.641C65.8135 310.219 72.315 302.791 78.8236 295.666C91.3895 281.577 104.724 267.926 117.29 253.838C130.014 246.422 143.369 252.952 156.223 257.52C157.598 257.945 159.129 258.517 160.66 259.09C161.761 260.735 161.508 262.864 162.475 265.271C165.658 271.572 168.438 273.635 174.879 276.525C188.827 282.435 203.973 287.711 219.435 287.062C226.863 286.744 230.348 286.515 231.545 279.356C231.416 273.897 230.087 262.546 227.863 258.347Z" fill="#8A6854"/>
</svg>
