<svg width="314" height="252" viewBox="0 0 314 252" fill="none" xmlns="http://www.w3.org/2000/svg">
<path d="M15.8506 1.02438C30.7465 1.82206 37.7229 12.4395 48.2133 20.478C58.7179 24.1343 69.0769 27.6425 79.435 31.4428C77.6861 30.2491 75.7907 29.1994 74.1884 27.8618C69.8172 24.5855 49.7242 5.01545 60.5429 1.95672C68.8762 -0.407225 76.7204 12.8521 79.0382 18.7284C81.0678 23.4319 81.7786 29.4313 85.125 33.4233C98.1083 38.4298 111.091 43.7285 123.632 49.7512C121.74 47.8251 119.408 46.3309 117.369 44.5488C112.562 40.5358 91.4525 19.0523 99.7925 14.6434C108.28 9.7983 119.323 27.4858 121.788 32.9259C124.544 38.9546 125.4 45.1021 126.987 51.4061C136.32 55.9221 145.36 60.7261 154.253 65.9662C153.529 64.0568 152.513 62.1432 151.788 60.2338C149.47 54.6497 133.36 23.0123 146.941 23.9373C156.287 24.3633 159.882 41.798 160.444 48.5256C161.152 55.4014 160.692 62.2604 158.917 68.9545C167.955 74.3428 176.845 80.4593 185.296 87.0077C184.28 84.802 183.264 82.8885 182.249 80.6828C179.786 74.3662 171.68 52.0463 181.624 48.3907C189.667 45.4383 193.843 63.7578 194.703 68.7367C195.846 76.6413 195.089 84.9568 191.706 92.0662C193.892 93.7043 196.076 95.6346 198.115 97.4167C203.505 102.022 208.602 106.624 213.698 111.517C213.554 111.077 213.409 110.637 213.119 110.048C211.239 104.324 203.288 78.939 213.222 78.2049C227.249 76.945 221.595 108.709 219.231 116.855C227.239 124.712 234.807 133.001 242.375 141.582C241.653 138.796 240.786 136.154 240.356 133.372C239.498 127.809 235.342 103.355 244.832 104.513C252.717 105.503 253.403 119.098 253.092 124.644C252.483 132.232 249.685 139.349 246.303 146.166C252.124 152.969 257.505 159.912 262.887 166.855C262.458 164.073 262.321 161.296 262.037 158.662C261.185 151.346 260.625 143.742 262.985 136.764C265.345 129.786 272.232 123.019 278.487 130.851C289.253 143.86 273.861 161.023 266.521 172.312C273.791 182.349 280.77 192.382 287.309 202.847C286.88 199.774 286.014 196.84 285.292 194.054C283.569 184.972 278.829 160.51 295.039 161.472C306.721 162.224 304.331 178.55 301.533 185.668C298.296 192.925 293.456 198.845 288.325 204.761C297.478 219.646 306.047 234.815 313.738 250.263C314.173 250.999 313.003 251.567 312.567 250.83C303.561 235.509 294.262 220.476 284.67 205.731C281.319 203.2 276.641 204.301 272.405 204.387C266.415 204.739 225.379 202.545 240.025 190.192C249.691 182.442 269.088 191.338 280.309 199.241C274.786 190.982 269.116 182.866 263.299 174.895C260.232 174.705 257.31 174.955 254.242 175.349C248.397 176.142 213.327 180.606 216.433 168.819C218.651 160.524 239.529 163.306 244.929 164.406C249.163 165.197 254.126 166.145 258.209 168.249C253.264 161.75 248.319 155.252 243.081 149.042C240.746 148.424 237.531 148.962 235.338 149.369C230.225 149.734 195.873 158.153 198.689 145.484C200.319 138.35 219.159 139.058 224.124 139.421C228.797 139.78 234.052 140.732 238.279 143.276C231.878 135.588 225.037 128.04 217.904 120.78C214.834 121.467 211.621 121.421 208.551 122.107C203.143 123.344 198.023 125.754 192.47 126.551C188.086 127.365 173.183 128.612 171.158 122.448C168.7 114.963 189.151 114.087 193.096 113.705C199.962 113.366 207.264 113.762 213.829 116.34C207.277 109.672 200.288 103.145 193.005 96.9053C191.694 95.864 190.382 94.8227 189.071 93.7813C186.879 94.1882 184.831 95.0353 182.784 95.8824C176.933 98.428 171.377 100.101 164.948 100.886C160.856 101.411 141.276 103.76 139.396 98.0364C137.227 91.4318 160.021 88.8368 163.382 88.4467C169.957 87.5184 177.116 87.1827 183.39 89.1716C176.108 82.6399 167.218 76.5234 158.034 70.9869C155.55 71.3896 154.083 73.1215 151.888 74.4048C146.911 77.8393 141.5 79.953 135.654 81.0378C130.538 81.9871 114.609 84.5344 111.709 78.0655C106.777 67.7694 140.373 67.082 153.807 68.4431C144.914 63.203 135.728 58.2509 126.395 53.7349C124.492 55.0223 122.298 55.7213 120.542 56.8647C116.445 59.1433 112.638 62.0103 108.25 63.7004C102.986 65.67 87.047 71.1387 81.8023 66.9734C75.6842 61.9192 96.4479 54.9127 99.664 54.0823C105.366 52.265 112.532 49.5922 118.957 50.2685C107.873 45.1431 96.6411 40.4539 85.1164 36.0525C83.0669 37.484 81.3085 39.2117 79.4046 40.7913C75.5957 44.2426 72.0799 47.4059 67.1082 49.0876C63.0139 50.4897 49.8584 53.515 46.5139 48.9387C40.115 40.3745 72.1265 33.091 81.6159 34.5416C70.821 30.2968 59.8787 26.4882 48.9364 22.6795C43.9676 23.4848 39.0008 23.7058 33.8874 24.0708C23.9537 24.5128 12.1245 23.9051 4.55341 16.4928C-5.20142 6.85806 6.35842 0.450175 15.8506 1.02438Z" fill="#8A6854"/>
</svg>
