<svg width="74" height="75" viewBox="0 0 74 75" fill="none" xmlns="http://www.w3.org/2000/svg">
<circle cx="36.9631" cy="37.1618" r="36.9631" fill="#2E4630"/>
<path d="M32.9771 45.743C32.9771 47.0584 31.9443 48.1347 30.682 48.1347C29.4197 48.1347 28.3984 47.0584 28.3984 45.743C28.3984 44.4275 29.4197 43.3512 30.682 43.3512C31.9443 43.3512 32.9771 44.4275 32.9771 45.743ZM42.1575 43.3512C40.8952 43.3512 39.8738 44.4275 39.8738 45.743C39.8738 47.0584 40.8952 48.1347 42.1575 48.1347C43.4198 48.1347 44.4526 47.0584 44.4526 45.743C44.4526 44.4275 43.4198 43.3512 42.1575 43.3512ZM42.6119 37.3719C43.134 37.3718 43.6405 37.1862 44.0477 36.8457C44.4549 36.5053 44.7386 36.0303 44.8519 35.4992L46.7477 27.805H30.682V26.6091C30.682 25.9748 30.4402 25.3664 30.0098 24.9179C29.5794 24.4694 28.9956 24.2174 28.3869 24.2174H26.0918V26.6091H28.3869V39.7636C28.3869 40.398 28.6287 41.0063 29.0591 41.4548C29.4895 41.9034 30.0733 42.1554 30.682 42.1554H44.4526C44.4526 41.521 44.2108 40.9127 43.7803 40.4642C43.3499 40.0156 42.7662 39.7636 42.1575 39.7636H30.682V37.3719H42.6119Z" fill="white"/>
</svg>
