<svg width="32" height="64" viewBox="0 0 32 64" fill="none" xmlns="http://www.w3.org/2000/svg">
<path d="M-8.9018e-07 64C8.48693 64 16.6263 60.6286 22.6274 54.6274C28.6286 48.6263 32 40.4869 32 32C32 23.5131 28.6286 15.3737 22.6274 9.37258C16.6263 3.37142 8.48693 2.53702e-07 7.62939e-06 -1.39876e-06L5.08584e-07 32L-8.9018e-07 64Z" fill="#2E4630"/>
<path d="M8.99968 36.2112L8.99969 27.7912C8.9992 27.4588 9.09287 27.133 9.26984 26.8516C9.44682 26.5702 9.69986 26.3447 9.99968 26.2012C10.3554 26.0331 10.7512 25.9684 11.142 26.0144C11.5327 26.0604 11.9027 26.2152 12.2097 26.4612L17.3097 30.6712C17.5003 30.8364 17.6532 31.0406 17.758 31.2701C17.8628 31.4996 17.917 31.7489 17.917 32.0012C17.917 32.2534 17.8628 32.5027 17.758 32.7322C17.6532 32.9617 17.5003 33.166 17.3097 33.3312L12.2097 37.5412C11.9027 37.7872 11.5327 37.942 11.142 37.988C10.7512 38.0339 10.3554 37.9692 9.99968 37.8012C9.69986 37.6576 9.44682 37.4321 9.26984 37.1507C9.09287 36.8693 8.9992 36.5436 8.99968 36.2112Z" fill="white"/>
</svg>
