<svg width="166" height="211" viewBox="0 0 166 211" fill="none" xmlns="http://www.w3.org/2000/svg">
<path opacity="0.3" d="M23.0905 189.92C28.4896 186.631 34.4234 184.26 40.6155 182.496C44.2191 181.526 54.7113 177.059 55.6253 183.383C55.9861 186.184 54.7432 189.128 54.7437 192.026C54.7441 194.924 55.7115 197.466 57.2855 199.748C58.3729 201.291 61.0041 204.64 63.076 202.633C64.4572 201.295 63.5078 198.459 65.1833 197.138C69.6033 193.436 74.5962 204.556 76.8909 206.643C79.8043 209.24 85.4025 211.405 89.1561 209.911C94.7956 207.523 92.2781 201.341 91.7789 196.934C91.3758 192.888 94.0008 194.404 96.7578 195.69C101.864 198.18 107.161 201.392 112.982 201.854C123.805 202.611 116.211 191.515 114.126 186.956C112.883 184.102 114.276 183.534 116.865 182.74C121.009 181.625 125.363 180.935 129.105 178.672C131.681 177.109 134.215 174.301 131.302 171.703C127.884 168.662 121.619 168.706 117.481 168.758C114.88 168.782 112.262 169.1 109.709 169.304C108.874 169.432 106.352 170.112 105.553 169.65C103.841 168.662 106.766 166.232 107.606 165.039C109.288 162.654 112.663 158.654 111.911 155.474C111.016 151.754 105.821 153.636 103.575 154.627C98.5417 156.755 94.1396 160.163 89.8036 163.456C87.9479 164.825 85.6298 166.995 85.7795 163.573C85.9651 159.562 87.3279 155.62 85.9758 151.636C84.4135 147.226 80.2451 146.802 76.4254 148.41C70.1794 151.058 65.5554 156.168 62.8715 162.398C61.5627 165.455 60.5961 168.711 60.1041 171.935C59.8341 173.457 60.1706 174.719 58.7593 175.582C57.5282 176.397 54.6331 176.403 53.0776 176.726C44.7592 178.482 36.4049 180.828 28.8617 184.405C32.1525 180.813 35.3773 177.336 38.488 173.794C49.5135 161.55 59.3196 147.991 67.4618 133.625C69.1131 130.765 73.4132 128.061 75.9415 126.318C79.4548 123.923 88.0607 117.451 92.3257 121.134C94.7345 123.287 95.3658 127.465 96.4954 130.253C97.9315 133.827 99.878 136.782 102.299 139.705C105.224 143.072 113.67 150.846 118.757 147.834C121.514 146.222 118.888 141.808 120.906 140.685C122.186 140.051 125.658 142.208 126.751 142.687C129.574 143.859 132.493 145.392 135.598 145.812C141.449 146.749 140.036 141.815 138.192 138.157C136.93 135.598 133.957 132.051 138.66 133.393C143.297 134.85 150.475 138.232 155.393 136.038C160.558 133.681 154.509 127.29 152.413 124.86C151.746 124.169 149.385 122.196 150.046 121.052C150.574 120.137 153.974 120.574 154.923 120.512C160.19 120.35 168.214 115.678 164.044 109.457C161.611 105.764 154.566 105.052 150.494 104.989C148.367 104.982 144.475 104.871 144.589 102.038C144.703 99.2054 148.781 98.2041 148.75 94.8306C148.72 91.4571 145.146 90.0038 142.335 89.6012C137.596 88.8481 132.22 90.7785 129.434 94.8137C128.065 96.9215 127.176 97.9337 124.588 98.7273C122.606 99.2609 119.873 99.5136 119.134 97.1039C118.184 94.2676 122.779 91.5814 119.211 89.0637C113.883 85.3774 104.531 87.6053 99.931 91.3559C93.4751 96.4758 92.3657 107.886 90.3788 115.281C83.2017 117.696 76.6074 121.211 71.3287 126.4C75.5618 118.014 79.1582 109.413 82.4603 100.794C82.7066 100.631 82.8387 100.402 82.8566 100.108C82.8746 99.813 82.9407 99.6986 82.9586 99.4039C85.6964 92.2898 88.2058 85.044 90.9436 77.93C92.5045 73.645 94.4079 69.5576 96.149 65.224C97.524 62.0518 97.9558 57.8775 101.944 58.3497C106.815 58.8739 116.713 58.3346 118.544 52.5275C119.841 48.7001 115.768 45.7386 114.362 42.6388C112.488 38.5057 117.533 37.1474 120.68 35.9136C123.286 34.8254 130.902 32.9682 131.298 29.3833C131.808 25.8643 125.009 24.9895 122.786 24.6217C120.564 24.2538 115.591 24.4333 116.017 21.3234C116.239 19.6211 118.245 17.7284 119.037 16.3556C120.34 14.3622 121.595 12.1885 122.28 9.68542C123.396 5.90647 122.885 0.730046 117.882 0.43457C113.058 0.0905843 108.945 4.57981 106.927 8.60131C105.919 10.6121 105.366 12.8864 105.175 15.0637C105.091 15.4728 105.355 17.9136 105.043 18.191C104.484 18.6312 100.826 14.6886 100.093 14.1129C98.3993 12.8298 93.822 9.42445 91.8463 11.7922C89.7385 14.3887 93.5474 20.7063 94.6469 23.019C95.6022 24.7908 99.7895 30.7167 98.5345 32.8904C97.5437 34.6064 93.201 33.1669 91.7295 33.08C83.4888 32.5933 87.6703 39.5836 91.3646 42.9369C95.2692 46.7166 100.321 50.0908 98.0636 56.1093C95.3919 63.1089 91.627 69.6299 88.8412 76.5637C87.2322 80.6684 85.6231 84.7732 84.0141 88.878C84.5124 87.4878 83.9714 84.7348 83.8811 83.3098C83.8267 81.2954 83.6582 79.2152 83.3096 77.1834C82.8346 74.3161 81.8012 71.889 83.6627 69.4554C86.365 65.8292 97.3074 59.7912 94.4596 54.1811C93.1979 51.6222 91.5345 53.7126 89.4563 53.8856C85.7746 54.2005 86.3928 51.8118 88.0082 49.5411C90.5122 46.2582 92.6861 43.5473 94.0008 39.4251C95.1174 35.6462 94.0354 30.1403 88.8942 31.138C85.8492 31.668 80.7327 37.1036 81.6507 30.7694C82.2986 25.9572 87.2587 19.211 81.9306 15.5247C79.0954 13.5827 74.7468 13.2075 71.6478 14.6216C68.1224 16.2472 68.8498 20.7857 68.7663 24.0932C68.7424 25.4523 69.5777 28.2227 69.0314 29.4326C68.551 30.5281 69.1576 30.2682 67.9984 29.904C66.8391 29.5397 65.2471 27.5529 64.1719 26.7795C61.7451 24.9208 56.3029 21.1686 53.198 23.6471C49.5347 26.5658 53.9444 33.6878 55.7286 36.3959C57.5129 39.104 59.6575 41.715 61.8682 44.2116C62.9255 45.2797 65.4183 47.024 65.9831 48.4178C66.3857 49.5655 66.8301 49.0594 65.749 49.3505C64.7821 49.7074 62.2533 48.5525 61.1421 48.3686C58.8056 47.9348 52.631 46.5054 51.0458 49.2511C49.2624 52.34 55.8158 56.2762 57.6899 57.5107C63.8169 61.6583 73.7457 64.4924 77.4045 71.3335C79.3151 74.8772 79.2077 79.5439 79.5626 83.4097C79.8273 85.8506 80.0259 88.4058 80.1764 90.7808C80.2488 92.5005 81.1622 95.9261 80.5318 97.5451C76.6353 107.193 72.5585 116.89 67.7971 126.192C61.9127 137.438 54.887 148.025 47.0144 157.971C48.0469 154.601 48.4909 151.197 48.9348 147.792C49.2107 145.206 48.5012 140.372 49.7081 138.019C50.7168 136.008 54.2005 136.036 55.8279 134.535C57.7016 132.871 58.7944 130.451 58.4156 127.945C57.9406 125.077 58.3549 124.096 60.6069 122.04C62.925 119.87 68.6845 116.484 67.9691 112.715C66.7308 105.899 51.824 110.105 59.3484 101.026C61.192 98.8874 66.5008 94.173 64.2779 90.9066C62.1693 87.7062 55.0942 89.4178 51.9529 89.5872C46.8118 90.585 46.7875 89.0456 47.5617 85.069C48.3718 80.5029 49.2898 74.1687 45.121 70.8466C40.4956 67.2609 35.5472 71.8783 33.9202 76.2778C32.9717 79.2385 32.8881 82.5461 33.4111 85.5938C33.7117 87.4452 35.0395 89.8897 34.9316 91.6579C34.866 94.6708 30.1867 91.9692 28.0785 91.6673C24.3365 91.0322 18.4805 91.1596 19.9228 96.5684C21.4613 102.338 27.5222 106.6 31.6551 110.511C35.1212 113.733 33.3554 113.629 29.5294 113.403C27.1749 113.264 20.4418 112.274 20.16 115.925C19.9264 119.756 27.0203 123.547 29.6453 125.062C35.7422 128.735 46.5058 131.441 46.0326 140.168C45.4633 148.534 44.4977 157.586 40.9552 165.303C39.1777 167.328 37.5143 169.418 35.7368 171.442C29.2031 178.806 22.0027 185.479 14.6881 192.086C15.9849 188.258 16.8732 184.347 17.3531 180.353L17.4672 180.419C17.8577 180.797 26.5535 172.852 27.3762 171.954C31.2435 167.628 35.2789 162.483 35.4101 156.458C35.5836 151.677 32.2738 149.766 27.9437 151.994C26.4182 152.792 21.8481 157.017 22.4781 152.5C22.8861 149.685 25.8588 147.435 27.36 145.098C28.7952 142.876 29.6776 140.03 29.1367 137.277C28.5777 134.819 26.0125 131.355 23.2316 131.427C21.3337 131.551 18.7999 137.258 17.0579 135.795C15.9827 135.021 17.4596 131.145 17.6937 130.213C18.2639 127.644 18.7379 124.714 18.4252 122.093C17.9503 119.226 16.184 116.223 12.9228 117.391C9.30119 118.656 7.70429 123.53 7.14623 126.869C6.77418 129.095 6.69646 131.338 6.73286 133.647C6.72701 134.711 7.25587 136.694 6.90764 137.561C5.86296 140.161 1.43575 136.232 -0.342221 135.358C-5.85634 132.785 -6.20951 140.513 -4.2509 144.237C-2.76094 146.928 -1.20494 149.504 0.104847 152.243C1.60694 155.704 1.61322 157.538 -2.41093 157.655C-5.37198 157.776 -8.74146 157.813 -10.5549 160.427C-12.0382 162.469 -11.9056 165.139 -10.4938 167.174C-7.02144 172.23 2.22881 176.503 7.92895 177.963C10.7219 178.661 13.413 180.062 13.6897 183.272C13.8102 185.172 13.2099 187.266 12.9218 189.083C12.6698 190.31 12.4361 194.141 11.4993 194.973C7.10937 199.15 2.78552 203.213 -1.32806 207.702C-2.08472 208.486 -1.02747 209.554 -0.174646 209.131C7.98106 204.23 15.7881 197.297 23.0905 189.92Z" fill="#B49577"/>
</svg>
