<svg width="970" height="970" viewBox="0 0 970 970" fill="none" xmlns="http://www.w3.org/2000/svg">
<path d="M773.863 520.066C778.109 514.026 781.754 507.579 785.298 501.109C788.899 494.532 792.27 487.83 795.432 481.029C801.72 467.517 807.16 453.61 811.765 439.434C814.359 431.445 816.66 423.366 818.68 415.211C818.891 414.362 817.808 413.466 817.051 414.057C804.939 423.527 795.398 435.922 788.502 449.616C781.648 463.23 777.394 478.028 774.854 493.017C774.138 497.237 773.557 501.477 773.086 505.729C772.637 509.776 772.159 513.859 772.162 517.936C769.026 513.335 765.845 508.768 762.608 504.237C763.209 501.204 763.568 498.115 763.86 495.045C764.262 490.821 764.492 486.58 764.548 482.335C764.661 473.851 764.038 465.351 762.77 456.966C760.229 440.144 755.076 423.741 747.473 408.515C743.196 399.951 738.108 391.835 732.313 384.215C731.65 383.342 730.238 383.679 730.236 384.851C730.19 401.031 731.683 417.168 734.741 433.056C737.798 448.941 742.382 464.531 748.429 479.536C750.219 483.978 752.137 488.369 754.177 492.705C744.253 479.43 733.807 466.56 722.792 454.187C722.955 454.077 723.081 453.91 723.105 453.67C724.326 440.155 723.725 426.459 722.346 412.975C720.975 399.554 718.637 386.22 715.316 373.145C713.426 365.713 711.212 358.367 708.708 351.122C708.362 350.122 706.957 350.17 706.681 351.191C702.968 364.97 701.488 379.344 702.213 393.594C702.937 407.793 705.823 421.91 710.791 435.231C712.151 438.882 713.677 442.466 715.351 445.982C713.127 443.585 710.883 441.207 708.614 438.851C707.067 437.248 705.504 435.666 703.94 434.084C703.793 433.075 703.655 432.067 703.477 431.061C703.195 429.476 702.831 427.907 702.486 426.336C701.797 423.187 701.096 420.042 700.375 416.902C698.945 410.681 697.398 404.486 695.702 398.331C692.306 385.99 688.249 373.804 682.938 362.146C679.972 355.636 676.621 349.315 672.809 343.263C672.292 342.442 670.878 342.818 670.954 343.833C671.871 356.207 673.935 368.447 677.227 380.415C680.498 392.316 684.911 403.899 690.363 414.973C692.366 419.044 694.53 423.032 696.817 426.949C690.577 420.777 684.258 414.689 677.956 408.581C675.437 396.482 671.299 384.643 666.697 373.193C662.109 361.774 656.791 350.645 650.742 339.93C647.31 333.849 643.638 327.907 639.775 322.093C639.145 321.144 637.688 321.819 637.972 322.914C643.922 345.814 652.567 368.017 663.745 388.873C666.163 393.383 668.735 397.81 671.383 402.192C665.701 396.641 660.061 391.05 654.541 385.339C653.828 384.599 653.118 383.858 652.411 383.116C652.56 382.953 652.614 382.683 652.431 382.495C652.265 382.325 652.082 382.172 651.911 382.003C650.52 378.354 648.876 374.776 647.194 371.291C644.732 366.19 641.989 361.218 639.02 356.395C633.172 346.889 626.215 338.078 618.45 330.067C613.991 325.466 609.241 321.158 604.236 317.158C603.248 316.369 601.904 317.831 602.907 318.616C603.15 318.807 603.387 319.008 603.631 319.199C613.574 339.318 627.098 357.279 641.862 374.093C641.832 374.073 641.804 374.052 641.773 374.031C637.992 371.418 634.102 368.963 630.119 366.668C622.154 362.082 613.793 358.173 605.182 354.966C600.371 353.175 595.478 351.62 590.538 350.219C589.783 350.005 589.299 351.037 589.848 351.541C603.802 364.307 620.056 374.585 637.458 381.971C642.323 384.035 647.338 386.035 652.453 387.394C652.575 387.428 652.688 387.413 652.797 387.381C653.123 387.575 653.597 387.388 653.593 386.972C662.67 396.629 672.057 405.992 681.451 415.347C680.647 414.855 679.843 414.363 679.041 413.878C675.172 411.54 671.151 409.385 667.101 407.38C658.908 403.322 650.441 399.83 641.762 396.951C636.784 395.299 631.738 393.832 626.639 392.603C625.658 392.368 625.215 393.553 625.8 394.208C637.715 407.574 654.175 416.664 671.822 419.698C676.779 420.551 681.833 420.942 686.862 420.791C686.88 420.789 686.891 420.78 686.909 420.778C691.005 424.861 695.09 428.952 699.146 433.074C706.553 440.609 713.758 448.306 720.768 456.172C720.914 456.423 721.049 456.68 721.198 456.931C721.376 457.23 721.626 457.384 721.886 457.435C725.253 461.236 728.552 465.093 731.822 468.977C728.119 465.771 724.258 462.743 720.299 459.864C713.987 455.277 707.412 451.057 700.609 447.239C686.912 439.556 672.297 433.547 657.171 429.327C648.656 426.953 639.978 425.172 631.217 423.99C630.015 423.826 629.429 425.325 630.488 425.978C643.351 433.946 656.613 441.266 670.199 447.932C683.783 454.595 697.696 460.586 711.875 465.875C719.51 468.725 727.224 471.361 734.999 473.804C735.858 474.524 736.72 475.24 737.576 475.964C737.601 475.986 737.627 475.988 737.651 476.007C741.731 481.021 745.743 486.099 749.648 491.271C751.352 493.529 753.038 495.804 754.709 498.084C752.727 496.354 750.707 494.67 748.629 493.062C743.362 488.993 737.817 485.284 732.044 481.976C720.487 475.35 707.974 470.272 695.039 467.068C687.722 465.257 680.286 464.058 672.774 463.47C672.022 463.409 671.627 464.547 672.208 464.998C682.493 472.942 693.321 480.13 704.782 486.269C716.23 492.403 728.219 497.54 740.551 501.615C747.188 503.811 753.921 505.697 760.728 507.272C760.719 507.366 760.706 507.458 760.699 507.552C760.651 508.149 761.45 508.234 761.738 507.826C768.855 517.869 775.701 528.105 782.375 538.451C782.28 538.309 782.131 538.201 781.943 538.125C777.771 534.722 773.351 531.598 768.947 528.555C762.149 523.858 755.107 519.526 747.864 515.558C733.493 507.682 718.35 501.245 702.715 496.34C693.848 493.561 684.829 491.284 675.708 489.521C674.642 489.314 673.856 490.667 674.71 491.429C686.228 501.701 698.98 510.617 712.554 517.958C726.134 525.301 740.571 531.079 755.467 535.134C763.898 537.43 772.476 539.156 781.139 540.307C781.293 540.328 781.43 540.308 781.564 540.278C782.838 541.25 784.129 542.195 785.415 543.151C788.052 547.293 790.665 551.447 793.245 555.623C793.735 556.414 794.212 557.207 794.699 557.999C794.234 558.054 793.764 558.091 793.299 558.144C791.764 557.599 790.212 557.096 788.642 556.598C785.128 555.488 781.606 554.408 778.076 553.353C770.957 551.229 763.793 549.257 756.602 547.393C742.223 543.667 727.72 540.384 713.124 537.626C704.904 536.072 696.657 534.649 688.387 533.424C687.056 533.228 686.46 534.878 687.589 535.595C699.951 543.456 713.347 549.649 727.336 553.994C741.328 558.338 755.887 560.804 770.527 561.348C778.569 561.649 786.627 561.33 794.622 560.422C795.229 560.578 795.843 560.723 796.454 560.859C800.962 568.249 805.362 575.703 809.736 583.171C799.51 579.44 788.973 576.563 778.234 574.749C766.769 572.812 755.112 571.968 743.486 572.248C736.882 572.408 730.305 572.98 723.75 573.784C722.812 573.899 722.382 575.17 723.324 575.659C733.843 581.095 745.204 584.891 756.835 587.077C768.472 589.265 780.424 589.87 792.222 588.807C798.331 588.256 804.479 587.278 810.418 585.69C810.611 585.765 810.808 585.828 811.002 585.903C811.128 585.951 811.25 585.959 811.369 585.965C818.531 598.229 825.61 610.536 832.825 622.773C834.458 625.542 836.121 628.275 837.875 630.968C838.582 632.054 840.096 631.036 839.544 629.918C833.801 618.285 827.028 607.12 820.526 595.898C815.17 586.651 809.735 577.451 804.226 568.296C812.238 556.601 818.753 543.949 824.018 530.79C829.331 517.517 833.349 503.742 835.945 489.681C837.41 481.745 838.422 473.73 838.999 465.681C839.094 464.352 837.291 464.255 836.714 465.164C829.076 477.182 822.546 489.897 817.21 503.098C811.854 516.341 807.67 530.057 804.767 544.045C803.411 550.576 802.343 557.169 801.522 563.79C801.233 563.312 800.949 562.827 800.659 562.349C796.36 555.281 791.992 548.251 787.542 541.277C795.385 530.719 802.196 519.396 808.295 507.746C814.592 495.718 820.002 483.227 824.555 470.439C827.115 463.244 829.39 455.949 831.382 448.575C831.686 447.448 830.25 446.893 829.509 447.593C819.471 457.098 810.86 468.029 803.944 479.999C797.039 491.95 791.822 504.897 788.53 518.305C786.979 524.616 785.8 531.088 785.149 537.578C781.397 531.75 777.595 525.95 773.708 520.208C773.76 520.176 773.814 520.133 773.863 520.066Z" fill="#B49577"/>
<g filter="url(#filter0_f_475_116)">
<circle cx="485" cy="485" r="135" fill="#B49577"/>
</g>
<path d="M556.5 398L558.595 414.865C561.085 434.911 576.384 450.919 596.19 454.203L601 455L596.19 455.797C576.384 459.081 561.085 475.089 558.595 495.135L556.5 512L554.405 495.135C551.915 475.089 536.616 459.081 516.81 455.797L512 455L516.81 454.203C536.616 450.919 551.915 434.911 554.405 414.865L556.5 398Z" fill="#2E4630"/>
<defs>
<filter id="filter0_f_475_116" x="0" y="0" width="970" height="970" filterUnits="userSpaceOnUse" color-interpolation-filters="sRGB">
<feFlood flood-opacity="0" result="BackgroundImageFix"/>
<feBlend mode="normal" in="SourceGraphic" in2="BackgroundImageFix" result="shape"/>
<feGaussianBlur stdDeviation="175" result="effect1_foregroundBlur_475_116"/>
</filter>
</defs>
</svg>
