<svg width="134" height="250" viewBox="0 0 134 250" fill="none" xmlns="http://www.w3.org/2000/svg">
<path d="M113.777 87.0875C99.8826 94.945 86.3814 97.9571 74.3221 108.958C68.5546 114.196 64.2289 120.089 61.083 127.03C63.3114 117.339 65.933 107.648 68.9478 98.088C75.3707 93.7664 82.5801 89.5757 89.2651 85.9089C95.8191 82.242 103.684 80.2776 110.893 77.9204C116.005 76.087 120.331 74.5155 124.263 70.5867C127.409 67.4437 135.667 57.4908 133.701 52.1215C131.735 46.7522 126.754 53.0382 124.132 55.5265C118.234 61.1577 112.597 65.6103 105.519 69.4081C95.5569 74.3845 78.6477 81.1943 71.1761 91.802C72.7491 87.2184 74.3221 82.6349 76.1572 78.0513C80.3517 73.7297 87.8232 69.1461 92.5421 66.1341C99.0961 61.8125 107.485 62.7292 114.039 58.1456C120.593 53.693 131.604 41.7758 129.638 33.1325C128.589 28.549 127.016 33.2635 125.05 36.0136C120.593 42.4306 115.35 46.4903 108.534 50.4191C99.2272 55.7884 85.2016 62.7292 78.3855 72.5511C80.4828 67.1818 82.8422 61.9434 85.2016 56.7051C86.9057 54.7407 89.003 53.0382 91.2313 51.2048C95.1637 48.1928 97.1299 44.9188 98.7028 40.3353C100.276 36.1446 100.538 32.3468 104.208 29.4657C106.437 27.8942 108.665 27.3703 110.238 25.1441C111.942 22.7868 112.728 19.7747 114.17 17.4175C117.185 12.3101 121.642 6.15505 120.855 0C116.136 3.01205 114.17 8.77423 109.845 12.1792C106.174 15.1912 101.98 15.1912 98.4407 18.7271C94.1151 23.1797 91.2313 28.6799 89.2651 34.5731C86.9057 42.1687 84.9395 50.55 83.1044 58.4075C81.1382 62.7292 79.172 67.0508 77.3369 71.5034C77.468 69.1462 77.9923 66.9199 78.3855 64.5626C79.0409 60.5029 80.876 55.9193 80.876 51.8596C80.876 47.2761 77.7301 44.5259 76.5504 40.3353C74.191 30.2514 81.0071 20.8224 77.2058 10.2148C75.3707 13.0959 74.7153 16.7627 73.5356 19.7747C68.4235 31.9539 67.3748 40.7281 72.0937 53.1692C74.5842 59.3243 76.4193 65.6103 76.9436 72.2892V72.4201C73.5356 80.5396 70.5208 88.7899 67.7681 97.1713C68.1613 94.2902 69.21 91.9329 68.1613 88.528C66.5884 83.0278 66.9816 81.1943 67.1127 75.4322C67.5059 69.4081 65.0154 64.9555 60.952 60.7648C54.7912 54.7407 55.0534 50.8119 55.4466 41.9068C55.5777 33.3944 54.7912 25.0131 54.7912 16.5008C52.6939 21.3463 52.6939 26.8465 51.6453 31.692C48.4994 48.7166 46.0089 59.1933 55.5777 74.6464C60.2966 82.373 66.4573 90.8853 66.9816 100.052C64.4911 107.779 62.2627 115.506 60.4276 123.363C60.4276 122.97 60.2966 122.577 60.2966 122.184C59.2479 112.624 57.806 101.493 52.1696 93.7664C41.8143 79.8848 42.0765 59.5862 31.1969 46.0974C28.8375 50.681 30.5415 56.5741 31.5902 61.2886C34.9982 77.1346 35.2604 92.1949 44.567 105.815C49.1548 112.624 56.4952 121.399 58.9858 129.911C57.675 135.542 56.4953 141.173 55.5777 146.936C54.6601 144.316 53.8737 141.697 52.6939 139.209C50.0724 133.054 46.5332 130.566 42.3387 125.589C38.7995 121.53 39.7171 117.47 38.7995 112.493C36.7022 100.314 23.2011 93.6354 16.2539 84.3373C17.3025 87.8732 19.9241 90.3614 21.7592 93.7664C28.7064 105.946 26.6091 121.792 37.6198 132.006C42.4697 136.459 52.1696 142.221 55.3155 148.9C55.0534 150.602 54.6601 152.305 54.398 154.007C53.4804 159.639 52.6939 165.27 52.1696 171.032C51.5142 168.806 50.4656 166.841 49.417 164.615C47.3197 160.162 45.8778 155.055 43.3873 150.995C40.2414 145.495 34.3428 143.924 30.4104 139.34C20.0552 127.685 17.4336 109.874 5.89858 100.707C5.24318 106.207 5.37426 112.624 6.81613 117.863C8.38908 124.542 13.5012 130.042 17.1714 135.804C21.1038 142.221 24.5119 147.983 30.8037 152.305C39.4549 157.936 45.8778 164.091 51.2521 172.603C50.5967 178.497 50.2034 184.259 49.8102 190.152C49.0237 188.449 47.9751 186.878 46.6643 185.045C41.29 177.056 39.7171 168.413 31.0658 163.174C20.0552 156.627 11.0107 147.328 0 141.042C0.131079 146.15 4.19454 150.471 7.07829 154.4C12.1904 161.472 17.4336 169.591 24.6429 174.83C30.5415 178.889 38.1441 179.675 43.5184 184.39C46.14 186.747 47.5818 189.89 49.6791 192.64C49.2859 200.498 49.1548 208.486 49.2859 216.344C49.417 226.82 49.8102 237.821 50.8588 248.69C51.9075 249.083 52.9561 249.607 54.1358 250C52.825 239.654 51.7764 229.309 51.5142 218.701C51.2521 209.796 51.3831 200.891 51.9075 191.985C53.2183 190.807 55.1845 190.152 56.8885 189.366C66.064 185.437 75.7639 184.521 85.0706 181.902C101.456 177.449 111.024 165.401 120.331 152.174C108.927 159.639 93.7218 158.591 81.6625 165.27C70.5207 171.425 59.2479 180.461 51.9075 191.069C52.3007 185.045 52.6939 179.02 53.3493 172.996C55.3155 170.901 59.5101 169.984 62.0006 168.151C65.933 165.27 69.341 160.031 73.9288 158.46C77.9923 157.019 82.8422 158.984 87.0368 158.46C96.9988 157.412 115.088 145.364 116.792 134.756C111.418 135.673 107.223 139.602 102.635 142.221C90.5759 148.638 75.2396 146.674 64.6222 155.841C60.5587 159.508 55.9709 164.746 53.6115 170.377C54.2669 165.008 54.9223 159.508 55.7088 154.138C55.8399 153.614 55.8399 153.222 55.9709 152.698C57.5439 151.65 59.379 151.126 60.952 150.34C70.914 145.495 78.5166 141.435 89.3962 138.423C101.849 134.887 116.53 116.422 117.578 103.457C113.122 105.815 109.189 109.481 105.65 112.886C95.1637 122.97 80.6139 122.97 70.1275 133.447C66.8505 136.721 59.9033 143.662 56.6263 149.686C57.675 143.138 58.9858 136.59 60.4276 130.042C63.5735 127.423 67.3748 127.03 70.914 125.196C77.599 121.792 80.4828 115.244 86.1192 110.791C91.2313 106.862 96.6056 106.207 102.504 104.243C115.219 99.7905 131.735 89.0519 130.162 74.5155C125.312 79.3609 119.807 83.6826 113.777 87.0875Z" fill="#B49577"/>
</svg>
