<svg width="40" height="40" viewBox="0 0 40 40" fill="none" xmlns="http://www.w3.org/2000/svg">
<circle cx="20" cy="20" r="19.5" transform="matrix(-1 0 0 1 40 0)" stroke="#2E4630"/>
<path d="M24.0003 24.2112L24.0003 15.7912C24.0008 15.4588 23.9071 15.133 23.7302 14.8516C23.5532 14.5702 23.3001 14.3447 23.0003 14.2012C22.6446 14.0331 22.2488 13.9684 21.858 14.0144C21.4673 14.0604 21.0973 14.2152 20.7903 14.4612L15.6903 18.6712C15.4997 18.8364 15.3468 19.0406 15.242 19.2701C15.1372 19.4996 15.083 19.7489 15.083 20.0012C15.083 20.2534 15.1372 20.5027 15.242 20.7322C15.3468 20.9617 15.4997 21.166 15.6903 21.3312L20.7903 25.5412C21.0973 25.7872 21.4673 25.942 21.858 25.988C22.2488 26.0339 22.6446 25.9692 23.0003 25.8012C23.3001 25.6576 23.5532 25.4321 23.7302 25.1507C23.9071 24.8693 24.0008 24.5436 24.0003 24.2112Z" fill="#2E4630"/>
</svg>
