<svg width="1415" height="1179" viewBox="0 0 1415 1179" fill="none" xmlns="http://www.w3.org/2000/svg">
<path d="M1.00068 125C0.899074 247.183 12.2316 319.824 48.6409 430.37C153.284 748.088 365.924 816.375 614.104 839.636C800.449 857.101 921.633 802.355 1115.39 839.636C1217.55 859.292 1288.01 900.429 1354.08 1017.24C1385.84 1073.4 1414 1178 1414 1178" stroke="#785445" stroke-width="1.4"/>
<path d="M1.00068 0C0.899074 122.183 12.2316 194.824 48.6409 305.37C153.284 623.088 365.924 691.375 614.104 714.636C800.449 732.101 921.633 677.355 1115.39 714.636C1217.55 734.292 1288.01 775.429 1354.08 892.242C1385.84 948.402 1414 1053 1414 1053" stroke="#785445" stroke-width="1.4"/>
</svg>
