<svg width="29" height="25" viewBox="0 0 29 25" fill="none" xmlns="http://www.w3.org/2000/svg">
<path d="M25.4039 3.60916C21.4988 0.212638 15.1673 0.212638 11.2621 3.60916C10.3349 4.41008 9.59815 5.3668 9.09514 6.42309C8.59213 7.47938 8.33301 8.61392 8.33301 9.76003C8.33301 10.9061 8.59213 12.0407 9.09514 13.097C9.59815 14.1533 10.3349 15.11 11.2621 15.9109L18.3324 22.0618L25.4039 15.9109C26.3311 15.11 27.0679 14.1533 27.5709 13.097C28.0739 12.0407 28.333 10.9061 28.333 9.76003C28.333 8.61392 28.0739 7.47938 27.5709 6.42309C27.0679 5.3668 26.3311 4.41008 25.4039 3.60916ZM18.3324 12.6669C17.4973 12.6669 16.7136 12.3795 16.1223 11.8578C15.537 11.3392 15.2082 10.6364 15.2082 9.90371C15.2082 9.17101 15.537 8.46823 16.1223 7.94958C16.7123 7.42789 17.4973 7.14052 18.3324 7.14052C19.1674 7.14052 19.9525 7.42789 20.5425 7.94958C21.1278 8.46823 21.4565 9.17101 21.4565 9.90371C21.4565 10.6364 21.1278 11.3392 20.5425 11.8578C19.9525 12.3795 19.1674 12.6669 18.3324 12.6669Z" fill="#2E4630"/>
</svg>
