<svg width="89" height="89" viewBox="0 0 89 89" fill="none" xmlns="http://www.w3.org/2000/svg">
<path d="M65.9732 66.9342C65.9732 73.1756 64.2484 79.8475 61.23 85.228C76.9686 78.3409 88.1797 62.1993 88.1797 43.9054C88.1797 19.5852 68.5603 0 44.1978 0C42.0419 0 39.8859 0.215222 37.7299 0.430445C39.0235 3.874 40.1015 7.10234 41.6107 10.3307C43.1198 13.9895 45.0602 17.6482 47.0006 20.8766C49.1566 24.3201 51.3125 27.5485 53.8997 30.7768C56.4869 34.2204 58.6429 37.8791 60.5832 41.7531C64.0328 49.7164 66.1888 58.3253 65.9732 66.9342Z" fill="#2E4630"/>
<path d="M48.078 88.6719C48.2936 88.6719 48.5092 88.6719 48.7248 88.6719C52.1744 88.2415 55.6239 87.3806 58.8579 86.3045C60.7983 80.063 61.2295 73.6064 60.5827 67.3649C59.9359 59.6169 57.5643 52.0841 54.3304 44.7666C52.8212 41.1078 50.8808 37.8795 48.5092 34.4359C46.1377 30.9923 43.9817 27.3336 42.2569 23.4596C40.5321 19.5856 39.023 15.4963 38.1606 11.4071C37.5138 7.74833 37.0826 4.08955 36.867 0.645996C32.3394 1.29166 28.2431 2.79822 24.3623 4.52C26.3027 15.0659 29.3211 23.4596 37.945 34.8663C43.7661 41.9687 59.7203 66.2888 48.078 88.6719Z" fill="#2E4630"/>
<path d="M6.48499e-05 43.906C6.48499e-05 68.2261 19.835 88.8875 43.9819 88.8875H45.4911C45.9223 88.2418 46.1379 87.5961 46.5691 86.9505C46.1379 79.4177 37.9452 65.4282 32.1241 65.6435C24.7938 66.0739 22.4222 66.0739 18.9726 65.6435C15.5231 65.213 15.0919 61.1238 16.3855 60.2629C17.4634 59.6172 16.8167 57.8955 16.3855 57.2498C14.0139 56.1737 14.4451 54.2367 15.0919 53.3758C13.5827 52.7301 14.4451 50.3627 15.0919 49.717C15.7387 48.8561 15.5231 47.3496 13.5827 46.0582C12.0735 44.9821 12.5047 43.906 12.9359 43.4756C15.0919 41.1081 16.3855 39.6016 20.913 33.7906C19.835 26.2578 22.4222 16.1423 23.9314 11.8379C23.7158 9.68566 23.069 7.74866 22.6378 5.59644C9.27075 12.914 6.48499e-05 27.3339 6.48499e-05 43.906Z" fill="#2E4630"/>
</svg>
