<svg width="28" height="29" viewBox="0 0 28 29" fill="none" xmlns="http://www.w3.org/2000/svg">
<path d="M24.8453 14.1783C24.678 14.1899 24.5218 14.2477 24.4103 14.375L23.2948 15.5318L25.5816 17.8454L26.6971 16.6886C26.9425 16.4457 26.9425 16.0408 26.6971 15.7979L25.3138 14.375C25.2024 14.2551 25.0504 14.1846 24.89 14.1783M22.659 16.2027L15.9214 23.213V25.5961H18.2193L24.9792 18.5742M23.7298 4.77344H5.88187C5.29018 4.77344 4.72271 5.01719 4.30432 5.45108C3.88593 5.88497 3.65088 6.47345 3.65088 7.08706V20.9688C3.65088 21.5824 3.88593 22.1709 4.30432 22.6048C4.72271 23.0387 5.29018 23.2824 5.88187 23.2824H13.6904V22.2529L22.8821 12.7439C23.4063 12.177 24.1314 11.8647 24.89 11.8647C25.2692 11.8647 25.6485 11.9341 26.0055 12.0845V7.08706C26.0055 5.79143 24.9792 4.77344 23.7298 4.77344ZM23.7298 9.40069L14.8059 15.1847L5.88187 9.40069V7.08706L14.8059 12.8711L23.7298 7.08706" fill="#2E4630"/>
</svg>
