<svg width="37" height="37" viewBox="0 0 37 37" fill="none" xmlns="http://www.w3.org/2000/svg">
<path d="M28.0954 19.804L27.4186 20.4778C27.4186 20.4778 25.8079 22.0782 21.4128 17.7084C17.0177 13.3386 18.6285 11.7383 18.6285 11.7383L19.0539 11.3129C20.1054 10.2688 20.2051 8.59106 19.2874 7.3655L17.4134 4.86233C16.2771 3.34525 14.0832 3.14446 12.7818 4.43844L10.4467 6.75867C9.80271 7.4012 9.37138 8.23113 9.42344 9.15327C9.5573 11.5137 10.6252 16.5899 16.5805 22.5125C22.8972 28.792 28.8242 29.0419 31.247 28.8158C32.0145 28.7444 32.6808 28.3547 33.2177 27.8193L35.3298 25.7192C36.7576 24.3017 36.356 21.8699 34.5296 20.8779L31.6888 19.3326C30.49 18.6826 29.0324 18.873 28.0954 19.804Z" fill="#2E4630"/>
</svg>
