<svg width="266" height="328" viewBox="0 0 266 328" fill="none" xmlns="http://www.w3.org/2000/svg">
<path d="M235.903 194.734C231.736 203.682 225.835 218.778 228.388 229.87C226.967 236.073 226.356 242.256 226.794 247.978C221.203 237.644 215.114 227.383 208.657 217.381C207.539 209.121 208.115 201.319 209.5 193.497C210.845 192.281 212.503 191.119 213.479 190.161C223.095 182.33 236.557 179.204 237.541 164.537C238.433 151.306 231.189 133.908 223.351 123.503C220.2 127.629 218.889 133.206 216.935 137.863C213.505 146.295 208.75 154.01 206.572 162.661C204.652 171.68 203.263 184.985 204.804 195.416C204.175 200.79 204.227 205.96 204.721 211.369C196.461 198.793 187.593 186.917 177.86 175.374C177.474 174.822 177.032 174.583 176.645 174.032C174.883 164.852 174.262 156.518 174.451 148.163C175.059 147.464 175.667 146.764 176.404 146.247C184.142 138.087 194.053 129.5 198.681 118.859C202.24 110.611 198.965 106.328 195.618 98.8064C192.804 92.8296 192.919 86.7206 192.775 80.2438C180.707 92.8074 165.438 101.584 162.794 120.154C160.872 131.914 162.043 145.345 168.444 155.66C168.589 159.395 169.232 163.056 170.058 166.588C162.698 158.04 155.283 149.806 147.555 141.517C146.726 140.726 146.211 139.991 145.383 139.201C144.743 132.798 143.734 126.654 143.222 120.435C143.83 119.735 144.567 119.219 145.359 118.39C151.881 111.629 164.276 105.413 161.981 94.6885C160.512 87.4957 155.213 81.8899 153.136 75.3971C151.408 70.5783 152.184 66.198 152.076 61.3404C143.269 71.8945 129.338 90.4222 130.029 104.737C130.246 111.71 134.773 116.213 138.563 121.232C139.039 125.831 140.012 130.357 141.169 134.753C133.441 126.464 125.842 118.358 118.058 110.382C118.113 110.069 118.169 109.756 117.911 109.388C116.367 104.441 115.947 99.5281 116.023 94.5415C116.944 93.8964 117.865 93.2513 118.786 92.6061C126.578 86.8742 131.993 83.6292 131.134 72.9948C130.386 61.7346 125.181 51.9519 123.07 41.0982C120.452 46.7687 117.208 52.3295 113.707 57.5227C110.813 62.0158 105.048 66.3285 103.793 71.5926C102.15 79.0467 107.227 85.9039 111.422 92.2838C111.456 96.6447 111.803 101.06 112.96 105.457C106.134 98.4544 99.1225 91.5811 92.2956 84.5787C92.1668 84.3949 92.038 84.211 91.5963 83.9724C91.5963 83.9724 91.5963 83.9724 91.4675 83.7885C90.5106 82.8144 89.5537 81.8404 88.5969 80.8663C88.8039 73.3219 88.5137 65.8517 87.7818 58.1428C88.7582 57.1848 89.6792 56.5396 90.4714 55.7107C96.9935 48.9498 102.687 41.3988 100.963 31.0966C98.8338 19.4333 88.6945 9.2701 81.8872 0.335702C79.9506 5.80297 77.0018 10.609 74.9365 15.8925C71.2296 25.8884 67.1544 36.1423 73.3537 45.7767C76.076 50.4471 80.2344 55.2078 83.5272 60.3007C84.2233 66.3904 85.1035 72.3511 86.2968 78.3666C77.5007 69.729 68.5759 60.9076 59.7799 52.27C59.1735 50.2283 59.1197 47.7995 59.0104 45.6836C58.5556 36.4103 57.1602 29.7142 48.8043 24.057C34.1171 14.0649 15.7442 9.39494 0.577678 0.286623C0.887409 5.82478 5.81848 11.6886 8.41199 16.1751C13.1947 23.7872 17.8487 31.2153 24.2892 37.6661C33.0119 45.807 43.5603 49.1063 55.3068 50.1962C64.7468 59.753 74.4997 69.3646 83.9397 78.9215C79.0249 76.609 73.8705 74.7383 68.4765 73.3096C57.7683 59.9822 42.4144 56.4863 25.5118 56.2675C20.2091 56.145 14.7222 56.1517 9.36405 56.3421C22.4522 61.6993 24.4132 77.0429 35.8256 82.7516C45.9126 87.7444 53.1699 83.2091 61.8811 79.5737C62.7467 79.2415 63.7965 78.7802 64.6621 78.4479C73.3147 80.6087 82.2802 82.8244 90.5823 86.0528C90.7111 86.2367 90.8953 86.1077 90.8953 86.1077C97.4647 92.7423 104.163 99.5608 110.548 106.324C102.688 103.335 94.4033 100.916 86.0262 99.9323C78.5718 95.5619 70.7489 91.4497 62.4077 92.0854C55.0608 92.5726 48.2828 96.2241 41.4136 98.5693C35.6495 100.14 29.7388 100.718 24.2323 102.656C30.3436 105.501 36.639 108.217 42.4552 111.816C47.2592 114.755 52.081 118.502 57.7701 119.176C68.964 120.653 77.1993 112.418 86.1876 107.219C86.9244 106.703 87.79 106.37 88.5268 105.854C97.4745 107.26 106.256 109.605 115.166 112.133C115.479 112.188 115.792 112.243 115.976 112.114C124.275 120.826 132.518 129.85 140.633 138.691C135.736 137.188 130.857 136.495 125.739 136.244C118.191 133.309 109.668 131.332 102.083 129.519C85.2194 125.436 79.1196 134.368 65.637 142.167C62.1926 144.306 57.7913 145.471 54.2915 147.922C65.3371 151.147 77.2825 158.401 88.5693 158.443C100.482 158.594 114.314 152.468 122.42 144.049C123.765 142.833 124.852 141.25 126.326 140.217C132.696 140.688 138.956 141.785 145.049 143.82C153.108 152.973 161.168 162.127 169.043 171.41C162.341 170.075 155.4 169.181 148.422 169.411C138.279 164.731 129.407 161.08 117.639 164.664C108.781 167.306 99.9409 170.757 90.8433 173.841C84.7109 175.67 75.5041 176.638 70.604 180.618C77.8759 182.376 85.0924 184.447 91.9959 186.462C101.035 189.175 111.361 193.725 120.881 192.812C132.776 192.154 141.528 181.913 150.554 175.591C150.738 175.462 150.922 175.333 151.291 175.074C158.527 175.213 166.149 175.903 173.789 177.403C173.918 177.586 174.176 177.954 174.305 178.138C184.111 190.178 193.181 202.735 201.386 215.624C195.734 213.827 189.843 212.473 184.098 212.112C175.208 207.651 164.382 205.916 154.827 205.21C142.656 204.691 134.938 210.92 123.465 213.749C117.756 215.007 109.599 215.514 105.196 219.42C111.29 221.455 117.199 223.619 122.868 226.225C129.366 229.621 135.587 234.582 143.153 235.585C156.907 237.188 171.201 226.627 182.271 219.695C183.376 218.921 184.666 218.018 186.084 217.298C192.454 217.769 198.843 219.049 205.249 221.139C210.62 229.983 215.807 238.957 220.994 247.93C224.562 254.2 227.891 260.912 231.091 267.44C227.171 264.979 223.011 262.96 218.666 261.07C210.423 252.046 199.454 243.834 187.339 243.002C173.107 242.283 157.528 245.522 144.489 250.819C140.842 252.277 136.883 253.68 132.832 253.777C137.691 256.402 143.158 258.328 148.018 260.953C154.331 264.479 160.312 269.881 167.271 271.584C181.318 275.173 196.769 269.009 210.102 265.699C210.967 265.367 211.778 265.348 212.643 265.015C219.675 267.215 226.781 269.911 233.776 273.233C233.776 273.233 233.905 273.417 234.089 273.288C242.658 291.402 250.731 309.59 260.958 326.543C261.859 327.83 263.517 326.669 263.113 325.308C256.498 302.536 245.04 280.69 233.6 259.654C230.033 250.642 230.757 241.091 233.23 231.686C234.39 230.599 235.551 229.512 236.656 228.738C244.965 220.999 256.364 217.673 261.857 206.7C269.379 191.566 263.294 175.823 260.578 160.185C255.138 173.588 242.042 181.939 235.903 194.734Z" fill="#D1C5B7"/>
</svg>
