<svg width="40" height="40" viewBox="0 0 40 40" fill="none" xmlns="http://www.w3.org/2000/svg">
<circle cx="20" cy="20" r="20" fill="#2E4630"/>
<path d="M15.9997 24.2112L15.9997 15.7912C15.9992 15.4588 16.0929 15.133 16.2698 14.8516C16.4468 14.5702 16.6999 14.3447 16.9997 14.2012C17.3554 14.0331 17.7512 13.9684 18.142 14.0144C18.5327 14.0604 18.9027 14.2152 19.2097 14.4612L24.3097 18.6712C24.5003 18.8364 24.6532 19.0406 24.758 19.2701C24.8628 19.4996 24.917 19.7489 24.917 20.0012C24.917 20.2534 24.8628 20.5027 24.758 20.7322C24.6532 20.9617 24.5003 21.166 24.3097 21.3312L19.2097 25.5412C18.9027 25.7872 18.5327 25.942 18.142 25.988C17.7512 26.0339 17.3554 25.9692 16.9997 25.8012C16.6999 25.6576 16.4468 25.4321 16.2698 25.1507C16.0929 24.8693 15.9992 24.5436 15.9997 24.2112Z" fill="white"/>
</svg>
