<svg width="114" height="83" viewBox="0 0 114 83" fill="none" xmlns="http://www.w3.org/2000/svg">
<path d="M39.4281 82.5855C38.2644 82.5855 37.0866 82.5565 35.8946 82.4984C21.1718 81.7917 8.84001 76.9791 8.33355 76.7765C8.117 76.6914 7.91934 76.5645 7.75183 76.4031C7.58433 76.2416 7.45027 76.0488 7.3573 75.8355C7.26434 75.6222 7.21429 75.3927 7.21002 75.1601C7.20574 74.9275 7.24733 74.6963 7.3324 74.4797C7.41747 74.2632 7.54436 74.0656 7.70582 73.8981C7.86729 73.7306 8.06016 73.5964 8.27344 73.5035C8.48671 73.4105 8.71621 73.3605 8.94882 73.3562C9.18144 73.3519 9.41261 73.3935 9.62915 73.4786C9.74929 73.528 22.0081 78.2935 36.1608 78.9649C44.3679 79.3536 51.5926 78.3077 57.6396 75.8602C65.0952 72.8426 70.7982 67.6413 74.6002 60.4024C74.7085 60.197 74.8562 60.015 75.0348 59.8666C75.2134 59.7183 75.4196 59.6066 75.6414 59.5379C75.8632 59.4692 76.0963 59.4449 76.3275 59.4663C76.5587 59.4877 76.7835 59.5545 76.9889 59.6627C77.1943 59.771 77.3763 59.9187 77.5247 60.0973C77.673 60.2759 77.7847 60.4821 77.8534 60.7039C77.9221 60.9257 77.9464 61.1588 77.925 61.39C77.9036 61.6212 77.8368 61.8459 77.7285 62.0513C73.5308 70.0605 67.2059 75.8248 58.9328 79.1628C53.2628 81.4383 46.7235 82.5855 39.4281 82.5855Z" fill="white"/>
<path d="M25.9089 56.8853C25.5462 56.8849 25.1924 56.7731 24.8953 56.565C24.5982 56.3568 24.3723 56.0624 24.2482 55.7216L16.8091 35.251C16.2554 33.7033 16.2784 32.0078 16.8738 30.4757C17.4692 28.9435 18.597 27.6774 20.0505 26.9097C20.1265 26.8712 20.2053 26.8381 20.286 26.8107L28.6014 23.8615L29.7793 21.5411L29.824 21.4587C30.0721 21.0326 30.4187 20.6722 30.8349 20.4079C31.2511 20.1435 31.7247 19.9829 32.2158 19.9395C32.7069 19.8961 33.2013 19.9712 33.6574 20.1585C34.1135 20.3458 34.5179 20.6398 34.8368 21.0158C34.9594 21.1619 35.058 21.3265 35.1289 21.5035L35.5789 22.6295L35.8969 20.1466C35.9455 19.7002 36.1056 19.2733 36.3626 18.9051C36.6195 18.5368 36.965 18.2391 37.3671 18.0395C37.7693 17.8398 38.2153 17.7445 38.6639 17.7624C39.1126 17.7803 39.5495 17.9109 39.9345 18.142C40.2803 18.3649 40.6051 18.6188 40.905 18.9005L42.177 12.5167C42.2298 12.2531 42.3419 12.005 42.505 11.7913C42.6681 11.5776 42.8778 11.4039 43.1182 11.2835C43.3585 11.1631 43.6232 11.0992 43.892 11.0965C44.1608 11.0939 44.4266 11.1526 44.6693 11.2682C51.854 14.6886 60.0375 18.3351 61.6936 18.7003C61.9668 18.6225 62.5439 18.4011 63.0198 18.2291C66.7252 16.8158 75.4081 13.4801 86.6069 17.553C86.825 17.6322 87.0253 17.7536 87.1965 17.9102C87.3677 18.0669 87.5063 18.2556 87.6046 18.4659C87.7028 18.6761 87.7586 18.9036 87.7689 19.1354C87.7792 19.3672 87.7438 19.5988 87.6646 19.8168C87.5854 20.0349 87.464 20.2353 87.3074 20.4064C87.1507 20.5776 86.9619 20.7163 86.7517 20.8145C86.5415 20.9127 86.314 20.9686 86.0822 20.9788C85.8504 20.9891 85.6189 20.9537 85.4008 20.8745C75.4411 17.2515 67.9054 20.1396 64.2824 21.527C63.1211 21.9746 62.4191 22.2337 61.7666 22.2573C61.1753 22.2714 60.2849 22.2926 51.4418 18.3092C49.0861 17.2468 46.78 16.175 45.1993 15.4353L43.7035 22.9474C43.6381 23.2727 43.4825 23.573 43.2546 23.814C43.0267 24.0551 42.7356 24.2272 42.4145 24.3107C42.0935 24.3942 41.7554 24.3858 41.4389 24.2864C41.1224 24.1869 40.8403 24.0005 40.6247 23.7484C40.1535 23.1995 39.6447 22.6389 39.1995 22.1795L38.2125 29.8519C38.1625 30.2403 37.985 30.6011 37.7076 30.8777C37.4303 31.1542 37.0689 31.3308 36.6804 31.3796C36.2918 31.4284 35.898 31.3467 35.5609 31.1473C35.2238 30.948 34.9625 30.6423 34.818 30.2782L32.394 24.1959L31.4164 26.1064C31.211 26.5081 30.8595 26.8157 30.4341 26.9662L21.5793 30.0945C20.9106 30.4771 20.398 31.083 20.1314 31.8057C19.8647 32.5285 19.8611 33.3221 20.1211 34.0473L27.5603 54.5131C27.6398 54.7312 27.6755 54.9628 27.6654 55.1947C27.6552 55.4266 27.5994 55.6542 27.5012 55.8645C27.4029 56.0748 27.2641 56.2637 27.0928 56.4202C26.9214 56.5768 26.7208 56.698 26.5026 56.7769C26.3125 56.8473 26.1116 56.8839 25.9089 56.8853Z" fill="white"/>
<path d="M54.8925 14.2339C54.5379 14.2326 54.192 14.1246 53.8997 13.924C53.6074 13.7234 53.3821 13.4395 53.2533 13.1092C53.1245 12.7789 53.098 12.4174 53.1774 12.0719C53.2567 11.7263 53.4382 11.4126 53.6982 11.1716C62.1785 3.39797 72.0487 -0.267376 83.0213 0.262644C91.8879 0.693728 99.1786 3.82671 102.736 5.65705C103.152 5.87165 103.467 6.24302 103.61 6.68943C103.753 7.13584 103.712 7.62071 103.498 8.03743C103.283 8.45414 102.912 8.76856 102.465 8.91148C102.019 9.05439 101.534 9.01411 101.117 8.7995C97.8194 7.10108 91.0516 4.19186 82.8516 3.79376C72.8519 3.30378 63.8486 6.66762 56.0844 13.777C55.7587 14.0737 55.3331 14.2369 54.8925 14.2339Z" fill="white"/>
<path d="M10.5761 58.1903C7.65507 58.1903 4.55739 57.3729 1.32309 55.7428C1.10991 55.642 0.919048 55.4996 0.761765 55.3239C0.604482 55.1483 0.483956 54.9429 0.407286 54.7199C0.330616 54.4969 0.299356 54.2609 0.315347 54.0256C0.331339 53.7904 0.394259 53.5607 0.500399 53.3502C0.60654 53.1396 0.75375 52.9524 0.933359 52.7997C1.11297 52.6469 1.32134 52.5316 1.5462 52.4607C1.77105 52.3897 2.00784 52.3644 2.2426 52.3864C2.47737 52.4084 2.70537 52.4771 2.91315 52.5886C7.12034 54.7086 10.9435 55.1962 14.2791 54.042C19.3155 52.3012 21.6994 47.3166 21.723 47.2671C21.9198 46.8417 22.2775 46.5119 22.7175 46.3502C23.1575 46.1885 23.6438 46.2082 24.0692 46.405C24.4947 46.6018 24.8245 46.9595 24.9862 47.3995C25.1479 47.8395 25.1282 48.3257 24.9314 48.7512C24.8112 49.0103 21.9373 55.1115 15.4758 57.3658C13.9009 57.9158 12.2442 58.1945 10.5761 58.1903Z" fill="white"/>
<path d="M66.4544 20.5001C66.1228 20.5 65.7979 20.4066 65.5169 20.2305C65.236 20.0545 65.0102 19.8029 64.8654 19.5045C64.7207 19.2062 64.6628 18.8732 64.6985 18.5435C64.7341 18.2138 64.8618 17.9008 65.0669 17.6403L69.6675 11.8007C70.9008 10.2397 72.619 9.13395 74.5508 8.65822L80.2279 7.26606C81.9317 6.86198 83.7064 6.86198 85.4103 7.26606L95.3794 9.66409L111.162 2.06006C111.582 1.87626 112.056 1.86234 112.486 2.02124C112.915 2.18013 113.267 2.49946 113.466 2.91202C113.665 3.32458 113.696 3.79824 113.553 4.23333C113.409 4.66842 113.103 5.03103 112.698 5.24489L96.357 13.1222C95.9906 13.2988 95.5744 13.3429 95.1791 13.247L84.607 10.7053C83.4452 10.4308 82.2354 10.4308 81.0735 10.7053L75.42 12.0928C74.2555 12.3774 73.2183 13.0401 72.4707 13.9773L67.8701 19.8169C67.7031 20.0326 67.4883 20.2066 67.2427 20.3251C66.997 20.4437 66.7272 20.5035 66.4544 20.5001Z" fill="white"/>
<path d="M65.5756 59.7474C64.9032 59.7468 64.2437 59.5629 63.668 59.2155C63.0923 58.8681 62.6222 58.3703 62.3083 57.7757C62.0735 57.3288 61.9316 56.839 61.8911 56.3358C61.8506 55.8326 61.9124 55.3264 62.0727 54.8477C62.1196 54.709 62.1738 54.573 62.2353 54.4402L61.9314 54.5367C61.1002 54.8081 60.1999 54.7776 59.389 54.4506C58.578 54.1235 57.9084 53.5209 57.4981 52.7488L57.4604 52.6781C57.0395 51.8882 56.9174 50.9731 57.1164 50.1005C57.3154 49.2278 57.8222 48.4561 58.544 47.9268L56.7631 48.4356C55.7548 48.7484 54.6647 48.6608 53.7193 48.1909C52.7738 47.7211 52.0457 46.9051 51.6862 45.9125C51.3266 44.9199 51.3632 43.8269 51.7883 42.8606C52.2135 41.8942 52.9946 41.1288 53.9693 40.7232L81.4126 29.3878C82.4431 28.9403 83.2691 28.1236 83.7282 27.0982L85.3253 23.1713L85.3512 23.1101C85.5952 22.5633 85.6246 21.9448 85.4334 21.3774C85.2422 20.81 84.8446 20.3353 84.3195 20.0477L80.0086 17.7062C79.7982 17.5993 79.6113 17.4513 79.459 17.271C79.3067 17.0907 79.192 16.8817 79.1219 16.6563C79.0517 16.4309 79.0274 16.1938 79.0504 15.9589C79.0734 15.724 79.1432 15.496 79.2558 15.2885C79.3683 15.0811 79.5213 14.8983 79.7057 14.7509C79.8901 14.6036 80.1021 14.4946 80.3293 14.4306C80.5565 14.3665 80.7942 14.3486 81.0284 14.378C81.2626 14.4073 81.4886 14.4833 81.6929 14.6014L86.0037 16.9406C87.3081 17.6522 88.2979 18.8273 88.7777 20.2335C89.2575 21.6397 89.1923 23.1747 88.595 24.5352L87.0002 28.4574L86.979 28.5068C86.1621 30.3621 84.6721 31.8387 82.8095 32.6386L82.7836 32.6504L55.3214 43.9929C55.1868 44.0499 55.0791 44.1565 55.0209 44.2906C54.9626 44.4248 54.9581 44.5762 55.0083 44.7136C55.0585 44.8509 55.1596 44.9638 55.2907 45.0287C55.4218 45.0936 55.5728 45.1056 55.7125 45.0623L55.7714 45.0458L79.6435 38.238C80.0674 38.1284 80.5169 38.18 80.9048 38.3829C81.2928 38.5859 81.5916 38.9257 81.7433 39.3364C81.8949 39.7472 81.8887 40.1996 81.7258 40.606C81.5628 41.0124 81.2548 41.3438 80.8614 41.5359L60.6499 50.763C60.6104 50.7859 60.5809 50.8229 60.5675 50.8666C60.5593 50.8902 60.5563 50.9152 60.5587 50.9401C60.5612 50.9649 60.569 50.9888 60.5816 51.0103L60.6193 51.081C60.6398 51.1195 60.6733 51.1496 60.7138 51.166C60.7542 51.1823 60.7992 51.1839 60.8407 51.1705H60.8666L80.3078 45.0835C80.5243 44.9999 80.7552 44.9596 80.9873 44.9652C81.2194 44.9707 81.4481 45.022 81.6604 45.1159C81.8727 45.2099 82.0644 45.3447 82.2246 45.5127C82.3848 45.6808 82.5103 45.8787 82.594 46.0953C82.6776 46.3118 82.7178 46.5427 82.7123 46.7748C82.7067 47.0069 82.6555 47.2356 82.5615 47.4479C82.4676 47.6602 82.3328 47.8519 82.1647 48.0121C81.9967 48.1722 81.7987 48.2978 81.5822 48.3815L65.5238 55.87C65.5008 55.8807 65.4804 55.8961 65.4638 55.9151C65.4471 55.9342 65.4347 55.9566 65.4272 55.9808C65.4168 56.0037 65.4114 56.0286 65.4114 56.0537C65.4114 56.0789 65.4168 56.1039 65.4272 56.1268C65.4485 56.1681 65.4844 56.2 65.528 56.2161C65.5716 56.2322 65.6197 56.2315 65.6627 56.214L81.6482 50.518C82.0877 50.3706 82.5675 50.4019 82.9841 50.6051C83.4008 50.8083 83.7209 51.167 83.8754 51.6041C84.03 52.0411 84.0066 52.5214 83.8102 52.9413C83.6139 53.3612 83.2604 53.6872 82.826 53.8489L66.8311 59.5307C66.4278 59.6731 66.0033 59.7464 65.5756 59.7474Z" fill="white"/>
<path d="M84.0039 59.0927C83.9251 59.0932 83.8463 59.0877 83.7684 59.0762L72.1173 57.538C71.6528 57.4755 71.2322 57.231 70.9479 56.8584C70.6636 56.4858 70.539 56.0155 70.6015 55.551C70.6639 55.0865 70.9084 54.6658 71.281 54.3815C71.6537 54.0973 72.124 53.9727 72.5885 54.0351L83.3443 55.4485L94.1992 43.9317C94.9606 43.1223 95.5766 42.1875 96.0201 41.1686L98.6843 35.0439C99.972 32.1647 102.298 29.8768 105.198 28.6365L111.228 26.0453C111.659 25.861 112.145 25.8553 112.579 26.0293C113.014 26.2034 113.362 26.543 113.546 26.9734C113.73 27.4039 113.736 27.89 113.562 28.3247C113.388 28.7594 113.048 29.1071 112.618 29.2914L106.59 31.8826C104.506 32.7723 102.833 34.4151 101.907 36.4832L99.252 42.5867C98.6471 43.978 97.8045 45.2534 96.7621 46.3557L85.2878 58.532C85.1237 58.7086 84.9251 58.8495 84.7042 58.946C84.4833 59.0425 84.2449 59.0924 84.0039 59.0927Z" fill="white"/>
</svg>
