<svg width="105" height="100" viewBox="0 0 105 100" fill="none" xmlns="http://www.w3.org/2000/svg">
<path d="M34.9353 40.2812C34.6947 40.2814 34.4572 40.2273 34.2406 40.1228C34.0239 40.0184 33.8336 39.8663 33.6839 39.6779L32.5051 38.1857L32.4752 38.1452C30.4078 35.3694 29.2869 32.0028 29.2776 28.5417V7.65046C29.2854 5.8664 29.9886 4.15572 31.2377 2.8819C32.4869 1.60809 34.1835 0.871552 35.967 0.82884C36.8656 0.811806 37.7584 0.97573 38.5923 1.31083C39.4262 1.64592 40.1841 2.14538 40.821 2.77943C41.4828 3.43083 42.0091 4.2068 42.3695 5.06258C42.7298 5.91837 42.9172 6.83701 42.9208 7.76558V13.8475C42.9208 14.2715 42.7524 14.6782 42.4525 14.978C42.1527 15.2778 41.746 15.4463 41.322 15.4463C40.898 15.4463 40.4913 15.2778 40.1915 14.978C39.8917 14.6782 39.7232 14.2715 39.7232 13.8475V7.78265C39.7208 7.27862 39.6187 6.78003 39.4226 6.31572C39.2264 5.8514 38.9403 5.43057 38.5806 5.07747C38.2458 4.74162 37.8467 4.47673 37.4071 4.29872C36.9676 4.1207 36.4966 4.0332 36.0225 4.04141C35.0751 4.06469 34.1742 4.45615 33.5107 5.13274C32.8473 5.80933 32.4735 6.7178 32.4688 7.66539V28.5566C32.4741 31.3202 33.3638 34.0095 35.0077 36.2309L36.1717 37.6933C36.359 37.9287 36.4761 38.2122 36.5096 38.5112C36.543 38.8101 36.4914 39.1125 36.3607 39.3834C36.23 39.6544 36.0255 39.883 35.7707 40.0429C35.5159 40.2029 35.2212 40.2877 34.9204 40.2877L34.9353 40.2812Z" fill="white"/>
<path d="M68.1056 43.2659C67.8119 43.2658 67.5238 43.1848 67.2731 43.0317C67.0224 42.8787 66.8187 42.6596 66.6844 42.3983C66.55 42.1371 66.4902 41.844 66.5115 41.551C66.5329 41.258 66.6345 40.9766 66.8052 40.7376L70.054 36.197C71.6195 34.0165 72.4592 31.3988 72.4544 28.7145V15.924C72.4612 15.5767 72.3361 15.2397 72.1043 14.981C71.8724 14.7223 71.5512 14.561 71.2052 14.5298C71.0273 14.5216 70.8495 14.5493 70.6825 14.6112C70.5155 14.6731 70.3627 14.7679 70.2331 14.8901C70.1038 15.0127 70.001 15.1606 69.931 15.3244C69.861 15.4883 69.8252 15.6648 69.8259 15.843V20.3197C69.8259 20.7437 69.6575 21.1504 69.3576 21.4502C69.0578 21.75 68.6512 21.9185 68.2271 21.9185C67.8031 21.9185 67.3964 21.75 67.0966 21.4502C66.7967 21.1504 66.6283 20.7437 66.6283 20.3197V15.843C66.6218 15.2429 66.7351 14.6475 66.9615 14.0916C67.1879 13.5358 67.5229 13.0307 67.9469 12.606C68.3709 12.1812 68.8753 11.8453 69.4307 11.6178C69.9861 11.3904 70.5813 11.276 71.1815 11.2814C71.7816 11.2868 72.3747 11.4119 72.9259 11.6492C73.4771 11.8866 73.9754 12.2315 74.3917 12.6638C74.808 13.0962 75.1339 13.6072 75.3503 14.167C75.5667 14.7267 75.6693 15.3241 75.652 15.924V28.7145C75.6583 32.0657 74.6096 35.3339 72.6548 38.0559L69.406 42.5965C69.2585 42.8039 69.0634 42.9728 68.8372 43.0893C68.6109 43.2058 68.3601 43.2663 68.1056 43.2659Z" fill="white"/>
<path d="M19.1903 82.7308C18.8028 82.731 18.4283 82.5907 18.1364 82.3359C17.8445 82.081 17.655 81.729 17.6029 81.345C17.5508 80.961 17.6398 80.5712 17.8533 80.2478C18.0668 79.9244 18.3904 79.6894 18.7639 79.5865C21.3743 78.8843 23.7442 77.4844 25.619 75.5371C27.4939 73.5897 28.803 71.1685 29.4056 68.5333L30.107 65.6107C30.4821 63.9781 31.2033 62.4449 32.2217 61.1148L43.9122 45.8024C44.2329 45.3799 44.3897 44.8556 44.3538 44.3264C44.3178 43.7972 44.0916 43.2989 43.7168 42.9236C43.342 42.5483 42.844 42.3213 42.3149 42.2847C41.7857 42.248 41.2612 42.4041 40.8382 42.7242L29.0731 51.6775C28.906 51.8046 28.7154 51.8976 28.5124 51.951C28.3093 52.0045 28.0978 52.0174 27.8897 51.9891C27.6817 51.9608 27.4812 51.8918 27.2998 51.7861C27.1185 51.6803 26.9597 51.5398 26.8326 51.3727C26.7055 51.2056 26.6126 51.0151 26.5591 50.812C26.5056 50.609 26.4927 50.3974 26.521 50.1893C26.5493 49.9813 26.6183 49.7809 26.7241 49.5995C26.8299 49.4181 26.9703 49.2593 27.1375 49.1322L38.9005 40.1789C39.9387 39.3864 41.2293 38.9979 42.5324 39.0854C43.8356 39.1728 45.0627 39.7304 45.9857 40.6545C46.9087 41.5785 47.4649 42.8062 47.5509 44.1094C47.6369 45.4127 47.2469 46.7029 46.4533 47.7402L34.7627 63.0526C34.0198 64.0258 33.4936 65.1465 33.2193 66.3398L32.5265 69.2731C31.7935 72.4704 30.2038 75.4078 27.9279 77.7701C25.652 80.1323 22.7759 81.8303 19.6081 82.6818C19.4716 82.7166 19.3311 82.733 19.1903 82.7308Z" fill="white"/>
<path d="M2.31952 99.9705C1.89549 99.9705 1.48883 99.8021 1.18899 99.5022C0.889153 99.2024 0.720703 98.7958 0.720703 98.3717V91.9466C0.721107 89.6031 0.92726 87.2641 1.33678 84.9566L4.32124 68.1626C4.81135 65.3247 5.91022 62.6266 7.54232 60.2538L17.2162 46.1394C17.7771 45.3186 18.1518 44.3852 18.3141 43.4044C18.3263 43.3286 18.3441 43.2538 18.3674 43.1806L21.7313 32.573C21.962 31.2969 22.4807 30.0903 23.248 29.0449C24.0152 27.9995 25.0108 27.1428 26.1589 26.5401L30.0387 24.1099C30.3983 23.8837 30.833 23.8097 31.2472 23.904C31.6613 23.9984 32.0211 24.2534 32.2472 24.613C32.4734 24.9726 32.5474 25.4072 32.4531 25.8214C32.3587 26.2356 32.1037 26.5954 31.7441 26.8215L27.794 29.2836C27.7561 29.3084 27.717 29.3312 27.6767 29.3519C26.9395 29.7316 26.3011 30.2781 25.8122 30.9479C25.3233 31.6178 24.9975 32.3925 24.8607 33.2104C24.8485 33.2862 24.8307 33.361 24.8074 33.4342L21.4456 44.0418C21.1955 45.4418 20.6513 46.7729 19.8489 47.9472L10.175 62.0615C8.80287 64.058 7.87861 66.3276 7.46558 68.7147L4.48112 85.5151C4.10387 87.6381 3.91412 89.7903 3.91407 91.9466V98.3717C3.91407 98.795 3.74622 99.201 3.4473 99.5007C3.14839 99.8004 2.74281 99.9694 2.31952 99.9705Z" fill="white"/>
<path d="M10.2092 60.9593C9.97217 60.9589 9.73816 60.906 9.52406 60.8043C9.30995 60.7025 9.12106 60.5546 8.971 60.3711C8.82094 60.1876 8.71344 59.9731 8.65625 59.7431C8.59905 59.513 8.59359 59.2732 8.64024 59.0408L12.2813 40.8335C12.7076 37.8277 16.6087 35.4721 18.4826 34.7792L21.968 33.3574C22.3609 33.1974 22.8013 33.2 23.1923 33.3647C23.5833 33.5294 23.8928 33.8427 24.0528 34.2356C24.2128 34.6286 24.2102 35.069 24.0455 35.46C23.8808 35.851 23.5675 36.1605 23.1745 36.3205L19.6635 37.7509L19.606 37.7744C17.745 38.4501 15.5684 40.2898 15.4448 41.2875C15.4405 41.3283 15.4341 41.3689 15.4256 41.409L11.7739 59.6803C11.7006 60.0413 11.5048 60.3658 11.2197 60.5989C10.9345 60.832 10.5775 60.9593 10.2092 60.9593Z" fill="white"/>
<path d="M24.2766 99.9703C23.8525 99.9703 23.4459 99.8019 23.146 99.502C22.8462 99.2022 22.6777 98.7955 22.6777 98.3715V92.6499C22.676 91.8666 22.8518 91.0932 23.1918 90.3876C23.5319 89.6821 24.0274 89.0627 24.6411 88.5761L30.6249 83.8116C30.8999 83.5984 31.1749 83.3853 31.4457 83.1721C33.6776 81.4518 35.2828 80.2068 35.3958 76.3846C35.4074 75.9606 35.587 75.5585 35.895 75.2668C36.203 74.9752 36.6143 74.8179 37.0383 74.8295C37.4623 74.841 37.8644 75.0206 38.1561 75.3287C38.4477 75.6367 38.605 76.048 38.5934 76.472C38.4463 81.8014 35.7646 83.8799 33.3984 85.7046C33.1404 85.905 32.8782 86.1054 32.6181 86.3143L26.6322 91.0788C26.3956 91.267 26.2047 91.5063 26.0736 91.7787C25.9426 92.0512 25.8748 92.3497 25.8754 92.652V98.3736C25.8748 98.7973 25.7061 99.2034 25.4064 99.5028C25.1066 99.8022 24.7002 99.9703 24.2766 99.9703Z" fill="white"/>
<path d="M52.096 99.5441C49.7589 99.5452 47.4465 99.0667 45.3017 98.1382C43.157 97.2098 41.2256 95.851 39.627 94.1462C38.0284 92.4413 36.7967 90.4266 36.0081 88.2265C35.2194 86.0265 34.8906 83.6881 35.042 81.3559L36.5342 56.7064C36.5596 56.2824 36.7525 55.8858 37.0703 55.604C37.3881 55.3221 37.8049 55.1781 38.2289 55.2035C38.653 55.229 39.0495 55.4218 39.3314 55.7397C39.6132 56.0575 39.7573 56.4743 39.7318 56.8983L38.2396 81.5563C38.1247 83.4468 38.3978 85.3408 39.0422 87.1217C39.6866 88.9027 40.6886 90.533 41.9865 91.9123C43.2845 93.2915 44.851 94.3906 46.5895 95.1418C48.3281 95.8931 50.2021 96.2806 52.096 96.2806C53.99 96.2806 55.8639 95.8931 57.6025 95.1418C59.3411 94.3906 60.9075 93.2915 62.2055 91.9123C63.5035 90.533 64.5055 88.9027 65.1498 87.1217C65.7942 85.3408 66.0673 83.4468 65.9524 81.5563L64.247 54.9797C64.233 54.7697 64.2605 54.5591 64.3279 54.3597C64.3953 54.1604 64.5014 53.9763 64.6399 53.818C64.7785 53.6596 64.9469 53.5301 65.1355 53.4368C65.3241 53.3435 65.5293 53.2883 65.7392 53.2743C65.9492 53.2603 66.1599 53.2878 66.3592 53.3552C66.5585 53.4226 66.7426 53.5287 66.901 53.6672C67.0594 53.8058 67.1889 53.9742 67.2822 54.1628C67.3754 54.3514 67.4307 54.5566 67.4447 54.7665L69.1501 81.341C69.3014 83.6732 68.9726 86.0116 68.184 88.2116C67.3953 90.4116 66.1636 92.4264 64.565 94.1313C62.9665 95.8362 61.0351 97.1948 58.8903 98.1233C56.7456 99.0518 54.4331 99.5302 52.096 99.5291V99.5441Z" fill="white"/>
<path d="M68.1908 18.7507C67.7668 18.7507 67.3601 18.5822 67.0603 18.2824C66.7605 17.9825 66.592 17.5759 66.592 17.1518V14.1503C66.6025 13.7682 66.5362 13.3879 66.3972 13.0318C66.2582 12.6757 66.0492 12.3511 65.7826 12.0772C65.516 11.8032 65.1972 11.5854 64.8451 11.4368C64.4929 11.2881 64.1145 11.2115 63.7323 11.2115C63.35 11.2115 62.9716 11.2881 62.6195 11.4368C62.2673 11.5854 61.9485 11.8032 61.682 12.0772C61.4154 12.3511 61.2064 12.6757 61.0674 13.0318C60.9283 13.3879 60.8621 13.7682 60.8725 14.1503V17.1518C60.8725 17.5759 60.7041 17.9825 60.4042 18.2824C60.1044 18.5822 59.6977 18.7507 59.2737 18.7507C58.8497 18.7507 58.443 18.5822 58.1432 18.2824C57.8433 17.9825 57.6749 17.5759 57.6749 17.1518V14.1503C57.6598 13.3453 57.8053 12.5454 58.1029 11.7972C58.4006 11.0491 58.8443 10.3677 59.4083 9.79307C59.9723 9.21842 60.6452 8.76198 61.3876 8.45037C62.13 8.13876 62.9271 7.97827 63.7323 7.97827C64.5374 7.97827 65.3345 8.13876 66.077 8.45037C66.8194 8.76198 67.4922 9.21842 68.0562 9.79307C68.6202 10.3677 69.064 11.0491 69.3616 11.7972C69.6592 12.5454 69.8048 13.3453 69.7896 14.1503V17.1518C69.7896 17.5759 69.6212 17.9825 69.3214 18.2824C69.0215 18.5822 68.6149 18.7507 68.1908 18.7507Z" fill="white"/>
<path d="M59.2737 16.4056C58.8497 16.4056 58.443 16.2371 58.1432 15.9373C57.8433 15.6375 57.6749 15.2308 57.6749 14.8068V11.8053C57.6749 11.0465 57.3735 10.3189 56.837 9.78238C56.3005 9.24587 55.5728 8.94446 54.8141 8.94446C54.0553 8.94446 53.3277 9.24587 52.7912 9.78238C52.2547 10.3189 51.9532 11.0465 51.9532 11.8053V14.8068C51.9532 15.2308 51.7848 15.6375 51.485 15.9373C51.1851 16.2371 50.7785 16.4056 50.3544 16.4056C49.9304 16.4056 49.5238 16.2371 49.2239 15.9373C48.9241 15.6375 48.7556 15.2308 48.7556 14.8068V11.8053C48.7556 10.1985 49.3939 8.65747 50.5301 7.52129C51.6663 6.38511 53.2073 5.74683 54.8141 5.74683C56.4209 5.74683 57.9619 6.38511 59.098 7.52129C60.2342 8.65747 60.8725 10.1985 60.8725 11.8053V14.8068C60.8725 15.2308 60.7041 15.6375 60.4042 15.9373C60.1044 16.2371 59.6977 16.4056 59.2737 16.4056Z" fill="white"/>
<path d="M50.3542 14.487C49.9302 14.487 49.5235 14.3186 49.2237 14.0187C48.9239 13.7189 48.7554 13.3122 48.7554 12.8882V9.81424C48.7548 9.02778 48.4423 8.27362 47.8864 7.7173C47.3305 7.16099 46.5766 6.84793 45.7901 6.8468C44.1061 6.8468 42.9293 8.27936 42.9293 10.3301C42.9293 10.7541 42.7609 11.1608 42.461 11.4606C42.1612 11.7605 41.7545 11.9289 41.3305 11.9289C40.9065 11.9289 40.4998 11.7605 40.2 11.4606C39.9001 11.1608 39.7317 10.7541 39.7317 10.3301C39.7317 6.52066 42.3367 3.64917 45.7901 3.64917C47.4235 3.65423 48.9884 4.30546 50.1431 5.46059C51.2979 6.61572 51.9485 8.18092 51.953 9.81424V12.8882C51.953 13.3122 51.7846 13.7189 51.4848 14.0187C51.1849 14.3186 50.7782 14.487 50.3542 14.487Z" fill="white"/>
<path d="M39.8361 36.8704C39.4121 36.8828 39.0005 36.7263 38.6918 36.4353C38.3832 36.1442 38.2028 35.7425 38.1904 35.3185C38.1779 34.8944 38.3345 34.4828 38.6255 34.1742C38.9165 33.8656 39.3183 33.6852 39.7423 33.6728C42.4049 33.5129 49.4333 32.2551 49.9747 28.435C49.9976 28.2215 50.0632 28.0149 50.1676 27.8273C50.2721 27.6397 50.4133 27.4751 50.5827 27.3432C50.7522 27.2114 50.9465 27.1151 51.154 27.0599C51.3615 27.0048 51.578 26.992 51.7906 27.0224C52.0031 27.0528 52.2074 27.1257 52.3911 27.2367C52.5749 27.3477 52.7345 27.4946 52.8602 27.6686C52.986 27.8426 53.0754 28.0401 53.1232 28.2495C53.171 28.4588 53.1761 28.6756 53.1383 28.887C52.1129 36.0667 40.4223 36.8363 39.9214 36.8661L39.8361 36.8704Z" fill="white"/>
<path d="M43.1575 73.6581C42.8415 73.6578 42.5326 73.5639 42.2699 73.3882C42.0073 73.2125 41.8026 72.9628 41.6817 72.6709C41.5608 72.3789 41.5291 72.0577 41.5907 71.7477C41.6523 71.4378 41.8043 71.153 42.0276 70.9294C44.6756 68.2814 48.2515 66.7701 51.9959 66.7163C55.7403 66.6626 59.3582 68.0707 62.0811 70.6416C62.3789 70.9352 62.5498 71.3337 62.5573 71.7519C62.5647 72.17 62.408 72.5744 62.1208 72.8784C61.8335 73.1823 61.4387 73.3617 61.0208 73.3779C60.6029 73.3941 60.1953 73.246 59.8854 72.9652C57.7674 70.9663 54.9536 69.8717 52.0415 69.9139C49.1295 69.956 46.3486 71.1317 44.2894 73.1912C43.9889 73.4906 43.5817 73.6586 43.1575 73.6581Z" fill="white"/>
<path d="M30.8849 44.3317C30.7408 44.3308 30.5974 44.3107 30.4586 44.272C30.0506 44.1563 29.7052 43.8835 29.4982 43.5134C29.2912 43.1433 29.2394 42.7062 29.3543 42.298L31.2409 35.6128C31.356 35.2046 31.6285 34.8588 31.9985 34.6515C32.3685 34.4443 32.8057 34.3924 33.2139 34.5075C33.6221 34.6225 33.9679 34.895 34.1752 35.265C34.3824 35.635 34.4342 36.0722 34.3192 36.4804L32.4326 43.1677C32.3375 43.5043 32.1346 43.8004 31.855 44.0107C31.5755 44.2209 31.2347 44.3337 30.8849 44.3317Z" fill="white"/>
<path d="M85.8056 82.7309C85.6615 82.731 85.5181 82.7117 85.3793 82.6734C82.2085 81.8197 79.3302 80.1185 77.0535 77.7523C74.7767 75.3862 73.1875 72.4445 72.4566 69.2433L71.7637 66.3505C71.4902 65.1517 70.9624 64.0256 70.2161 63.0484L58.5319 47.7424C57.7383 46.7051 57.3483 45.4149 57.4343 44.1116C57.5203 42.8084 58.0765 41.5807 58.9995 40.6566C59.9225 39.7326 61.1496 39.175 62.4528 39.0876C63.7559 39.0001 65.0465 39.3886 66.0847 40.1811L77.8478 49.1344C78.1853 49.3911 78.407 49.7713 78.4642 50.1915C78.5214 50.6117 78.4093 51.0374 78.1526 51.3749C77.8959 51.7124 77.5157 51.9342 77.0955 51.9913C76.6753 52.0485 76.2496 51.9364 75.9121 51.6797L64.147 42.7264C63.724 42.4063 63.1995 42.2502 62.6703 42.2868C62.1412 42.3235 61.6432 42.5505 61.2684 42.9258C60.8936 43.3011 60.6674 43.7994 60.6314 44.3286C60.5955 44.8578 60.7523 45.3821 61.073 45.8046L72.7635 61.117C73.7853 62.4512 74.508 63.9896 74.8825 65.6278L75.5753 68.5206C76.1768 71.1586 77.4857 73.5829 79.3614 75.533C81.2371 77.483 83.6086 78.8851 86.2213 79.5887C86.594 79.6914 86.917 79.9255 87.1305 80.2478C87.3441 80.57 87.4338 80.9587 87.3831 81.3419C87.3325 81.7252 87.1448 82.0772 86.8549 82.3329C86.5649 82.5886 86.1922 82.7307 85.8056 82.733V82.7309Z" fill="white"/>
<path d="M102.674 99.9705C102.25 99.9705 101.843 99.8021 101.543 99.5022C101.244 99.2024 101.075 98.7958 101.075 98.3717V91.9466C101.075 89.7903 100.885 87.6382 100.508 85.5151L97.5237 68.7211C97.1128 66.3314 96.1884 64.0593 94.8142 62.0615L85.1382 47.9557C84.3365 46.7813 83.7931 45.4502 83.5436 44.0503L80.1797 33.4427C80.1565 33.3695 80.1387 33.2947 80.1264 33.2189C79.9898 32.4012 79.6644 31.6267 79.1759 30.9568C78.6874 30.287 78.0493 29.7404 77.3125 29.3604C77.2716 29.3398 77.2317 29.317 77.1931 29.2922L73.2558 26.83C73.0777 26.718 72.9235 26.5721 72.8019 26.4005C72.6802 26.2289 72.5936 26.035 72.5468 25.83C72.5001 25.6249 72.4943 25.4126 72.5296 25.2053C72.5649 24.9979 72.6407 24.7996 72.7527 24.6215C72.8647 24.4435 73.0106 24.2892 73.1822 24.1676C73.3538 24.046 73.5477 23.9593 73.7527 23.9126C73.9578 23.8659 74.1701 23.86 74.3774 23.8953C74.5848 23.9306 74.7831 24.0064 74.9612 24.1184L78.8431 26.5486C79.9913 27.1514 80.9869 28.008 81.7541 29.0534C82.5214 30.0988 83.0401 31.3054 83.2708 32.5815L86.6304 43.1806C86.6547 43.2535 86.6725 43.3284 86.6837 43.4044C86.8477 44.3851 87.2231 45.3183 87.7837 46.1395L97.4576 60.2538C99.0887 62.6287 100.187 65.328 100.679 68.1669L103.663 84.9566C104.073 87.2641 104.279 89.6031 104.279 91.9466V98.3717C104.279 98.5822 104.238 98.7906 104.157 98.985C104.076 99.1794 103.958 99.356 103.809 99.5045C103.66 99.6531 103.483 99.7707 103.288 99.8507C103.093 99.9306 102.885 99.9714 102.674 99.9705Z" fill="white"/>
<path d="M94.7845 60.9592C94.4162 60.9592 94.0592 60.8319 93.774 60.5988C93.4888 60.3657 93.2931 60.0411 93.2198 59.6802L89.5681 41.4217C89.5596 41.3816 89.5532 41.341 89.5489 41.3002C89.4274 40.3025 87.2487 38.4628 85.3877 37.7871L85.3302 37.7636L81.8192 36.3332C81.6246 36.254 81.4475 36.1372 81.2981 35.9895C81.1487 35.8419 81.0298 35.6663 80.9482 35.4727C80.7835 35.0817 80.7809 34.6413 80.9409 34.2483C81.1009 33.8554 81.4104 33.5421 81.8014 33.3774C82.1924 33.2127 82.6328 33.2101 83.0257 33.3701L86.5111 34.7919C88.3849 35.4848 92.2925 37.8403 92.7146 40.8461L96.3556 59.0535C96.4019 59.286 96.3961 59.5259 96.3386 59.7559C96.2811 59.9859 96.1734 60.2004 96.0232 60.3838C95.873 60.5673 95.684 60.7151 95.4698 60.8168C95.2556 60.9185 95.0216 60.9716 94.7845 60.972V60.9592Z" fill="white"/>
<path d="M80.7169 99.9703C80.2928 99.9703 79.8862 99.8018 79.5863 99.502C79.2865 99.2021 79.1181 98.7955 79.1181 98.3714V92.6498C79.1191 92.3474 79.0515 92.0487 78.9204 91.7762C78.7893 91.5037 78.5982 91.2645 78.3613 91.0766L72.3753 86.3121C71.9618 85.9817 71.5226 85.6726 71.0472 85.3294C68.6597 83.624 65.6859 81.4922 65.5494 76.4698C65.5378 76.0458 65.6952 75.6345 65.9868 75.3265C66.2785 75.0184 66.6805 74.8388 67.1046 74.8273C67.5286 74.8157 67.9398 74.973 68.2479 75.2646C68.5559 75.5563 68.7355 75.9584 68.7471 76.3824C68.8409 79.8188 70.7275 81.1661 72.9082 82.7265C73.3922 83.0719 73.891 83.43 74.3706 83.8115L80.3545 88.576C80.9686 89.0623 81.4643 89.6816 81.8044 90.3872C82.1445 91.0929 82.32 91.8665 82.3178 92.6498V98.3714C82.3178 98.5816 82.2764 98.7897 82.1959 98.9838C82.1154 99.1779 81.9975 99.3542 81.8488 99.5027C81.7001 99.6512 81.5236 99.7689 81.3294 99.8492C81.1351 99.9294 80.927 99.9705 80.7169 99.9703Z" fill="white"/>
<path d="M74.1085 44.3317C73.7603 44.3314 73.4216 44.2177 73.1439 44.0076C72.8661 43.7976 72.6644 43.5027 72.5694 43.1677L70.6828 36.4804C70.6258 36.2783 70.6092 36.0669 70.6339 35.8584C70.6586 35.6499 70.7242 35.4482 70.8268 35.265C71.0341 34.895 71.3799 34.6225 71.7881 34.5075C72.1963 34.3924 72.6335 34.4443 73.0035 34.6515C73.3735 34.8588 73.646 35.2046 73.761 35.6128L75.6476 42.298C75.7625 42.7062 75.7108 43.1433 75.5038 43.5134C75.2968 43.8834 74.9514 44.1563 74.5434 44.272C74.4018 44.3115 74.2555 44.3316 74.1085 44.3317Z" fill="white"/>
</svg>
