<svg width="233" height="364" viewBox="0 0 233 364" fill="none" xmlns="http://www.w3.org/2000/svg">
<path d="M18.4451 231.36C24.6654 235.735 30.3186 241.641 33.6384 248.663C33.2379 244.2 32.641 239.69 31.8479 235.134C29.9672 233.444 29.0568 231.149 28.1464 228.854C26.1295 224.219 22.8995 220.339 20.8825 215.703C18.8655 211.068 21.1118 203.273 27.2885 204.309C40.8195 206.657 41.1023 228.363 35.0098 237.542C35.5849 240.382 35.9174 243.373 36.2962 246.167C38.3543 242.698 41.0475 239.169 43.2092 236.14C45.2782 233.505 49.1489 230.254 52.2645 232.859C56.2223 236.286 53.2619 241.832 50.7077 244.769C47.2866 248.75 41.9957 251.876 37.1328 254.062C37.6232 261.668 37.4321 269.53 36.8486 277.299C39.381 272.693 42.2596 268.376 44.8956 264.21C47.5316 260.044 50.9773 254.195 56.3008 253.574C62.5021 252.743 60.7954 264.41 59.5578 267.032C54.6074 277.52 45.3421 283.457 35.6843 289.301C35.4635 291.122 35.2426 292.943 35.0218 294.763C34.4302 298.162 34.1847 301.849 33.4541 305.839C34.8525 304.295 36.2045 302.948 37.4067 301.358C39.661 297.935 42.1116 294.557 45.0584 291.713C48.9183 287.626 55.3295 284.14 59.031 290.419C62.2364 296.167 53.271 302.59 49.7355 305.296C45.2759 308.409 38.5866 313.079 32.767 313.168C31.0957 323.802 28.5004 334.844 23.2284 343.176C42.7431 327.997 62.5112 313.501 79.938 295.75C85.3925 290.166 90.6508 284.535 95.563 278.615C95.413 278.372 95.2631 278.129 95.3558 277.734C99.6494 265.635 102.476 253.608 104.322 241.349C103.712 239.541 102.42 237.989 101.081 236.634C96.9736 232.964 67.8729 221.963 75.8817 213.442C82.2031 206.813 96.9248 221.717 99.8659 225.945C102.011 229.154 104.017 232.955 104.949 236.919C105.972 229.045 106.405 221.032 106.643 212.973C105.49 210.83 104.048 209.034 102.56 207.436C99.1905 204.147 74.8303 185.313 84.5562 180.941C91.5563 177.593 101.576 195.761 103.686 200.002C104.642 202.1 105.899 204.684 106.913 207.419C106.804 199.071 106.499 190.676 105.998 182.236C105.155 181.414 104.509 180.638 103.863 179.862C99.8838 174.765 83.9353 163.318 85.2221 156.962C86.6479 150.015 97.2619 161.248 99.0037 163.53C101.738 166.878 103.94 170.725 105.461 174.827C105.117 171.001 104.82 166.978 104.281 163.106C103.324 161.009 101.882 159.213 100.879 157.313C97.8701 151.612 88.5815 114.473 102.164 124.532C113.819 133.098 108.553 149.337 106.511 161.55C107.039 164.587 107.568 167.624 108.097 170.661C109.337 164.503 114.675 146.199 119.412 156.883C122.386 163.616 114.56 174.885 109.705 181.443C110.784 189.187 111.424 197.036 111.868 204.839C112.157 204.49 112.25 204.096 112.539 203.748C114.829 199.292 121.282 172.72 128.876 177.418C135.535 181.688 126.171 195.092 123.431 198.818C120.16 203.042 116.393 206.734 112.13 209.894C112.331 217.848 112.14 225.709 111.36 233.433C114.16 226.808 114.362 219.781 118.882 213.769C121.621 210.044 130.611 201.754 131.655 210.53C132.895 219.352 122.735 231.737 117.038 237.472C114.866 239.666 112.347 241.571 109.875 243.279C107.961 254.065 104.869 264.574 99.9081 274.227C114.056 256.329 125.734 236.603 134.653 215.396C145.944 188.504 154.248 157.581 156.433 126.26C154.601 120.836 152.088 115.668 149.482 110.894C147.623 110.873 145.857 110.458 144.044 110.24C138.606 109.586 113.621 106.626 114.205 98.8569C114.81 92.7571 136.559 98.9095 146.53 105.831C142.333 99.0181 137.407 92.6587 132.528 86.1022C130.865 86.1275 129.11 86.5471 127.447 86.5725C123.337 86.4386 104.864 83.9692 105.712 77.7184C106.93 69.8902 123.367 77.4987 129.841 82.5575C126.507 78.2368 123.22 73.7189 120.129 69.2472C117.809 67.6617 115.536 65.8789 112.974 64.4444C107.607 61.7264 103.232 60.0739 100.269 54.1758C96.4422 45.7859 102.172 42.5552 109.373 47.1608C115.144 50.8059 117.657 55.974 119.107 62.1407C119.418 63.4622 119.728 64.7836 120.039 66.1051C123.569 70.4719 127.295 74.8848 131.021 79.2978C130.318 77.8841 129.661 76.2732 129.154 74.9057C127.944 72.1244 125.131 66.4696 126.657 63.4993C128.519 59.9836 131.381 61.9048 133.712 64.3252C138.73 70.2902 136.184 77.5983 135.347 84.684C137.585 87.4987 139.869 90.1163 142.107 92.931C143.399 94.4831 144.644 96.2324 145.89 97.9816C145.533 96.8574 145.176 95.7331 144.865 94.4117C143.644 90.7956 139.7 69.686 149.047 77.5007C155.867 82.8489 154.596 97.9473 151.622 106.195C153.871 109.845 155.877 113.645 157.294 117.308C158.004 96.6675 155.826 75.9731 150.242 56.5586C150.045 56.5124 149.849 56.4663 149.653 56.4202C144.771 53.4001 117.295 46.942 122.313 37.9262C126.661 30.0012 141.097 41.717 148.146 49.6158C146.521 45.0726 144.7 40.4833 142.637 36.045C136.831 33.432 129.859 31.377 124.77 27.4759C122.104 25.6009 119.648 21.0704 123.829 19.1403C126.648 17.7221 130.202 20.2221 132.775 22.4914C133.814 23.3597 134.852 24.228 135.695 25.0502C136.733 25.9185 137.725 26.984 138.718 28.0495C137.415 25.6626 136.065 23.4728 134.566 21.0398C133.528 20.1715 132.732 19.1521 131.693 18.2838C130.309 17.1261 128.878 16.1655 127.447 15.205C125.866 14.0011 124.527 12.6462 122.993 11.2451C120.962 9.31137 116.797 5.00333 118.174 1.78974C119.886 -1.96924 127.18 2.24205 128.911 3.68922C133.065 7.16242 134.122 13.2369 135.169 18.4765C135.469 18.9631 135.768 19.4497 135.872 19.8902C137.418 22.1261 138.72 24.513 140.22 26.946C139.301 20.2801 138.835 10.8075 143.824 10.7316C146.653 10.1482 149.12 15.5135 149.313 19.0962C149.528 24.3484 145.829 29.513 142.455 33.2973C144.161 36.6113 145.624 40.0763 147.134 43.3442C148.007 35.2265 150.949 24.4742 157.621 26.0426C169.201 28.7642 156.495 48.4572 150.683 52.9172C153.839 62.3979 156.072 72.2856 157.426 82.3832C158.168 79.2284 159.544 76.0148 160.875 72.9984C160.834 66.1225 154.567 61.9447 154.238 55.4171C153.894 51.5912 155.942 47.2868 160.363 48.7422C166.112 50.7176 166.659 58.961 165.28 65.711C167.199 62.833 169.314 60.0011 171.579 57.4125C170.544 53.0077 168.827 48.8589 168.033 44.3031C167.447 40.6282 168.524 36.928 172.831 37.108C179.782 37.4934 180.597 43.7189 179.01 49.588C180.362 48.2412 181.714 46.8945 183.216 45.7911C183.263 45.5939 183.263 45.5939 183.505 45.4428C185.481 43.2025 185.588 40.1065 187.218 37.5767C188.178 36.1376 189.726 34.837 191.181 33.9307C193.608 32.4203 197.304 30.7923 199.773 32.6211C202.739 34.9827 199.629 40.2856 197.745 42.1317C194.463 45.5216 189.739 47.1162 185.201 47.922C183.756 49.6631 182.161 51.1609 180.567 52.6587C181.733 52.1006 182.854 51.7398 184.02 51.1817C187.474 49.7047 193.086 48.7352 194.226 53.5805C195.111 57.7419 189.417 59.9407 186.588 60.524C182.442 61.4222 177.164 61.8463 172.893 60.6343C172.65 60.7853 172.604 60.9825 172.362 61.1336C170.917 62.8747 169.472 64.6158 168.177 66.6002C170.314 65.4379 172.705 64.9595 175.049 64.6782C178.028 64.3381 182.82 64.2161 184.573 67.3329C186.672 70.7392 182.027 74.641 179.301 75.6649C174.484 77.6538 168.101 75.7372 163.241 74.3867C161.043 78.4478 159.435 82.6473 157.977 87.09C161.026 114.648 158.22 143.326 151.582 170.687C155.606 164.142 160.46 157.585 165.615 151.514C165.779 149.056 165.896 146.794 165.667 144.244C164.956 138.459 156.556 116.926 168.345 116.992C181.208 116.894 174.657 135.953 168.99 147.73C172.168 143.899 175.543 140.115 178.432 136.633C180.987 133.696 183.345 130.713 185.46 127.881C185.438 126.211 185.024 124.45 184.367 122.839C183.181 118.191 180.54 114.449 180.232 109.591C179.935 105.568 181.018 94.7945 186.987 94.9492C193.349 95.1962 194.472 106.28 193.891 110.513C193.542 113.76 192.558 117.065 191.378 120.325C196.429 113.814 201.527 107.105 207.074 101.127C207.445 99.5495 207.815 97.9721 208.382 96.4409C210.397 89.632 227.404 62.2112 232.079 79.3311C235.475 92.1973 220.022 96.2637 210.203 101.03C206.782 105.012 203.557 109.039 200.482 113.31C201.406 112.903 202.331 112.496 203.301 111.892C206.651 109.974 225.849 100.546 225.68 110.078C225.732 117.788 203.723 118.025 196.969 117.686C192.449 123.698 188.172 129.559 183.503 135.328C182.3 136.918 180.902 138.462 179.7 140.052C180.867 139.494 182.229 138.982 183.396 138.424C190.592 135.121 208.801 121.091 216.15 129.477C225.483 139.993 182.526 143.005 177.099 143.186C171.702 149.407 166.501 155.675 161.796 162.476C163.159 161.964 164.568 161.255 166.127 160.789C170.216 159.254 173.566 157.336 177.505 155.557C182.414 153.174 196.793 149.271 201.119 154.657C209.078 164.851 168.191 165.228 160.212 164.809C156.374 170.565 152.582 176.124 148.548 181.834C145.884 191.403 142.875 200.683 139.519 209.673C130.632 233.385 117.809 255.339 102.17 275.175C107.126 272.594 112.035 270.211 117.095 268.071C120.03 264.392 122.099 261.757 123.558 257.314C124.681 253.417 125.804 249.52 127.32 245.715C128.882 241.712 131.97 234.74 137.212 235.348C143.874 236.081 141.685 244.514 140.077 248.713C137.809 254.838 134.398 259.654 129.211 263.221C133.739 261.58 138.266 259.939 142.748 258.496C147.674 249.874 147.658 226.151 161.393 232.917C171.192 237.925 164.326 247.754 156.827 254.107C161.458 252.906 166.089 251.706 170.674 250.703C174.937 247.544 179.697 244.917 184.11 242.001C188.084 239.19 192.601 236.715 197.532 236.001C203.341 235.078 211.712 235.589 211.856 242.905C212.15 250.465 204.572 254.509 198.175 255.294C189.387 256.558 180.255 253.995 171.492 253.392C166.133 255.045 160.97 256.745 155.807 258.444C159.675 258.729 163.358 259.803 166.451 260.738C170.919 261.996 179.865 265.347 179.064 271.401C178.123 278.046 171.957 277.845 167.086 275.66C163.346 273.949 160.081 271.101 156.769 268.45C153.307 265.555 150.492 263.437 146.556 261.68C140.226 263.937 134.093 266.241 127.717 268.695C137.266 269.483 149.755 274.5 151.238 283.171C152.306 290.08 144.442 290.937 139.778 289.632C136.292 288.605 133.43 286.684 130.996 283.823C129.554 282.027 128.401 279.884 127.444 277.786C125.842 274.913 123.811 272.979 121.341 271.15C113.36 274.268 105.379 277.385 97.351 280.7C93.8373 285.076 90.1737 289.209 86.2674 293.492C74.884 305.797 62.323 317.826 48.9661 328.835C54.1289 327.136 59.5451 326.12 65.065 325.545L65.3076 325.394C74.9871 321.219 79.9238 313.432 87.2156 306.199C92.0923 301.311 98.4 297.384 105.291 300.668C112.182 303.953 106.367 311.949 102.889 315.293C98.3475 319.635 92.5142 322.425 86.2311 324.486C89.5566 324.435 92.6395 324.536 95.5725 324.393C98.0666 324.355 100.757 324.363 103.251 324.325L103.447 324.371C104.083 324.312 104.671 324.451 105.306 324.392C106.947 322.697 108.738 321.245 110.426 319.353C112.737 316.567 114.853 313.735 117.314 311.193C120.931 307.258 126.19 301.627 132.077 303.011C137.965 304.395 137.278 311.724 134.146 315.357C130.39 319.884 125.723 322.116 120.56 323.816C119.151 324.525 117.834 324.84 116.564 324.957C123.319 325.296 130.27 325.682 136.978 326.218C139.693 324.36 140.481 321.008 142.803 319.057C144.594 317.605 146.777 316.246 148.868 315.28C151.929 313.711 157.128 310.98 160.243 313.585C164.097 316.571 158.457 322.944 156.031 324.455C154.287 325.709 152 326.628 150.002 327.199C151.814 327.417 153.477 327.391 155.29 327.609C163.132 325.083 189.952 314.95 186.915 329.633C184.295 342.542 164.026 333.616 156.835 329.845C156.004 329.858 155.173 329.871 154.538 329.929C154.538 329.929 154.538 329.929 154.341 329.883C154.145 329.837 154.145 329.837 154.145 329.837C151.258 329.783 148.372 329.729 145.485 329.674C148.982 331.537 151.716 334.884 153.908 337.896C155.949 340.665 159.119 347.444 155.191 350.058C151.991 352.218 147.365 346.346 145.577 344.261C143.939 342.419 142.544 340.427 141.148 338.434C139.303 335.712 138.82 332.477 136.975 329.755C136.825 329.511 136.871 329.314 136.675 329.268C130.117 328.975 123.558 328.682 117 328.389C120.394 329.811 123.695 331.627 126.996 333.443C131.381 335.93 140.06 341.299 138.577 347.609C137.048 354.116 130.247 353.974 125.85 350.652C122.342 347.954 119.608 344.607 116.724 341.016C112.595 335.676 109.272 332.19 103.063 328.65C102.67 328.558 102.521 328.315 102.371 328.071C95.7659 327.975 89.3112 328.123 82.96 328.711C90.9356 332.666 97.3493 340.623 102.239 348.015C104.384 351.224 109.19 363.381 100.968 363.113C93.9713 362.925 88.0892 354.468 84.0633 349.569C79.2415 343.65 74.2589 336.653 70.8927 329.827C61.2732 331.104 51.561 332.774 41.8597 335.279C29.416 345.047 16.3726 353.841 3.16845 361.557C2.24438 361.964 1.25219 360.898 2.02635 360.248C5.89712 356.996 9.96418 353.791 13.835 350.54C13.8813 350.342 13.9277 350.145 13.9277 350.145C20.9442 340.559 24.5672 329.55 27.0126 318.265C25.1318 316.575 24.0252 314.234 22.1908 312.346C20.8524 310.991 19.2251 309.985 17.7941 309.024C13.6509 306.386 9.31146 303.701 5.50357 300.518C1.00334 296.755 -2.7308 287.971 5.71115 286.418C10.0534 285.566 14.3465 288.447 17.9118 291.782C19.1002 292.894 20.2423 294.203 21.3844 295.511C22.5265 296.82 23.426 298.28 24.4181 299.345C25.6638 301.095 27.5091 303.817 29.0191 307.085C29.7961 302.898 30.3305 298.863 30.9112 294.63C31.2247 292.415 31.5383 290.199 31.8518 287.984C28.0794 283.769 24.9421 279.494 20.0139 276.671C15.4782 273.941 11.0924 271.453 7.13458 268.026C3.52295 264.888 -3.11958 254.38 4.27297 251.124C10.7878 248.078 17.5831 255.293 21.5517 259.555C25.3705 263.574 30.7811 269.631 33.0625 275.785C33.4715 269.639 33.7307 263.25 33.5046 257.163C30.5962 255.439 28.8899 252.125 25.7852 250.355C22.0918 248.446 18.352 246.735 14.7049 244.629C10.5154 242.188 1.65112 237.608 3.52667 231.39C6.16551 223.688 15.087 228.906 18.4451 231.36ZM195.275 40.3028C195.033 40.4538 194.987 40.651 194.744 40.8021C195.033 40.4538 195.229 40.5 195.275 40.3028ZM173.571 266.573C173.618 266.376 173.618 266.376 173.571 266.573C173.618 266.376 173.421 266.33 173.225 266.284C173.421 266.33 173.421 266.33 173.571 266.573Z" fill="#E2D9D0"/>
</svg>
