<svg width="250" height="432" viewBox="0 0 250 432" fill="none" xmlns="http://www.w3.org/2000/svg">
<path d="M-4.39923 275.419C2.98864 280.615 9.70308 287.63 13.6461 295.97C13.1704 290.669 12.4615 285.313 11.5195 279.902C9.28571 277.894 8.20446 275.168 7.1232 272.443C4.72761 266.937 0.891279 262.329 -1.50434 256.823C-3.89994 251.318 -1.23195 242.06 6.10424 243.29C22.1752 246.079 22.5112 271.859 15.275 282.761C15.958 286.135 16.3529 289.687 16.8028 293.006C19.2473 288.885 22.446 284.694 25.0135 281.096C27.4709 277.967 32.0683 274.105 35.7687 277.199C40.4694 281.269 36.9533 287.857 33.9196 291.345C29.8564 296.074 23.5723 299.786 17.7964 302.383C18.3789 311.416 18.152 320.754 17.4589 329.982C20.4667 324.51 23.8857 319.383 27.0165 314.435C30.1474 309.487 34.2398 302.541 40.5627 301.803C47.9281 300.816 45.901 314.672 44.4311 317.787C38.5514 330.244 27.5468 337.295 16.0761 344.237C15.8138 346.399 15.5515 348.562 15.2892 350.724C14.5865 354.76 14.295 359.14 13.4272 363.879C15.0881 362.045 16.6939 360.445 18.1217 358.557C20.7993 354.491 23.71 350.48 27.2098 347.101C31.7943 342.248 39.4091 338.106 43.8054 345.565C47.6126 352.391 36.9641 360.02 32.7649 363.234C27.4682 366.932 19.5232 372.478 12.6111 372.583C10.6261 385.215 7.54359 398.329 1.28192 408.225C24.4599 390.196 47.9389 372.979 68.637 351.896C75.1155 345.263 81.3609 338.576 87.1951 331.545C87.0171 331.256 86.839 330.967 86.9491 330.499C92.0486 316.128 95.4064 301.843 97.5986 287.284C96.8735 285.136 95.3389 283.293 93.7494 281.683C88.8705 277.324 54.3071 264.257 63.8193 254.137C71.3273 246.264 88.8127 263.966 92.3058 268.988C94.8536 272.799 97.2363 277.313 98.3434 282.022C99.5577 272.669 100.073 263.152 100.355 253.581C98.9853 251.035 97.2728 248.902 95.5051 247.004C91.5037 243.098 62.5706 220.728 74.1222 215.536C82.4363 211.559 94.3368 233.137 96.8425 238.175C97.9788 240.666 99.4712 243.735 100.675 246.984C100.546 237.068 100.184 227.098 99.5885 217.073C98.5882 216.097 97.8209 215.175 97.0536 214.253C92.327 208.2 73.3847 194.604 74.913 187.055C76.6065 178.803 89.213 192.146 91.2817 194.856C94.5288 198.832 97.1446 203.401 98.951 208.274C98.5432 203.73 98.1905 198.951 97.5496 194.352C96.4133 191.861 94.7007 189.729 93.5093 187.472C89.9353 180.701 78.9032 136.59 95.0354 148.537C108.879 158.711 102.623 177.999 100.198 192.504C100.826 196.111 101.454 199.718 102.082 203.326C103.555 196.011 109.895 174.271 115.521 186.962C119.053 194.958 109.758 208.343 103.992 216.131C105.273 225.329 106.034 234.651 106.561 243.919C106.905 243.505 107.015 243.037 107.358 242.623C110.078 237.332 117.742 205.771 126.761 211.351C134.67 216.422 123.549 232.343 120.295 236.768C116.41 241.785 111.936 246.171 106.872 249.923C107.111 259.37 106.884 268.707 105.958 277.881C109.283 270.013 109.523 261.667 114.891 254.526C118.145 250.101 128.823 240.255 130.062 250.678C131.535 261.157 119.468 275.866 112.702 282.678C110.121 285.284 107.13 287.547 104.193 289.575C101.92 302.385 98.2485 314.867 92.3559 326.333C109.159 305.075 123.03 281.646 133.623 256.458C147.034 224.518 156.897 187.79 159.491 150.59C157.316 144.147 154.331 138.009 151.236 132.339C149.028 132.314 146.93 131.821 144.777 131.562C138.318 130.785 108.643 127.27 109.336 118.042C110.055 110.798 135.887 118.105 147.73 126.325C142.744 118.234 136.894 110.681 131.1 102.893C129.125 102.923 127.04 103.422 125.065 103.452C120.183 103.293 98.242 100.36 99.2491 92.9357C100.697 83.638 120.219 92.6748 127.907 98.6832C123.948 93.5514 120.044 88.1855 116.373 82.8743C113.618 80.9911 110.918 78.8737 107.874 77.1699C101.5 73.9417 96.3035 71.979 92.7846 64.9737C88.2394 55.0088 95.0448 51.1716 103.598 56.6418C110.452 60.9711 113.437 67.1095 115.159 74.4338C115.528 76.0033 115.897 77.5728 116.266 79.1423C120.458 84.3289 124.884 89.5702 129.309 94.8116C128.474 93.1325 127.694 91.2192 127.092 89.5949C125.654 86.2916 122.314 79.5753 124.127 76.0474C126.338 71.8718 129.737 74.1535 132.505 77.0283C138.465 84.1131 135.441 92.7931 134.447 101.209C137.105 104.552 139.818 107.661 142.476 111.004C144.01 112.847 145.49 114.925 146.969 117.003C146.545 115.667 146.121 114.332 145.752 112.763C144.302 108.468 139.618 83.3955 150.719 92.6772C158.819 99.0293 157.31 116.962 153.778 126.758C156.448 131.093 158.831 135.607 160.515 139.957C161.357 115.442 158.771 90.8628 152.138 67.8037C151.905 67.7489 151.672 67.6942 151.439 67.6394C145.64 64.0524 113.006 56.3819 118.967 45.6737C124.131 36.2611 141.277 50.1761 149.649 59.5577C147.719 54.1616 145.557 48.7108 143.106 43.4394C136.21 40.3358 127.929 37.895 121.884 33.2617C118.718 31.0347 115.801 25.6537 120.768 23.3613C124.115 21.6769 128.337 24.6462 131.393 27.3415C132.627 28.3728 133.86 29.4041 134.86 30.3806C136.094 31.4119 137.272 32.6774 138.451 33.9429C136.903 31.1079 135.301 28.5071 133.52 25.6174C132.287 24.5861 131.341 23.3754 130.108 22.3441C128.463 20.969 126.764 19.8281 125.064 18.6872C123.186 17.2574 121.597 15.6481 119.774 13.9841C117.362 11.6873 112.415 6.57055 114.05 2.75371C116.084 -1.71091 124.747 3.29092 126.803 5.00975C131.737 9.13495 132.993 16.3497 134.236 22.5729C134.592 23.1509 134.948 23.7288 135.071 24.252C136.907 26.9076 138.454 29.7426 140.235 32.6323C139.144 24.715 138.591 13.4643 144.515 13.3741C147.876 12.6812 150.806 19.0537 151.035 23.3089C151.291 29.5471 146.897 35.6811 142.889 40.1758C144.916 44.1119 146.654 48.2274 148.448 52.1087C149.484 42.4673 152.978 29.6965 160.903 31.5593C174.656 34.7918 159.565 58.1816 152.663 63.4788C156.411 74.7392 159.062 86.483 160.671 98.4761C161.552 94.7291 163.187 90.9122 164.767 87.3296C164.719 79.1631 157.276 74.201 156.884 66.448C156.476 61.9039 158.908 56.7915 164.159 58.5201C170.987 60.8663 171.638 70.6571 169.999 78.6743C172.278 75.256 174.791 71.8925 177.481 68.818C176.251 63.5864 174.212 58.6587 173.27 53.2476C172.574 48.8829 173.853 44.4881 178.968 44.7019C187.224 45.1596 188.192 52.5538 186.307 59.5246C187.913 57.9251 189.519 56.3255 191.303 55.0149C191.358 54.7807 191.358 54.7807 191.646 54.6013C193.993 51.9404 194.12 48.2632 196.056 45.2585C197.195 43.5494 199.034 42.0046 200.763 40.9282C203.645 39.1342 208.035 37.2006 210.968 39.3728C214.49 42.1777 210.796 48.4761 208.559 50.6686C204.661 54.6949 199.05 56.5888 193.66 57.5459C191.944 59.6139 190.05 61.3928 188.156 63.1718C189.541 62.509 190.872 62.0803 192.258 61.4175C196.36 59.6633 203.026 58.5117 204.379 64.2666C205.431 69.2093 198.668 71.8207 195.307 72.5136C190.383 73.5803 184.115 74.0841 179.042 72.6445C178.754 72.8239 178.698 73.0581 178.41 73.2375C176.694 75.3055 174.978 77.3734 173.441 79.7303C175.979 78.3499 178.818 77.7817 181.602 77.4476C185.141 77.0437 190.833 76.8987 192.914 80.6006C195.407 84.6463 189.89 89.2806 186.653 90.4967C180.932 92.8589 173.35 90.5825 167.577 88.9786C164.968 93.802 163.057 98.7898 161.325 104.067C164.947 136.797 161.614 170.859 153.73 203.356C158.509 195.583 164.275 187.795 170.398 180.584C170.592 177.664 170.731 174.979 170.459 171.949C169.614 165.078 159.637 139.503 173.639 139.582C188.917 139.466 181.137 162.103 174.406 176.089C178.181 171.54 182.189 167.045 185.621 162.909C188.655 159.421 191.455 155.878 193.968 152.515C193.942 150.532 193.45 148.439 192.669 146.526C191.261 141.005 188.124 136.561 187.759 130.791C187.406 126.013 188.692 113.217 195.782 113.401C203.338 113.694 204.672 126.858 203.982 131.886C203.567 135.743 202.398 139.669 200.996 143.541C206.996 135.807 213.05 127.839 219.639 120.738C220.079 118.865 220.52 116.991 221.193 115.173C223.586 107.086 243.786 74.5175 249.337 94.8511C253.371 110.133 235.017 114.962 223.355 120.624C219.292 125.352 215.462 130.136 211.81 135.209C212.908 134.725 214.005 134.242 215.158 133.524C219.137 131.247 241.939 120.049 241.738 131.37C241.799 140.528 215.659 140.809 207.637 140.406C202.269 147.547 197.189 154.508 191.643 161.359C190.215 163.248 188.554 165.082 187.126 166.97C188.512 166.307 190.131 165.699 191.516 165.036C200.064 161.114 221.691 144.451 230.419 154.41C241.504 166.901 190.483 170.478 184.037 170.692C177.627 178.082 171.45 185.527 165.861 193.604C167.48 192.996 169.154 192.154 171.006 191.601C175.862 189.777 179.841 187.499 184.519 185.386C190.35 182.556 207.428 177.92 212.566 184.317C222.019 196.424 173.456 196.872 163.98 196.375C159.422 203.211 154.918 209.814 150.126 216.595C146.963 227.961 143.388 238.983 139.403 249.661C128.847 277.824 113.617 303.899 95.043 327.459C100.929 324.394 106.76 321.563 112.769 319.022C116.256 314.652 118.713 311.522 120.445 306.245C121.779 301.616 123.113 296.988 124.913 292.468C126.769 287.715 130.437 279.433 136.663 280.155C144.575 281.026 141.975 291.042 140.065 296.029C137.371 303.304 133.321 309.025 127.16 313.26C132.537 311.312 137.915 309.363 143.237 307.649C149.088 297.409 149.069 269.232 165.383 277.268C177.022 283.216 168.866 294.891 159.959 302.435C165.46 301.01 170.961 299.584 176.406 298.393C181.47 294.641 187.122 291.521 192.364 288.058C197.085 284.719 202.449 281.779 208.306 280.931C215.205 279.834 225.148 280.441 225.319 289.131C225.668 298.11 216.668 302.914 209.069 303.846C198.631 305.347 187.786 302.303 177.377 301.587C171.012 303.551 164.88 305.569 158.748 307.588C163.342 307.926 167.716 309.201 171.391 310.312C176.697 311.806 187.323 315.786 186.37 322.977C185.253 330.869 177.93 330.631 172.145 328.035C167.703 326.003 163.824 322.62 159.891 319.471C155.779 316.033 152.435 313.517 147.76 311.43C140.242 314.111 132.958 316.847 125.385 319.763C136.726 320.699 151.56 326.657 153.321 336.956C154.59 345.162 145.25 346.179 139.711 344.63C135.57 343.41 132.171 341.128 129.28 337.73C127.567 335.598 126.198 333.052 125.061 330.56C123.158 327.147 120.746 324.851 117.813 322.678C108.333 326.381 98.8535 330.084 89.3189 334.021C85.1455 339.219 80.7942 344.127 76.1546 349.215C62.6343 363.83 47.7154 378.116 31.8511 391.192C37.9831 389.174 44.4161 387.967 50.972 387.284L51.2602 387.105C62.7568 382.146 68.6202 372.898 77.2809 364.307C83.073 358.502 90.5647 353.837 98.7491 357.738C106.933 361.639 100.027 371.136 95.8963 375.108C90.5024 380.265 83.574 383.579 76.1115 386.026C80.0612 385.966 83.7229 386.085 87.2065 385.916C90.1688 385.871 93.3642 385.88 96.3266 385.835L96.5597 385.89C97.314 385.82 98.0133 385.984 98.7677 385.915C100.717 383.902 102.844 382.177 104.848 379.93C107.593 376.621 110.106 373.258 113.029 370.238C117.326 365.564 123.571 358.877 130.564 360.52C137.557 362.164 136.741 370.869 133.021 375.184C128.56 380.561 123.017 383.212 116.885 385.23C115.211 386.073 113.647 386.446 112.139 386.586C120.161 386.989 128.417 387.447 136.384 388.084C139.609 385.876 140.545 381.895 143.303 379.578C145.43 377.854 148.024 376.239 150.507 375.093C154.143 373.229 160.317 369.985 164.017 373.079C168.595 376.626 161.896 384.195 159.015 385.989C156.943 387.479 154.226 388.571 151.853 389.248C154.006 389.507 155.981 389.477 158.134 389.736C167.448 386.736 199.303 374.7 195.696 392.14C192.584 407.471 168.51 396.87 159.97 392.392C158.982 392.407 157.995 392.422 157.24 392.492C157.24 392.492 157.24 392.492 157.007 392.437C156.774 392.382 156.774 392.382 156.774 392.382C153.346 392.318 149.917 392.253 146.489 392.189C150.642 394.401 153.889 398.376 156.492 401.954C158.917 405.242 162.682 413.294 158.017 416.398C154.216 418.965 148.722 411.989 146.598 409.513C144.652 407.326 142.995 404.959 141.337 402.593C139.146 399.359 138.573 395.518 136.381 392.284C136.203 391.995 136.258 391.761 136.025 391.706C128.235 391.358 120.446 391.01 112.656 390.662C116.687 392.351 120.608 394.508 124.528 396.665C129.737 399.619 140.045 405.996 138.284 413.49C136.468 421.218 128.39 421.05 123.168 417.104C119.001 413.9 115.754 409.925 112.329 405.66C107.424 399.317 103.478 395.177 96.103 390.972C95.6368 390.863 95.4588 390.574 95.2807 390.285C87.4362 390.171 79.7697 390.346 72.2263 391.044C81.6991 395.742 89.3168 405.193 95.1246 413.972C97.6724 417.784 103.38 432.223 93.6154 431.905C85.3047 431.681 78.3184 421.637 73.5367 415.818C67.8098 408.788 61.8918 400.477 57.8937 392.371C46.4685 393.886 34.9331 395.87 23.4107 398.846C8.63103 410.447 -6.86083 420.892 -22.5437 430.056C-23.6412 430.54 -24.8196 429.274 -23.9002 428.502C-19.3028 424.64 -14.4722 420.833 -9.87485 416.971C-9.81981 416.737 -9.76476 416.502 -9.76476 416.502C-1.43102 405.116 2.87202 392.042 5.77648 378.638C3.54265 376.63 2.2283 373.85 0.0495012 371.608C-1.54007 369.999 -3.47284 368.803 -5.1725 367.662C-10.0934 364.529 -15.2475 361.34 -19.7702 357.559C-25.1152 353.09 -29.5503 342.656 -19.5236 340.812C-14.3662 339.8 -9.26724 343.223 -5.03267 347.184C-3.62115 348.504 -2.26469 350.058 -0.908215 351.613C0.448272 353.167 1.51659 354.901 2.69502 356.167C4.1745 358.244 6.36621 361.478 8.15968 365.359C9.08253 360.386 9.71723 355.593 10.407 350.565C10.7794 347.935 11.1518 345.304 11.5242 342.673C7.04358 337.666 3.31733 332.589 -2.536 329.236C-7.92315 325.993 -13.1322 323.038 -17.833 318.968C-22.1226 315.241 -30.0121 302.761 -21.2318 298.893C-13.494 295.275 -5.42314 303.845 -0.709452 308.907C3.82617 313.68 10.2525 320.874 12.962 328.183C13.4479 320.884 13.7557 313.295 13.4872 306.065C10.0328 304.018 8.00621 300.082 4.31875 297.979C-0.0680428 295.713 -4.50986 293.68 -8.84159 291.179C-13.8176 288.28 -24.3458 282.839 -22.1182 275.455C-18.984 266.307 -8.38778 272.504 -4.39923 275.419ZM205.626 48.4964C205.338 48.6758 205.283 48.91 204.994 49.0894C205.338 48.6758 205.571 48.7306 205.626 48.4964ZM179.847 317.242C179.902 317.008 179.902 317.008 179.847 317.242C179.902 317.008 179.669 316.953 179.436 316.898C179.669 316.953 179.669 316.953 179.847 317.242Z" fill="#B49577"/>
</svg>
