<svg width="345" height="301" viewBox="0 0 345 301" fill="none" xmlns="http://www.w3.org/2000/svg">
<path d="M18.5359 0.471233C36.3773 1.42666 44.7333 14.1437 57.2982 23.7718C69.8801 28.1511 82.2876 32.353 94.694 36.9048C92.5993 35.4751 90.3291 34.2179 88.4099 32.6157C83.1743 28.6915 59.1079 5.25153 72.0659 1.58794C82.0471 -1.24346 91.4425 14.6379 94.2187 21.6762C96.6497 27.3098 97.501 34.4956 101.509 39.277C117.06 45.2735 132.61 51.62 147.631 58.8338C145.365 56.5268 142.571 54.7371 140.129 52.6026C134.371 47.7961 109.088 22.0641 119.077 16.7833C129.243 10.9802 142.47 32.1653 145.423 38.6813C148.723 45.9021 149.749 53.2652 151.649 60.8159C162.828 66.2249 173.656 71.9789 184.307 78.2552C183.44 75.9683 182.223 73.6763 181.355 71.3893C178.578 64.7009 159.282 26.8073 175.549 27.9151C186.744 28.4254 191.049 49.3078 191.723 57.3658C192.571 65.6012 192.019 73.8166 189.894 81.8345C200.719 88.2883 211.367 95.6143 221.489 103.458C220.273 100.816 219.055 98.5239 217.839 95.882C214.89 88.3163 205.18 61.5827 217.091 57.2043C226.724 53.668 231.726 75.6101 232.756 81.5737C234.125 91.0413 233.218 101.001 229.166 109.516C231.784 111.479 234.401 113.791 236.843 115.925C243.298 121.441 249.404 126.953 255.508 132.814C255.334 132.287 255.161 131.759 254.814 131.054C252.562 124.199 243.038 93.7934 254.938 92.9141C271.738 91.4051 264.966 129.45 262.135 139.208C271.726 148.618 280.791 158.546 289.855 168.824C288.991 165.487 287.952 162.323 287.438 158.991C286.41 152.328 281.432 123.037 292.799 124.425C302.242 125.61 303.064 141.894 302.692 148.537C301.963 157.624 298.611 166.15 294.56 174.315C301.532 182.463 307.978 190.779 314.424 199.094C313.91 195.763 313.746 192.436 313.406 189.282C312.385 180.519 311.715 171.411 314.541 163.054C317.367 154.696 325.616 146.591 333.109 155.971C346.004 171.553 327.567 192.109 318.776 205.63C327.484 217.653 335.843 229.67 343.674 242.205C343.161 238.523 342.123 235.009 341.259 231.672C339.195 220.795 333.518 191.495 352.933 192.648C366.926 193.548 364.063 213.103 360.711 221.628C356.834 230.321 351.038 237.411 344.891 244.497C355.855 262.325 366.118 280.493 375.33 298.996C375.852 299.879 374.45 300.558 373.928 299.676C363.141 281.325 352.003 263.32 340.514 245.659C336.5 242.627 330.898 243.946 325.824 244.048C318.65 244.471 269.498 241.842 287.041 227.046C298.618 217.764 321.851 228.42 335.291 237.885C328.675 227.993 321.884 218.272 314.917 208.725C311.244 208.497 307.744 208.797 304.069 209.269C297.068 210.218 255.063 215.566 258.783 201.447C261.44 191.512 286.446 194.844 292.915 196.162C297.985 197.109 303.93 198.244 308.82 200.764C302.897 192.981 296.974 185.197 290.7 177.759C287.904 177.019 284.053 177.664 281.427 178.151C275.302 178.588 234.157 188.672 237.53 173.498C239.483 164.953 262.048 165.801 267.995 166.236C273.592 166.666 279.886 167.806 284.95 170.853C277.282 161.645 269.089 152.605 260.545 143.909C256.868 144.731 253.02 144.676 249.343 145.498C242.865 146.98 236.733 149.867 230.082 150.821C224.83 151.796 206.981 153.29 204.555 145.906C201.611 136.941 226.106 135.892 230.832 135.435C239.055 135.028 247.801 135.503 255.664 138.59C247.817 130.604 239.445 122.786 230.722 115.313C229.152 114.065 227.581 112.818 226.011 111.571C223.385 112.058 220.932 113.073 218.48 114.087C211.472 117.136 204.818 119.141 197.117 120.08C192.216 120.71 168.764 123.523 166.512 116.667C163.914 108.757 191.216 105.649 195.241 105.181C203.117 104.069 211.691 103.667 219.206 106.049C210.484 98.2261 199.836 90.9001 188.836 84.2688C185.86 84.7511 184.104 86.8255 181.475 88.3625C175.513 92.4763 169.032 95.0079 162.03 96.3073C155.903 97.4443 136.824 100.495 133.35 92.7471C127.442 80.415 167.683 79.5917 183.772 81.2219C173.121 74.9456 162.119 69.0142 150.94 63.6052C148.661 65.1472 146.034 65.9844 143.93 67.354C139.022 70.0831 134.463 73.517 129.208 75.5413C122.902 77.9005 103.811 84.4506 97.5295 79.4617C90.2014 73.4079 115.071 65.016 118.923 64.0214C125.753 61.8447 134.336 58.6433 142.031 59.4534C128.755 53.3145 115.303 47.6979 101.499 42.4262C99.0441 44.1407 96.938 46.2101 94.6575 48.102C90.0954 52.2358 85.8844 56.0247 79.9296 58.0389C75.0256 59.7183 59.2686 63.3418 55.2627 57.8606C47.5985 47.6029 85.9402 38.879 97.3061 40.6165C84.3766 35.5323 71.2704 30.9705 58.1643 26.4086C52.213 27.3732 46.2639 27.6379 40.1394 28.075C28.2412 28.6045 14.0729 27.8766 5.00462 18.9985C-6.67923 7.45852 7.16657 -0.216517 18.5359 0.471233Z" fill="#B49577"/>
</svg>
