<svg width="185" height="267" viewBox="0 0 185 267" fill="none" xmlns="http://www.w3.org/2000/svg">
<path d="M183.985 132.14C183.354 131.455 182.407 130.426 180.802 129.371C177.907 127.603 173.669 126.438 170.336 127.29C166.345 128.114 164.577 131.009 163.837 132.956C162.822 133.574 161.807 134.192 160.793 134.809L160.463 134.796C157.762 136.333 155.06 137.87 152.016 139.722C149.657 140.944 147.614 142.508 145.558 144.402C144.529 145.348 143.501 146.295 142.802 147.255C142.87 145.61 143.267 143.977 143.335 142.331C143.787 139.382 144.567 136.447 145.664 133.854C146.007 133.539 146.679 133.237 147.021 132.921C148.022 132.633 149.037 132.015 150.052 131.398C151.067 130.78 152.095 129.833 153.123 128.887C155.18 126.993 156.894 125.415 158.608 123.837C160.308 122.589 161.337 121.642 161.337 121.642L161.021 121.299C161.021 121.299 159.993 122.246 158.292 123.495C156.921 124.757 154.865 126.65 152.821 128.215C151.793 129.161 150.765 130.108 149.764 130.397C148.749 131.014 147.419 131.289 146.733 131.92C146.733 131.92 146.404 131.906 146.39 132.236C147.13 130.288 148.199 128.353 149.268 126.419L147.65 125.693C144.469 130.837 142.263 136.352 140.715 141.893C140.332 143.196 139.934 144.829 139.88 146.146C139.853 146.804 139.496 147.449 139.456 148.436L139.36 150.74C139.347 151.07 139.333 151.399 139.306 152.057L139.279 152.716L139.252 153.374C139.224 154.032 139.526 154.704 139.499 155.363C139.472 156.021 139.774 156.693 139.747 157.351C139.719 158.01 139.706 158.339 139.692 158.668L139.679 158.997C139.665 159.326 139.336 159.313 138.993 159.628C138.65 159.944 137.649 160.232 136.977 160.534C135.976 160.823 135.304 161.125 134.289 161.742C133.96 161.729 133.947 162.058 133.604 162.373L133.261 162.689L132.233 163.636C129.82 166.174 128.38 169.082 126.626 171.648C125.913 172.937 125.2 174.227 124.158 175.503C125.35 170.606 126.541 165.709 127.692 161.799C128.103 159.838 128.514 157.876 128.911 156.244C129.308 154.612 129.376 152.966 129.76 151.663C130.198 149.043 130.581 147.74 130.581 147.74L129.923 147.713C129.937 147.383 130.266 147.397 130.279 147.068C130.938 147.095 132.57 147.492 134.243 146.902C135.916 146.311 137.959 144.747 138.726 142.141C139.836 139.219 139.328 135.571 138.449 132.897C137.845 131.553 137.57 130.222 136.939 129.537C136.637 128.865 136.335 128.193 136.335 128.193C136.335 128.193 135.992 128.508 135.307 129.14C134.621 129.771 133.593 130.717 132.894 131.678C130.837 133.571 128.767 135.794 128.013 138.071C127.273 140.019 127.863 141.692 128.138 143.022C128.742 144.366 129.333 146.039 129.977 146.396C129.635 146.711 129.621 147.041 129.278 147.356L126.329 146.905C126.329 146.905 125.946 148.208 125.521 150.498C125.138 151.801 125.083 153.118 124.686 154.751C124.316 155.724 123.932 157.028 123.549 158.331C123.576 157.672 123.274 157 123.301 156.342C123.054 154.353 122.82 152.035 122.586 149.718C122.613 149.059 122.64 148.401 122.667 147.742C122.695 147.084 122.722 146.426 122.749 145.767C122.776 145.109 122.803 144.451 122.831 143.792L122.871 142.805C122.885 142.476 122.899 142.146 122.899 142.146C123.309 140.185 125.05 137.949 127.107 136.055C128.821 134.477 130.535 132.899 131.933 130.979C132.29 130.334 132.975 129.703 133.332 129.058C134.374 127.782 135.1 126.163 135.813 124.874C136.169 124.229 136.21 123.242 136.566 122.597C136.896 122.61 136.909 122.281 137.238 122.295C138.199 122.994 142.054 125.461 146.072 123.979C148.417 123.086 150.487 120.864 152.86 119.313C153.888 118.366 154.903 117.749 155.588 117.118C156.274 116.487 156.946 116.185 156.946 116.185C156.946 116.185 156.63 115.842 155.67 115.143C155.039 114.457 153.749 113.744 152.117 113.347C149.209 111.908 144.929 111.731 141.912 112.925C136.879 115.026 136.675 119.963 136.607 121.609C136.634 120.951 136.648 120.622 136.675 119.963C136.798 117.001 136.262 114.011 136.357 111.707C136.371 111.377 136.384 111.048 136.398 110.719C136.727 110.733 136.727 110.733 137.385 110.76C138.044 110.787 139.36 110.841 140.691 110.567C143.338 110.346 146.986 109.838 150.648 109C154.31 108.162 157.669 106.652 160.028 105.43C161.372 104.826 162.058 104.195 163.059 103.907C163.731 103.605 164.074 103.289 164.074 103.289L163.758 102.947C163.758 102.947 163.415 103.262 162.743 103.564C162.071 103.866 161.056 104.484 159.713 105.088C157.354 106.309 154.008 107.49 150.346 108.328C146.684 109.166 143.365 109.688 140.402 109.566C139.072 109.84 137.769 109.457 137.097 109.759C136.768 109.745 136.768 109.745 136.439 109.731C136.452 109.402 136.795 109.087 136.809 108.758C137.151 108.442 137.151 108.442 138.152 108.154C138.824 107.852 139.496 107.55 140.155 107.577C142.843 106.369 145.201 105.147 146.929 103.24C147.628 102.28 148.327 101.32 148.711 100.017C148.724 99.6873 149.081 99.0426 149.094 98.7134L149.437 98.3978C149.766 98.4114 150.109 98.0959 150.767 98.1231C151.714 99.1514 155.213 102.264 159.217 101.11C161.562 100.218 163.619 98.3244 165.662 96.7601C166.691 95.8133 167.376 95.1822 168.062 94.551C168.747 93.9199 169.09 93.6043 169.09 93.6043C169.09 93.6043 168.775 93.2615 167.814 92.5623C167.183 91.8767 165.894 91.164 164.59 90.7804C162.327 89.6976 159.049 89.2324 156.731 89.4664C156.731 89.4664 156.731 89.4664 157.074 89.1508C157.759 88.5196 158.102 88.2041 158.445 87.8885C158.788 87.5729 159.117 87.5865 159.117 87.5865L158.801 87.2437C158.801 87.2437 158.472 87.2301 158.129 87.5457C157.786 87.8613 157.114 88.1632 156.758 88.808C156.415 89.1236 156.072 89.4392 155.743 89.4256C153.069 90.3043 151.657 92.5542 151.26 94.1865C150.574 94.8176 150.218 95.4624 149.862 96.1071C149.93 94.4612 149.984 93.1445 150.025 92.157C150.079 90.8402 150.12 89.8527 150.476 89.208C150.504 88.5496 150.517 88.2204 150.517 88.2204L148.556 87.8096C148.556 87.8096 148.542 88.1388 148.186 88.7835C148.159 89.4419 147.789 90.4158 147.734 91.7326C147.68 93.0493 147.612 94.6952 147.214 96.3275C147.146 97.9734 146.42 99.5921 145.035 101.184C143.664 102.446 141.306 103.667 138.96 104.56C138.288 104.862 137.63 104.835 136.958 105.137C136.286 105.439 135.285 105.727 134.27 106.344C133.928 106.66 133.571 107.305 133.557 107.634C133.215 107.95 133.201 108.279 133.188 108.608C133.16 109.266 132.804 109.911 132.763 110.899C132.312 113.848 132.847 116.837 132.739 119.471C132.711 120.129 132.684 120.788 132.328 121.432C131.971 122.077 131.944 122.736 131.588 123.38C131.231 124.025 130.875 124.67 130.519 125.315C129.983 122.325 128.843 117.991 127.689 113.986C126.783 111.97 126.207 109.968 124.958 108.268C124.972 107.939 124.642 107.925 124.985 107.609L125.328 107.294C125.342 106.965 125.671 106.978 125.684 106.649C126.041 106.004 126.726 105.373 127.083 104.728C127.083 104.728 127.083 104.728 127.096 104.399C128.399 104.783 132.624 106.276 136.011 104.108C138.055 102.544 139.809 99.9784 141.537 98.0713C142.236 97.111 142.935 96.1507 143.621 95.5195C144.306 94.8884 144.649 94.5728 144.649 94.5728C144.649 94.5728 144.333 94.23 143.36 93.86C142.386 93.49 141.082 93.1064 139.45 92.7092C136.172 92.244 132.195 92.7392 129.479 94.6054C127.107 96.1561 126.354 98.4332 125.956 100.065C125.888 101.711 126.163 103.042 126.136 103.7C126.122 104.029 125.793 104.016 125.78 104.345C125.094 104.976 124.738 105.621 124.052 106.252L123.709 106.568C123.434 105.237 123.173 103.578 122.597 101.575C122.006 99.9023 121.731 98.5719 121.128 97.228C120.51 96.2132 120.222 95.2121 120.222 95.2121L119.892 95.1985C119.892 95.1985 120.194 95.8704 120.469 97.2008C121.087 98.2155 121.348 99.875 121.609 101.535C121.87 103.194 122.474 104.538 122.42 105.855C122.393 106.513 122.695 107.185 122.681 107.514C122.681 107.514 122.681 107.514 122.667 107.843L122.654 108.173C122.64 108.502 122.956 108.845 122.942 109.174C123.862 110.86 124.438 112.863 125.015 114.865C126.169 118.87 126.664 122.847 126.87 125.823C127.145 127.154 127.104 128.141 127.064 129.129C125.693 130.391 124.321 131.653 122.607 133.231C120.208 135.44 117.808 137.649 117.014 140.914C117 141.243 116.658 141.559 116.63 142.217L116.59 143.205C116.562 143.863 116.206 144.508 116.179 145.166C116.152 145.824 116.124 146.483 116.097 147.141C116.07 147.8 116.043 148.458 116.016 149.116C115.907 151.75 116.141 154.068 116.375 156.386C116.663 157.387 116.609 158.703 116.897 159.705C117.185 160.706 117.145 161.693 117.433 162.694C117.419 163.024 117.721 163.696 117.708 164.025C117.694 164.354 117.694 164.354 117.681 164.683C117.653 165.341 117.626 166 117.928 166.672C117.874 167.989 118.162 168.99 118.135 169.648C118.121 169.977 118.108 170.306 118.108 170.306C117.738 171.28 117.354 172.583 116.971 173.887C116.587 175.19 116.203 176.493 115.82 177.796L115.45 178.77L115.08 179.744C114.723 180.389 114.696 181.047 114.353 181.363C113.271 183.626 111.872 185.547 110.145 187.454C108.088 189.347 105.702 191.227 103.632 193.45C102.946 194.081 102.59 194.726 102.247 195.041C101.891 195.686 101.219 195.988 100.849 196.962C100.492 197.607 99.8068 198.238 99.4504 198.883C99.5049 197.566 99.5457 196.578 99.6001 195.262C99.6953 192.957 100.133 190.337 100.229 188.033C100.283 186.717 100.337 185.4 100.721 184.097C100.748 183.438 100.775 182.78 100.803 182.122L100.884 180.146C100.993 177.513 100.773 174.866 100.868 172.562C100.634 170.244 100.729 167.94 100.495 165.622C100.852 164.977 101.222 164.003 101.921 163.043C102.647 161.424 103.703 159.819 105.115 157.569C105.827 156.279 106.54 154.99 106.924 153.687C107.28 153.042 107.307 152.384 107.664 151.739C108.02 151.094 108.047 150.436 108.417 149.462C110.322 143.275 110.292 136.02 109.933 128.751C109.573 121.481 108.912 113.54 111.187 106.38C111.995 102.786 114.106 99.5758 116.862 96.722C118.246 95.1305 119.96 93.5526 121.359 91.6319C122.017 91.6591 122.689 91.3572 123.347 91.3844C124.349 91.096 125.336 91.1368 126.666 90.862C127.997 90.5872 129.327 90.3125 130.657 90.0377C131.988 89.7629 133.661 89.1726 135.32 88.9114C136.994 88.321 138.653 88.0599 140.655 87.4831C141.656 87.1947 142.328 86.8928 143.33 86.6044C144.331 86.316 145.332 86.0277 146.017 85.3965C147.019 85.1081 148.033 84.4906 148.705 84.1886C148.705 84.1886 149.034 84.2022 149.048 83.873L149.377 83.8866C150.036 83.9138 151.366 83.639 152.71 83.0351C154.726 82.1292 156.769 80.5648 158.812 79.0006L158.798 79.3298C158.798 79.3298 159.141 79.0142 159.47 79.0278C159.8 79.0414 160.129 79.055 160.787 79.0822C161.089 79.7541 161.364 81.0845 161.968 82.4284C162.572 83.7723 163.519 84.8007 165.137 85.5271C166.756 86.2535 169.417 85.7039 171.405 85.4563C172.406 85.168 173.394 85.2088 174.382 85.2496C175.04 85.2768 175.698 85.304 175.698 85.304C175.698 85.304 175.712 84.9748 175.423 83.9737C175.464 82.9861 175.176 81.985 174.572 80.641C173.35 78.2823 171.155 75.5537 168.878 74.8001C166.601 74.0465 164.914 74.966 163.557 75.8992C162.199 76.8323 161.473 78.451 161.116 79.0958C160.787 79.0822 160.129 79.055 159.8 79.0414C160.142 78.7258 160.142 78.7258 160.485 78.4102C162.885 76.2012 164.969 73.6493 166.682 72.0714C167.711 71.1247 168.396 70.4936 168.739 70.178C169.411 69.876 169.754 69.5604 169.754 69.5604L169.438 69.2176C169.438 69.2176 169.096 69.5332 168.424 69.8352C167.752 70.1371 167.052 71.0975 166.038 71.7151C164.324 73.293 161.911 75.8312 159.511 78.0403C157.112 80.2493 154.397 82.1155 152.052 83.0079C151.38 83.3099 151.05 83.2962 150.378 83.5982C150.721 83.2826 150.721 83.2827 151.064 82.9671C152.449 81.3756 153.189 79.4277 153.586 77.7954C153.983 76.1631 154.71 74.5444 155.436 72.9257C156.491 71.3206 157.876 69.7291 158.932 68.124L159.261 68.1376L159.604 67.822L159.933 67.8356C160.591 67.8628 161.263 67.5608 161.935 67.2589C163.608 66.6685 165.624 65.7625 167.654 64.5274C169.683 63.2923 171.37 62.3728 173.057 61.4533C174.414 60.5201 175.744 60.2454 175.744 60.2454L175.429 59.9026C175.429 59.9026 174.428 60.191 172.741 61.1105C171.068 61.7009 169.368 62.9495 167.352 63.8555C165.336 64.7614 163.306 65.9965 161.647 66.2577C161.318 66.2441 160.975 66.5597 160.646 66.5461C160.988 66.2305 161.002 65.9013 161.345 65.5857C161.674 65.5993 162.017 65.2838 162.36 64.9682C163.032 64.6662 163.704 64.3642 164.06 63.7195C164.745 63.0883 165.102 62.4435 165.143 61.456C165.156 61.1268 165.156 61.1268 165.17 60.7976C165.513 60.4821 165.526 60.1529 165.855 60.1665C166.897 58.8906 167.583 58.2594 167.583 58.2594L166.938 57.903C166.938 57.903 166.253 58.5341 165.553 59.4945C165.306 57.5058 164.729 55.5035 163.48 53.8032C162.863 52.7884 161.903 52.0893 161.258 51.7329C160.613 51.3765 160.297 51.0337 160.297 51.0337C160.297 51.0337 159.955 51.3493 159.598 51.994C159.242 52.6388 158.543 53.5991 157.857 54.2303C156.472 55.8218 154.772 57.0705 154.361 59.032C154.334 59.6904 154.293 60.6779 154.595 61.3499C154.897 62.0219 155.199 62.6938 155.83 63.3794C156.763 64.7369 158.382 65.4633 159.041 65.4905C159.027 65.8197 159.027 65.8197 159.013 66.1489C157.629 67.7404 155.915 69.3183 154.503 71.5681C152.721 74.7919 152.242 78.3994 149.829 80.9376C149.143 81.5688 148.787 82.2135 147.786 82.5019C147.114 82.8039 146.099 83.4214 145.098 83.7098C144.097 83.9982 143.425 84.3001 142.424 84.5885C141.423 84.8769 140.751 85.1789 139.749 85.4673C138.076 86.0576 136.088 86.3052 134.414 86.8955C132.755 87.1567 131.095 87.4178 129.752 88.0218C128.421 88.2966 127.091 88.5713 125.761 88.8461C125.431 88.8325 125.102 88.8189 124.759 89.1345C126.144 87.543 127.2 85.9379 128.255 84.3328C128.625 83.3588 129.311 82.7277 129.352 81.7401C129.722 80.7662 130.078 80.1214 130.119 79.1339C130.489 78.1599 130.516 77.5016 130.886 76.5276C130.913 75.8693 131.283 74.8953 131.31 74.237C131.338 73.5786 131.694 72.9338 131.721 72.2755C131.735 71.9463 132.064 71.9599 132.078 71.6307C132.434 70.9859 133.133 70.0256 134.161 69.0789C135.889 67.1718 138.96 64.6608 141.703 62.1361C144.445 59.6115 147.516 57.1004 149.587 54.8778C150.615 53.931 151.314 52.9707 151.671 52.3259C152.027 51.6812 152.37 51.3656 152.37 51.3656L152.054 51.0228C152.054 51.0228 151.712 51.3384 151.355 51.9832C150.999 52.6279 149.97 53.5747 148.942 54.5214C146.885 56.4149 143.814 58.9259 140.756 61.1078C137.698 63.2896 134.627 65.8007 132.57 67.6941L132.227 68.0097C132.706 64.4023 133.487 61.4669 133.925 58.847L133.938 58.5178C134.281 58.2023 134.624 57.8867 134.967 57.5711C135.612 57.9275 136.915 58.3111 138.547 58.7083C138.876 58.7219 139.205 58.7355 139.864 58.7627C140.522 58.7899 140.865 58.4743 141.208 58.1587C142.209 57.8704 142.894 57.2392 143.593 56.2788C144.622 55.3321 145.348 53.7134 145.732 52.4103C146.115 51.1072 146.17 49.7904 146.553 48.4873C146.662 45.8539 146.744 43.8787 146.744 43.8787C146.744 43.8787 144.755 44.1263 142.081 45.0051C140.751 45.2798 139.407 45.8838 138.063 46.4877C136.719 47.0917 135.704 47.7092 135.018 48.3404C134.333 48.9715 133.963 49.9455 133.936 50.6039C133.922 50.9331 133.908 51.2622 133.895 51.5914C133.525 52.5653 133.155 53.5393 132.758 55.1716C131.634 58.4226 130.772 63.3332 129.539 69.2176C129.156 70.5207 129.088 72.1666 128.691 73.7989C128.663 74.4573 128.293 75.4312 128.266 76.0896C127.91 76.7344 127.869 77.722 127.513 78.3667C127.156 79.0115 127.115 79.999 126.759 80.6438C126.745 80.973 126.403 81.2885 126.389 81.6177C126.101 80.6166 125.497 79.2726 125.222 77.9423C124.632 76.2692 124.055 74.2669 123.162 71.9218C122.874 70.9206 122.599 69.5903 121.982 68.5756C121.68 67.9036 121.693 67.5744 121.391 66.9024C121.405 66.5733 121.405 66.5733 121.089 66.2305C121.103 65.9013 121.103 65.9013 121.117 65.5721C121.775 65.5993 123.105 65.3246 124.422 65.379C125.752 65.1042 127.069 65.1586 127.782 63.8691C128.824 62.5932 129.248 60.3025 129.343 57.9982C129.384 57.0107 129.439 55.6939 129.466 55.0356C129.493 54.3772 129.52 53.7189 129.52 53.7189C129.52 53.7189 128.862 53.6917 128.204 53.6645C127.545 53.6373 126.228 53.5828 125.227 53.8712C124.569 53.844 124.226 54.1596 123.568 54.1324C123.911 53.8168 123.938 53.1584 123.951 52.8292C125.418 49.2626 125.842 46.972 125.842 46.972L125.184 46.9448C125.184 46.9448 124.759 49.2354 122.964 52.7884C122.607 53.4332 122.251 54.078 122.224 54.7363C120.551 55.3267 118.878 55.917 118.151 57.5357C116.753 59.4564 117 61.4451 117.591 63.1182C117.879 64.1194 118.51 64.8049 119.155 65.1613C119.142 65.4905 119.142 65.4905 119.128 65.8197C119.101 66.478 119.074 67.1364 119.375 67.8084C119.677 68.4804 119.65 69.1387 119.966 69.4815C120.241 70.8118 120.529 71.813 120.817 72.8141C121.381 75.1456 121.957 77.1479 122.548 78.821C123.399 82.1537 124.305 84.1695 124.291 84.4987C123.592 85.4591 122.893 86.4194 121.865 87.3661C119.781 89.918 117.039 92.4426 114.296 94.9673C114.31 94.6381 114.337 93.9797 114.351 93.6505C114.13 91.0035 112.607 87.9728 110.713 85.9161C109.767 84.8878 108.806 84.1886 108.162 83.8322C107.517 83.4758 106.872 83.1194 106.872 83.1194C106.872 83.1194 106.516 83.7642 106.488 84.4225C106.132 85.0673 105.762 86.0413 105.049 87.3308C103.967 89.5943 102.555 91.8441 102.789 94.162C102.748 95.1495 103.036 96.1507 103.667 96.8362C104.298 97.5218 104.6 98.1938 105.561 98.893C106.837 99.9349 108.469 100.332 109.114 100.689C109.1 101.018 109.402 101.69 109.388 102.019C108.333 103.624 107.936 105.256 107.209 106.875C106.059 110.784 105.566 114.721 105.403 118.671C105.24 122.621 105.406 126.585 105.256 130.206C105.615 137.475 105.014 144.045 103.137 149.573C103.11 150.232 102.753 150.877 102.397 151.521C102.04 152.166 102.013 152.824 101.657 153.469C100.958 154.429 100.574 155.733 99.8748 156.693C99.5321 157.009 99.5185 157.338 99.1757 157.653C98.9281 155.665 98.6805 153.676 98.433 151.687C96.8388 142.388 96.5341 133.803 96.8469 126.231C97.0646 120.964 97.2414 116.685 97.7338 112.748C98.6098 107.509 99.5266 101.282 100.786 94.7387C100.813 94.0803 101.183 93.1064 101.211 92.448C101.581 91.4741 101.608 90.8157 101.978 89.8418C102.375 88.2095 102.772 86.5772 103.169 84.9449C103.539 83.9709 103.567 83.3126 103.923 82.6678L104.307 81.3647L105.006 80.4044C106.048 79.1284 107.432 77.537 108.488 75.9319L109.201 74.6423C109.544 74.3267 109.571 73.6684 109.914 73.3528C110.284 72.3789 110.654 71.4049 110.694 70.4173C111.078 69.1142 111.146 67.4683 110.871 66.138C110.871 66.138 110.912 65.1504 111.296 63.8473C111.323 63.1889 111.693 62.215 111.734 61.2275C112.104 60.2535 112.158 58.9368 112.542 57.6337C112.925 56.3305 113.309 55.0274 113.706 53.3951C113.733 52.7367 114.103 51.7628 114.13 51.1044C114.171 50.1169 114.198 49.4585 114.239 48.471C114.253 48.1418 114.253 48.1418 114.266 47.8126C114.609 47.497 115.281 47.1951 115.624 46.8795C116.981 45.9463 118.353 44.684 119.751 42.7633C121.136 41.1718 122.548 38.922 124.275 37.0149C124.974 36.0546 125.66 35.4234 126.359 34.4631C126.688 34.4767 127.017 34.4903 127.347 34.5039C128.005 34.5311 128.663 34.5583 129.322 34.5855C129.98 34.6127 130.968 34.6535 131.955 34.6943C135.563 35.1731 140.473 36.0355 145.384 36.8979C146.687 37.2815 148.003 37.3359 149.32 37.3903C150.637 37.4447 151.967 37.17 152.982 36.5524C153.654 36.2505 153.983 36.264 154.326 35.9485C154.326 35.9485 154.655 35.9621 154.971 36.3049C155.286 36.6476 155.602 36.9904 155.931 37.004C155.575 37.6488 155.191 38.9519 155.452 40.6114C155.713 42.271 156.633 43.9577 158.567 45.0268C160.831 46.1096 163.82 45.5736 165.507 44.6541C166.508 44.3657 167.194 43.7346 167.866 43.4326C168.538 43.1306 168.867 43.1442 168.867 43.1442C168.867 43.1442 168.881 42.815 168.921 41.8275C168.619 41.1555 168.016 39.8116 167.398 38.7969C166.163 36.7674 164.599 34.7242 163.309 34.0115C162.006 33.6279 161.005 33.9162 159.661 34.5202C158.317 35.1241 156.959 36.0573 156.617 36.3729C156.301 36.0301 155.985 35.6873 155.656 35.6737L155.341 35.3309C156.685 34.727 157.699 34.1094 158.714 33.4919C160.401 32.5723 161.429 31.6256 162.444 31.008C163.459 30.3905 163.801 30.0749 163.801 30.0749L163.486 29.7321C163.486 29.7321 162.814 30.0341 162.128 30.6652C161.114 31.2828 160.099 31.9003 158.412 32.8199C156.725 33.7394 155.039 34.6589 152.707 35.2221C151.706 35.5105 150.376 35.7852 149.388 35.7444C148.071 35.69 147.084 35.6492 145.781 35.2656C140.884 34.0741 135.987 32.8825 132.38 32.4037C131.392 32.3629 130.418 31.9928 129.76 31.9656C129.431 31.952 129.431 31.952 129.101 31.9384C129.444 31.6229 130.116 31.3209 130.445 31.3345C133.12 30.4558 136.109 29.9198 139.099 29.3839C139.758 29.4111 140.43 29.1091 141.102 28.8071C141.773 28.5052 142.432 28.5323 143.104 28.2304C143.776 27.9284 144.448 27.6264 144.791 27.3109C145.462 27.0089 145.805 26.6933 146.477 26.3913C148.507 25.1562 150.193 24.2367 151.208 23.6191C152.223 23.0015 152.895 22.6996 152.895 22.6996L152.593 22.0276C152.593 22.0276 151.921 22.3296 150.906 22.9471C149.891 23.5647 148.205 24.4842 146.189 25.3902C145.846 25.7058 145.174 26.0077 144.516 25.9805C143.844 26.2825 143.501 26.5981 142.843 26.5709C142.171 26.8728 141.512 26.8456 140.84 27.1476C140.511 27.134 140.511 27.134 140.182 27.1204C140.881 26.1601 141.251 25.1861 141.95 24.2258C142.334 22.9227 143.047 21.6331 143.417 20.6592C143.787 19.6853 144.143 19.0405 144.143 19.0405L143.827 18.6977C143.827 18.6977 143.471 19.3425 143.101 20.3164C142.731 21.2904 142.018 22.5799 141.635 23.883C140.922 25.1725 140.209 26.4621 139.524 27.0932C139.194 27.0796 139.181 27.4088 138.852 27.3952C136.205 27.6155 133.228 27.8223 130.225 28.6874C128.552 29.2778 127.194 30.2109 125.837 31.1441C124.479 32.0772 123.766 33.3667 122.738 34.3135C120.997 36.5497 119.269 38.4568 117.898 39.7191C116.856 40.995 115.842 41.6126 115.156 42.2437C115.17 41.9146 115.17 41.9146 115.183 41.5854C115.251 39.9395 115.004 37.9508 115.072 36.3049C115.112 35.3173 115.14 34.6589 115.18 33.6714L115.235 32.3547L115.262 31.6963L115.289 31.0379C115.33 30.0504 115.371 29.0629 115.412 28.0753L115.741 28.0889C115.714 28.7473 116.318 30.0912 117.923 31.1467C119.528 32.2023 121.819 32.6267 123.834 31.7208C126.522 30.5129 128.277 27.9474 129.044 25.3412C130.127 23.0777 130.209 21.1026 130.209 21.1026C130.209 21.1026 128.233 21.021 125.943 20.5966C123.639 20.5014 121.019 20.0634 119.332 20.9829C117.988 21.5869 117.604 22.89 117.221 24.1931C116.837 25.4963 116.124 26.7858 115.768 27.4306L115.439 27.417C115.466 26.7586 115.48 26.4294 115.507 25.771C115.575 24.1251 116.288 22.8356 117.316 21.8889C118.344 20.9421 119.702 20.009 121.046 19.405C123.734 18.1971 126.079 17.3048 127.752 16.7145C129.425 16.1241 130.426 15.8357 130.426 15.8357L129.809 14.821C129.809 14.821 128.808 15.1093 127.134 15.6997C125.461 16.29 123.13 16.8532 120.442 18.0611C119.77 18.3631 118.769 18.6515 118.083 19.2826C118.124 18.2951 118.508 16.9919 118.562 15.6752C119.207 16.0316 120.51 16.4152 121.827 16.4696C122.485 16.4968 123.143 16.524 124.131 16.5648C124.789 16.592 125.461 16.29 126.147 15.6589C127.504 14.7258 128.916 12.4759 129.986 10.5416C130.685 9.58127 131.055 8.60732 131.74 7.97616C132.097 7.3314 132.439 7.01583 132.439 7.01583C132.439 7.01583 132.124 6.67303 131.15 6.30304C130.505 5.94666 129.216 5.2339 127.899 5.17949C125.293 4.4123 121.658 4.59186 119.286 6.14255C118.271 6.76011 117.572 7.72043 117.202 8.69438C116.832 9.66832 116.462 10.6423 116.764 11.3142C116.723 12.3018 117.011 13.3029 117.313 13.9749C117.3 14.3041 117.3 14.3041 116.957 14.6197C116.601 15.2644 116.573 15.9228 116.217 16.5675C115.847 17.5415 115.82 18.1998 115.463 18.8446C115.436 19.503 115.409 20.1613 115.066 20.4769C115.053 20.8061 115.039 21.1353 115.039 21.1353L115.368 21.1489C114.326 22.4248 113.6 24.0435 113.203 25.6758C112.805 27.3081 113.053 29.2968 112.656 30.9291L112.629 31.5875C112.615 31.9167 112.615 31.9167 112.601 32.2459L112.547 33.5626C112.506 34.5501 112.465 35.5377 112.438 36.196C112.37 37.8419 112.618 39.8307 112.221 41.463C112.153 43.1089 112.071 45.084 112.017 46.4007C111.989 47.0591 111.949 48.0466 111.592 48.6914C111.236 49.3361 111.195 50.3237 110.839 50.9684C110.455 52.2715 110.058 53.9039 109.674 55.207C109.661 55.5362 109.318 55.8518 109.304 56.1809C109.029 54.8506 108.425 53.5067 108.137 52.5055C107.56 50.5032 106.97 48.8301 106.064 46.8142C105.789 45.4839 105.185 44.1399 104.897 43.1388C104.911 42.8096 104.595 42.4668 104.609 42.1376C104.622 41.8084 104.307 41.4657 104.334 40.8073C104.032 40.1353 103.73 39.4634 103.428 38.7914C102.824 37.4474 102.22 36.1035 101.616 34.7596C101.012 33.4157 100.408 32.0717 99.8041 30.7278C99.8041 30.7278 99.8041 30.7278 99.8177 30.3986C99.8449 29.7402 99.8857 28.7527 100.269 27.4496C100.694 25.1589 101.159 21.8807 101.638 18.2733C101.719 16.2982 101.801 14.3231 101.883 12.348L102.212 12.3616C102.212 12.3616 101.896 12.0188 102.239 11.7033C102.253 11.3741 102.595 11.0585 102.609 10.7293C103.267 10.7565 104.57 11.1401 105.874 11.5237C106.532 11.5509 107.19 11.5781 107.849 11.6053C108.507 11.6325 108.85 11.317 109.522 11.015C110.55 10.0682 111.633 7.80476 112.387 5.5277C112.756 4.55375 113.126 3.57983 113.167 2.59228C113.194 1.93392 113.551 1.28915 113.551 1.28915C113.551 1.28915 111.603 0.549159 109.299 0.45394C107.008 0.0295405 104.032 0.236299 101.989 1.80059C101.303 2.43175 100.604 3.3921 100.234 4.36605C99.864 5.33999 99.8368 5.99836 100.125 6.99951C100.4 8.32984 101.017 9.34457 101.319 10.0165C101.292 10.6749 101.265 11.3333 101.238 11.9917C101.224 12.3208 100.895 12.3072 100.895 12.3072L101.224 12.3208C101.143 14.2959 100.732 16.2574 100.65 18.2325C100.185 21.5107 99.7198 24.7889 99.2954 27.0796C99.2818 27.4088 99.2546 28.0672 98.9118 28.3827C98.0195 26.0377 97.1272 23.6926 96.866 22.0331C96.5912 20.7027 96.3165 19.3724 96.3437 18.714C96.3709 18.0557 96.7 18.0693 96.3845 17.7265L95.7397 17.3701C97.0972 16.437 100.141 14.5843 99.6055 11.5944C99.6463 10.6069 98.6996 9.57856 98.082 8.5638C97.4645 7.54905 96.5042 6.84987 95.5438 6.1507C93.6231 4.75235 91.9908 4.35516 91.9908 4.35516C91.9908 4.35516 90.9353 5.96025 90.1953 7.90814C89.8253 8.88208 89.1261 9.84243 88.7561 10.8164C88.3862 11.7903 88.0162 12.7643 88.3045 13.7654C88.8405 16.7553 93.079 17.9196 94.725 17.9876C94.7114 18.3168 94.7114 18.3168 94.6977 18.646C94.6569 19.6336 94.6025 20.9503 95.1929 22.6234C96.0444 25.956 97.5135 30.3034 99.6137 35.3363C100.218 36.6803 100.492 38.0106 101.096 39.3546C101.398 40.0265 101.7 40.6985 101.673 41.3568C101.66 41.686 101.975 42.0288 101.962 42.358C101.948 42.6872 102.263 43.03 102.25 43.3592C101.948 42.6872 101.632 42.3444 101.317 42.0016C100.686 41.316 100.027 41.2888 100.027 41.2888C100.027 41.2888 99.6708 41.9336 99.3144 42.5784C99.3144 42.5784 99.3144 42.5783 98.9717 42.8939C98.6425 42.8803 98.3269 42.5376 98.3269 42.5376L96.0634 41.4548L93.7864 40.7012L91.5093 39.9476C90.5353 39.5776 90.5353 39.5776 89.877 39.5504C90.2198 39.2349 90.2198 39.2348 90.2198 39.2348L90.2334 38.9057L90.247 38.5765C90.2742 37.9181 89.9586 37.5753 89.9858 36.917C89.6974 35.9158 89.4091 34.9147 89.1207 33.9135L88.8323 32.9124C88.8731 31.9248 88.5984 30.5945 87.9672 29.9089L87.6516 29.5662C87.3496 28.8942 87.3768 28.2358 87.3904 27.9066L86.4029 27.8658C86.3893 28.195 86.3757 28.5242 86.3621 28.8534C85.0726 28.1406 83.7694 27.757 82.4663 27.3734C81.4924 27.0034 80.5048 26.9626 79.8601 26.6062C79.2153 26.2498 78.5569 26.2226 78.5569 26.2226C78.5569 26.2226 78.2142 26.5382 78.1734 27.5258C77.817 28.1705 77.7626 29.4873 77.379 30.7904C77.2701 33.4238 77.4769 36.4001 79.0548 38.114C80.3171 39.4851 82.2786 39.8959 83.9381 39.6347C85.5976 39.3736 86.9552 38.4404 87.298 38.1249C87.6271 38.1385 87.6135 38.4677 87.9427 38.4813C87.9291 38.8104 87.9291 38.8104 87.9155 39.1396L87.9019 39.4688L87.8747 40.1272L87.8203 41.4439C89.137 41.4983 90.111 41.8683 91.0849 42.2383L93.0328 42.9783L94.9671 44.0475L96.9014 45.1166L97.2169 45.4594C95.503 47.0373 93.7891 48.6152 93.0491 50.5631C92.6927 51.2078 92.6655 51.8662 92.9675 52.5381C91.0332 51.469 88.7425 51.0446 87.1238 50.3182C85.1759 49.5783 83.9 48.5363 82.6513 46.836C82.0201 46.1504 81.7318 45.1492 81.4298 44.4772C81.1142 44.1345 81.1414 43.4761 80.8258 43.1333C80.5103 42.7906 80.2083 42.1186 80.2219 41.7894C78.3828 38.416 76.1874 35.6873 74.6503 32.9858C74.6503 32.9858 74.6639 32.6567 74.6775 32.3275C74.7047 31.6691 74.4027 30.9971 74.4299 30.3388C74.4979 28.6928 74.5796 26.7178 74.6612 24.7427C74.6612 24.7427 75.004 24.4271 75.3467 24.1115C75.6895 23.7959 76.0187 23.8095 76.7043 23.1784C77.349 23.5348 78.6522 23.9184 80.3117 23.6572C81.9712 23.396 83.9871 22.4901 85.0562 20.5558C86.4682 18.3059 86.2614 15.3297 86.0275 13.0118C85.7527 11.6815 85.7935 10.694 85.4915 10.022C85.1896 9.35003 85.2168 8.69166 85.2168 8.69166C85.2168 8.69166 84.5584 8.66445 83.8864 8.96642C83.2145 9.2684 81.8841 9.54318 80.8694 10.1607C78.8535 11.0667 76.4812 12.6174 75.4256 14.2225L75.4392 13.8933L75.1101 13.8797C75.1101 13.8797 75.0964 14.2089 75.0828 14.538L75.0692 14.8672C74.6993 15.8412 74.6584 16.8287 74.9468 17.8299C74.8788 19.4758 74.4816 21.1081 74.0708 23.0696C73.6464 25.3602 73.5512 27.6645 73.4696 29.6396C73.456 29.9688 73.456 29.9688 73.4424 30.298C72.5228 28.6112 71.5897 27.2537 71.3149 25.9234L71.3285 25.5942C71.0266 24.9222 71.0538 24.2639 71.081 23.6055C71.0946 23.2763 71.0946 23.2763 71.1082 22.9471C71.8346 21.3284 72.5881 19.0514 71.655 17.6938C71.0374 16.6791 69.3915 16.6111 68.1156 15.5691C67.4709 15.2127 66.8533 14.198 66.8805 13.5396C66.5785 12.8676 66.5921 12.5385 66.5921 12.5385C66.5921 12.5385 64.617 12.4568 62.5467 14.6795C61.5048 15.9554 60.7784 17.5741 60.7104 19.22C60.6424 20.8659 60.9035 22.5255 61.5211 23.5402C63.9913 27.5992 68.3659 25.4718 69.7098 24.8678L70.0254 25.2106C70.0254 25.2106 70.0254 25.2106 70.0118 25.5398C70.6022 27.2129 71.8237 29.5716 73.3608 32.2731C74.2803 33.9598 75.529 35.6601 76.7641 37.6896C76.4485 37.3468 75.7902 37.3196 75.1454 36.9632C74.8162 36.9496 74.5007 36.6069 74.1715 36.5932C73.8423 36.5796 73.5267 36.2368 73.1975 36.2232C72.5528 35.8668 71.908 35.5105 71.2769 34.8249C70.0009 33.783 68.3958 32.7274 67.1199 31.6854C64.2389 29.5879 60.6587 28.4507 58.4224 26.7096C58.1069 26.3668 57.7777 26.3532 57.4485 26.3396C57.1329 25.9968 57.1329 25.9968 56.8173 25.654C56.5018 25.3113 56.1862 24.9685 55.8706 24.6257C55.2394 23.9401 54.9239 23.5973 54.9239 23.5973L54.5811 23.9129C54.5811 23.9129 54.8967 24.2557 55.5278 24.9413C55.8434 25.2841 56.159 25.6269 56.4745 25.9696C56.7901 26.3124 56.7901 26.3124 57.1057 26.6552C57.4349 26.6688 57.7505 27.0116 58.066 27.3544C60.3023 29.0955 63.8825 30.2326 66.7635 32.3302C68.0394 33.3721 69.6309 34.7569 70.9205 35.4697C71.5652 35.8261 72.1964 36.5116 72.8412 36.868C73.1567 37.2108 73.4859 37.2244 73.8015 37.5671C74.1307 37.5808 74.4462 37.9236 74.7754 37.9372C75.4202 38.2935 76.0649 38.6499 76.3941 38.6635C76.7097 39.0063 77.3681 39.0335 77.3545 39.3627C77.9992 39.7191 77.9856 40.0483 77.9856 40.0483C78.3012 40.3911 78.2876 40.7202 78.6032 41.063C78.9188 41.4058 78.9052 41.735 79.2071 42.407C79.5227 42.7498 79.4955 43.4081 79.8111 43.7509C80.0995 44.752 80.717 45.7668 81.3482 46.4524C81.3346 46.7815 81.6502 47.1243 81.9793 47.1379C79.3867 46.0416 75.8201 44.5752 72.5963 42.7933C69.0433 40.9977 65.8195 39.2158 63.2541 37.4611C61.9645 36.7483 61.0042 36.0491 60.373 35.3635C59.7419 34.678 59.4127 34.6644 59.4127 34.6644L59.0699 34.98C59.0699 34.98 59.3855 35.3228 60.0167 36.0083C60.6478 36.6939 61.6082 37.393 62.8977 38.1058C65.1339 39.8469 68.3441 41.9581 71.8835 44.0828L72.2127 44.0964C71.8699 44.412 71.8563 44.7412 71.5271 44.7276C70.8824 44.3712 69.922 43.672 68.6325 42.9592C67.6722 42.2601 66.3826 41.5473 65.0523 41.8221C63.3928 42.0832 61.0069 43.9631 59.293 45.541C58.2646 46.4877 57.5791 47.1189 56.8935 47.75C56.3032 46.0769 55.6992 44.733 55.7536 43.4162C55.4652 42.4151 55.4924 41.7567 55.5197 41.0984C55.5333 40.7692 55.5333 40.7692 55.5469 40.44L55.5605 40.1108L54.9157 39.7545C54.9157 39.7545 54.9157 39.7544 54.9021 40.0836C54.9021 40.0836 54.8885 40.4128 54.8749 40.742C54.8477 41.4004 54.8205 42.0587 55.1088 43.0599C55.3564 45.0486 56.5507 48.0656 57.4022 51.3983C57.6906 52.3994 57.9926 53.0714 58.281 54.0725C58.2674 54.4017 58.5693 55.0737 58.5557 55.4028C58.5421 55.732 58.5149 56.3904 58.5013 56.7196C58.4197 58.6946 58.0089 60.6561 58.5585 63.3168C58.8332 64.6471 59.78 65.6755 60.7267 66.7038C61.687 67.403 62.6338 68.4314 63.5941 69.1306C64.5545 69.8297 65.844 70.5425 66.8043 71.2417C67.4491 71.598 67.7647 71.9408 68.0802 72.2836C68.725 72.64 69.0406 72.9828 69.6718 73.6683C69.9873 74.0111 70.6321 74.3675 70.9477 74.7103C69.2881 74.9715 67.615 75.5618 66.2711 76.1658C64.2416 77.4009 62.8705 78.6632 62.8705 78.6632C62.8705 78.6632 64.1192 80.3635 65.3815 81.7347C66.9594 83.4486 68.2081 85.1489 69.4976 85.8617C70.8008 86.2453 71.8155 85.6277 72.8439 84.681C73.8586 84.0634 75.2161 83.1303 75.8881 82.8283C76.2173 82.8419 76.2037 83.1711 76.2037 83.1711C76.1901 83.5003 76.1765 83.8294 76.5057 83.8431C76.794 84.8442 77.0688 86.1745 77.3572 87.1757C77.6456 88.1768 78.2495 89.5208 78.5515 90.1928C79.1418 91.8659 79.7186 93.8681 79.9798 95.5277C80.5565 97.53 80.8041 99.5187 81.3944 101.192C80.7361 101.165 80.0913 100.808 79.1037 100.767C78.459 100.411 77.8142 100.055 77.485 100.041C76.8403 99.6846 76.1955 99.3282 75.5508 98.9718C72.9853 97.2171 70.4471 94.804 68.5672 92.4181C64.8211 87.3172 62.1169 80.9403 58.7135 75.5238C56.8472 72.8087 55.3102 70.1072 53.7595 67.7349C53.1419 66.7202 52.5244 65.7054 51.5776 64.677C51.5776 64.677 51.5912 64.3479 51.6048 64.0187C51.632 63.3603 51.6728 62.3728 52.0428 61.3988C52.4128 60.4249 52.7964 59.1218 53.1936 57.4895C53.2208 56.8311 53.5908 55.8572 53.618 55.1988C53.6588 54.2113 53.3568 53.5393 53.0685 52.5381L52.4509 51.5234C52.1353 51.1806 52.1489 50.8514 51.8334 50.5087C51.5314 49.8367 51.2294 49.1647 50.9274 48.4927C50.6254 47.8208 50.3235 47.1488 50.0215 46.4768C49.7195 45.8049 49.7467 45.1465 49.4311 44.8037C49.1564 43.4734 49.1972 42.4859 48.8952 41.8139C48.5932 41.1419 48.6068 40.8127 48.6068 40.8127L47.9349 41.1147C47.9349 41.1147 47.9213 41.4439 48.2232 42.1159C48.196 42.7742 48.4844 43.7754 48.43 45.0921C48.4028 45.7505 48.7048 46.4225 48.6776 47.0808C48.9795 47.7528 48.9523 48.4111 49.2543 49.0831C49.5563 49.755 49.8583 50.427 50.1466 51.4282C50.133 51.7573 50.4486 52.1001 50.7642 52.4429L51.0526 53.4441C51.3545 54.116 51.3273 54.7744 51.3001 55.4328C51.2729 56.0912 50.9165 56.7359 50.8893 57.3942C50.5057 58.6974 49.793 59.9869 49.4094 61.29C49.3958 61.6192 49.053 61.9348 49.0394 62.264C48.7238 61.9212 48.4082 61.5784 48.4218 61.2492C46.8575 59.2061 45.6224 57.1766 44.3737 55.4763C43.125 53.776 41.8627 52.4048 40.9295 51.0473C39.9828 50.0189 39.6944 49.0178 39.3925 48.3459C39.4061 48.0167 39.4197 47.6874 39.4197 47.6874L39.4333 47.3583C40.7908 46.4252 43.1767 44.5453 42.9563 41.8982C42.668 40.8971 42.0504 39.8823 41.4328 38.8676C40.8153 37.8528 39.8549 37.1536 38.8946 36.4545C36.9739 35.0561 35.3552 34.3297 35.3552 34.3297C35.3552 34.3297 34.2997 35.9349 33.2305 37.8691C32.8605 38.8431 32.1613 39.8034 31.7913 40.7773C31.4214 41.7513 31.3806 42.7389 31.3397 43.7264C31.8757 46.7163 35.7987 47.5378 37.431 47.935C37.431 47.935 37.4174 48.2642 37.4038 48.5934C37.6921 49.5945 37.9805 50.5957 38.9136 51.9532C39.8468 53.3108 41.1091 54.6819 42.0286 56.3686C42.3442 56.7114 42.6462 57.3834 42.9618 57.7261C41.645 57.6717 40.3283 57.6173 39.3408 57.5765C37.6949 57.5085 36.3917 57.1249 34.7594 56.7277C29.8897 54.8778 25.4036 51.7247 20.5475 49.5456L20.2047 49.8612C24.718 52.3559 29.2041 55.5089 34.0739 57.3589C35.6926 58.0852 37.3249 58.4824 38.9708 58.5505C40.6167 58.6185 41.9334 58.6729 43.5657 59.0701C44.1833 60.0848 44.8008 61.0996 45.7476 62.1279C46.3651 63.1427 47.3119 64.171 47.9158 65.515C48.5334 66.5297 49.4665 67.8873 50.0705 69.2312C51.0036 70.5887 51.9231 72.2755 52.5271 73.6194C51.8823 73.263 51.5667 72.9202 50.922 72.5638L49.6324 71.8511C49.3169 71.5083 48.6585 71.481 48.0137 71.1247C47.0398 70.7547 46.0659 70.3847 44.7491 70.3303C42.7876 69.9195 40.8126 69.8379 39.2074 68.7823C36.6148 67.686 35.1049 64.3261 32.2103 62.5578L31.5247 63.1889C32.8007 64.2309 33.4182 65.2456 34.3513 66.6032C34.6533 67.2751 35.2981 67.6315 35.6001 68.3035C35.2709 68.2899 35.2709 68.2899 34.9417 68.2763C32.651 67.8519 29.3592 67.7159 26.3966 67.5935C23.4339 67.471 20.1557 67.0058 18.1942 66.595C17.5359 66.5678 17.2203 66.225 16.8911 66.2114C16.5619 66.1978 16.2463 65.855 15.9172 65.8414C15.2724 65.485 14.9432 65.4715 14.9432 65.4715L14.6004 65.787C14.6004 65.787 14.916 66.1298 15.5744 66.157C15.89 66.4998 16.2191 66.5134 16.5483 66.527C16.8639 66.8698 17.5223 66.897 18.1806 66.9242C20.4577 67.6778 23.4067 68.1294 26.6985 68.2654C29.6612 68.3879 32.9394 68.8531 34.9009 69.2638C35.5592 69.2911 35.8748 69.6339 36.204 69.6475C36.5332 69.6611 36.8488 70.0038 37.178 70.0174C37.5071 70.031 37.4935 70.3602 37.4935 70.3602C39.4278 71.4294 41.7185 71.8538 43.68 72.2646C44.0092 72.2782 44.6539 72.6345 44.9831 72.6481C45.3123 72.6617 45.957 73.0182 46.2862 73.0318C46.6018 73.3745 46.931 73.3881 47.5758 73.7445L48.5361 74.4437C49.812 75.4856 51.0743 76.8568 52.3366 78.2279C53.599 79.5991 54.8613 80.9702 56.4528 82.3549C58.2646 86.3867 60.4057 90.4322 62.8759 94.4912C64.4402 96.5343 66.0045 98.5774 67.9116 100.305L67.2532 100.278L66.924 100.264C66.924 100.264 66.2793 99.9077 65.6481 99.2221C65.0169 98.5365 64.715 97.8646 64.0838 97.179C63.7682 96.8363 63.4527 96.4934 63.1507 95.8215C62.8351 95.4787 62.8351 95.4787 62.1903 95.1223C61.8748 94.7795 61.8748 94.7795 61.8748 94.7795C61.23 94.4231 61.5456 94.7659 61.5456 94.7659L61.2164 94.7523C60.2424 94.3823 59.2549 94.3415 58.5829 94.6435C57.5818 94.9319 57.239 95.2475 56.5806 95.2203C55.5659 95.8378 54.8939 96.1398 54.2356 96.1126C53.5772 96.0854 53.248 96.0718 52.6033 95.7154C51.3137 95.0026 50.0514 93.6315 48.4735 91.9175C48.1579 91.5748 48.1579 91.5748 47.8424 91.232L47.1976 90.8756C46.882 90.5328 46.2373 90.1764 45.9217 89.8337C44.9613 89.1345 44.3302 88.4489 43.3562 88.0789C43.027 88.0653 43.0407 87.7361 42.7115 87.7225C42.7251 87.3933 42.7251 87.3934 42.7387 87.0642C43.4106 86.7622 44.7546 86.1582 45.7693 85.5407C46.7977 84.5939 47.4968 83.6336 47.5513 82.3169C47.2765 80.9865 46.0006 79.9446 44.3955 78.889C43.7643 78.2035 43.1195 77.8471 42.8176 77.1751C42.502 76.8323 42.1864 76.4895 42.1864 76.4895C42.1864 76.4895 41.8572 76.4759 41.1853 76.7779C40.5133 77.0799 39.4985 77.6974 38.813 78.3286C37.4554 79.2617 36.3999 80.8668 36.0027 82.4991C35.6871 82.1564 35.0424 81.8 34.7268 81.4572C32.1613 79.7024 30.5834 77.9885 29.3211 76.6174C28.69 75.9318 28.3744 75.589 28.4016 74.9307C28.086 74.5879 28.0996 74.2587 28.0996 74.2587L26.0973 74.8355C26.0973 74.8355 26.0837 75.1646 26.3993 75.5074C26.7149 75.8502 27.0168 76.5222 27.3052 77.5233C28.2247 79.2101 30.1318 80.9376 32.6837 83.0215C34.5907 84.749 37.1562 86.5037 39.708 88.5877C38.0621 88.5196 35.7714 88.0952 33.4944 87.3416C31.2173 86.5881 28.9402 85.8345 27.2943 85.7665C26.3204 85.3965 25.662 85.3693 25.3328 85.3557C24.6745 85.3285 24.6745 85.3285 24.6745 85.3285L24.6609 85.6577C24.6609 85.6577 24.9901 85.6713 25.3192 85.6849C25.9776 85.7121 26.6224 86.0684 27.2807 86.0956C28.913 86.4928 31.1901 87.2464 33.138 87.9864C35.4151 88.74 37.7057 89.1644 39.338 89.5616C39.9964 89.5888 40.3256 89.6024 40.984 89.6296C41.6151 90.3152 42.2599 90.6716 42.891 91.3571C43.2066 91.6999 43.5222 92.0427 43.8378 92.3855L44.4689 93.0711C44.7981 93.0847 44.7845 93.4138 44.7845 93.4138C45.1001 93.7566 45.4021 94.4286 46.0468 94.785C44.7301 94.7306 43.7425 94.6898 42.4258 94.6354C40.7799 94.5673 38.8048 94.4857 37.1453 94.7469C36.1578 94.7061 35.4858 95.0081 34.4982 94.9673C34.4982 94.9673 32.8523 94.8992 30.2325 94.4612C29.2449 94.4204 27.9418 94.0368 26.6251 93.9824C25.0064 93.2561 23.7305 92.2141 22.7973 90.8565C21.5486 89.1562 20.2999 87.4559 19.0512 85.7556C18.7492 85.0836 18.118 84.3981 17.4869 83.7125L17.5005 83.3833C15.305 80.6546 12.1084 78.2143 9.5702 75.8012L9.22741 76.1168C11.7656 78.5299 14.6331 80.9566 16.8285 83.6853C16.4993 83.6717 16.1702 83.6581 15.841 83.6445C15.2234 82.6297 13.0824 78.5843 9.10499 79.0795C6.78711 79.3134 4.05844 81.5089 2.6465 83.7587C1.94733 84.7191 1.24816 85.6794 0.878167 86.6533C0.521779 87.2981 0.494565 87.9565 0.494565 87.9565C0.494565 87.9565 1.15294 87.9837 1.7977 88.3401C2.44246 88.6964 3.41641 89.0664 4.71953 89.45C6.9966 90.2036 9.26007 91.2864 11.2488 91.0388C11.5779 91.0524 11.9207 90.7369 12.2499 90.7505C12.5791 90.7641 12.8947 91.1068 12.8947 91.1068C15.1581 92.1896 18.4091 93.3132 21.6601 94.4367C24.9248 95.2311 28.1894 96.0255 30.7956 96.7927C31.1248 96.8063 31.1248 96.8063 31.1248 96.8063C28.4505 97.685 25.7491 99.2221 23.404 100.114C22.0601 100.718 20.3733 101.638 18.7002 102.228C17.3563 102.832 15.354 103.409 14.0509 103.025L13.6945 103.67C14.6684 104.04 15.656 104.081 16.6571 103.793C17.6583 103.504 18.3166 103.531 19.3178 103.243C20.9909 102.653 22.664 102.062 24.008 101.458C27.025 100.264 30.3848 98.7542 33.3747 98.2183C34.705 97.9435 36.3645 97.6823 38.0104 97.7503C39.6563 97.8184 41.3022 97.8864 42.9481 97.9544C45.568 98.3924 48.517 98.844 51.1369 99.282C52.1108 99.6519 53.414 100.036 54.4151 99.7472C56.0746 99.486 57.0894 98.8685 58.0905 98.5801C58.4333 98.2645 58.7625 98.2781 59.0917 98.2917C59.4208 98.3053 59.4208 98.3053 59.4208 98.3053C59.7364 98.6481 59.7228 98.9773 60.0384 99.3201C60.6696 100.006 60.9579 101.007 61.5891 101.692C62.2203 102.378 62.8378 103.393 64.4565 104.119C65.1149 104.146 65.4305 104.489 66.0888 104.516C66.7336 104.873 67.0628 104.886 67.7211 104.913C68.7087 104.954 69.6962 104.995 70.341 105.351C73.6192 105.817 76.541 106.927 77.8442 107.31C78.1597 107.653 78.4889 107.667 78.4753 107.996C79.1201 108.352 79.4221 109.024 79.7376 109.367C80.0532 109.71 80.3552 110.382 80.6708 110.724C80.9591 111.726 81.5631 113.07 81.5087 114.386C81.7835 115.717 82.0582 117.047 82.333 118.377C82.3058 119.036 82.6078 119.708 82.9097 120.38C82.8961 120.709 82.8961 120.709 83.2117 121.052L83.5273 121.394C83.5137 121.723 83.8293 122.066 83.8293 122.066C84.406 124.069 84.9692 126.4 85.5459 128.402C86.1227 130.405 86.6994 132.407 87.3034 133.751C87.9073 135.095 88.8541 136.123 89.4716 137.138C89.6376 141.102 90.1191 145.408 90.587 150.044C90.821 152.362 91.055 154.68 91.2889 156.998C91.2345 158.314 91.5229 159.316 91.4685 160.632C91.4141 161.949 91.7024 162.95 91.648 164.267C91.6344 164.596 91.6208 164.925 91.6072 165.254C91.5936 165.584 91.5936 165.584 91.5936 165.584C91.512 167.559 91.7596 169.547 91.678 171.522C91.5691 174.156 91.4739 176.46 91.3651 179.094L91.2835 181.069C91.2563 181.727 91.2291 182.385 91.2019 183.044L90.723 186.651C90.6414 188.626 90.217 190.917 90.1354 192.892C89.8198 192.549 89.8334 192.22 89.5043 192.207C89.1887 191.864 88.8867 191.192 88.5711 190.849C88.2555 190.506 87.9536 189.834 87.638 189.491L87.336 188.819L87.034 188.147C86.7321 187.476 86.4165 187.133 86.4437 186.474C85.5514 184.129 84.9882 181.798 84.1231 178.794C83.8483 177.464 83.5736 176.134 83.3124 174.474C83.0376 173.144 82.7764 171.484 82.5017 170.154C81.9521 167.493 81.7454 164.517 81.5522 161.212C81.3454 158.235 81.1523 154.93 80.3008 151.597C80.0396 149.938 79.4493 148.265 78.5161 146.907C78.2141 146.235 77.583 145.55 77.2946 144.549C76.6634 143.863 76.3615 143.191 75.7303 142.505C73.864 139.79 71.6414 137.72 69.4051 135.979C67.1825 133.909 65.2618 132.51 63.3547 130.783L63.0391 130.44C63.0663 129.782 63.1207 128.465 62.846 127.135C62.9548 124.501 63.118 120.551 62.2801 116.889L62.2937 116.56C62.3073 116.231 62.6365 116.244 62.6501 115.915C63.2949 116.272 64.598 116.655 65.8875 117.368C67.1906 117.752 68.4938 118.135 69.8513 117.202C72.8955 115.349 75.4991 108.203 75.4991 108.203C75.4991 108.203 73.5512 107.463 71.2741 106.709C68.997 105.955 66.0344 105.833 64.0049 107.068C62.3182 107.988 61.5782 109.936 61.181 111.568C61.113 113.214 61.7034 114.887 62.0189 115.23C62.0189 115.23 62.0189 115.23 62.0053 115.559L62.0189 115.23C62.0325 114.9 62.0325 114.9 61.717 114.558C61.7306 114.228 61.415 113.886 61.415 113.886C60.7974 112.871 60.1663 112.185 59.5351 111.5C58.2728 110.129 57.0105 108.757 56.0637 107.729C55.117 106.701 54.1567 106.002 53.5255 105.316C53.2099 104.973 52.8807 104.96 52.8943 104.631C52.8943 104.631 52.5652 104.617 52.5788 104.288C52.5788 104.288 52.5788 104.288 52.2496 104.274C51.9204 104.26 51.9204 104.26 51.9204 104.26L52.236 104.603C52.236 104.603 51.8932 104.919 52.2224 104.933C52.2224 104.933 52.538 105.275 52.8535 105.618C53.4847 106.304 54.1159 106.989 55.049 108.347C55.9957 109.375 56.9289 110.733 57.862 112.09C58.4932 112.776 58.7951 113.448 59.0971 114.12C59.0835 114.449 59.4127 114.462 59.4127 114.462C59.4127 114.462 59.3991 114.792 59.3855 115.121L64.8592 118.315C65.3815 121.634 64.9027 125.241 64.4511 128.19L64.4375 128.519C62.5304 126.792 61.2681 125.421 60.3349 124.063C59.7174 123.048 59.0862 122.363 58.7843 121.691C58.4823 121.019 58.1667 120.676 58.1667 120.676L57.8375 120.662C57.8511 120.333 57.5219 120.32 57.5355 119.991C57.8783 119.675 58.9203 118.399 59.6331 117.109C59.9894 116.465 60.3458 115.82 60.373 115.162C60.4138 114.174 60.441 113.516 59.8235 112.501C59.5215 111.829 58.8903 111.143 58.5884 110.471C58.2728 110.129 57.9572 109.786 57.628 109.772C57.3125 109.429 56.9833 109.416 56.6677 109.073C55.0626 108.018 53.7459 107.963 52.4291 107.909C51.1124 107.854 50.1113 108.143 49.4393 108.445C48.7673 108.747 48.109 108.719 48.109 108.719C48.109 108.719 48.0954 109.049 48.3837 110.05C48.6857 110.722 48.9741 111.723 49.2489 113.053C49.812 115.385 49.0856 117.003 49.7032 118.018C50.0052 118.69 50.6363 119.376 51.2811 119.732C51.9258 120.088 52.8998 120.458 53.5445 120.815C55.1768 121.212 56.5072 120.937 57.4947 120.978C57.8103 121.321 57.8103 121.321 57.7967 121.65L54.4505 122.831C54.4505 122.831 54.766 123.174 55.068 123.845C55.3836 124.188 55.37 124.517 55.6856 124.86C53.7241 124.449 51.1178 123.682 48.1688 123.231C47.8396 123.217 47.5241 122.874 47.1949 122.861C45.9053 122.148 43.9847 120.75 42.7359 119.049C41.1581 117.335 39.8957 115.964 38.6334 114.593C37.7003 113.235 36.7399 112.536 36.7399 112.536L36.3972 112.852C36.3972 112.852 37.0283 113.537 38.2906 114.909C39.2238 116.266 40.8017 117.98 42.0504 119.68C43.3127 121.051 44.5886 122.093 45.5354 123.122L45.2062 123.108C43.2311 123.027 41.2696 122.616 39.6237 122.548C38.9653 122.521 37.9778 122.48 37.3194 122.453L37.333 122.123C37.333 122.123 37.333 122.123 37.3194 122.453C36.661 122.425 35.6735 122.385 35.0287 122.028C33.7256 121.645 32.7517 121.275 32.1069 120.918C31.4621 120.562 31.1602 119.89 31.1466 120.219L30.8038 120.535C30.8038 120.535 31.1194 120.877 31.7505 121.563C31.0922 121.536 30.4338 121.509 29.7754 121.481C28.7743 121.77 27.7731 122.058 26.7584 122.676C24.7017 124.569 23.2625 127.477 23.1537 130.111C23.0993 131.428 23.0585 132.415 23.0177 133.403C22.9905 134.061 23.2924 134.733 23.2924 134.733C23.2924 134.733 23.9508 134.76 24.6228 134.458C25.6239 134.17 26.6115 134.211 27.6126 133.922C29.9441 133.359 32.5912 133.139 33.9623 131.876C34.6479 131.245 35.0043 130.6 35.3606 129.956C35.717 129.311 35.7578 128.323 35.785 127.665C35.8531 126.019 35.9075 124.702 35.9347 124.044C36.2775 123.729 36.9358 123.756 37.2786 123.44L37.6078 123.454L37.937 123.467C38.5953 123.495 39.2537 123.522 39.9121 123.549C41.558 123.617 43.5195 124.028 45.4809 124.439C49.0747 125.247 52.6549 126.384 55.5904 127.165C56.2351 127.521 57.2227 127.562 57.5519 127.575C58.4986 128.604 59.4317 129.961 60.694 131.332L60.3649 131.319C60.0629 130.647 58.7734 129.934 57.1547 129.208C56.1807 128.838 55.1932 128.797 54.2056 128.756C53.2181 128.715 51.8878 128.99 50.8594 129.937C48.1579 131.474 46.7188 134.382 45.6224 136.975C44.5261 139.567 44.1152 141.529 44.1152 141.529C44.1152 141.529 46.4059 141.953 49.053 141.733C50.6989 141.801 52.6876 141.553 54.3607 140.963L54.6899 140.977C55.6638 141.347 56.6378 141.717 57.6117 142.087C58.5856 142.457 59.8888 142.84 60.8627 143.21C62.1658 143.594 63.469 143.977 64.4429 144.347C65.746 144.731 67.0492 145.114 68.0367 145.155C70.3138 145.909 72.2345 147.307 73.154 148.994C73.456 149.666 73.7715 150.009 74.0735 150.681C73.0996 150.311 72.1256 149.941 71.1517 149.571C69.5194 149.173 67.5715 148.433 65.61 148.023C63.6485 147.612 61.3578 147.187 59.04 147.421C58.3816 147.394 57.7368 147.038 57.4077 147.024C56.4201 146.983 56.0909 146.97 56.0909 146.97L56.0773 147.299C54.747 147.574 53.7595 147.533 52.7583 147.821C50.7696 148.069 48.7809 148.316 47.135 148.248C45.4891 148.18 44.186 147.797 43.212 147.427C42.8829 147.413 42.5673 147.07 42.2381 147.057C41.9089 147.043 41.9225 146.714 41.9225 146.714L41.5797 147.03C41.5797 147.03 41.5797 147.03 41.8953 147.372C42.2245 147.386 42.5401 147.729 42.8557 148.072C43.8296 148.442 45.1327 148.825 46.7786 148.893L47.1078 148.907C47.1078 148.907 47.4234 149.25 47.0806 149.565C47.067 149.894 46.7242 150.21 46.7106 150.539C45.3939 150.485 41.4845 149.334 38.7286 152.188C37.3303 154.108 36.5495 157.044 36.4407 159.677C36.3863 160.994 36.661 162.324 36.6338 162.983C36.9222 163.984 36.9086 164.313 36.9086 164.313C36.9086 164.313 37.2514 163.998 38.2525 163.709C38.9245 163.407 39.9257 163.119 41.256 162.844C43.5875 162.281 46.2617 161.402 47.6601 159.481C49.0448 157.89 49.1264 155.915 48.8653 154.255C48.6041 152.596 47.671 151.238 47.0398 150.553C47.3826 150.237 47.4098 149.579 47.4234 149.25C47.437 148.92 47.4506 148.591 47.4506 148.591C48.7673 148.646 50.4268 148.384 52.0863 148.123C53.0875 147.835 54.4042 147.889 55.4054 147.601C55.4054 147.601 55.4054 147.601 55.3918 147.93C55.351 148.918 55.6393 149.919 55.5849 151.236C55.8189 153.553 55.6965 156.516 56.616 158.203C57.5491 159.56 58.8386 160.273 60.1282 160.986C61.7605 161.383 63.0636 161.767 63.722 161.794C63.7084 162.123 63.6812 162.781 63.6676 163.111C63.3384 163.097 63.0092 163.083 63.0228 162.754C62.0489 162.384 61.0749 162.014 60.101 161.644C58.4823 160.918 56.8636 160.192 55.8896 159.822C54.9293 159.122 54.6001 159.109 54.6001 159.109L53.9145 159.74C53.9145 159.74 54.5593 160.096 55.5196 160.795C56.48 161.495 57.7695 162.207 59.7174 162.947C60.6913 163.317 61.6653 163.687 62.6256 164.387C63.5996 164.757 64.5735 165.127 65.5474 165.497C63.5587 165.744 61.57 165.992 59.2386 166.555C55.9195 167.077 52.9297 167.613 50.6118 167.847C49.9535 167.82 49.6243 167.806 48.9659 167.779C48.6367 167.765 47.9784 167.738 47.6492 167.725C46.9908 167.697 46.6752 167.355 46.6752 167.355L46.6616 167.684C46.6616 167.684 46.9908 167.697 47.6356 168.054C47.9648 168.067 48.2939 168.081 48.9523 168.108C49.6107 168.135 49.9399 168.149 50.5982 168.176C53.2317 168.285 56.2215 167.749 59.5405 167.227C62.8596 166.704 65.8494 166.169 68.1401 166.593L68.4693 166.607C69.7724 166.99 71.3911 167.716 72.3514 168.416C72.9962 168.772 73.6274 169.458 74.2585 170.143C71.6114 170.364 68.6216 170.899 66.8941 172.807C64.4946 175.016 65.0305 178.005 65.6073 180.008C65.5937 180.337 65.5937 180.337 65.5801 180.666C65.5665 180.995 65.5393 181.654 65.5121 182.312C65.4985 182.641 65.4849 182.97 65.4849 182.97C65.1693 182.628 65.1829 182.298 64.8537 182.285C64.5381 181.942 64.2361 181.27 63.9206 180.927C63.605 180.584 63.2894 180.242 62.9738 179.899C62.6583 179.556 62.3427 179.213 61.6979 178.857C61.0667 178.171 60.0928 177.801 59.448 177.445C57.8293 176.719 56.5262 176.335 55.5659 175.636C54.5919 175.266 53.618 174.896 52.9732 174.539C52.3285 174.183 51.9993 174.17 51.9993 174.17C51.6973 173.498 51.4225 172.167 50.4758 171.139C49.2135 169.768 47.2792 168.699 44.9749 168.603C41.9987 168.81 38.968 170.334 36.9113 172.227C35.883 173.174 34.8546 174.121 34.4982 174.765C33.8127 175.396 33.7855 176.055 33.7855 176.055C33.7855 176.055 34.4302 176.411 35.075 176.768C35.7197 177.124 37.0093 177.837 37.9832 178.207C40.2467 179.29 43.1549 180.729 45.4728 180.495C47.4479 180.576 48.819 179.314 49.8474 178.367C50.5465 177.407 51.5749 176.46 51.9313 175.815C51.9313 175.815 52.2605 175.829 52.2469 176.158C52.8916 176.515 53.5364 176.871 54.8395 177.255C56.7738 178.324 60.0248 179.447 62.2338 181.847C62.5494 182.19 62.865 182.532 62.8514 182.862L63.1534 183.534C63.1398 183.863 63.469 183.876 63.4554 184.205C63.7437 185.207 64.0457 185.879 64.0049 186.866C64.2525 188.855 64.5 190.844 65.0632 193.175C66.5459 197.193 68.6733 201.568 71.1571 205.298C67.5905 203.831 63.0364 202.324 58.1259 201.462C57.1383 201.421 56.4936 201.064 55.506 201.024C55.5196 200.694 55.5468 200.036 55.5604 199.707C56.2324 199.405 57.2471 198.787 58.3027 197.182C58.6591 196.538 59.0291 195.564 59.3991 194.59C59.4399 193.602 59.4807 192.615 58.8767 191.271C57.998 188.596 55.117 186.499 52.5243 185.402C51.2212 185.019 50.2473 184.649 49.2597 184.608C48.6014 184.581 47.943 184.554 47.943 184.554C47.943 184.554 47.9158 185.212 47.8886 185.87C47.8614 186.529 47.807 187.846 47.7662 188.833C47.671 191.137 47.2329 193.757 47.8233 195.43C48.1253 196.102 48.4273 196.774 49.072 197.131C49.7168 197.487 50.3615 197.843 51.0063 198.2C52.2958 198.913 53.9281 199.31 54.5865 199.337C54.5729 199.666 54.5457 200.325 54.5321 200.654C50.9383 199.846 47.3309 199.367 44.7246 198.6C41.1308 197.792 38.8538 197.038 38.8538 197.038L38.4974 197.683C38.4974 197.683 40.7745 198.436 44.3546 199.574C47.9484 200.382 52.8454 201.573 57.4131 202.751C60.0193 203.518 62.6256 204.286 65.2318 205.053C64.9027 205.039 64.8891 205.368 64.5599 205.355C63.5995 204.656 59.7582 201.859 55.3428 204.974C52.9705 206.525 51.1614 210.407 51.0525 213.04C50.9981 214.357 50.9437 215.674 50.9165 216.332C50.8757 217.32 50.8621 217.649 50.8621 217.649C50.8621 217.649 51.5205 217.676 52.1924 217.374C53.1936 217.086 54.1947 216.797 55.5251 216.522C57.8565 215.959 60.5172 215.41 62.2175 214.161C63.5751 213.228 64.315 211.28 64.7122 209.648C65.1094 208.015 64.8483 206.356 64.8755 205.698C65.2182 205.382 65.8902 205.08 66.2194 205.094C67.5225 205.477 68.812 206.19 70.1152 206.574C71.0891 206.944 71.7339 207.3 72.3786 207.656C72.6942 207.999 73.0234 208.013 73.339 208.355C74.2721 209.713 74.8897 210.728 75.8228 212.085C77.0579 214.115 77.9638 216.131 79.1989 218.16C79.8165 219.175 80.4341 220.19 81.0516 221.204C81.6692 222.219 82.2867 223.234 82.9179 223.92C83.5355 224.934 84.1666 225.62 84.7842 226.635C85.4153 227.32 86.0465 228.006 86.664 229.02C88.8731 231.42 90.0674 234.437 91.3161 236.137C91.9337 237.152 92.5648 237.838 92.8668 238.51L93.1824 238.852C92.9647 244.119 93.1035 248.741 92.9675 252.033C92.9538 252.362 92.6247 252.349 92.6111 252.678C92.2819 252.664 92.2819 252.664 91.9527 252.651C89.662 252.226 86.6858 252.433 83.7096 252.64C80.7197 253.176 77.0851 253.355 73.1213 253.521C71.1326 253.769 69.1575 253.687 67.1689 253.935C66.1813 253.894 65.1802 254.182 64.1926 254.142L60.8736 254.664C58.5557 254.898 56.8962 255.159 54.9075 255.407C52.9324 255.325 50.9573 255.243 48.9822 255.162C45.0321 254.999 41.4246 254.52 38.1056 255.042C34.8002 255.235 32.4551 256.128 30.7684 257.047C29.7673 257.336 29.4109 257.98 28.7525 257.953C28.4097 258.269 28.0805 258.255 28.0805 258.255L28.7117 258.941C28.7117 258.941 29.0409 258.954 29.3837 258.639C29.7264 258.323 30.3984 258.021 31.0704 257.719C32.7435 257.129 35.075 256.566 38.0512 256.359C39.3679 256.413 40.3555 256.454 41.6722 256.508C39.9855 257.428 38.2988 258.348 36.6121 259.267C34.2534 260.489 32.2511 261.065 30.2488 261.642C29.2476 261.93 28.5893 261.903 27.9173 262.205C27.2453 262.507 27.2453 262.507 27.2453 262.507L27.5609 262.85C27.5609 262.85 27.8901 262.864 28.2329 262.548C28.8912 262.575 29.5632 262.273 30.5508 262.314C32.2103 262.053 34.8845 261.174 36.914 259.939C39.2591 259.047 41.3022 257.482 42.9753 256.892C43.3045 256.906 43.3045 256.906 43.6473 256.59C45.2932 256.658 46.5963 257.042 48.5714 257.123C50.5465 257.205 52.508 257.616 54.4831 257.697C56.4582 257.779 58.7761 257.545 60.7648 257.297L63.741 257.091C64.7286 257.132 65.7161 257.172 66.7036 257.213C68.6787 257.295 70.6674 257.047 72.6425 257.129C76.6063 256.963 80.2273 257.112 83.5327 256.919C85.8506 256.685 87.8257 256.767 89.1424 256.821C89.1424 256.821 89.1288 257.151 89.1152 257.48C88.7724 257.795 88.1005 258.097 87.1129 258.056C83.7939 258.579 78.8834 257.716 73.6165 257.499C70.983 257.39 68.3495 257.281 65.3597 257.817L63.3574 258.394C62.6854 258.696 62.0135 258.998 61.3415 259.3L60.3404 259.588L59.3256 260.206L57.6253 261.454C56.6105 262.072 55.253 263.005 54.2383 263.623C53.2235 264.24 52.1951 265.187 50.8648 265.462C50.1928 265.764 49.8501 266.079 49.1781 266.381L47.1758 266.958C45.8455 267.233 44.8443 267.521 43.514 267.796C38.5219 268.909 33.8725 269.706 29.8815 270.53C27.8792 271.107 25.8905 271.354 24.5602 271.629C22.8871 272.219 21.5567 272.494 20.5556 272.783C19.5545 273.071 18.5533 273.359 17.8813 273.661C17.2094 273.963 16.8666 274.279 16.8666 274.279L17.4841 275.294C17.4841 275.294 17.8133 275.307 18.1561 274.992C18.8281 274.69 19.5 274.388 20.8304 274.113C21.8315 273.825 23.491 273.563 24.8214 273.289C26.4809 273.027 28.1404 272.766 30.1291 272.519C33.1189 271.983 36.4379 271.46 40.0862 270.952C39.4142 271.254 39.0578 271.898 38.7014 272.543C37.6595 273.819 36.9467 275.109 35.9047 276.385C35.5483 277.029 34.8628 277.66 34.5064 278.305C33.8208 278.936 33.478 279.252 32.7925 279.883C31.7641 280.83 30.4066 281.763 29.721 282.394C28.7063 283.012 28.0207 283.643 27.6643 284.288C27.3079 284.932 26.9651 285.248 26.9651 285.248L27.2943 285.262C27.2943 285.262 27.3079 284.932 27.9935 284.301C28.3499 283.656 29.0354 283.025 30.0502 282.408C31.0649 281.79 32.4225 280.857 33.4508 279.91C34.1364 279.279 34.4792 278.964 35.1647 278.332C35.8503 277.701 36.2067 277.057 36.8923 276.425C37.9342 275.149 38.9762 273.874 39.689 272.584C40.0453 271.939 40.7173 271.637 41.0737 270.993C41.4165 270.677 42.0884 270.375 42.4312 270.059C43.0896 270.087 43.7616 269.785 44.4199 269.812C45.7503 269.537 47.0806 269.262 48.4109 268.987L50.4132 268.411C51.0852 268.109 51.7571 267.807 52.4291 267.505C53.773 266.901 55.117 266.297 56.1317 265.679C57.1465 265.062 58.1612 264.444 59.176 263.827C59.1216 265.143 58.738 266.446 58.6836 267.763C58.2728 269.725 57.5328 271.673 56.82 272.962C56.1072 274.252 55.0925 274.869 55.0925 274.869L55.4081 275.212C55.4081 275.212 55.7509 274.896 56.0936 274.581C56.4364 274.265 56.7928 273.621 57.4784 272.989C58.5203 271.713 59.2603 269.766 59.6711 267.804C60.0683 266.172 60.4655 264.539 60.5199 263.223C62.5494 261.988 64.5653 261.082 66.8832 260.848C68.2135 260.573 69.5303 260.627 71.1762 260.695C70.1614 261.313 69.1331 262.26 68.4475 262.891C67.0763 264.153 66.0344 265.429 65.3216 266.719C64.6224 267.679 63.9369 268.31 63.9369 268.31L64.2525 268.653C64.2525 268.653 64.938 268.022 65.6372 267.061C66.6655 266.115 67.7075 264.839 69.0786 263.576C70.4498 262.314 71.8073 261.381 72.8085 261.093C73.4668 261.12 73.796 261.133 74.4544 261.161C78.7201 261.667 82.9723 262.502 87.2517 262.679C86.5661 263.31 85.8669 264.27 84.8386 265.217C83.8102 266.164 82.7683 267.439 81.3971 268.702C80.7116 269.333 80.026 269.964 79.354 270.266C78.6821 270.568 77.9965 271.199 77.3109 271.83C76.9817 271.817 76.337 271.46 75.6786 271.433C74.691 271.392 74.0327 271.365 73.3743 271.338C71.7284 271.27 70.0825 271.202 69.1086 270.832C68.1346 270.462 67.5035 269.776 67.4899 270.106L67.1471 270.421C67.1471 270.421 67.7782 271.107 69.0814 271.49C70.3845 271.874 72.0168 272.271 73.3335 272.326C73.9919 272.353 74.9794 272.394 75.6242 272.75C75.9534 272.764 75.9534 272.764 76.2826 272.777C73.2655 273.971 69.6037 274.809 65.9419 275.647C63.9396 276.224 61.5945 277.116 59.8942 278.365C58.1939 279.614 56.4936 280.863 54.7932 282.111C54.7932 282.111 54.4641 282.098 54.4505 282.427C53.4357 283.044 52.0918 283.648 50.4323 283.909C48.7863 283.841 47.4832 283.458 46.1801 283.074C45.5217 283.047 44.8634 283.02 44.5342 283.006C44.205 282.993 43.8622 283.308 43.8622 283.308L43.8486 283.637L44.1778 283.651C44.507 283.665 44.8362 283.678 45.4945 283.705C46.8113 283.76 48.1008 284.473 49.7467 284.541C50.4051 284.568 51.077 284.266 51.7354 284.293C49.6787 286.187 47.6356 287.751 45.6197 288.657C42.9318 289.865 40.2439 291.073 38.8592 292.664C38.1736 293.295 37.8036 294.269 37.7764 294.928C37.7492 295.586 37.7356 295.915 37.7356 295.915L38.7232 295.956C38.7232 295.956 38.4348 294.955 39.4768 293.679C40.5187 292.403 42.8638 291.511 45.8808 290.316C48.8979 289.122 51.9693 286.611 55.0408 284.1C56.7411 282.851 58.1123 281.589 59.799 280.669C59.799 280.669 60.1282 280.683 60.1418 280.354L60.1282 280.683C60.1009 281.341 60.0737 282 60.0465 282.658C60.0193 283.316 59.9785 284.304 59.6221 284.949C59.2249 286.581 58.4986 288.2 57.7994 289.16C57.1002 290.12 56.7302 291.094 56.7302 291.094L57.0458 291.437C57.0458 291.437 57.4022 290.792 58.4306 289.846C59.1297 288.885 60.1853 287.28 60.5825 285.648C60.9525 284.674 60.9797 284.016 61.0205 283.028C61.0613 282.041 61.0885 281.382 61.1157 280.724C61.1293 280.395 61.1429 280.065 61.1429 280.065C62.4868 279.461 63.8308 278.858 65.1611 278.583C69.1521 277.758 73.4451 277.606 77.4905 275.465C78.4916 275.177 79.1772 274.546 80.1919 273.928C80.8775 273.297 81.8923 272.679 82.5778 272.048C84.2782 270.799 85.3065 269.853 86.6776 268.59C87.0204 268.275 87.3632 267.959 87.706 267.644C87.6924 267.973 87.6788 268.302 87.6652 268.631C87.5292 271.923 87.3795 275.544 87.2027 279.823C87.1891 280.152 87.1755 280.482 87.1755 280.482C87.1619 280.811 86.8191 281.126 86.4627 281.771C85.4208 283.047 83.734 283.967 81.7317 284.543C79.7294 285.12 77.4116 285.354 76.0812 285.629C75.4093 285.931 74.7509 285.904 74.0653 286.535C73.7226 286.85 73.709 287.18 73.709 287.18L74.0381 287.193C74.0381 287.193 74.0517 286.864 74.3945 286.548C74.7373 286.233 75.4093 285.931 76.0676 285.958C77.7271 285.697 79.7023 285.778 82.0337 285.215C84.036 284.639 86.0519 283.733 87.0939 282.457C86.9579 285.749 86.4926 289.027 85.7118 291.962C85.6846 292.621 85.3419 292.936 85.3283 293.265C84.9855 293.581 84.9583 294.239 84.6155 294.555C84.2591 295.2 83.5735 295.831 82.5588 296.448C81.8732 297.08 80.8585 297.697 80.1457 298.987C79.4465 299.947 79.0493 301.579 79.0085 302.567C78.9949 302.896 78.9813 303.225 78.9677 303.554C78.9677 303.554 78.9677 303.554 78.9541 303.884C78.6113 304.199 78.5705 305.187 78.5433 305.845C78.4753 307.491 78.3801 309.795 77.0089 311.057C75.3086 312.306 73.3063 312.883 71.9216 314.474C70.8796 315.75 71.1544 317.081 70.8252 317.067L71.1544 317.081C71.1544 317.081 71.1952 316.093 72.2371 314.817C73.2791 313.541 75.2814 312.965 77.3109 311.729C78.3257 311.112 78.7092 309.809 79.0792 308.835C79.12 307.847 79.49 306.873 79.5309 305.886C79.5445 305.557 79.5581 305.227 79.5717 304.898C79.8872 305.241 80.2028 305.584 80.5184 305.927C81.4787 306.626 82.1235 306.982 82.7547 307.668C84.0306 308.71 84.9637 310.067 85.5676 311.411C86.7756 314.099 86.6531 317.062 86.5851 318.708C86.5035 320.683 86.4627 321.67 86.4627 321.67L87.4503 321.711C87.4503 321.711 87.4911 320.723 87.5727 318.748C87.6543 316.773 87.7631 314.14 86.9116 310.807C86.3212 309.134 85.4017 307.447 83.8102 306.063C83.179 305.377 82.2051 305.007 81.574 304.321C80.9428 303.636 80.9564 303.307 80.9836 302.648C81.0244 301.661 81.3808 301.016 81.7372 300.371C82.4228 299.74 83.1083 299.109 83.7939 298.478C84.4795 297.847 85.1514 297.545 85.837 296.914C86.1662 296.927 86.1526 297.256 86.4818 297.27C87.1265 297.626 87.7577 298.312 88.4024 298.668C89.0472 299.025 89.6784 299.71 90.3095 300.396C91.5718 301.767 92.1622 303.44 92.7661 304.784C93.0409 306.114 93.3293 307.115 93.3293 307.115L93.6585 307.129C93.6585 307.129 93.6993 306.142 93.4245 304.811C93.1497 303.481 92.2302 301.794 90.9815 300.094C90.3503 299.408 89.7192 298.723 89.088 298.037C88.4432 297.681 87.8121 296.995 87.1673 296.639C86.8517 296.296 86.8518 296.296 86.5362 295.953C86.8926 295.308 87.2353 294.993 87.2625 294.335C87.6189 293.69 87.6325 293.361 87.9889 292.716C88.3589 291.742 88.7425 290.439 88.7833 289.451C89.0989 289.794 89.0989 289.794 89.4145 290.137C90.6768 291.508 93.2558 292.933 94.5045 294.634C95.7396 296.663 97.304 298.706 97.8807 300.709C98.1827 301.381 98.471 302.382 98.4438 303.04C98.4166 303.699 98.7322 304.041 98.7322 304.041L99.0614 304.055C99.0614 304.055 99.075 303.726 98.773 303.054C98.471 302.382 98.4983 301.723 98.2099 300.722C97.6331 298.72 96.0688 296.677 94.8337 294.647C93.283 292.275 91.0196 291.192 89.7572 289.821C89.4417 289.478 89.1397 288.806 88.8241 288.464C89.2757 285.515 89.7137 282.895 89.8225 280.261C90.315 276.325 90.4782 272.375 90.9298 269.425C90.9978 267.78 91.3814 266.476 91.4358 265.16C91.463 264.501 91.4902 263.843 91.833 263.527C92.1758 263.212 92.5186 262.896 92.5186 262.896L92.8478 262.91L92.8342 263.239C92.8206 263.568 93.1497 263.582 93.1361 263.911C93.3565 266.558 93.5496 269.864 93.7428 273.169C93.702 274.156 93.3184 275.46 92.9484 276.434C92.5512 278.066 91.8248 279.685 91.7704 281.001C91.7432 281.66 91.716 282.318 92.0316 282.661C92.018 282.99 92.3336 283.333 92.3336 283.333L92.6628 283.346C92.6628 283.346 92.6764 283.017 92.3608 282.674C92.3744 282.345 92.4016 281.687 92.4152 281.358C92.4696 280.041 93.196 278.422 93.9224 276.804C93.936 276.474 93.9496 276.145 94.2923 275.83C94.5535 277.489 94.8147 279.149 95.0894 280.479C96.4497 287.46 99.4967 293.521 100.623 298.184C100.898 299.514 101.186 300.516 101.474 301.517C101.763 302.518 101.722 303.505 102.024 304.177C102.299 305.508 102.258 306.495 102.258 306.495L103.246 306.536C103.246 306.536 103.286 305.548 103.012 304.218C103.039 303.56 103.08 302.572 102.791 301.571C102.503 300.57 102.557 299.253 102.269 298.252C102.008 296.593 101.431 294.59 100.868 292.259C102.144 293.301 104.078 294.37 105.67 295.755C107.261 297.139 108.853 298.524 109.443 300.197C110.047 301.541 109.663 302.844 109.663 302.844L109.992 302.858C109.992 302.858 110.376 301.555 109.772 300.211C109.182 298.538 107.604 296.824 106.012 295.439C104.421 294.054 102.487 292.985 101.224 291.614C100.909 291.271 100.593 290.928 100.277 290.586C99.7007 288.583 99.1104 286.91 98.8628 284.922C99.192 284.935 99.5212 284.949 99.8503 284.962C101.812 285.373 104.143 284.81 106.434 285.234C108.738 285.33 111.372 285.438 111.962 287.112C112.264 287.784 112.882 288.798 113.54 288.825C114.198 288.853 114.527 288.866 114.527 288.866L114.541 288.537C114.541 288.537 114.212 288.523 113.883 288.51C113.554 288.496 112.922 287.811 112.62 287.139C112.305 286.796 112.332 286.138 111.687 285.781C111.372 285.438 110.727 285.082 110.069 285.055C109.095 284.685 107.778 284.63 106.79 284.59C104.5 284.165 102.182 284.399 100.536 284.331C100.207 284.318 99.5484 284.29 99.2328 283.948C98.9444 282.946 98.6697 281.616 98.7105 280.629C98.2289 276.322 98.4194 271.713 98.2534 267.75C99.5565 268.133 100.544 268.174 101.861 268.228C102.19 268.242 102.848 268.269 103.178 268.283C104.426 269.983 105.648 272.342 107.198 274.714C107.185 275.043 107.171 275.373 106.828 275.688C106.486 276.004 106.143 276.319 105.471 276.621C104.799 276.923 104.127 277.225 103.757 278.199C103.401 278.844 103.36 279.831 103.333 280.49C103.305 281.148 103.278 281.807 102.935 282.122C102.236 283.082 102.209 283.741 102.209 283.741L102.538 283.754C102.538 283.754 102.538 283.754 102.552 283.425C102.565 283.096 102.908 282.78 103.251 282.465C103.594 282.149 103.95 281.505 103.991 280.517C104.018 279.859 104.045 279.2 104.402 278.556C104.758 277.911 105.43 277.609 105.773 277.293C106.445 276.991 107.117 276.689 107.46 276.374C107.802 276.058 107.802 276.058 107.816 275.729C109.682 278.444 112.536 281.2 115.074 283.613C118.217 287.37 121.016 291.443 123.171 295.159L123.157 295.488C122.773 296.791 121.375 298.712 121.28 301.016C121.239 302.004 121.514 303.334 121.816 304.006C122.104 305.007 122.735 305.693 123.037 306.365C123.339 307.037 123.641 307.709 123.628 308.038C123.614 308.367 123.6 308.696 123.6 308.696L123.93 308.71C123.93 308.71 123.943 308.381 123.957 308.051C123.97 307.722 123.668 307.05 123.366 306.378C122.762 305.034 121.514 303.334 121.925 301.372C122.006 299.397 123.377 298.135 123.775 296.503C124.708 297.86 125.312 299.204 126.258 300.233C127.809 302.605 129.058 304.305 130.334 305.347C131.267 306.705 131.898 307.39 131.898 307.39L132.584 306.759C132.584 306.759 131.952 306.074 131.019 304.716C130.086 303.358 128.837 301.658 127.287 299.286C125.75 296.584 123.897 293.54 122.071 289.838C124.019 290.577 126.982 290.7 129.602 291.138C132.222 291.576 135.144 292.686 136.749 293.741C137.709 294.441 138.354 294.797 138.669 295.14C140.095 292.561 140.081 292.89 140.081 292.89L140.41 292.904C140.41 292.904 140.424 292.574 139.793 291.889C139.491 291.217 138.846 290.86 137.886 290.161C135.952 289.092 133.359 287.996 130.753 287.229C127.804 286.777 125.17 286.668 123.222 285.928C122.893 285.915 122.577 285.572 122.577 285.572C121.342 283.542 119.792 281.17 118.227 279.127C120.189 279.538 122.164 279.619 124.468 279.714C127.102 279.823 129.406 279.918 131.025 280.645C131.999 281.015 132.643 281.371 132.959 281.714C133.275 282.057 133.59 282.4 133.59 282.4L133.933 282.084C133.933 282.084 133.617 281.741 133.302 281.398C132.986 281.056 132.341 280.699 131.367 280.329C129.749 279.603 127.115 279.494 124.482 279.385C121.848 279.277 119.544 279.181 117.925 278.455C117.596 278.441 117.281 278.099 117.281 278.099C115.072 275.699 113.178 273.642 111.641 270.941C110.392 269.24 109.486 267.225 108.567 265.538C111.214 265.318 113.518 265.413 116.124 266.18C116.769 266.536 117.414 266.893 118.072 266.92C119.019 267.948 119.596 269.951 120.186 271.624C120.763 273.626 121.682 275.313 122.286 276.657C122.588 277.329 123.233 277.685 123.549 278.028C123.864 278.371 124.193 278.384 124.193 278.384L124.536 278.069L124.221 277.726C123.905 277.383 123.59 277.04 123.288 276.368C122.684 275.024 122.107 273.022 121.187 271.335C120.583 269.991 120.309 268.661 119.705 267.317C124.232 269.483 128.402 272.293 131.955 274.088C132.915 274.788 134.219 275.171 134.863 275.528C135.837 275.898 136.482 276.254 137.456 276.624C138.759 277.008 139.733 277.378 139.733 277.378L140.103 276.404C140.103 276.404 139.458 276.047 138.155 275.664C137.51 275.307 136.866 274.951 135.892 274.581C134.918 274.211 133.957 273.512 132.983 273.142C132.01 272.772 131.049 272.073 130.089 271.373C131.406 271.428 132.736 271.153 134.053 271.207C136.028 271.289 137.674 271.357 138.977 271.741C140.28 272.124 141.254 272.494 141.254 272.494L141.267 272.165C141.267 272.165 140.293 271.795 138.99 271.411C137.687 271.028 135.726 270.617 133.751 270.535C131.776 270.454 130.116 270.715 128.799 270.661C128.47 270.647 128.47 270.647 128.47 270.647C125.26 268.536 121.734 266.082 117.536 263.93C114.313 262.148 110.349 262.314 107.386 262.192L107.057 262.178C106.741 261.835 106.439 261.163 106.453 260.834C108.099 260.902 109.416 260.957 111.391 261.038C113.366 261.12 115.67 261.215 117.988 260.981C120.292 261.076 122.267 261.158 124.887 261.596C126.52 261.993 128.481 262.404 130.1 263.13C130.731 263.816 131.376 264.172 131.664 265.173C132.282 266.188 132.556 267.518 133.174 268.533C133.489 268.876 133.805 269.219 134.121 269.562C134.45 269.575 134.436 269.904 134.436 269.904L134.45 269.575C134.45 269.575 133.805 269.219 133.503 268.547C133.201 267.875 132.926 266.544 132.322 265.201C132.007 264.858 132.034 264.199 131.718 263.857C134.325 264.624 137.26 265.405 140.196 266.185C142.815 266.623 145.408 267.72 147.658 269.132C147.631 269.79 147.946 270.133 147.905 271.12C148.139 273.438 148.333 276.744 148.526 280.049C148.458 281.695 148.061 283.327 148.322 284.987C148.254 286.633 148.528 287.963 149.475 288.991C150.422 290.02 151.053 290.705 151.355 291.377C151.657 292.049 151.643 292.378 151.643 292.378L151.973 292.392C151.973 292.392 151.986 292.063 151.684 291.391C151.382 290.719 150.765 289.704 149.804 289.005C149.187 287.99 148.912 286.66 148.98 285.014C149.048 283.368 149.445 281.736 149.513 280.09C149.32 276.784 149.456 273.493 149.222 271.175C149.236 270.846 149.249 270.516 149.263 270.187C150.868 271.243 152.13 272.614 153.393 273.985C155.3 275.713 156.878 277.427 158.456 279.14C158.771 279.483 159.1 279.497 159.087 279.826C159.073 280.155 159.389 280.498 159.375 280.827C159.65 282.158 159.568 284.133 158.842 285.751C158.102 287.699 159.008 289.715 159.283 291.045C159.887 292.389 159.846 293.377 159.846 293.377L160.175 293.39C160.175 293.39 159.887 292.389 159.612 291.059C159.337 289.729 158.76 287.726 159.157 286.094C159.884 284.475 159.966 282.5 159.704 280.841C160.034 280.854 160.02 281.184 160.349 281.197C161.309 281.896 162.27 282.595 162.915 282.952C163.888 283.322 164.52 284.007 165.494 284.377C165.48 284.707 165.796 285.049 165.782 285.379C166.07 286.38 165.687 287.683 165.962 289.013C166.236 290.344 167.169 291.701 167.471 292.373C167.458 292.702 167.76 293.374 167.76 293.374C167.746 293.703 167.746 293.703 167.746 293.703L168.075 293.717L168.089 293.388C168.103 293.059 168.116 292.729 167.814 292.057C167.526 291.056 166.922 289.712 166.647 288.382C166.372 287.052 166.756 285.749 166.468 284.747L166.481 284.418C168.415 285.487 170.021 286.543 170.967 287.571C171.283 287.914 171.928 288.271 172.243 288.613C172.559 288.956 172.874 289.299 172.874 289.299C173.19 289.642 173.505 289.984 173.505 289.984L174.52 289.367C174.52 289.367 174.205 289.024 173.889 288.681C173.573 288.339 173.587 288.009 173.272 287.667C172.956 287.324 172.64 286.981 171.996 286.625C170.089 284.897 167.194 283.129 163.984 281.018C163.023 280.318 162.379 279.962 161.418 279.263C160.787 278.577 159.827 277.878 159.209 276.863C158.262 275.835 157 274.464 156.053 273.436C157.37 273.49 158.371 273.202 159.345 273.572C160.978 273.969 162.24 275.34 164.188 276.08C166.136 276.82 168.111 276.901 169.743 277.299C171.705 277.709 173.31 278.765 174.928 279.491L174.942 279.162C173.337 278.107 171.389 277.367 169.77 276.64C167.822 275.9 165.847 275.819 164.229 275.092C162.61 274.366 161.348 272.995 159.386 272.584C158.412 272.214 157.411 272.502 156.423 272.462C155.765 272.434 155.436 272.421 154.777 272.394C154.462 272.051 154.146 271.708 153.831 271.365C152.884 270.337 151.924 269.638 150.977 268.609C150.017 267.91 149.07 266.882 147.78 266.169L146.175 265.114L144.227 264.374C142.938 263.661 141.621 263.606 140.332 262.894C135.105 261.688 130.249 259.509 125.352 258.318C124.049 257.934 122.746 257.55 121.429 257.496C120.113 257.442 118.81 257.058 117.808 257.346C116.821 257.306 115.833 257.265 114.846 257.224C117.177 256.661 119.824 256.44 122.458 256.549C126.724 257.055 131.278 258.563 136.202 259.096C138.835 259.205 141.14 259.3 143.444 259.395C144.102 259.422 144.431 259.436 145.09 259.463L145.748 259.49L146.393 259.847L148.012 260.573L149.301 261.286C150.261 261.985 151.235 262.355 152.196 263.054C152.182 263.383 152.169 263.712 152.155 264.042C152.114 265.029 152.389 266.359 152.005 267.663C151.992 267.992 151.978 268.321 151.964 268.65C151.951 268.979 152.266 269.322 152.582 269.665C152.898 270.008 153.529 270.693 153.844 271.036C154.476 271.722 154.448 272.38 154.448 272.38L154.777 272.394C154.777 272.394 154.818 271.406 153.858 270.707C153.542 270.364 153.227 270.021 152.925 269.349C152.609 269.007 152.609 269.007 152.623 268.677C152.636 268.348 152.65 268.019 152.664 267.69C153.047 266.387 152.772 265.056 152.813 264.069C152.827 263.74 152.827 263.74 152.84 263.41C153.485 263.767 154.13 264.123 154.446 264.466C156.38 265.535 158.328 266.275 159.96 266.672C161.263 267.056 162.237 267.426 163.211 267.796C163.527 268.139 163.829 268.811 164.131 269.483C164.433 270.155 164.735 270.827 165.379 271.183C165.695 271.526 166.353 271.553 166.353 271.553L166.367 271.224C166.367 271.224 166.038 271.21 165.722 270.867C165.407 270.525 165.105 269.853 164.803 269.181C164.816 268.851 164.501 268.509 164.514 268.18C165.804 268.892 167.107 269.276 168.067 269.975C169.041 270.345 169.672 271.031 169.988 271.373C170.303 271.716 170.619 272.059 170.619 272.059L171.305 271.428C171.305 271.428 170.989 271.085 170.673 270.742C170.358 270.399 169.727 269.714 168.766 269.015C167.175 267.63 164.253 266.52 160.686 265.054C161.016 265.067 161.345 265.081 161.358 264.752C162.03 264.45 162.36 264.463 163.018 264.491C163.69 264.189 164.019 264.202 164.691 263.9C165.692 263.612 166.693 263.323 167.667 263.693C168.641 264.063 169.944 264.447 170.945 264.159L170.959 263.829C169.972 263.789 168.668 263.405 167.694 263.035C166.721 262.665 165.39 262.94 164.389 263.228C163.717 263.53 163.388 263.517 162.73 263.489C162.071 263.462 161.728 263.778 161.07 263.751C160.398 264.052 159.74 264.025 159.081 263.998C157.792 263.285 156.818 262.915 155.528 262.203C154.568 261.503 153.923 261.147 152.963 260.448C152.647 260.105 152.003 259.749 151.687 259.406C152.359 259.104 153.031 258.802 154.032 258.514C155.362 258.239 156.391 257.292 157.721 257.017C158.393 256.715 159.051 256.742 159.696 257.099C160.355 257.126 160.986 257.812 161.96 258.182L163.263 258.565L164.566 258.949C165.211 259.305 166.198 259.346 166.843 259.702C167.488 260.059 168.132 260.415 168.791 260.442C169.436 260.799 169.751 261.142 170.396 261.498C171.356 262.197 172.33 262.567 172.975 262.923C173.62 263.28 173.949 263.294 173.949 263.294L173.963 262.964C173.963 262.964 173.633 262.951 172.989 262.594C172.344 262.238 171.37 261.868 170.41 261.169C169.765 260.812 169.449 260.47 168.804 260.113C168.16 259.757 167.515 259.4 166.87 259.044C165.567 258.66 163.935 258.263 162.316 257.537C161.671 257.18 161.026 256.824 160.053 256.454C159.408 256.098 158.42 256.057 157.419 256.345C155.746 256.936 154.731 257.553 153.401 257.828C152.4 258.116 151.399 258.405 150.727 258.707C150.397 258.693 150.411 258.364 150.082 258.35C149.437 257.994 149.122 257.651 148.477 257.295C147.832 256.938 147.503 256.925 146.858 256.568L145.884 256.198L144.897 256.158C144.238 256.13 143.593 255.774 142.935 255.747C140.302 255.638 137.997 255.543 135.707 255.118C131.125 254.27 126.585 252.433 122.003 251.584C119.713 251.16 117.079 251.051 115.077 251.628C112.759 251.862 111.1 252.123 109.111 252.371C105.463 252.879 102.816 253.1 100.854 252.689C100.702 248.396 100.618 242.457 100.917 235.215C101.026 232.582 100.805 229.935 100.928 226.972L100.941 226.643C101.311 225.669 101.366 224.352 102.092 222.733C102.489 221.101 103.229 219.153 103.654 216.862C103.667 216.533 103.681 216.204 104.024 215.889L104.037 215.559L104.051 215.23C104.078 214.572 104.434 213.927 104.448 213.598C104.818 212.624 104.872 211.307 105.256 210.004C105.68 207.713 106.105 205.423 107.188 203.159C107.544 202.515 107.558 202.185 107.914 201.541C108.27 200.896 108.613 200.58 108.97 199.935C109.312 199.62 109.669 198.975 110.025 198.33C110.381 197.686 110.724 197.37 111.41 196.739C113.137 194.832 115.194 192.938 117.264 190.716L118.266 190.427C118.266 190.427 118.265 190.427 118.595 190.441C118.897 191.113 119.171 192.443 120.105 193.801C120.42 194.143 120.407 194.473 120.722 194.815C121.038 195.158 121.024 195.487 121.34 195.83C121.655 196.173 121.971 196.516 122.3 196.529C122.616 196.872 122.931 197.215 123.26 197.229C124.865 198.284 127.801 199.065 130.407 199.832C131.71 200.216 133.013 200.599 133.658 200.956C134.632 201.326 134.961 201.339 134.961 201.339C134.961 201.339 134.988 200.681 135.029 199.693C135.07 198.706 135.125 197.389 134.863 195.73C134.314 193.069 133.133 189.723 130.581 187.639L139.88 186.045C139.88 186.045 140.196 186.387 140.511 186.73C140.827 187.073 141.142 187.416 141.444 188.088C141.088 188.732 140.375 190.022 140.623 192.011C140.582 192.998 141.199 194.013 141.817 195.028C142.764 196.056 144.04 197.098 145.343 197.482C148.923 198.619 149.965 197.343 152.269 197.438C153.257 197.479 154.573 197.533 155.218 197.89C156.206 197.93 156.521 198.273 156.521 198.273C156.521 198.273 156.549 197.615 156.576 196.957C156.617 195.969 156.342 194.639 155.738 193.295C155.134 191.951 153.885 190.25 152.623 188.879C151.018 187.824 149.742 186.782 148.754 186.741C148.11 186.385 147.767 186.7 147.108 186.673C146.45 186.646 145.778 186.948 145.106 187.25C143.776 187.524 142.116 187.786 141.444 188.088C141.129 187.745 140.813 187.402 140.498 187.059C140.498 187.059 140.511 186.73 140.182 186.717L152.128 184.902L152.141 184.573L140.196 186.387L129.251 187.914L128.935 187.571C128.291 187.214 127.646 186.858 127.001 186.502C126.343 186.474 125.698 186.118 125.04 186.091C124.381 186.064 123.723 186.036 123.38 186.352C122.722 186.325 122.379 186.64 122.036 186.956C120.363 187.546 119.664 188.507 119.294 189.481L118.635 189.453C119.335 188.493 120.034 187.533 120.733 186.572L121.076 186.257C121.419 185.941 121.761 185.626 122.104 185.31C122.79 184.679 123.146 184.034 123.832 183.403C124.874 182.127 125.916 180.851 126.958 179.575C127.986 178.628 128.699 177.339 129.398 176.379C129.727 176.392 130.399 176.09 131.071 175.788C131.4 175.802 131.4 175.802 131.729 175.815C131.702 176.474 131.977 177.804 132.252 179.134C132.554 179.806 132.526 180.465 132.828 181.137C133.13 181.809 133.446 182.152 134.091 182.508C135.709 183.234 138.329 183.672 140.976 183.452C142.293 183.506 143.294 183.218 143.953 183.245C144.611 183.272 145.283 182.97 145.283 182.97C145.283 182.97 145.035 180.982 144.143 178.637C143.553 176.964 142.647 174.948 141.384 173.576C143.373 173.329 145.362 173.081 146.706 172.477C147.707 172.189 148.708 171.901 149.366 171.928C150.038 171.626 150.368 171.639 150.368 171.639L150.066 170.967C150.066 170.967 149.736 170.954 149.064 171.256C148.406 171.229 147.405 171.517 146.417 171.476C144.429 171.724 141.452 171.931 138.49 171.808C137.831 171.781 137.187 171.425 136.528 171.397C135.541 171.356 134.869 171.658 134.197 171.96C132.866 172.235 131.55 172.181 130.549 172.469C130.905 171.824 130.919 171.495 131.275 170.851C132.701 168.271 133.811 165.35 135.881 163.127L136.566 162.496L136.909 162.18L137.252 161.865C137.595 161.549 138.267 161.247 138.939 160.945C139.611 160.643 140.612 160.355 141.297 159.724C141.969 159.422 142.655 158.79 143.354 157.83C143.656 158.502 144.274 159.517 144.905 160.202C145.536 160.888 145.838 161.56 146.483 161.916C146.798 162.259 147.127 162.273 147.443 162.615C147.759 162.958 148.417 162.986 148.733 163.328C151.01 164.082 154.315 163.889 157.278 164.011C158.594 164.066 159.925 163.791 160.912 163.832C161.9 163.872 162.572 163.57 162.572 163.57C162.572 163.57 162.27 162.898 161.968 162.226C161.679 161.225 161.062 160.211 160.129 158.853C158.894 156.824 157 154.767 154.75 153.355C155.738 153.396 156.383 153.752 157.384 153.464C158.7 153.518 160.36 153.257 161.361 152.969C164.008 152.748 166.01 152.171 166.01 152.171C166.01 152.171 165.434 150.169 163.897 147.468C162.964 146.11 162.017 145.082 160.754 143.711C160.123 143.025 159.479 142.669 158.505 142.299C161.481 142.092 164.114 142.201 166.405 142.625C167.393 142.666 168.366 143.036 169.025 143.063C169.683 143.09 170.012 143.104 170.012 143.104L170.026 142.775C170.026 142.775 169.697 142.761 169.038 142.734C168.38 142.707 167.406 142.337 166.419 142.296C164.128 141.872 161.165 141.749 158.189 141.956C157.86 141.942 157.201 141.915 156.872 141.902L156.543 141.888C154.582 141.477 152.922 141.738 151.578 142.342C150.92 142.315 150.591 142.301 149.919 142.603C149.26 142.576 148.602 142.549 148.259 142.865C149.63 141.602 150.988 140.669 152.688 139.42C155.746 137.239 158.79 135.386 161.505 133.52C161.835 133.533 162.164 133.547 162.506 133.231C163.124 134.246 166.938 137.701 171.601 136.575C174.262 136.025 176.977 134.159 179.336 132.937C180.679 132.333 181.694 131.716 182.366 131.414C183.367 131.126 183.71 130.81 183.71 130.81C183.71 130.81 184.945 132.839 183.985 132.14ZM151.782 97.5055C151.769 97.8347 151.769 97.8347 151.755 98.1639L151.426 98.1503C151.439 97.8211 151.769 97.8347 151.782 97.5055ZM113.118 99.535C113.105 99.8642 112.776 99.8506 112.762 100.18L112.776 99.8506C112.776 99.8506 112.789 99.5214 113.118 99.535ZM90.9462 37.6161C90.9598 37.287 90.9598 37.287 90.9462 37.6161C91.2889 37.3006 91.2753 37.6297 90.9462 37.6161ZM78.157 19.941C78.4454 20.9421 79.0494 22.2861 79.3649 22.6288C79.0221 22.9444 78.6794 23.26 78.3502 23.2464L78.021 23.2328C77.7326 22.2316 77.7734 21.2441 78.157 19.941ZM26.2823 94.298C23.0177 93.5036 19.7531 92.7092 17.4896 91.6265C17.1604 91.6128 17.1604 91.6128 17.174 91.2836C19.2171 89.7194 19.9979 86.7839 20.3679 85.81C20.6971 85.8236 21.3555 85.8508 21.6982 85.5352L22.0274 85.5488C22.3294 86.2208 22.9742 86.5772 23.2761 87.2492C24.5248 88.9495 25.4444 90.6362 27.0223 92.3501C27.6534 93.0357 28.2846 93.7212 29.2449 94.4204C28.2438 94.7088 27.2562 94.668 26.2823 94.298ZM34.3432 122.659L34.0276 122.317C34.3568 122.33 34.686 122.344 35.0151 122.357C34.686 122.344 34.686 122.344 34.3432 122.659ZM80.445 172.048C80.4178 172.706 80.7333 173.049 80.7061 173.707C80.4041 173.035 80.0886 172.692 79.7866 172.02L79.8002 171.691C79.8274 171.033 80.1702 170.717 80.1702 170.717C80.1566 171.046 80.143 171.376 80.445 172.048ZM68.7903 142.878C67.4872 142.495 66.1704 142.44 64.8673 142.057C63.5642 141.673 62.2475 141.619 61.2735 141.249C59.9704 140.865 58.9964 140.495 58.0089 140.454C57.3641 140.098 56.3766 140.057 55.7318 139.701C56.061 139.714 56.0746 139.385 56.4038 139.399C57.0894 138.767 57.7749 138.136 58.1313 137.492C58.4877 136.847 58.8577 135.873 59.2141 135.228C59.6113 133.596 59.6793 131.95 59.7065 131.292C60.0357 131.305 60.0357 131.305 60.3785 130.99C61.6408 132.361 62.9031 133.732 64.4946 135.117C67.9796 138.558 72.4521 142.04 75.8963 146.469C76.1982 147.141 76.5138 147.484 77.145 148.17C77.4469 148.842 77.7625 149.184 78.0645 149.856L78.0509 150.185C77.4334 149.171 76.8158 148.156 75.8691 147.128C73.9756 145.071 71.4101 143.316 68.7903 142.878ZM74.4217 166.193C71.8427 164.767 69.2228 164.329 66.9322 163.905C66.2738 163.878 65.6291 163.521 65.2999 163.508C65.3135 163.179 65.3407 162.52 65.3543 162.191C66.0262 161.889 67.0546 160.942 67.781 159.324C68.5074 157.705 68.9318 155.414 67.6966 153.385C66.4751 151.026 64.2253 149.614 61.9618 148.531C63.2785 148.586 64.5816 148.969 65.5692 149.01C67.5307 149.421 69.4786 150.161 71.1109 150.558C72.7296 151.285 74.0327 151.668 74.6775 152.025C75.0067 152.038 74.9931 152.367 75.3222 152.381C75.6242 153.053 75.9262 153.725 76.2282 154.397C77.1477 156.084 78.0808 157.441 78.6984 158.456C79.014 158.799 79.3295 159.141 79.6451 159.484C79.5907 160.801 79.8791 161.802 79.8247 163.119C80.045 165.766 79.9498 168.07 80.1702 170.717C80.1702 170.717 79.5118 170.69 78.8671 170.334C78.8671 170.334 78.5379 170.32 78.2087 170.306C77.2891 168.62 76.0268 167.249 74.4217 166.193ZM66.8832 181.05C67.2124 181.063 67.2124 181.063 66.8832 181.05C66.8696 181.379 66.8696 181.379 66.856 181.708C66.8696 181.379 66.8832 181.05 66.8832 181.05ZM93.4653 224.026C93.1089 224.67 93.0817 225.329 93.0545 225.987C93.0137 226.975 92.6573 227.619 92.6301 228.278C91.999 227.592 91.697 226.92 91.0658 226.235C90.4347 225.549 89.8035 224.864 89.1723 224.178C88.5412 223.492 87.91 222.807 87.2925 221.792C86.6613 221.107 86.0438 220.092 85.4126 219.406C84.795 218.391 84.1639 217.706 83.5463 216.691C82.3112 214.662 81.0761 212.632 79.841 210.603C78.2767 208.559 77.0416 206.53 75.4773 204.487C72.6779 200.414 70.2077 196.355 68.725 192.337C68.4366 191.336 68.1482 190.335 68.1891 189.347C67.9007 188.346 67.9415 187.359 67.6531 186.357C67.6803 185.699 67.3647 185.356 67.3919 184.698C67.4191 184.04 67.4463 183.381 67.4735 182.723C67.8163 182.407 67.8299 182.078 68.1727 181.762C69.4758 182.146 73.7144 183.31 76.1275 180.772C77.1695 179.496 78.225 177.891 78.6358 175.93C78.9242 176.931 79.5554 177.616 79.8573 178.288C80.4613 179.632 81.408 180.661 82.0392 181.346C82.5887 184.007 83.1382 186.668 84.017 189.342C84.319 190.014 84.6209 190.686 84.9229 191.358C84.9093 191.687 85.2249 192.03 85.2113 192.359C85.5269 192.702 85.5133 193.031 85.8289 193.374C86.1308 194.046 86.4328 194.718 87.0639 195.403C87.3659 196.075 87.6815 196.418 87.9835 197.09C89.2186 199.119 90.4673 200.82 91.716 202.52C92.6356 204.207 93.5687 205.564 94.1863 206.579C94.1863 206.579 94.1726 206.908 94.5018 206.922C94.461 207.909 94.4066 209.226 94.3658 210.214C93.8462 214.809 93.6421 219.746 93.4653 224.026ZM99.3199 58.4063C99.9782 58.4335 101.281 58.8171 102.954 58.2267C104.628 57.6364 106.328 56.3877 107.068 54.4398C107.424 53.795 107.465 52.8075 107.506 51.8199C107.808 52.4919 107.781 53.1502 108.083 53.8222C108.934 57.1548 109.786 60.4875 110.308 63.8065C110.294 64.1357 110.294 64.1357 110.281 64.4649L110.267 64.794C110.213 66.1108 110.158 67.4275 110.104 68.7442C110.077 69.4026 109.707 70.3766 109.35 71.0213C109.008 71.3369 108.994 71.666 108.651 71.9816L108.308 72.2972C107.718 70.6241 106.154 68.581 104.59 66.5379C103.656 65.1804 102.38 64.1384 101.461 62.4517C100.843 61.437 99.9102 60.0794 99.3199 58.4063ZM100.084 87.7851C99.7144 88.7591 99.6871 89.4174 99.3172 90.3914C98.9472 91.3653 98.92 92.0236 98.55 92.9976C98.5636 92.6684 98.248 92.3257 98.2616 91.9965C97.9868 90.6661 97.7257 89.0066 97.4645 87.3471C97.1761 86.3459 97.2033 85.6876 96.915 84.6864C96.6266 83.6853 96.3246 83.0133 96.0362 82.0122C96.0634 81.3538 96.077 81.0246 95.7751 80.3527C95.7887 80.0235 95.4731 79.6807 95.4867 79.3515C95.5003 79.0223 95.1711 79.0088 94.8555 78.666C94.5535 77.994 94.2516 77.322 94.2788 76.6637C93.9904 75.6625 93.6884 74.9905 93.4 73.9894L92.8097 72.3163L92.5213 71.3151C92.5213 71.3151 92.5213 71.3151 92.1921 71.3015L91.863 71.2879L91.2046 71.2607L89.2431 70.8499L87.6108 70.4527C86.6233 70.4119 85.6493 70.0419 84.6754 69.6719L84.3462 69.6583C84.3598 69.3291 84.0442 68.9863 84.0578 68.6572C85.0726 68.0396 88.7888 65.885 88.9248 62.5932C88.6772 60.6045 87.4557 58.2458 86.2206 56.2163C85.6031 55.2015 84.9719 54.5159 84.3407 53.8304C83.7096 53.1448 83.7232 52.8156 83.7232 52.8156C83.7232 52.8156 83.3804 53.1312 82.6948 53.7624C82.0093 54.3935 81.3237 55.0247 80.2953 55.9714C78.5678 57.8785 77.1287 60.7868 77.3626 63.1046C77.515 67.3976 82.3983 68.9184 83.715 68.9728C83.7014 69.3019 84.017 69.6447 84.0034 69.9739C82.3711 69.5767 80.7388 69.1795 79.1201 68.4531C75.2107 67.3024 71.9733 65.8496 69.7506 63.7793C67.528 61.709 65.9637 59.6659 65.0305 58.3084C64.715 57.9656 64.7286 57.6364 64.413 57.2936L64.0974 56.9508C64.0974 56.9508 64.0974 56.9508 64.111 56.6216C64.4402 56.6352 64.4402 56.6352 64.111 56.6216C64.111 56.6216 62.7671 57.2256 63.4391 56.9236C63.4391 56.9236 63.4391 56.9236 63.4254 57.2528C63.4254 57.2528 63.4119 57.582 63.741 57.5956C64.0566 57.9384 64.043 58.2675 64.3586 58.6103C65.2917 59.9678 66.5132 62.3265 69.0515 64.7396C71.6033 66.8235 74.8271 68.6055 78.7229 70.0854C80.6708 70.8254 82.6187 71.5654 84.9093 71.9898C85.8833 72.3598 86.8572 72.7298 88.1739 72.7842L89.8063 73.1814L91.1094 73.565L91.4386 73.5786L91.425 73.9078L91.6997 75.2381C92.0017 75.9101 92.2901 76.9112 92.2629 77.5696C90.6306 77.1724 88.6555 77.0908 87.3115 77.6947C85.9812 77.9695 85.282 78.9298 84.6101 79.2318C83.9245 79.8629 83.9109 80.1921 83.9109 80.1921C83.9109 80.1921 84.2265 80.5349 84.5285 81.2069C84.8304 81.8789 85.4616 82.5644 85.75 83.5656C86.6695 85.2523 86.5879 87.2274 87.5482 87.9266C87.8638 88.2693 88.193 88.283 88.5222 88.2966C88.8514 88.3102 89.1669 88.6529 89.4961 88.6665C90.1545 88.6937 91.142 88.7346 91.814 88.4326C93.1443 88.1578 94.1591 87.5402 94.831 87.2383C94.8174 87.5674 95.1194 88.2394 95.1058 88.5686C95.367 90.2281 95.6417 91.5585 95.9029 93.218C96.4388 96.2078 96.6728 98.5257 97.2496 100.528C97.236 100.857 97.236 100.857 97.5651 100.871C97.5651 100.871 97.1271 103.491 96.9503 107.77C96.9367 108.099 96.9231 108.428 96.9231 108.428C96.5395 109.731 96.4851 111.048 96.1015 112.351C95.6635 114.971 95.2255 117.591 94.8147 119.553C94.7739 120.54 94.4175 121.185 94.3767 122.172L94.0611 121.83C94.0611 121.83 94.0611 121.83 94.0747 121.5C93.7728 120.828 93.7863 120.499 93.4844 119.827C93.2096 118.497 92.9348 117.167 92.6601 115.836C92.3853 114.506 92.1241 112.846 91.2046 111.16C90.9026 110.488 90.2851 109.473 89.6539 108.787C89.6539 108.787 89.6675 108.458 89.3519 108.116C89.0364 107.773 88.7344 107.101 88.446 106.1C87.8692 104.097 86.9905 101.423 85.8098 98.0768C85.2195 96.4037 84.9719 94.415 84.066 92.3991C83.7776 91.3979 83.16 90.3832 82.8717 89.382C82.5833 88.3809 82.2949 87.3798 82.0065 86.3786C81.4298 84.3763 80.8803 81.7157 79.316 79.6726C77.7653 77.3003 75.1726 76.2039 73.2655 74.4764C72.6208 74.12 72.3052 73.7772 71.6604 73.4208C71.0157 73.0644 70.7001 72.7216 70.0553 72.3652C69.095 71.6661 67.8055 70.9533 66.8451 70.2541C64.9245 68.8558 62.6746 67.4439 62.0842 65.7707C61.5075 63.7684 61.9183 61.8069 62.0135 59.5026C62.0407 58.8443 62.0543 58.5151 61.7523 57.8431C61.7795 57.1848 61.464 56.842 61.4776 56.5128C61.1892 55.5117 60.8872 54.8397 60.5988 53.8385C60.2969 53.1666 60.3105 52.8374 59.9949 52.4946C60.6397 52.851 61.2708 53.5366 61.9156 53.893C63.8362 55.2913 66.7581 56.4013 69.4187 55.8517C71.7502 55.2886 73.135 53.6971 73.8613 52.0784C74.5877 50.4597 74.3265 48.8002 74.0246 48.1282C74.3674 47.8126 74.7101 47.497 74.7237 47.1679C77.9475 48.9498 80.8558 50.3889 83.4484 51.4853C84.738 52.1981 86.0411 52.5817 87.015 52.9516C87.3442 52.9652 87.9889 53.3217 87.9889 53.3217C88.3181 53.3353 88.6337 53.6781 88.6337 53.6781C90.9108 54.4316 92.8587 55.1716 94.4638 56.2272C94.7793 56.57 95.4241 56.9263 95.4241 56.9263L95.4105 57.2555C95.4105 57.2555 95.3833 57.9139 95.3561 58.5722C95.3289 59.2306 95.6445 59.5734 95.6173 60.2318C96.194 62.2341 97.4427 63.9344 98.3623 65.6211C99.2954 66.9786 100.558 68.3498 101.491 69.7073C103.371 72.0932 104.606 74.1227 104.867 75.7822C104.84 76.4406 105.142 77.1126 104.799 77.4281C104.456 77.7437 104.1 78.3885 103.757 78.704L102.715 79.9799L102.002 81.2695C101.632 82.2434 101.262 83.2174 100.906 83.8621C101.208 84.5341 100.482 86.1528 100.084 87.7851ZM100.83 261.261C101.145 261.604 101.145 261.604 100.83 261.261C100.816 261.59 100.501 261.248 100.171 261.234L100.83 261.261ZM152.392 154.576C152.062 154.563 151.418 154.206 151.088 154.193C150.43 154.166 149.772 154.138 149.1 154.44C147.769 154.715 146.768 155.004 146.083 155.635C145.397 156.266 144.725 156.568 144.369 157.213L144.382 156.883L144.396 156.554C144.396 156.554 144.396 156.554 144.41 156.225C144.423 155.896 144.437 155.567 144.45 155.237C144.491 154.25 144.546 152.933 145.272 151.314C145.642 150.341 146.341 149.38 147.054 148.091C147.383 148.104 147.383 148.104 147.712 148.118C148.042 148.131 148.686 148.488 149.015 148.502C148.975 149.489 149.826 152.822 152.392 154.576ZM151.099 145.95C150.085 146.567 149.385 147.528 149.043 147.843C148.384 147.816 148.069 147.473 147.74 147.46L147.41 147.446C147.753 147.13 148.096 146.815 148.439 146.499C149.111 146.197 150.112 145.909 151.099 145.95Z" fill="#B49577" fill-opacity="0.705882"/>
</svg>
