<svg width="245" height="319" viewBox="0 0 245 319" fill="none" xmlns="http://www.w3.org/2000/svg">
<path opacity="0.3" d="M215.901 300.485C217.442 297.327 218.684 295.202 218.684 295.202C218.684 295.202 218.041 295.261 217.069 295.015C215.783 295.133 214.497 295.251 212.896 295.733C209.367 296.392 205.852 297.719 203.295 298.624C202.023 299.411 201.38 299.47 200.752 300.198C200.438 300.562 200.123 300.926 199.809 301.29C199.495 301.654 199.181 302.018 198.538 302.077C197.581 302.5 197.266 302.864 196.623 302.923C195.637 302.008 194.979 301.397 193.992 300.482C190.375 297.127 186.114 293.831 182.182 290.84C179.237 288.764 175.977 287.052 172.733 286.009C173.69 285.586 174.976 285.468 175.933 285.045C180.42 283.963 185.864 282.459 191.966 281.564C197.739 280.365 203.855 280.139 208.057 280.759C209.029 281.005 210.315 280.888 211.287 281.134C212.259 281.38 212.902 281.321 213.545 281.262C213.545 281.262 213.874 281.567 214.188 281.203C214.517 281.508 215.175 282.118 216.161 283.033C217.791 283.889 221.006 283.594 223.22 281.715C225.749 279.473 226.004 276.433 226.603 274.367C226.902 273.334 227.202 272.301 227.187 271.632C227.173 270.963 227.487 270.599 227.487 270.599C227.487 270.599 227.158 270.294 226.515 270.353C225.872 270.412 224.586 270.53 223.299 270.648C220.727 270.884 217.541 272.516 216.599 273.608C215.327 274.395 215.371 276.402 214.758 277.799C214.458 278.832 214.473 279.501 214.159 279.865C214.159 279.865 214.159 279.865 213.83 279.56C213.187 279.619 212.215 279.373 211.243 279.127C210.271 278.881 209.299 278.635 208.013 278.752C203.811 278.132 197.694 278.358 191.593 279.252C185.491 280.147 179.718 281.346 175.231 282.428C170.745 283.51 167.858 284.11 167.858 284.11C165.271 283.676 162.998 282.879 160.411 282.446C159.439 282.2 157.824 282.013 156.853 281.767L154.594 281.639C156.165 279.819 157.722 277.33 159.278 274.841C160.834 272.353 162.704 269.5 163.961 268.044C164.275 267.68 164.589 267.316 164.904 266.952C165.218 266.588 165.532 266.224 165.532 266.224C165.846 265.86 166.16 265.496 166.16 265.496L165.488 264.217C165.488 264.217 165.174 264.581 164.531 264.64C164.217 265.004 163.902 265.368 163.259 265.427C162.945 265.791 162.631 266.155 162.317 266.519C162.003 266.883 161.688 267.247 161.374 267.611C161.688 267.247 162.317 266.519 162.302 265.85C162.93 265.122 163.23 264.089 163.858 263.361C164.158 262.328 164.457 261.295 165.071 259.898C165.341 257.528 164.939 253.878 164.551 250.897C164.163 247.916 163.79 245.604 163.79 245.604C163.79 245.604 163.476 245.968 162.519 246.391C161.562 246.814 160.619 247.906 159.676 248.998C157.477 251.545 154.978 255.126 154.424 259.199C154.139 260.901 154.512 263.213 155.184 264.492C155.857 265.771 156.529 267.05 157.516 267.965C158.831 269.185 160.117 269.067 160.446 269.372C159.19 270.828 158.262 272.588 157.005 274.044C155.449 276.533 153.578 279.386 151.993 280.537C151.679 280.901 151.364 281.265 151.05 281.629C141.36 280.506 131.999 279.688 122.937 277.838L119.378 277.159C118.406 276.913 117.106 276.362 116.134 276.115L112.889 275.072L111.917 274.826L111.259 274.216C110.93 273.911 110.287 273.97 109.63 273.36C107.671 272.199 106.027 270.674 104.382 269.149C102.738 267.624 101.422 266.404 100.092 264.515C100.735 264.456 101.064 264.761 101.707 264.702C103.322 264.889 105.595 265.686 107.853 265.814C109.139 265.697 110.111 265.943 111.397 265.825C112.04 265.766 112.683 265.707 113.326 265.648L114.927 265.166C117.17 264.625 118.77 264.143 121.014 263.602C121.657 263.543 121.986 263.848 122.629 263.789C123.915 263.672 126.158 263.131 127.729 261.311C127.729 261.311 127.729 261.311 128.043 260.947C131.558 259.619 133.801 259.078 133.801 259.078L133.458 258.104C133.458 258.104 131.858 258.586 129.3 259.491C131.17 256.638 131.082 252.625 130.694 249.644C130.665 248.306 129.993 247.027 129.978 246.358C129.634 245.384 129.305 245.079 129.305 245.079C129.305 245.079 127.72 246.23 125.506 248.108C123.606 249.623 121.392 251.502 120.15 253.627C118.908 255.752 119.266 257.395 119.31 259.401C119.34 260.739 119.355 261.408 119.369 262.077C117.769 262.559 116.483 262.677 114.882 263.159L113.282 263.641C112.639 263.7 111.996 263.759 111.353 263.818C110.067 263.936 109.095 263.69 107.809 263.808C105.551 263.679 103.607 263.187 101.663 262.695C100.691 262.449 100.048 262.508 99.0759 262.262C98.4329 262.321 98.104 262.016 97.4609 262.075C97.1321 261.77 97.1321 261.77 97.1174 261.101C96.4449 259.822 96.1013 258.848 95.4288 257.569L94.7416 255.621C94.7269 254.952 94.0692 254.342 93.4114 253.732C93.0825 253.427 92.7537 253.122 92.4101 252.148L92.0812 251.843L91.7524 251.538L91.0946 250.928C90.108 250.013 89.4649 250.072 88.4929 249.826C85.2482 248.783 82.347 248.714 79.7748 248.949C76.8737 248.88 74.3014 249.116 71.4003 249.047C65.9269 249.213 60.7824 249.685 55.6231 249.488C54.0081 249.301 52.3931 249.114 50.4639 249.29C53.9053 244.618 56.3746 239.699 59.487 234.722L61.3427 231.2C61.9858 231.141 62.3 230.777 62.943 230.718C66.1436 229.754 69.3442 228.791 72.8738 228.132C74.803 227.955 76.7175 227.109 78.6466 226.932C80.89 226.391 82.8192 226.215 84.7484 226.038C86.0345 225.92 86.9918 225.497 87.9637 225.743C88.6068 225.684 89.564 225.261 90.2071 225.202C93.7954 227.219 98.3851 230.82 102.975 234.422C103.304 234.727 103.632 235.032 103.632 235.032C102.989 235.091 102.675 235.455 102.032 235.513C100.118 236.359 98.2326 238.543 97.9625 240.914C97.3782 243.649 99.052 246.512 100.711 248.706C101.698 249.621 102.684 250.536 103.342 251.146C104.314 251.392 104.628 251.028 104.628 251.028C103.327 250.477 108.698 245.627 108.939 241.919C109.238 240.886 108.895 239.912 108.551 238.938C111.182 241.378 113.484 243.513 115.786 245.648C117.431 247.173 118.746 248.393 119.733 249.308C120.72 250.223 121.377 250.833 121.377 250.833L122.32 249.741C122.32 249.741 121.662 249.131 120.676 248.216C119.689 247.301 118.373 246.081 116.729 244.556C113.44 241.506 109.15 236.872 104.546 232.602C101.257 229.552 97.6538 226.866 94.7086 224.789C95.9947 224.672 96.9666 224.918 97.9386 225.164C102.455 225.42 107.314 226.65 112.803 227.153C115.39 227.586 117.648 227.714 120.549 227.783C122.178 228.639 124.122 229.131 127.038 229.869C129.954 230.608 133.513 231.287 137.401 232.271C139.988 232.704 142.903 233.442 145.819 234.18C145.819 234.18 144.234 235.331 143.306 237.092C142.064 239.217 141.165 242.316 142.226 246.576C142.957 250.53 145.946 254.613 148.562 256.385C149.878 257.605 151.179 258.156 151.837 258.766C152.809 259.012 153.466 259.622 153.466 259.622C153.466 259.622 153.452 258.953 153.422 257.615C153.393 256.277 153.363 254.939 153.334 253.601C153.261 250.256 153.501 246.547 152.785 243.261C152.068 239.976 150.409 237.782 148.765 236.257C147.449 235.036 146.462 234.121 145.819 234.18C146.791 234.426 147.763 234.673 148.735 234.919C150.679 235.411 152.623 235.903 154.582 237.064C156.525 237.556 158.155 238.412 160.099 238.904C163.673 240.252 166.932 241.964 169.534 243.067C172.135 244.169 174.094 245.33 175.724 246.186C175.738 246.855 175.753 247.524 175.782 248.862C175.827 250.869 176.843 253.122 178.487 254.647C180.131 256.172 182.404 256.969 184.377 258.799C184.706 259.104 185.364 259.714 185.693 260.019C186.022 260.324 186.351 260.629 186.68 260.934C187.337 261.544 187.666 261.849 187.666 261.849C187.666 261.849 187.98 261.485 188.28 260.452C188.594 260.088 188.579 259.419 189.208 258.691C189.193 258.022 189.821 257.294 189.478 256.32C190.047 252.916 188.658 248.352 186.356 246.217C183.725 243.776 180.824 243.707 178.895 243.884C177.609 244.002 176.652 244.425 176.023 245.153C174.393 244.297 172.435 243.136 169.833 242.034C166.903 240.627 163.643 238.914 160.07 237.566C158.44 236.71 156.496 236.218 154.537 235.057C152.594 234.565 150.635 233.404 148.691 232.912C144.789 231.258 140.587 230.638 137.028 229.959C133.14 228.975 129.581 228.296 126.979 227.193C126.336 227.252 126.007 226.947 125.679 226.642C126.322 226.583 126.636 226.22 127.279 226.161C127.922 226.102 128.879 225.679 129.193 225.315C134.308 223.505 139.08 220.722 143.537 218.302C147.995 215.882 152.153 214.496 156.683 215.421C160.242 216.1 163.831 218.117 167.09 219.829C167.762 221.108 168.121 222.751 168.808 224.699C168.837 226.037 169.51 227.316 169.539 228.654C169.539 228.654 169.225 229.018 168.911 229.382C168.597 229.746 168.297 230.779 167.998 231.812C167.728 234.183 169.087 237.41 171.375 238.876C173.991 240.647 177.206 240.352 179.779 240.116C182.351 239.881 184.594 239.34 184.594 239.34C184.594 239.34 183.907 237.392 182.562 234.834C181.217 232.276 179.558 230.082 177.6 228.921C175.641 227.76 174.041 228.242 172.426 228.054C171.783 228.113 171.139 228.172 170.811 227.867C170.467 226.893 170.109 225.25 169.75 223.607C169.407 222.634 169.706 221.601 169.363 220.627C172.951 222.644 175.896 224.72 179.156 226.432C185.689 230.525 191.55 233.339 195.782 235.298L196.111 235.603C196.125 236.272 196.469 237.246 197.456 238.161C198.771 239.381 201.373 240.483 204.559 238.85C207.745 237.217 208.628 233.45 208.898 231.079C208.869 229.741 209.169 228.708 208.825 227.734C208.81 227.065 208.795 226.396 208.795 226.396C208.795 226.396 208.152 226.455 207.509 226.514C206.866 226.573 205.909 226.996 204.623 227.114C202.38 227.654 200.45 227.831 199.493 228.254C198.536 228.677 198.251 230.379 196.994 231.835C196.68 232.199 196.366 232.563 196.381 233.232L196.052 232.927C192.149 231.274 186.602 228.095 179.74 223.697C179.082 223.087 178.11 222.841 177.453 222.231C179.053 221.749 180.653 221.267 182.253 220.785C184.811 219.881 187.683 218.612 189.597 217.766C190.869 216.979 192.155 216.861 192.469 216.497C192.798 216.802 193.456 217.412 194.113 218.022C195.429 219.242 197.702 220.04 199.631 219.863C201.874 219.322 204.103 218.112 206.332 216.902C207.289 216.479 208.56 215.692 208.875 215.328C209.832 214.906 210.146 214.542 210.146 214.542C210.146 214.542 209.817 214.237 209.473 213.263C208.816 212.653 208.472 211.679 207.171 211.128C205.198 209.298 201.624 207.949 198.738 208.549C195.852 209.149 194.281 210.969 193.024 212.425C192.081 213.516 191.468 214.913 191.482 215.582C190.839 215.641 189.882 216.064 188.611 216.851C186.696 217.697 183.824 218.966 180.938 219.565C178.38 220.47 175.494 221.07 173.55 220.578C171.591 219.417 170.276 218.197 168.317 217.036C165.372 214.96 162.113 213.248 158.539 211.899L159.182 211.84C159.825 211.781 160.782 211.358 161.426 211.3C162.383 210.877 163.34 210.454 163.325 209.785C163.954 209.057 164.253 208.024 164.553 206.991C164.852 205.958 164.823 204.62 165.122 203.587C165.392 201.216 165.348 199.209 165.348 199.209C165.348 199.209 163.419 199.386 161.176 199.927C159.89 200.045 158.932 200.468 157.661 201.255C156.389 202.042 155.432 202.465 154.49 203.556C153.547 204.648 153.248 205.681 153.277 207.019C153.306 208.357 153.65 209.331 153.665 210C153.679 210.669 154.008 210.974 154.337 211.279C151.75 210.846 149.163 210.413 146.277 211.013C143.39 211.612 141.162 212.822 138.604 213.727C137.647 214.15 136.375 214.937 135.418 215.36C136.032 213.963 136.974 212.871 137.588 211.474C137.888 210.441 138.516 209.713 138.815 208.68C139.13 208.316 139.444 207.952 139.429 207.283C140.057 206.555 140.357 205.522 140.671 205.158C141.299 204.431 141.928 203.703 142.242 203.339C142.556 202.975 142.87 202.611 142.87 202.611L141.884 201.696C141.884 201.696 141.57 202.06 141.255 202.424C140.941 202.788 140.313 203.515 139.999 203.879C139.955 201.873 139.582 199.561 138.894 197.613C138.222 196.334 137.878 195.36 137.535 194.386C137.191 193.412 136.862 193.107 136.862 193.107C136.862 193.107 136.548 193.471 135.92 194.199C135.291 194.927 134.663 195.655 133.392 196.441C131.821 198.261 129.621 200.809 129.052 204.213C128.482 207.617 129.827 210.174 131.786 211.336C132.772 212.251 133.744 212.497 134.387 212.438C133.445 213.53 132.831 214.926 131.889 216.018C131.574 216.382 131.26 216.746 130.946 217.11C128.717 218.32 126.803 219.166 124.56 219.707C123.917 219.766 123.602 220.13 122.959 220.189C122.316 220.248 122.002 220.611 121.359 220.67C120.716 220.729 120.073 220.788 119.43 220.847C118.787 220.906 118.144 220.965 117.815 220.66C115.557 220.532 112.97 220.099 110.712 219.971C105.867 219.409 101.007 218.179 95.833 217.313C95.1899 217.372 94.861 217.067 94.218 217.126C97.4039 215.493 102.519 213.684 106.319 210.654C108.533 208.775 110.089 206.286 111.66 204.467C113.231 202.647 114.473 200.522 116.058 199.371C117.315 197.915 118.901 196.764 119.529 196.036C120.486 195.614 120.8 195.25 120.8 195.25L120.457 194.276C120.457 194.276 119.814 194.335 118.542 195.121C117.585 195.544 116.328 197 114.743 198.151C114.114 198.879 113.172 199.971 112.229 201.063L112.543 200.699C113.128 197.964 112.396 194.009 110.737 191.815C110.065 190.536 109.078 189.621 108.749 189.316C108.092 188.706 107.763 188.401 107.763 188.401C107.763 188.401 107.449 188.765 107.149 189.798C106.521 190.526 106.221 191.559 105.593 192.287C104.351 194.412 102.78 196.231 101.867 198.661C101.282 201.396 102.299 203.649 103.3 205.233C104.301 206.817 105.602 207.368 105.602 207.368C105.602 207.368 106.559 206.945 107.831 206.158C106.888 207.25 105.946 208.342 104.674 209.129C100.56 212.522 95.7595 213.968 91.9306 215.66C90.9733 216.083 90.016 216.506 89.373 216.565C88.7299 216.623 88.7299 216.623 88.0868 216.682C86.8007 216.8 85.5146 216.918 84.2284 217.036C82.9423 217.154 81.6562 217.272 81.0131 217.331C78.7698 217.872 76.5117 217.744 74.2683 218.284C72.0249 218.825 70.0958 219.002 68.1666 219.179C66.5663 219.661 65.2801 219.779 63.6798 220.261C64.6076 218.5 65.8644 217.044 66.7922 215.283C70.8472 209.214 74.2591 203.203 78.6429 197.439C80.8422 194.891 83.0268 191.674 85.2261 189.127C87.1112 186.943 88.9815 184.09 90.8666 181.906C92.4669 181.424 94.0526 180.274 95.6529 179.792L99.1677 178.464L100.768 177.982L101.725 177.559L103.355 178.415L105.299 178.907C105.942 178.848 106.6 179.458 107.243 179.399L111.131 180.384L114.689 181.063L122.136 182.726C126.667 183.652 131.541 185.551 136.087 187.145C140.947 188.375 145.821 190.274 150.98 190.472L153.238 190.6L155.168 190.423C156.454 190.305 157.74 190.187 159.011 189.4C161.569 188.496 163.812 187.955 166.37 187.05C166.37 187.05 166.37 187.05 166.684 186.686L167.327 186.627C168.299 186.873 169.585 186.755 170.557 187.001C170.243 187.365 169.614 188.093 168.986 188.821C168.687 189.854 168.073 191.251 168.102 192.589C168.132 193.927 168.176 195.934 168.848 197.213C170.208 200.44 173.467 202.152 176.069 203.254C177.37 203.805 178.656 203.687 179.628 203.933C180.6 204.179 181.243 204.12 181.243 204.12C181.243 204.12 180.87 201.808 180.811 199.132C180.423 196.151 180.036 193.171 178.706 191.282C178.033 190.003 177.375 189.393 176.718 188.783C176.06 188.173 175.088 187.927 174.43 187.317L174.101 187.012C174.43 187.317 174.744 186.953 175.073 187.258C177.989 187.996 180.576 188.429 182.849 189.226C183.821 189.472 184.793 189.718 185.122 190.023C185.45 190.328 186.093 190.269 186.093 190.269L186.393 189.236C186.393 189.236 186.064 188.931 185.421 188.99C185.092 188.685 184.12 188.439 182.819 187.888C180.547 187.091 177.945 185.989 175.029 185.251C173.728 184.7 172.442 184.817 171.141 184.266C174.028 183.667 176.914 183.067 179.815 183.136C183.031 182.841 186.575 182.852 190.119 182.862C191.405 182.744 192.691 182.626 193.334 182.567C193.349 183.236 194.007 183.846 194.665 184.456C195.995 186.345 199.583 188.362 203.756 187.644C207.928 186.927 211.728 183.897 213.613 181.713C214.555 180.621 215.498 179.53 216.769 178.743C217.398 178.015 218.026 177.287 218.026 177.287C218.026 177.287 217.697 176.982 216.725 176.736C215.753 176.49 214.453 175.939 212.523 176.116C209.293 175.741 205.106 175.79 202.863 176.331C200.29 176.567 198.391 178.082 196.476 178.927C195.519 179.35 194.891 180.078 194.247 180.137C192.961 180.255 191.675 180.373 190.06 180.186C186.516 180.176 183.286 179.801 179.742 179.791C179.742 179.791 180.056 179.427 179.727 179.122C179.727 179.122 179.727 179.122 179.084 179.181C179.398 178.817 179.727 179.122 180.041 178.758C180.999 178.335 181.956 177.912 182.913 177.49C183.87 177.067 185.142 176.28 186.084 175.188C187.969 173.004 190.154 169.787 192.024 166.935C192.638 165.538 193.581 164.446 194.523 163.354C195.151 162.626 195.451 161.593 195.451 161.593C195.451 161.593 194.808 161.652 193.836 161.406C192.864 161.16 191.264 161.642 189.649 161.455C188.362 161.573 187.076 161.691 185.805 162.477C185.461 161.503 184.475 160.588 183.788 158.641C182.114 155.778 179.767 151.636 177.107 147.858C176.106 146.274 175.104 144.69 174.118 143.775C176.076 144.936 178.02 145.428 179.979 146.589C183.881 148.242 187.47 150.259 191.372 151.912C192.015 151.853 192.658 151.794 193.615 151.371L194.902 151.254C195.859 150.831 196.502 150.772 197.788 150.654C198.431 150.595 199.074 150.536 199.388 150.172C200.031 150.113 200.674 150.054 201.332 150.664C205.205 150.979 210.065 152.21 214.925 153.44C217.197 154.237 219.784 154.67 221.743 155.831C223.044 156.382 224.016 156.628 224.674 157.238C225.646 157.484 226.632 158.399 227.604 158.645C227.933 158.95 228.262 159.255 228.905 159.196C229.234 159.501 229.563 159.806 229.892 160.111C230.549 160.722 230.878 161.026 231.521 160.968C232.179 161.578 232.837 162.188 232.837 162.188L233.779 161.096C233.779 161.096 233.45 160.791 232.464 159.876C232.135 159.571 231.477 158.961 230.819 158.351C230.491 158.046 230.162 157.741 229.833 157.436C229.504 157.131 229.175 156.826 228.532 156.885C227.874 156.275 226.902 156.028 225.916 155.113C224.944 154.867 223.957 153.952 222.985 153.706C221.026 152.545 218.44 152.112 215.838 151.01C212.593 149.967 209.677 149.229 206.447 148.854C207.09 148.795 207.733 148.737 208.376 148.678C209.977 148.196 211.592 148.383 212.878 148.265C218.665 147.734 223.81 147.263 227.668 146.909C231.213 146.919 233.456 146.378 233.456 146.378L233.427 145.04C234.07 144.981 234.399 145.286 235.042 145.228C236.657 145.415 238.9 144.874 240.157 143.418C240.785 142.69 241.413 141.962 242.027 140.565C242.327 139.532 242.94 138.135 243.24 137.102C243.839 135.037 244.438 132.971 244.438 132.971C244.438 132.971 242.808 132.115 240.236 132.35C238.95 132.468 237.663 132.586 236.063 133.068C234.463 133.55 233.191 134.337 232.563 135.065C230.678 137.249 230.408 139.619 230.766 141.262C230.81 143.269 231.483 144.548 231.483 144.548C230.511 144.302 229.225 144.42 227.295 144.597C223.751 144.587 218.921 144.694 212.49 145.284C211.847 145.343 211.204 145.402 210.561 145.461C211.832 144.674 213.747 143.828 215.004 142.372C217.532 140.13 220.031 136.549 221.886 133.027C223.757 130.174 224.984 127.381 224.984 127.381C224.984 127.381 222.412 127.617 218.882 128.275C215.353 128.934 210.881 130.685 207.41 134.019C203.939 137.354 202.741 141.486 203.129 144.466C203.144 145.135 203.473 145.44 203.487 146.109C202.844 146.168 202.201 146.227 202.201 146.227C200.272 146.404 198.672 146.886 196.743 147.063C195.785 147.486 194.813 147.24 193.856 147.663L192.57 147.781L191.927 147.84C188.668 146.127 185.408 144.415 182.149 142.703C178.56 140.686 174.972 138.669 171.07 137.016C168.468 135.914 166.18 134.448 163.25 133.04C165.508 133.169 168.409 133.238 171.31 133.307C173.882 133.071 176.769 132.471 179.327 131.567C179.97 131.508 180.627 132.118 181.585 131.695C183.514 131.518 186.071 130.613 188.285 128.734C188.928 128.675 189.886 128.252 190.529 128.193C193.4 126.925 195.958 126.02 198.515 125.115C201.387 123.846 203.302 123 204.573 122.214C204.902 122.519 206.203 123.07 207.489 122.952C209.747 123.08 213.591 122.057 216.404 118.113C219.217 114.168 219.128 110.154 218.741 107.173C218.711 105.835 218.682 104.497 218.653 103.159C218.309 102.185 218.294 101.516 218.294 101.516C218.294 101.516 217.98 101.88 217.023 102.303C216.066 102.726 215.123 103.818 213.852 104.605C211.323 106.848 208.81 109.759 207.239 111.579C205.997 113.704 205.712 115.406 205.113 117.472C204.814 118.505 204.514 119.538 204.529 120.207C203.258 120.994 201.014 121.534 198.143 122.803C195.899 123.344 193.342 124.249 190.47 125.518C192.969 121.937 193.852 118.169 194.422 114.765C194.991 111.361 195.262 108.991 195.262 108.991C195.262 108.991 192.704 109.895 189.847 111.833C186.99 113.771 183.505 116.436 181.948 118.925C179.749 121.473 179.479 123.844 178.566 126.274C178.266 127.307 177.967 128.34 177.982 129.009C175.738 129.549 173.495 130.09 171.237 129.962C168.336 129.893 166.078 129.765 163.176 129.696C163.491 129.332 163.491 129.332 163.805 128.968C165.062 127.512 166.318 126.056 166.917 123.99C167.202 122.288 166.814 119.307 167.084 116.936C167.055 115.598 167.026 114.26 167.011 113.591C166.996 112.923 166.981 112.254 166.981 112.254C166.981 112.254 166.338 112.313 165.695 112.371C164.738 112.794 163.452 112.912 162.509 114.004C159.967 115.578 156.81 118.549 155.926 122.316C155.357 125.72 156.373 127.973 157.703 129.862C157.703 129.862 157.374 129.557 157.06 129.921C154.129 128.514 150.885 127.471 148.283 126.369C146.01 125.572 143.423 125.138 141.151 124.341C143.365 122.463 145.893 120.22 148.735 117.613C151.891 114.642 154.405 111.731 156.29 109.547C157.233 108.455 158.175 107.363 158.804 106.635C159.447 106.576 160.09 106.517 161.047 106.094C163.29 105.554 165.534 105.013 168.391 103.075C171.248 101.137 173.761 98.2257 175.96 95.678C177.217 94.2221 178.16 93.1302 178.788 92.4023C179.416 91.6744 180.045 90.9465 180.045 90.9465C180.045 90.9465 179.402 91.0054 178.43 90.7594C177.458 90.5133 175.843 90.3262 174.228 90.1391C170.684 90.1289 166.197 91.2105 162.383 93.5711C160.797 94.722 159.226 96.5418 158.612 97.9387C157.685 99.6995 157.071 101.096 157.1 102.434C157.144 104.441 157.174 105.779 157.503 106.084C156.874 106.812 156.246 107.54 155.618 108.268C153.732 110.452 150.576 113.422 147.734 116.029C147.419 116.393 147.105 116.757 146.791 117.121C147.105 116.757 147.405 115.724 147.719 115.36C148.647 113.599 148.917 111.228 148.544 108.917C148.171 106.605 146.512 104.411 145.496 102.158C145.481 101.489 145.152 101.184 144.494 100.574C144.48 99.9047 144.151 99.5996 144.136 98.9307C143.793 97.9567 143.778 97.2878 143.778 97.2878C143.778 97.2878 143.464 97.6517 142.506 98.0746C142.192 98.4386 141.878 98.8025 140.921 99.2254C140.607 99.5894 139.978 100.317 139.35 101.045C137.479 103.898 136.282 108.03 136.998 111.316C137.715 114.602 140.017 116.737 141.961 117.229C143.262 117.78 143.905 117.721 144.548 117.662C142.334 119.541 140.434 121.055 138.534 122.57L138.22 122.934C134.332 121.95 130.459 121.635 126.915 121.624C123.371 121.614 120.484 122.214 117.598 122.814L116.955 122.873C116.626 122.568 116.297 122.263 115.968 121.958C119.066 116.311 121.521 110.724 123.646 104.831L125.772 98.9385C127.343 97.1187 129.572 95.9089 131.786 94.0301C134.329 92.4564 137.514 90.8236 139.429 89.9778C140.386 89.5549 141.672 89.437 142.315 89.378C142.958 89.3191 143.287 89.6241 143.287 89.6241L143.587 88.5912C143.587 88.5912 142.944 88.6501 142.301 88.7091C141.658 88.768 140.371 88.8859 139.414 89.3088C137.171 89.8497 133.985 91.4824 131.442 93.0561C130.171 93.843 128.899 94.6299 127.628 95.4168C127.927 94.3838 128.227 93.3509 128.526 92.318C129.125 90.2521 129.724 88.1862 130.009 86.4843C130.608 84.4185 131.222 83.0216 132.493 82.2347C132.807 81.8707 133.764 81.4479 134.079 81.0839L134.407 81.3889C134.407 81.3889 134.407 81.3889 134.722 81.0249C136.95 79.8151 140.151 78.8514 143.037 78.2516C144.967 78.0747 147.21 77.5339 149.139 77.3571L152.998 77.0033L154.927 76.8264C155.256 77.1315 155.913 77.7414 156.242 78.0464C157.887 79.5715 160.817 80.9787 164.661 79.956C168.833 79.2383 172.304 75.9036 174.175 73.0509C175.431 71.595 176.045 70.1982 176.673 69.4703C177.302 68.7423 177.287 68.0733 177.287 68.0733C177.287 68.0733 176.644 68.1323 175.672 67.8862C174.7 67.6402 173.414 67.7581 171.814 68.24C168.598 68.5348 165.368 68.1605 162.811 69.0653C159.924 69.6651 158.024 71.1799 156.125 72.6947C156.125 72.6947 156.125 72.6947 155.81 73.0587L155.467 72.0847C155.452 71.4157 155.452 71.4157 155.766 71.0518L155.752 70.3828C156.066 70.0188 156.38 69.6549 156.694 69.2909C158.265 67.4711 160.464 64.9234 163.307 62.3167C165.835 60.074 168.692 58.1362 170.921 56.9265C172.192 56.1396 172.835 56.0806 173.792 55.6577C174.435 55.5988 174.75 55.2348 174.75 55.2348L174.406 54.2608C174.406 54.2608 174.092 54.6247 173.449 54.6837C172.806 54.7427 171.848 55.1656 170.577 55.9525C168.348 57.1623 165.491 59.1 162.634 61.0377C160.734 62.5525 159.478 64.0084 157.578 65.5232C158.491 63.0933 159.419 61.3325 160.332 58.9027C161.559 56.1089 163.116 53.6201 164.343 50.8263C165.256 48.3965 166.483 45.6027 166.739 42.5628C167.068 42.8679 168.04 43.1139 168.697 43.7239C170.641 44.216 173.214 43.9802 175.428 42.1014C177.956 39.8587 178.839 36.0909 179.095 33.0511C179.065 31.7132 179.036 30.3753 178.692 29.4013C178.349 28.4273 178.02 28.1223 178.02 28.1223C178.02 28.1223 177.706 28.4862 176.749 28.9091C176.12 29.6371 175.163 30.06 174.206 30.4829C172.291 31.3287 169.734 32.2335 168.477 33.6894C166.891 34.8402 166.292 36.9061 166.336 38.913C166.037 39.9459 166.066 41.2839 166.081 41.9528L165.109 41.7068C164.525 44.4416 163.298 47.2354 162.07 50.0292C161.457 51.4261 160.514 52.518 159.9 53.9149C159.827 50.57 159.753 47.2252 159.351 43.5753C158.934 39.2565 158.188 34.6327 157.471 31.3468C157.113 29.7038 157.084 28.3659 156.74 27.3919C156.397 26.4179 156.382 25.749 156.382 25.749L155.425 26.1719C155.425 26.1719 155.439 26.8408 155.783 27.8148C155.798 28.4838 155.812 29.1527 156.156 30.1267C155.483 28.8477 154.482 27.2638 152.852 26.4077C150.894 25.2466 148.307 24.8134 146.049 24.6853C145.406 24.7443 145.077 24.4393 144.434 24.4982C144.105 24.1932 143.462 24.2522 143.133 23.9472C142.161 23.7011 141.832 23.3961 141.832 23.3961C141.832 23.3961 141.518 23.7601 141.547 25.098C141.562 25.767 141.248 26.1309 141.262 26.7999C141.277 27.4689 141.292 28.1378 141.307 28.8068C141.694 31.7877 143.712 35.6246 146.971 37.3368C149.902 38.7439 152.474 38.5081 154.388 37.6623C155.346 37.2393 155.974 36.5114 156.617 36.4525C157.005 39.4333 157.392 42.4142 157.78 45.3951C158.197 49.7139 158.3 54.3967 158.045 57.4366C158.059 58.1055 158.074 58.7745 158.089 59.4435C156.533 61.9322 155.305 64.7261 154.078 67.5198C153.778 68.5528 153.464 68.9167 153.165 69.9496L152.865 70.9826C152.551 71.3466 152.566 72.0155 152.895 72.3205L152.924 73.6585L152.939 74.3274C152.625 74.6914 152.953 74.9964 152.953 74.9964C153.94 75.9114 153.94 75.9114 153.94 75.9114L153.297 75.9704L152.654 76.0293L150.082 76.2652C148.153 76.442 145.894 76.3139 143.651 76.8547C141.722 77.0316 139.478 77.5724 137.549 77.7492C138.148 75.6834 138.418 73.3125 139.017 71.2467C139.287 68.8758 139.557 66.5049 139.513 64.498C139.828 64.1341 140.127 63.1011 140.427 62.0682C140.711 60.3663 140.981 57.9954 139.636 55.4375C138.292 52.8795 135.346 50.8034 132.759 50.3702C131.458 49.8191 130.172 49.9371 129.2 49.691C128.557 49.75 127.914 49.8089 127.914 49.8089C127.914 49.8089 127.929 50.4779 127.944 51.1469C127.958 51.8158 127.988 53.1538 128.331 54.1278C128.704 56.4397 128.449 59.4795 130.108 61.6735C131.453 64.2315 133.726 65.0286 135.67 65.5207C136.642 65.7668 137.285 65.7078 137.928 65.6488C137.643 67.3507 137.358 69.0527 137.073 70.7546C136.489 73.4894 135.905 76.2242 135.306 78.2901C133.706 78.7719 132.434 79.5588 131.177 81.0147C129.906 81.8016 129.292 83.1985 128.664 83.9264C127.721 85.0183 127.422 86.0512 127.122 87.0841C126.209 89.514 125.61 91.5798 125.011 93.6457C124.412 95.7115 123.813 97.7774 122.886 99.5382L120.431 105.126C119.518 107.556 117.962 110.044 117.048 112.474C116.69 110.831 116.317 108.519 115.944 106.207C115.257 104.26 114.884 101.948 114.197 99.9997C113.51 98.0517 112.823 96.1037 112.15 94.8248C112.464 94.4608 113.736 93.6739 114.364 92.946C115.95 91.7952 117.206 90.3393 117.805 88.2734C118.404 86.2076 118.017 83.2267 117.644 80.9148C117.614 79.5769 117.271 78.6029 117.256 77.9339C117.241 77.2649 117.227 76.596 117.227 76.596C117.227 76.596 116.584 76.6549 115.955 77.3828C114.998 77.8058 114.041 78.2287 113.098 79.3206C110.884 81.1994 108.371 84.111 107.786 86.8458C106.888 89.9446 108.233 92.5026 109.234 94.0866C109.892 94.6966 110.221 95.0016 110.55 95.3066C110.879 95.6116 110.564 95.9756 110.893 96.2806C111.252 97.9235 111.939 99.8715 112.297 101.514C112.984 103.462 113.357 105.774 114.044 107.722C114.417 110.034 114.776 111.677 115.149 113.989C115.492 114.963 115.507 115.632 115.207 116.665C112.738 121.584 109.94 126.197 106.813 130.506L102.399 134.932C101.457 136.024 99.8713 137.175 98.9288 138.267C99.513 135.532 100.097 132.797 100.996 129.698C101.295 128.665 101.281 127.996 101.58 126.964C101.894 126.6 101.879 125.931 101.879 125.931L101.865 125.262L101.85 124.593L102.164 124.229C102.449 122.527 102.719 120.156 102.989 117.785C103.259 115.414 102.557 112.797 101.213 110.239C100.196 107.986 98.5521 106.461 96.9077 104.936C95.2633 103.411 94.2619 101.827 92.6175 100.302C92.2886 99.9972 91.6309 99.3872 91.302 99.0822L91.2873 98.4132C91.2726 97.7442 91.2579 97.0753 91.5721 96.7113C91.8568 95.0094 92.4705 93.6125 93.0695 91.5466C93.369 90.5137 93.6685 89.4808 94.2968 88.7529C94.5963 87.7199 94.8957 86.687 95.1952 85.6541C96.0643 81.2173 96.6192 77.1446 97.5176 74.0458C98.1313 72.6489 98.1019 71.311 98.7303 70.583C99.0298 69.5501 99.3439 69.1861 99.3439 69.1861L98.0431 68.6351C98.0431 68.6351 97.7289 68.999 97.4294 70.032C96.8011 70.7599 96.5163 72.4618 95.9026 73.8587C95.0042 76.9575 94.4493 81.0303 93.2514 85.162C93.2661 85.8309 92.9519 86.1949 92.6377 86.5589C92.6083 85.2209 92.2647 84.247 91.9211 83.273C90.5762 80.715 88.2593 77.911 86.2861 76.081C83.9839 73.9459 82.0253 72.7848 82.0253 72.7848C82.0253 72.7848 81.4263 74.8507 80.8567 78.2545C80.6014 81.2943 80.0465 85.3671 81.4061 88.594C82.7658 91.821 85.3821 93.5921 87.6402 93.7202C88.6121 93.9663 89.2552 93.9073 89.8983 93.8484C89.5988 94.8813 89.2846 95.2452 89.2993 95.9142C88.9851 96.2782 88.9998 96.9471 88.9998 96.9471C88.3421 96.3371 88.0132 96.0321 87.3554 95.4221C84.0666 92.372 80.7924 89.9909 77.5036 86.9408C76.8459 86.3308 75.8592 85.4158 75.2015 84.8058L75.5156 84.4418C76.1293 83.0449 77.0572 81.2841 77.3272 78.9132C77.9262 76.8473 78.1816 73.8075 78.4517 71.4366C79.036 68.7018 79.6202 65.967 80.2045 63.2321C80.1898 62.5632 80.5039 62.1992 80.8034 61.1663C80.8034 61.1663 81.1323 61.4713 81.4612 61.7763C82.1189 62.3863 83.0909 62.6324 84.0629 62.8784C86.3356 63.6755 91.4654 62.5349 94.6073 58.8953C97.7491 55.2557 99.2612 50.76 100.489 47.9662C101.102 46.5693 101.716 45.1724 102.344 44.4445C102.973 43.7165 103.601 42.9886 103.601 42.9886C103.601 42.9886 102.958 43.0476 101.986 42.8016C100.7 42.9195 99.0995 43.4013 97.185 44.2472C93.356 45.9388 89.5564 48.9684 87.3572 51.5161C85.1579 54.0639 84.2301 55.8248 82.988 57.9496C82.6886 58.9825 82.0602 59.7104 81.4318 60.4384C81.4318 60.4384 81.4318 60.4383 81.1176 60.8023C81.4024 59.1004 82.0014 57.0346 82.2862 55.3327C82.8705 52.5978 83.7836 50.168 84.3825 48.1021C84.682 47.0692 84.9815 46.0363 85.281 45.0034C85.281 45.0034 86.8813 44.5215 88.7958 43.6756C90.7103 42.8298 92.3106 42.3479 94.1957 40.1641C95.7666 38.3443 97.637 35.4916 99.5074 32.6389C101.064 30.1501 101.977 27.7202 101.977 27.7202C101.977 27.7202 99.7187 27.5921 96.5034 27.8869C93.6169 28.4867 89.4443 29.2044 86.6167 32.48C83.7891 35.7557 83.2195 39.1595 83.5925 41.4714C83.6072 42.1404 83.9361 42.4454 83.9508 43.1144C83.6513 44.1473 83.0376 45.5442 82.7528 47.2461C82.1539 49.3119 81.2407 51.7417 80.6564 54.4766C80.0722 57.2114 79.4879 59.9463 78.5895 63.0451C78.0052 65.7799 77.1067 68.8787 76.5225 71.6135C75.9382 74.3483 75.6681 76.7192 75.0692 78.7851C74.4702 80.8509 73.8565 82.2478 73.2429 83.6447C71.5985 82.1197 70.2682 80.2307 68.938 78.3417C67.9367 76.7577 67.2495 74.8097 66.5623 72.8618C65.8752 70.9138 65.5022 68.6019 65.1439 66.959C63.6961 59.7182 62.2483 52.4775 61.4729 46.5157C61.8018 46.8207 62.4449 46.7617 63.1026 47.3718C65.3754 48.1689 70.2058 48.0612 73.9906 44.3626C74.9332 43.2708 75.8757 42.1789 76.5041 41.4509C77.4466 40.3591 77.7461 39.3261 78.3598 37.9292C79.2729 35.4994 79.8719 33.4335 79.8278 31.4266C80.1126 29.7247 80.0685 27.7178 80.368 26.6849C80.3386 25.347 80.3239 24.678 80.3239 24.678C80.3239 24.678 80.0097 25.0419 78.7382 25.8288C78.1099 26.5567 76.5243 27.7076 75.2528 28.4945C72.7247 30.7372 69.5535 33.0389 67.0253 35.2816C64.8113 37.1604 63.5693 39.2852 61.9984 41.105C61.6842 41.469 61.6842 41.469 61.37 41.8329C61.6548 40.131 61.6254 38.7931 62.2391 37.3962C63.4517 33.9334 64.6643 30.4707 65.5775 28.0408C66.4906 25.611 67.4185 23.8502 67.4185 23.8502L66.1176 23.2991C66.1176 23.2991 65.1898 25.0599 63.9477 27.1848C62.7204 29.9785 61.1789 33.1363 59.9663 36.5991C59.981 37.2681 59.3526 37.996 59.3673 38.6649C58.6361 34.7101 58.2337 31.0602 57.5318 28.4433C57.5171 27.7743 57.1882 27.4693 57.1735 26.8003C57.4877 26.4364 58.4303 25.3445 59.687 23.8886C61.2579 22.0688 62.5 19.944 63.3984 16.8452C64.2968 13.7464 64.2086 9.7326 64.1351 6.38775C64.0616 3.0429 64.0029 0.36704 64.0029 0.36704C64.0029 0.36704 61.7742 1.57684 59.2607 4.48853C56.7326 6.73126 53.9196 10.6759 52.7217 14.8076C51.8526 19.2443 52.8981 22.8352 54.2283 24.7242C54.5572 25.0292 54.5572 25.0293 54.8861 25.3343C55.2297 26.3083 55.259 27.6462 55.2884 28.9841C56.0197 32.939 56.4662 38.5957 57.5704 44.8625C58.3311 50.1553 59.1212 56.7861 60.2254 63.0528C59.8965 62.7478 59.5676 62.4428 59.2387 62.1378C57.9232 60.9178 55.9646 59.7567 53.6772 58.2906C51.7186 57.1295 49.1169 56.0275 47.4725 54.5024C46.8148 53.8924 46.157 53.2824 45.8281 52.9774C45.8134 52.3084 46.1129 51.2754 46.0835 49.9375C46.0247 47.2616 45.9512 43.9168 44.248 39.7158C42.5448 35.5149 40.1985 31.373 38.1958 28.205C37.1945 26.621 36.1931 25.037 35.8495 24.0631C35.1771 22.7841 34.8482 22.4791 34.8482 22.4791C34.8482 22.4791 34.5487 23.512 34.2492 24.5449C33.6356 25.9418 33.3508 27.6437 33.0807 30.0146C32.5111 33.4184 32.2852 37.7962 33.0164 41.751L32.6875 41.446L31.745 42.5379C31.745 42.5379 32.4027 43.1479 33.3894 44.0629C33.7183 44.3679 33.4041 44.7319 33.7329 45.0369C35.4508 49.9068 38.4108 52.6519 41.0124 53.754C42.6422 54.61 43.6141 54.8561 44.5861 55.1022C45.2438 55.7122 45.5727 56.0172 46.2305 56.6272C48.2038 58.4573 50.4765 59.2543 52.764 60.7204C54.7226 61.8815 56.6812 63.0426 57.9967 64.2626C59.3123 65.4827 60.2989 66.3977 60.6425 67.3716L60.9714 67.6767C61.3444 69.9886 61.7026 71.6315 62.0756 73.9434C62.4486 76.2553 63.4646 78.5083 64.7948 80.3973C67.1411 84.5393 70.1158 87.9533 73.4046 91.0034C76.3645 93.7485 79.6533 96.7985 82.2844 99.2386C81.6413 99.2975 80.6694 99.0515 80.3405 98.7465C77.1105 98.3723 73.8804 97.9981 70.3215 97.3189C66.4484 97.0036 62.8749 95.6554 59.3012 94.3073C55.7276 92.9591 52.1393 90.942 49.1941 88.8659C47.5644 88.0098 46.2489 86.7898 44.6192 85.9337C42.9895 85.0776 41.6887 84.5266 40.3731 83.3066C38.7434 82.4505 37.7568 81.5355 36.456 80.9844L36.7701 80.6205C36.7701 80.6205 37.0549 78.9186 36.6819 76.6066C36.3089 74.2947 35.2782 71.3728 33.2902 68.8738C30.988 66.7387 28.0428 64.6626 25.4265 62.8916C24.1256 62.3405 23.139 61.4254 22.1523 60.5104C21.4945 59.9004 20.8368 59.2904 20.8368 59.2904C20.8368 59.2904 20.8515 59.9594 20.552 60.9923C20.2525 62.0252 20.2819 63.3632 20.326 65.3701C20.7284 69.02 22.1174 73.5848 24.7632 76.6938C27.4089 79.8029 30.3247 80.541 32.5828 80.6692C33.2259 80.6102 33.869 80.5513 34.1978 80.8563C35.5134 82.0763 37.1431 82.9324 39.1017 84.0934C40.4025 84.6445 41.7181 85.8646 43.3478 86.7206C44.3344 87.6356 45.6352 88.1867 46.6219 89.1017C46.293 88.7967 45.6499 88.8557 45.6499 88.8557C44.678 88.6096 43.706 88.3636 42.7488 88.7865C41.7916 89.2094 40.8343 89.6323 39.234 90.1141C37.9625 90.901 36.6911 91.6879 35.7339 92.1109C33.5052 93.3206 31.6054 94.8354 31.6054 94.8354C31.6054 94.8354 32.6067 96.4194 35.2231 98.1905C35.552 98.4955 35.552 98.4955 35.8809 98.8005C35.8956 99.4695 35.5814 99.8335 35.5961 100.502C35.6108 101.171 35.2966 101.535 34.9971 102.568C34.3835 103.965 33.7845 106.031 32.8566 107.792C31.9288 109.553 31.0156 111.983 30.4167 114.048C29.8177 116.114 29.8765 118.79 29.9206 120.797C29.9647 122.804 30.3377 125.116 31.0102 126.395C31.339 126.7 31.0249 127.064 31.3537 127.369C30.3818 127.123 29.724 126.513 28.7521 126.267L25.1638 124.25C24.8349 123.945 23.863 123.699 23.5341 123.394L22.8763 122.784L22.2185 122.174C20.5888 121.317 19.6169 121.071 18.3161 120.52C17.0153 119.969 15.7144 119.418 14.7277 118.503C13.4269 117.952 11.7972 117.096 10.8106 116.181C10.4817 115.876 10.467 115.207 10.4523 114.538C10.4376 113.869 10.094 112.895 10.0793 112.226C9.73574 111.252 9.39217 110.278 9.69164 109.245C8.97509 105.959 8.57268 102.31 8.48448 98.2957C9.12755 98.2368 9.45647 98.5418 9.77065 98.1779C11.6998 98.001 14.5716 96.7322 16.1278 94.2435C17.684 91.7547 18.5824 88.6558 18.8525 86.285C18.8378 85.616 19.152 85.2521 19.1373 84.5831C19.1226 83.9141 19.4368 83.5502 19.751 83.1862C20.0505 82.1533 20.3646 81.7893 20.3646 81.7893C20.3646 81.7893 19.7216 81.8483 19.0785 81.9072C18.4355 81.9662 17.7924 82.0251 17.1493 82.0841C16.5062 82.143 15.8632 82.202 15.2348 82.9299C12.9915 83.4707 10.4486 85.0445 8.87767 86.8643C9.11836 83.1555 9.35902 79.4467 9.6144 76.4068C9.58501 75.0689 9.88449 74.036 9.8551 72.698C10.1693 72.3341 10.4688 71.3011 10.7682 70.2682C11.3672 68.2023 11.9515 65.4675 11.5638 62.4866C10.8472 59.2007 9.48762 55.9738 7.81381 53.1108C6.14 50.2478 4.80978 48.3589 4.80978 48.3589C4.80978 48.3589 3.56776 50.4837 2.02625 53.6414C0.813615 57.1042 -0.384342 61.2359 0.34692 65.1908C1.07818 69.1456 3.70925 71.5857 5.66784 72.7468C6.96867 73.2978 7.94064 73.5439 8.5837 73.4849C8.5984 74.1539 8.29892 75.1868 8.31362 75.8558C8.07293 79.5646 7.20388 84.0013 6.99259 89.0481C6.06474 90.809 6.10881 92.8158 5.82403 94.5177C5.86813 96.5246 6.22643 98.1676 6.22643 98.1676C6.00045 102.545 6.41752 106.864 7.13407 110.15C7.16347 111.488 7.50707 112.462 7.85065 113.436L8.17955 113.741C6.86403 112.521 6.17682 110.573 5.48967 108.625C3.77176 103.755 2.69694 98.8264 1.30792 94.2615L0.964299 93.2875C0.964299 93.2875 0.949605 92.6185 0.620727 92.3135C0.606022 91.6445 0.277171 91.3395 -0.0664149 90.3656C-0.0811074 89.6966 -0.409999 89.3916 -0.424704 88.7226C-0.424704 88.7226 -0.753606 88.4176 -1.09719 87.4436C-1.78435 85.4957 -2.4715 83.5477 -3.47284 81.9637C-3.47284 81.9637 -3.80172 81.6587 -3.81642 80.9898C-3.83112 80.3208 -4.1747 79.3468 -4.51827 78.3728C-4.89125 76.0609 -5.27897 73.08 -5.35247 69.7352C-5.42597 66.3903 -5.17053 63.3505 -5.22933 60.6746C-5.28812 57.9987 -5.31755 56.6608 -5.31755 56.6608L-6.60368 56.7787C-6.60368 56.7787 -6.88848 58.4806 -6.51551 60.7925C-6.78558 63.1634 -6.71205 66.5083 -6.96744 69.5481C-6.92334 71.555 -6.87926 73.5619 -6.83516 75.5688C-9.19613 70.7579 -11.5424 66.6159 -12.902 63.389C-13.2456 62.415 -13.5892 61.441 -14.2469 60.831C-13.9327 60.467 -13.3044 59.7391 -12.6907 58.3422C-11.7629 56.5814 -11.4928 54.2105 -11.8658 51.8986C-12.2094 50.9246 -12.8819 49.6456 -13.8685 48.7306C-14.8551 47.8156 -15.5276 46.5366 -16.1853 45.9266C-17.8297 44.4016 -19.4741 42.8765 -19.4741 42.8765C-19.4741 42.8765 -20.402 44.6373 -21.6294 47.4311C-22.243 48.828 -22.5278 50.5299 -22.4984 51.8679C-22.7832 53.5698 -22.7537 54.9077 -22.3955 56.5507C-21.3647 59.4726 -19.4062 60.6337 -17.7764 61.4898C-17.4476 61.7948 -16.8045 61.7358 -16.1615 61.6768C-15.8179 62.6508 -15.1454 63.9298 -14.473 65.2088C-12.7697 69.4097 -10.0799 74.5257 -7.34593 81.6485C-7.67481 81.3435 -8.31787 81.4024 -8.96093 81.4614C-10.9195 80.3003 -13.5212 79.1982 -16.1228 78.0961C-20.6684 76.5018 -25.1992 75.5766 -28.444 74.5334C-29.7448 73.9824 -31.0456 73.4313 -32.0176 73.1852C-32.0323 72.5162 -32.0469 71.8473 -32.3758 71.5423C-32.3905 70.8734 -32.4199 69.5354 -32.4346 68.8664C-32.7782 67.8924 -32.7929 67.2235 -33.4507 66.6135C-34.7662 65.3934 -36.7248 64.2324 -38.9976 63.4352C-41.2703 62.6381 -42.9001 61.782 -42.9001 61.782C-42.9001 61.782 -43.8279 63.5429 -43.7691 66.2188C-44.0392 68.5896 -43.6368 72.2395 -41.9777 74.4335C-41.3052 75.7125 -39.6755 76.5686 -38.3894 76.4507C-36.7744 76.6378 -35.8025 76.8838 -34.8452 76.4609C-32.9307 75.6151 -31.9881 74.5232 -31.9881 74.5232C-31.0162 74.7693 -30.0443 75.0153 -29.0723 75.2613C-25.8276 76.3045 -20.9679 77.5348 -16.7512 78.824C-15.4504 79.3751 -14.1496 79.9261 -12.8487 80.4772C-13.1629 80.8411 -13.4918 80.5361 -13.8059 80.9001C-16.3635 81.8049 -18.5628 84.3526 -20.7768 86.2314C-22.6619 88.4151 -24.2328 90.2349 -24.2328 90.2349C-24.2328 90.2349 -22.2742 91.396 -19.6872 91.8292C-16.7714 92.5673 -13.2272 92.5776 -10.3555 91.3088C-7.79791 90.404 -6.22701 88.5842 -5.29916 86.8234C-5.28446 87.4923 -4.95554 87.7974 -4.61197 88.7713C-4.26838 89.7453 -3.92481 90.7193 -3.25236 91.9983C-3.23765 92.6672 -2.90875 92.9722 -2.89405 93.6412C-2.56517 93.9462 -2.5652 93.9462 -2.87937 94.3101L-2.53578 95.2842C-1.14675 99.8491 -0.714993 104.837 1.33179 110.012C1.34649 110.681 2.0043 111.291 2.01899 111.96C2.0337 112.629 2.69142 113.239 2.70611 113.908C3.03499 114.213 3.04971 114.882 3.37859 115.187C2.73553 115.246 2.40666 114.941 2.09249 115.305C1.44942 115.363 0.806343 115.422 0.163281 115.481C-0.165603 115.176 -0.808653 115.235 -0.808653 115.235C-5.99727 113.7 -11.1712 112.834 -15.3732 112.213C-16.3451 111.967 -17.3171 111.721 -17.9601 111.78C-17.9601 111.78 -17.9601 111.78 -17.9748 111.111C-17.9895 110.442 -17.69 109.409 -18.3625 108.131C-18.7061 107.157 -19.7074 105.573 -21.0229 104.353C-22.3385 103.132 -24.9254 102.699 -26.8546 102.876C-31.3561 103.289 -34.1984 105.896 -36.7412 107.469C-38.9552 109.348 -41.5128 110.253 -41.5128 110.253C-41.5128 110.253 -41.1839 110.558 -40.1972 111.473C-39.5395 112.083 -38.2387 112.634 -36.609 113.49C-33.3643 114.533 -29.4912 114.848 -26.9189 114.613C-25.6328 114.495 -24.9897 114.436 -24.0325 114.013C-23.0752 113.59 -22.4322 113.531 -21.4749 113.108C-20.8318 113.049 -19.8746 112.626 -19.2315 112.567C-18.2596 112.813 -16.9587 113.364 -15.3437 113.551C-11.7848 114.231 -6.92512 115.461 -2.0654 116.691C-2.37957 117.055 -2.37959 117.055 -3.02264 117.114C-4.92244 118.629 -6.79283 121.482 -8.34904 123.97C-9.90526 126.459 -10.5042 128.525 -10.5042 128.525C-10.5042 128.525 -8.56036 129.017 -5.9881 128.781C-3.41584 128.546 0.113699 127.887 2.97074 125.949C4.24217 125.162 5.16998 123.401 5.78365 122.004C6.08313 120.971 6.38266 119.939 6.36796 119.27C7.66878 119.821 9.28378 120.008 10.5846 120.559C11.2424 121.169 11.8854 121.11 12.5432 121.72C13.844 122.271 14.8306 123.186 16.1315 123.737C17.4323 124.288 18.7331 124.839 19.3909 125.449L20.0486 126.059L20.7064 126.669C21.3642 127.279 22.0073 127.22 22.665 127.83L26.2533 129.847C28.5408 131.314 31.1425 132.416 32.7869 133.941C33.7735 134.856 34.4313 135.466 35.089 136.076C35.4326 137.05 36.0904 137.66 36.434 138.634L36.4487 139.303C35.462 138.388 33.8323 137.532 32.2026 136.675C31.2307 136.429 30.244 135.514 28.9579 135.632C27.9859 135.386 26.6998 135.504 25.7278 135.258C21.2117 135.002 17.0244 135.051 13.8091 135.345C12.1941 135.158 10.908 135.276 9.93604 135.03C8.9641 134.784 8.32104 134.843 8.32104 134.843L8.02155 135.876C8.02155 135.876 8.66465 135.817 9.6366 136.063C10.6085 136.309 11.8946 136.191 13.5097 136.378C16.7397 136.752 21.2411 136.34 25.4431 136.96C26.415 137.206 27.387 137.452 28.3589 137.698C29.3309 137.944 29.9887 138.554 30.9606 138.8C32.5903 139.656 34.22 140.512 35.5355 141.732C35.8644 142.037 36.5222 142.647 36.851 142.952C36.8804 144.29 36.8951 144.959 36.9245 146.297C36.9833 148.973 36.7133 151.344 36.4579 154.384C36.4873 155.722 36.5166 157.06 36.546 158.398C36.5754 159.736 36.6049 161.074 36.6343 162.412C36.9925 164.055 36.7078 165.756 37.0661 167.399C34.1061 164.654 29.8601 162.027 25.6287 160.069C20.4107 157.196 14.8785 154.687 11.2902 152.669C10.9613 152.364 10.6324 152.059 10.3035 151.754C9.94525 150.111 8.94391 148.527 8.27145 147.248C7.59899 145.969 6.61233 145.054 5.95456 144.444C5.2968 143.834 4.96791 143.529 4.96791 143.529C4.96791 143.529 4.65373 143.893 4.35425 144.926C4.05476 145.959 3.4264 146.687 2.81273 148.084C1.58541 150.878 0.358071 153.672 0.0879981 156.042C-0.18209 158.413 0.833969 160.666 1.83532 162.25C2.83666 163.834 3.50912 165.113 3.50912 165.113C3.18024 164.808 3.18026 164.808 2.85137 164.503C1.85002 162.919 0.534452 161.699 -0.466888 160.115C-1.12465 159.505 -1.78237 158.895 -2.12596 157.921L-4.09927 156.091C-6.73032 153.651 -9.36138 151.211 -11.0352 148.348C-12.3654 146.459 -13.6956 144.57 -14.3828 142.622C-14.3975 141.953 -14.098 140.92 -14.1274 139.582C-14.1715 137.575 -14.5592 134.595 -16.5472 132.096C-18.5352 129.596 -21.1515 127.825 -23.4537 125.69C-24.1115 125.08 -24.4404 124.775 -25.0981 124.165C-25.427 123.86 -26.0847 123.25 -26.4136 122.945C-27.0714 122.335 -27.7292 121.725 -27.7292 121.725C-27.7292 121.725 -28.0433 122.089 -28.3428 123.122C-28.657 123.486 -28.6423 124.155 -28.9418 125.188C-28.9271 125.857 -29.2266 126.89 -29.2119 127.559C-29.4526 131.268 -28.7066 135.891 -26.0608 139.001C-23.744 141.805 -20.8135 143.212 -18.5554 143.34C-17.5834 143.586 -16.6262 143.163 -15.9831 143.104C-15.2959 145.052 -13.9657 146.941 -12.6355 148.83C-10.6328 151.998 -8.00173 154.438 -5.37067 156.878C-2.73962 159.318 -0.422793 162.122 1.25101 164.985C1.90878 165.595 2.25239 166.569 2.91015 167.179C-0.349276 165.467 -3.59397 164.424 -6.83869 163.381C-9.44035 162.279 -12.0273 161.845 -14.9431 161.107C-16.244 160.556 -17.5448 160.005 -18.5168 159.759C-19.8176 159.208 -21.1184 158.657 -22.4193 158.106C-25.3498 156.699 -28.295 154.623 -31.2402 152.547C-30.9261 152.183 -30.9261 152.183 -30.6119 151.819C-30.2977 151.455 -29.6693 150.727 -29.041 149.999C-28.4126 149.271 -28.4273 148.602 -28.1279 147.569C-27.2 145.808 -27.2588 143.132 -27.9607 140.515C-28.3042 139.541 -28.6625 137.898 -29.3203 137.288C-29.6639 136.314 -30.6505 135.399 -31.3083 134.789C-32.9527 133.264 -34.2682 132.044 -35.2548 131.129C-36.5704 129.909 -37.557 128.994 -38.2148 128.384C-38.8726 127.774 -39.5303 127.164 -39.5303 127.164C-39.5303 127.164 -39.5156 127.833 -39.8151 128.866C-40.1146 129.899 -40.0705 131.906 -40.0411 133.244C-39.9529 137.258 -38.8927 141.518 -38.1909 144.134C-37.8473 145.108 -37.8326 145.777 -37.489 146.751C-40.1201 144.311 -42.7511 141.871 -45.3822 139.431C-46.0399 138.821 -46.6977 138.211 -47.3555 137.601C-47.6843 137.296 -47.3702 136.932 -47.699 136.627C-48.0426 135.653 -48.4009 134.01 -49.0881 132.062C-50.4477 128.835 -52.4798 124.329 -54.8261 120.188C-54.183 120.129 -53.211 120.375 -51.9396 119.588C-50.9824 119.165 -49.711 118.378 -48.7831 116.617C-47.5264 115.161 -47.2416 113.459 -47.2857 111.452C-47.045 107.744 -48.7188 104.881 -49.7348 102.628C-50.7509 100.375 -51.438 98.4268 -51.438 98.4268C-51.438 98.4268 -51.7522 98.7907 -52.7095 99.2136C-53.3379 99.9416 -54.2804 101.033 -54.894 102.43C-56.7644 105.283 -57.6482 109.051 -57.9183 111.422C-58.1884 113.793 -57.2017 114.708 -56.5145 116.656C-56.5145 116.656 -56.5146 116.656 -56.1857 116.961C-58.5173 113.488 -60.8488 110.015 -61.8796 107.093C-62.5667 105.145 -62.5961 103.807 -62.9397 102.833C-62.9544 102.164 -62.6402 101.8 -62.9691 101.495L-62.9838 100.826L-63.9557 100.58C-63.9557 100.58 -63.9557 100.58 -63.941 101.249C-63.941 101.249 -63.9263 101.918 -63.9116 102.587C-63.8822 103.925 -63.5239 105.568 -63.1657 107.211C-61.7913 111.106 -59.1162 115.553 -56.441 120C-53.7659 124.447 -51.7338 128.953 -50.6884 132.544C-50.6737 133.213 -50.0159 133.823 -50.0012 134.492C-53.2753 132.111 -56.2205 130.035 -59.1658 127.959C-63.4119 125.332 -67.0148 122.646 -70.6032 120.628C-73.8773 118.247 -77.4656 116.23 -80.0967 113.79C-82.0699 111.96 -83.7143 110.435 -85.3587 108.91C-84.7157 108.851 -84.0726 108.792 -83.4442 108.064C-81.5297 107.218 -79.63 105.704 -79.3599 103.333C-79.0604 102.3 -79.0898 100.962 -79.4334 99.9879C-79.4628 98.6499 -79.8064 97.6759 -80.15 96.7019C-80.8371 94.754 -81.5243 92.806 -81.5243 92.806C-81.5243 92.806 -83.1246 93.2879 -85.6674 94.8617C-86.9389 95.6486 -87.8814 96.7404 -88.5098 97.4683C-89.4523 98.5602 -90.066 99.9572 -90.3655 100.99C-90.3508 101.659 -90.3361 102.328 -90.3214 102.997C-90.9939 101.718 -91.3227 101.413 -91.3227 101.413L-92.9084 102.564C-92.9084 102.564 -92.2506 103.174 -91.5781 104.453C-91.2492 104.758 -90.9057 105.732 -90.2479 106.342C-89.5901 106.952 -88.9177 108.231 -87.931 109.146C-86.2719 111.34 -83.9697 113.475 -81.6676 115.61C-79.0365 118.05 -75.7624 120.431 -72.4883 122.812C-71.8305 123.422 -71.5016 123.727 -70.5297 123.973C-73.7597 123.599 -77.3186 122.92 -81.2064 121.936C-86.0661 120.705 -90.9258 119.475 -94.1853 117.763C-95.1572 117.517 -95.815 116.907 -96.1439 116.602C-96.8016 115.992 -97.4447 116.051 -97.7736 115.746C-98.4313 115.136 -99.0891 114.526 -99.0891 114.526L-100.032 115.618C-100.032 115.618 -99.7028 115.923 -98.7161 116.838C-98.3872 117.143 -97.7295 117.753 -96.7575 117.999C-96.0997 118.609 -95.1278 118.855 -94.47 119.465C-91.8684 120.567 -88.9378 121.974 -85.0501 122.958C-85.6931 123.017 -86.3362 123.076 -87.2935 123.499C-88.8938 123.981 -91.1371 124.522 -92.7081 126.342C-94.279 128.162 -95.5063 130.955 -97.0625 133.444C-97.6762 134.841 -98.3045 135.569 -98.604 136.602C-99.2324 137.33 -99.2177 137.999 -99.2177 137.999C-99.2177 137.999 -98.8888 138.304 -97.9168 138.55C-96.9449 138.796 -95.6588 138.678 -94.3727 138.56C-91.4715 138.629 -87.6425 136.938 -85.4432 134.39C-82.9298 131.478 -82.6744 128.438 -82.7185 126.431C-82.7479 125.093 -83.4056 124.483 -83.4203 123.814C-82.4484 124.061 -81.8053 124.002 -81.1476 124.612C-76.2878 125.842 -71.1139 126.708 -67.8692 127.751C-66.5684 128.302 -65.5964 128.548 -64.6245 128.794C-61.3504 131.176 -57.7474 133.862 -54.1444 136.548C-56.0883 136.056 -58.0174 136.233 -60.2755 136.104C-60.9186 136.163 -61.2475 135.858 -61.8906 135.917C-66.392 136.33 -70.5646 137.048 -74.0794 138.375C-75.6797 138.857 -76.9511 139.644 -77.9084 140.067C-78.8656 140.49 -79.1798 140.854 -79.1798 140.854L-78.5073 142.133C-78.5073 142.133 -78.1932 141.769 -77.2359 141.346C-76.2787 140.923 -75.0072 140.136 -73.7211 140.018C-70.8493 138.75 -66.991 138.396 -62.8037 138.347L-63.1179 138.711C-64.7035 139.862 -66.6033 141.377 -67.8306 144.171C-69.058 146.964 -70.2559 151.096 -70.5113 154.136C-70.7961 155.838 -70.7666 157.176 -71.0661 158.209C-71.3656 159.242 -71.3509 159.911 -71.3509 159.911C-71.3509 159.911 -71.0367 159.547 -70.0795 159.124C-69.1222 158.701 -67.8508 157.914 -66.5794 157.127C-64.0365 155.553 -60.5511 152.888 -58.3813 149.002C-57.4534 147.241 -56.8544 145.175 -56.8985 143.168C-56.9426 141.161 -57.2862 140.187 -57.9586 138.908C-58.2875 138.603 -58.2876 138.603 -58.6164 138.298C-55.7153 138.368 -52.7995 139.106 -50.8556 139.598C-50.5267 139.903 -49.8689 140.513 -49.54 140.818C-45.5935 144.478 -41.9611 148.502 -37.6856 152.467C-33.739 156.127 -29.1494 159.728 -24.2602 162.297C-27.4609 163.26 -30.6615 164.224 -34.191 164.883C-38.6925 165.295 -42.8797 165.344 -45.7808 165.275C-47.3958 165.088 -48.6967 164.537 -49.3397 164.596C-50.3117 164.35 -50.6406 164.045 -50.6406 164.045L-51.5831 165.137C-51.5831 165.137 -51.2542 165.442 -49.9534 165.993C-48.9815 166.239 -47.6806 166.79 -46.0656 166.977C-44.1217 167.469 -41.5495 167.233 -39.2914 167.361C-39.6056 167.725 -40.5628 168.148 -41.1912 168.876C-42.7768 170.027 -44.6619 172.211 -45.2462 174.946C-45.8304 177.68 -45.4427 180.661 -45.7128 183.032C-45.6834 184.37 -45.9829 185.403 -45.9682 186.072C-46.2677 187.105 -46.5819 187.469 -46.5819 187.469C-46.5819 187.469 -45.9388 187.41 -45.2957 187.351C-44.3385 186.928 -43.0524 186.81 -41.4668 185.659C-38.6097 183.722 -36.111 180.141 -35.2125 177.042C-34.643 173.638 -35.3448 171.021 -36.3462 169.437C-37.0186 168.158 -37.6764 167.548 -38.3194 167.607C-37.0333 167.489 -35.7472 167.372 -34.4611 167.254C-29.9596 166.841 -25.8017 165.454 -22.6011 164.491C-22.2869 164.127 -21.9581 164.432 -21.6439 164.068C-21.315 164.373 -20.3431 164.619 -20.0142 164.924C-18.7133 165.475 -17.4125 166.026 -16.1117 166.577C-13.51 167.679 -10.5942 168.417 -8.32144 169.214C-3.44702 171.114 1.75632 173.318 6.00238 175.945C7.96098 177.106 9.93425 178.936 11.5787 180.461C11.9075 180.766 12.5653 181.376 12.8942 181.681C13.2231 181.986 13.8808 182.596 13.8955 183.265C14.568 184.544 15.2258 185.154 15.8982 186.433C16.5707 187.712 17.2285 188.322 17.901 189.601C18.2445 190.575 18.917 191.854 19.5747 192.464C19.9183 193.438 20.5761 194.048 20.9197 195.022C20.2766 195.081 19.3046 194.835 18.6616 194.894C16.0893 195.13 13.846 195.671 10.9596 196.27C9.67342 196.388 8.07308 196.87 6.78695 196.988C5.50082 197.106 3.88582 196.919 2.5997 197.037C-3.20258 196.898 -9.34847 195.786 -13.5651 194.497C-15.8379 193.7 -17.1387 193.149 -18.4395 192.598C-18.7684 192.293 -19.0973 191.988 -19.7404 192.046C-20.0693 191.741 -20.0693 191.741 -20.0693 191.741L-21.0118 192.833C-21.0118 192.833 -21.0118 192.833 -20.6829 193.138C-20.354 193.443 -20.0252 193.748 -19.3674 194.358C-18.0666 194.909 -16.4369 195.765 -14.1641 196.563C-11.2483 197.301 -7.67463 198.649 -3.80154 198.964C-4.44462 199.023 -5.73075 199.141 -7.01687 199.259C-8.94607 199.436 -11.1748 200.646 -13.0746 202.16C-14.9596 204.344 -16.187 207.138 -17.7432 209.627C-18.0574 209.991 -18.3568 211.024 -18.671 211.388C-18.9852 211.752 -19.2994 212.116 -19.6136 212.48C-20.2419 213.207 -20.5561 213.571 -20.5561 213.571C-20.5561 213.571 -20.2272 213.876 -19.2553 214.122C-18.9264 214.427 -18.2833 214.368 -17.3114 214.615C-16.6683 214.556 -16.0253 214.497 -15.0533 214.743C-11.838 214.448 -7.68014 213.061 -5.48087 210.513C-2.63853 207.907 -2.38311 204.867 -2.42721 202.86C-2.47132 200.853 -3.14377 199.574 -3.47264 199.269C-1.85763 199.456 0.0862463 199.948 2.01544 199.772C3.63045 199.959 4.91654 199.841 6.53154 200.028C8.14655 200.215 9.74692 199.733 11.033 199.615C13.9195 199.015 16.4917 198.78 18.4209 198.603C19.707 198.485 20.9932 198.367 21.9651 198.613C22.294 198.918 22.3087 199.587 22.3087 199.587C25.6857 206.651 28.7339 213.41 31.0801 217.552L30.766 217.916C28.8809 220.099 26.9958 222.283 25.4248 224.103L25.7537 224.408C20.3832 229.257 15.3269 233.743 10.2853 238.897L-5.18315 253.387C-10.5537 258.236 -15.6099 262.721 -20.9804 267.571C-23.5086 269.814 -26.0368 272.056 -29.208 274.358L-30.7936 275.509L-29.7923 277.093L-28.4473 279.651C-27.446 281.235 -26.7735 282.514 -25.7722 284.098C-22.0957 290.129 -17.4619 295.737 -12.2145 299.948C-10.899 301.168 -9.58345 302.388 -7.95375 303.244C-6.32405 304.1 -5.00851 305.32 -3.70768 305.871L-1.10609 306.973L0.194782 307.524C0.194782 307.524 0.523688 307.829 0.837866 307.465L1.8098 307.711C1.8098 307.711 2.13865 308.016 2.45283 307.652L2.76701 307.288L3.39536 306.561L4.33792 305.469L5.57998 303.344C13.0468 291.264 21.5004 280.099 29.9392 268.265L39.3206 255.339C39.9637 255.28 40.9356 255.526 41.5786 255.468L49.639 255.734C50.9251 255.616 52.5401 255.803 53.8263 255.685C55.1124 255.567 56.3985 255.449 58.0135 255.637L65.7303 254.929C68.3025 254.693 70.8748 254.458 73.4471 254.222C76.0193 253.986 78.6062 254.419 80.5501 254.911C80.879 255.216 81.5221 255.157 81.851 255.462L82.1799 255.767C82.5088 256.072 82.5234 256.741 83.1812 257.351L84.1826 258.935C84.855 260.214 85.5275 261.493 86.2 262.772C86.8577 263.382 86.8724 264.051 87.5302 264.661L86.8871 264.72C84.9579 264.897 83.0435 265.743 81.4872 268.232C80.8736 269.628 80.5741 270.661 80.2893 272.363C80.3187 273.701 80.3481 275.039 81.0206 276.318C82.0366 278.571 83.0379 280.155 83.0379 280.155C83.0379 280.155 84.6235 279.004 86.5233 277.489C87.1517 276.762 88.4232 275.975 89.0515 275.247C89.6799 274.519 90.3082 273.791 90.9366 273.063C90.9366 273.063 90.9366 273.063 91.2508 272.699C91.2655 273.368 91.5944 273.673 91.6091 274.342C91.9527 275.316 91.9821 276.654 92.6545 277.933C92.6692 278.602 93.3269 279.212 93.3416 279.881L94.0289 281.829C94.7013 283.108 95.0449 284.082 95.3885 285.056C96.0609 286.335 96.4045 287.309 96.7481 288.283C97.077 288.588 97.0916 289.257 97.7494 289.867C98.0783 290.172 98.093 290.841 98.7508 291.451C99.0944 292.425 99.7521 293.035 100.096 294.009C100.439 294.983 101.097 295.593 101.426 295.898C102.084 296.508 102.413 296.813 102.427 297.482C103.085 298.092 103.429 299.066 103.429 299.066L104.371 297.974C104.371 297.974 104.042 297.669 103.37 296.39C103.041 296.085 102.383 295.475 102.368 294.806C101.711 294.196 101.696 293.527 101.038 292.917C100.695 291.943 100.037 291.333 99.6933 290.359C99.3645 290.054 99.3497 289.385 99.0209 289.08C98.692 288.775 98.6772 288.106 98.3483 287.801C98.0048 286.827 97.3323 285.548 96.9888 284.574C96.6452 283.6 95.9727 282.321 95.6291 281.347L94.942 279.399C94.9273 278.73 94.5984 278.425 94.5837 277.756C94.2401 276.782 94.2107 275.444 93.5382 274.165C93.1947 273.191 93.1653 271.853 92.8217 270.879C93.4795 271.489 93.8083 271.794 94.4661 272.404C96.4394 274.234 98.7269 275.7 101.014 277.166C101.343 277.471 102.315 277.717 102.973 278.327L103.945 278.574L104.917 278.82L107.19 279.617C107.847 280.227 108.505 280.837 109.492 281.752C112.437 283.828 116.04 286.514 120.286 289.141C121.273 290.056 122.245 290.302 123.231 291.217C122.588 291.276 121.631 291.699 120.045 292.85C118.146 294.365 115.946 296.912 115.706 300.621C115.465 304.33 117.153 307.862 118.498 310.42C119.843 312.978 121.174 314.867 121.174 314.867C121.174 314.867 122.744 313.047 123.972 310.253C125.199 307.46 126.412 303.997 126.996 301.262C127.251 298.222 126.25 296.638 125.563 294.69C125.219 293.716 124.562 293.106 124.218 292.132C126.834 293.903 128.808 295.733 130.467 297.927C131.124 298.537 131.782 299.147 132.111 299.452C132.769 300.062 133.098 300.367 133.112 301.036C133.77 301.646 134.428 302.256 134.428 302.256L135.699 301.47C135.699 301.47 135.371 301.165 134.698 299.886C134.369 299.581 133.711 298.971 133.697 298.302C133.039 297.692 133.024 297.023 132.366 296.413C130.05 293.609 126.118 290.617 122.515 287.931C119.57 285.855 116.295 283.474 113.993 281.339L117.223 281.713C127.242 283.141 136.918 283.594 146.922 284.353C146.608 284.717 145.979 285.445 145.351 286.173C144.109 288.298 143.21 291.397 144.271 295.656C145.645 299.552 148.619 302.966 151.55 304.374C153.18 305.23 154.481 305.781 155.138 306.391C156.11 306.637 156.439 306.942 156.439 306.942C156.439 306.942 156.424 306.273 156.081 305.299C155.737 304.325 155.708 302.987 155.993 301.285C155.605 298.304 155.846 294.595 154.815 291.673C153.784 288.751 152.454 286.862 150.81 285.337C150.481 285.032 150.152 284.727 150.152 284.727L150.795 284.668C151.438 284.609 152.41 284.855 153.382 285.102C154.368 286.017 155.355 286.932 156.985 287.788C158.943 288.949 160.902 290.11 163.189 291.576C165.477 293.042 167.764 294.508 169.738 296.338C170.067 296.643 170.396 296.948 170.724 297.253C170.081 297.312 169.767 297.676 168.81 298.099C167.853 298.522 166.91 299.614 165.968 300.706C165.025 301.797 164.411 303.194 164.127 304.896C163.842 306.598 163.886 308.605 164.244 310.248C164.602 311.891 164.961 313.534 165.633 314.813C166.978 317.371 168.623 318.896 168.623 318.896C168.623 318.896 169.864 316.771 171.421 314.282C172.034 312.885 172.977 311.794 173.591 310.397C174.204 309 174.818 307.603 174.789 306.265C175.402 304.868 174.73 303.589 174.7 302.251C174.686 301.582 174.342 300.608 173.998 299.634C176.63 302.074 178.618 304.573 180.591 306.403C181.921 308.292 182.593 309.571 183.58 310.486C184.253 311.765 184.581 312.07 184.581 312.07L185.539 311.647C185.539 311.647 184.881 311.037 184.537 310.063C183.865 308.784 182.864 307.2 181.862 305.616C181.204 305.006 180.532 303.727 179.545 302.812C178.559 301.897 177.886 300.618 176.9 299.703C175.913 298.788 174.926 297.873 173.94 296.958C172.953 296.043 171.966 295.128 170.651 293.908C168.678 292.078 166.061 290.307 163.774 288.841C161.486 287.375 159.528 286.214 157.569 285.053C158.541 285.299 160.156 285.486 161.128 285.732C165.988 286.962 170.533 288.556 174.45 290.879C178.696 293.506 182.628 296.497 186.246 299.852C187.233 300.767 188.219 301.682 189.206 302.597C189.221 303.266 189.564 304.24 190.222 304.85C190.551 305.155 191.209 305.765 191.866 306.375C192.524 306.985 193.496 307.231 194.468 307.477C195.455 308.392 196.756 308.943 198.685 308.766L198.655 307.428C199.298 307.37 200.256 306.947 200.899 306.888C211.531 306.918 214.03 303.338 215.901 300.485ZM51.1106 161.42C51.0812 160.082 50.7376 159.108 51.0371 158.075C50.9783 155.399 51.2483 153.028 51.5037 149.988C51.4449 147.312 51.3714 143.967 50.3407 141.045C49.9824 139.403 48.981 137.819 48.3086 136.54C47.3072 134.956 46.0064 134.405 44.6909 133.185C44.362 132.88 44.0331 132.574 44.0331 132.574L44.3473 132.211C44.3473 132.211 44.3473 132.211 43.6895 131.601C43.0318 130.99 42.6882 130.017 42.3299 128.374C41.9717 126.731 41.6134 125.088 41.2404 122.776C41.1963 120.769 41.1522 118.762 41.4223 116.391C42.2913 111.954 44.4612 108.069 45.3597 104.97C45.6591 103.937 45.6444 103.268 45.9586 102.904C46.2728 102.54 45.9439 102.235 46.2581 101.871C47.2301 102.117 47.5589 102.422 48.5309 102.668C50.1459 102.855 52.0898 103.347 53.6901 102.866C55.2904 102.384 56.5618 101.597 57.8333 100.81C58.7758 99.718 59.7183 98.6261 60.0178 97.5932C60.6315 96.1963 60.931 95.1634 60.9163 94.4944C63.2037 95.9605 65.4912 97.4265 67.764 98.2237C71.6665 99.8768 75.5543 100.861 79.1132 101.54C82.6721 102.219 86.2309 102.899 89.1321 102.968C91.3902 103.096 93.3341 103.588 94.6349 104.139C95.2927 104.749 95.9504 105.359 96.2793 105.664C97.6095 107.553 98.925 108.773 100.569 110.298C101.885 111.518 102.886 113.102 103.559 114.381C103.902 115.355 103.917 116.024 103.932 116.693L103.603 116.388C99.9999 113.702 94.8113 112.167 89.6521 111.969C84.4782 111.103 79.0048 111.27 75.1317 110.955C73.2025 111.131 71.5875 110.944 70.2867 110.393C69.3147 110.147 68.6716 110.206 68.6716 110.206L68.3721 111.239C68.3721 111.239 69.0152 111.18 70.3161 111.731C71.288 111.977 72.903 112.164 75.1611 112.292C79.0342 112.608 84.1934 112.805 89.3673 113.671C90.3393 113.917 91.9543 114.105 92.9262 114.351C91.3112 114.163 89.382 114.34 87.1533 115.55C84.9246 116.76 82.7107 118.639 80.4967 120.517C80.1825 120.881 79.2253 121.304 78.9111 121.668C78.268 121.727 77.9539 122.091 77.6397 122.455C76.6824 122.878 76.0393 122.937 76.0393 122.937C76.0393 122.937 76.3682 123.242 77.026 123.852C77.3549 124.157 77.6838 124.462 78.3415 125.072C78.6704 125.377 79.6424 125.623 80.3001 126.233C83.2307 127.64 87.7468 127.897 91.5758 126.205C95.0759 124.208 96.9463 121.355 97.2163 118.985C97.5011 117.283 97.4864 116.614 97.4717 115.945C99.4156 116.437 101.045 117.293 102.361 118.513C103.019 119.123 103.676 119.733 104.005 120.038C103.706 121.071 103.735 122.409 103.436 123.442L103.45 124.111C103.136 124.475 103.151 125.144 102.837 125.508C102.537 126.541 102.552 127.21 101.924 127.938C98.9141 137.598 96.8177 144.828 95.9192 147.927C95.605 148.291 95.6051 148.291 94.962 148.35L94.3336 149.078C93.3911 150.17 92.4485 151.262 91.506 152.354C89.6209 154.537 87.7358 156.721 86.1796 159.21C82.7383 163.883 79.2823 167.886 75.841 172.559L58.9339 194.889C58.2321 192.272 57.8444 189.291 57.1278 186.005C58.7575 186.861 61.644 186.261 63.8432 183.713C66.0425 181.166 66.2979 178.126 66.2391 175.45C65.8661 173.138 65.179 171.19 65.179 171.19C65.179 171.19 63.2645 172.036 61.35 172.882C59.1213 174.091 57.2068 174.937 55.9501 176.393C55.6359 176.757 55.3217 177.121 55.3364 177.79C54.9634 175.478 54.5904 173.166 53.9033 171.218C53.5744 170.913 53.8886 170.549 53.5597 170.244C53.8739 169.88 53.8739 169.88 54.1881 169.516C55.4448 168.061 57.3446 166.546 59.5586 164.667C59.8728 164.303 60.5011 163.575 61.1442 163.516C61.4731 163.821 61.802 164.126 62.4597 164.736C64.1041 166.261 66.3916 167.727 70.2353 166.705C72.1645 166.528 73.7501 165.377 75.0215 164.59C76.6071 163.439 77.8785 162.652 79.1353 161.196C81.3346 158.649 82.2624 156.888 82.2624 156.888C82.2624 156.888 79.9896 156.091 77.4027 155.658C76.1166 155.775 74.8158 155.224 73.2008 155.037C71.5857 154.85 70.2996 154.968 69.0134 155.086C69.956 153.994 70.2555 152.961 70.8691 151.564C71.7823 149.135 72.6954 146.705 73.6233 144.944C73.9375 144.58 75.2089 143.793 76.1367 142.032C77.3788 139.907 78.5767 135.776 76.8735 131.575C75.1703 127.374 71.5673 124.688 68.9509 122.917C67.3212 122.061 66.3346 121.146 65.3626 120.899C64.7049 120.289 63.7329 120.043 63.7329 120.043C63.7329 120.043 63.7476 120.712 63.4482 121.745C63.4776 123.083 63.507 124.421 63.8652 126.064C64.2676 129.714 65.3277 133.974 66.3438 136.227C67.3745 139.149 69.0189 140.674 70.3345 141.894C70.9922 142.504 71.65 143.114 71.9789 143.419C71.051 145.18 70.1379 147.609 69.2247 150.039C68.2969 151.8 67.0548 153.925 65.7981 155.381C64.8409 155.804 63.8984 156.896 63.27 157.624C62.6416 158.352 62.0133 159.079 61.3849 159.807C60.7565 160.535 59.4851 161.322 58.8567 162.05C56.9569 163.565 55.7002 165.021 54.1146 166.172C53.771 165.198 53.7416 163.86 53.7269 163.191C51.4835 163.731 51.4542 162.394 51.1106 161.42ZM36.1272 197.985C34.797 196.096 34.1098 194.148 32.7796 192.259C32.1071 190.98 31.4493 190.37 30.7769 189.091C30.1044 187.812 29.4467 187.202 28.7742 185.923C28.1018 184.644 27.1151 183.729 26.4426 182.45C25.456 181.535 24.7835 180.256 23.7969 179.341C21.8236 177.511 19.5214 175.376 17.2339 173.91C16.905 173.605 16.5762 173.3 15.9331 173.359C14.6029 171.47 12.9585 169.945 11.6283 168.056C11.6283 168.056 12.9144 167.938 15.1431 166.728C16.7287 165.577 18.928 163.029 19.1687 159.321C19.4682 158.288 19.1245 157.314 19.1098 156.645C22.7128 159.331 28.245 161.84 33.1342 164.408C35.0928 165.569 36.7225 166.425 38.6811 167.586C38.3522 167.281 38.038 167.645 37.3949 167.704C35.7946 168.186 33.8949 169.701 32.3239 171.521C30.4241 173.036 29.1674 174.492 29.1674 174.492C29.1674 174.492 29.4963 174.797 30.154 175.407C30.8118 176.017 31.4696 176.627 32.4562 177.542C34.1006 179.067 37.3453 180.11 39.9029 179.205C42.4605 178.3 44.3456 176.116 44.6304 174.415C44.6157 173.746 44.9298 173.382 44.9151 172.713C45.244 173.018 45.9018 173.628 46.2306 173.933C46.2747 175.94 46.9619 177.888 47.006 179.894C47.379 182.206 47.7519 184.518 48.1102 186.161C48.8415 190.116 49.5728 194.071 49.9604 197.052L49.9751 197.721C49.9751 197.721 49.9751 197.721 50.304 198.026C49.9898 198.39 50.3188 198.695 50.0046 199.059C50.0193 199.728 50.0339 200.397 50.0486 201.066C49.7491 202.099 50.0927 203.073 50.1074 203.742C47.9082 206.289 46.0378 209.142 43.8385 211.69C41.8505 209.191 39.1607 204.075 36.1272 197.985ZM103.763 167.653C104.048 165.951 104.661 164.554 105.26 162.488C106.473 159.025 108.343 156.173 110.214 153.32C111.47 151.864 112.413 150.772 113.67 149.316C114.926 147.86 115.869 146.769 117.455 145.618C119.983 143.375 122.825 140.768 125.353 138.526C126.61 137.07 127.881 136.283 129.138 134.827C129.452 134.463 129.766 134.099 130.081 133.735C131.681 133.253 132.967 133.135 134.896 132.958C137.469 132.723 140.699 133.097 143.929 133.471C146.216 134.937 148.847 137.377 151.463 139.148L151.792 139.453C151.149 139.512 150.506 139.571 149.549 139.994C147.949 140.476 146.049 141.991 145.45 144.057C144.537 146.486 145.582 150.077 147.555 151.907C148.542 152.822 149.2 153.432 149.858 154.042C150.515 154.652 150.83 154.289 150.83 154.289C150.83 154.289 151.757 152.528 153.014 151.072C154.271 149.616 155.856 148.465 156.455 146.399C156.755 145.366 156.726 144.028 156.053 142.749C158.684 145.189 160.986 147.325 162.96 149.155C164.604 150.68 165.92 151.9 166.891 152.146C167.878 153.061 168.521 153.002 168.521 153.002L169.135 151.605C169.135 151.605 168.806 151.3 167.505 150.749C166.518 149.834 165.532 148.919 163.887 147.394C160.928 144.649 156.966 140.32 153.02 136.659C151.704 135.439 150.389 134.219 149.073 132.999C151.017 133.492 152.961 133.984 154.905 134.476C162.037 136.503 169.513 139.504 176.675 142.87L177.004 143.175C178.977 145.005 181.294 147.809 182.968 150.672C185.629 154.45 187.975 158.592 189.649 161.455C190.321 162.734 190.994 164.013 191.651 164.623C189.737 165.469 187.508 166.678 185.937 168.498C184.352 169.649 183.438 172.079 182.825 173.476C182.226 175.542 182.255 176.88 182.285 178.217C182.643 179.86 182.987 180.834 183.644 181.444C179.472 182.162 175.299 182.88 171.455 183.902C169.212 184.443 166.654 185.348 164.082 185.584C162.796 185.702 161.839 186.125 160.553 186.243L158.624 186.42L157.009 186.232C155.394 186.045 153.779 185.858 152.149 185.002C154.378 183.792 157.249 182.524 159.792 180.95C162.649 179.012 165.82 176.71 167.72 175.196C168.034 174.832 168.034 174.832 168.349 174.468C168.663 174.104 168.663 174.104 168.977 173.74C169.291 173.376 170.563 172.589 171.191 171.861C172.448 170.405 173.704 168.949 173.989 167.247C173.945 165.241 173.258 163.293 173.214 161.286C173.199 160.617 172.87 160.312 173.184 159.948C173.17 159.279 173.17 159.279 173.155 158.61C173.14 157.941 173.454 157.577 173.454 157.577C173.454 157.577 173.126 157.272 172.168 157.695C171.525 157.754 171.196 157.449 170.568 158.177C169.925 158.236 169.611 158.6 168.654 159.022C166.111 160.596 163.283 163.872 163.357 167.217C163.101 170.257 164.76 172.451 166.076 173.671C166.734 174.281 167.062 174.586 167.705 174.527C167.391 174.891 167.391 174.891 167.077 175.255C165.177 176.769 162.32 178.707 159.463 180.645C156.277 182.278 153.406 183.546 150.848 184.451C150.205 184.51 149.577 185.238 148.934 185.297C146.99 184.805 145.36 183.949 143.416 183.457C138.87 181.862 133.996 179.963 129.122 178.064L121.989 176.037L118.43 175.357C120.674 174.817 122.917 174.276 124.846 174.099C128.705 173.745 132.249 173.755 136.092 172.733C136.735 172.674 137.693 172.251 138.336 172.192C138.351 172.861 138.365 173.53 138.709 174.504C139.067 176.147 140.412 178.705 143.328 179.443C145.929 180.545 150.102 179.827 152.316 177.949C153.587 177.162 154.53 176.07 155.158 175.342C155.787 174.614 156.101 174.25 156.101 174.25C156.101 174.25 155.772 173.945 154.8 173.699C153.828 173.453 153.17 172.843 152.513 172.233C150.868 170.708 149.553 169.488 147.28 168.691C149.509 167.481 151.423 166.635 153.666 166.094L153.323 165.12C149.793 165.779 146.607 167.412 143.422 169.044C142.778 169.103 141.821 169.526 141.507 169.89L141.193 170.254C139.593 170.736 137.992 171.218 136.392 171.7C132.862 172.358 128.989 172.043 125.131 172.397C124.488 172.456 124.488 172.456 123.845 172.515C123.845 172.515 124.159 172.151 123.83 171.846C123.815 171.177 124.115 170.144 124.743 169.416C125.342 167.35 126.285 166.258 126.869 163.523C127.139 161.153 127.38 157.444 127.635 154.404C127.891 151.364 127.832 148.688 127.832 148.688C127.832 148.688 125.274 149.593 122.746 151.836C120.218 154.079 116.433 157.777 115.893 162.519C115.623 164.89 115.996 167.202 116.683 169.15C117.684 170.734 119 171.954 119.658 172.564C119.986 172.869 120.629 172.81 120.958 173.115C119.029 173.292 116.786 173.832 114.871 174.678C114.542 174.373 113.899 174.432 113.57 174.127L111.941 173.271L110.311 172.415C109.339 172.169 108.024 170.949 107.081 172.041L103.566 173.368C103.193 171.057 103.478 169.355 103.763 167.653Z" fill="#B49577"/>
</svg>
