<svg width="333" height="498" viewBox="0 0 333 498" fill="none" xmlns="http://www.w3.org/2000/svg">
<path opacity="0.3" d="M340.592 290.803C339.633 289.2 338.195 286.796 335.476 284.069C330.516 279.415 322.67 275.395 315.778 275.698C307.605 275.677 302.949 280.627 300.699 284.142C298.454 284.936 296.209 285.731 293.964 286.525L293.323 286.364C287.39 288.269 281.458 290.174 274.722 292.558C269.592 293.985 264.94 296.214 260.128 299.083C257.721 300.517 255.315 301.951 253.549 303.547C254.356 300.349 255.804 297.312 256.61 294.113C258.704 288.517 261.437 283.083 264.651 278.45C265.453 277.972 266.896 277.656 267.698 277.178C269.781 277.023 272.026 276.228 274.271 275.434C276.516 274.639 278.923 273.205 281.329 271.771C286.142 268.902 290.153 266.512 294.163 264.121C298.013 262.371 300.419 260.937 300.419 260.937L299.94 260.135C299.94 260.135 297.533 261.569 293.684 263.32C290.475 265.232 285.663 268.101 281.011 270.33C278.605 271.764 276.198 273.198 274.115 273.353C271.87 274.148 269.145 274.141 267.541 275.097C266.9 274.935 266.9 274.935 266.739 275.575C268.989 272.06 271.879 268.706 274.77 265.353L271.889 263.266C263.54 272.046 256.952 281.952 251.646 292.18C250.359 294.577 248.912 297.614 248.266 300.173C247.944 301.453 246.98 302.57 246.496 304.49L245.366 308.968C245.205 309.607 245.044 310.247 244.721 311.526L244.398 312.806L244.075 314.085C243.753 315.365 244.071 316.806 243.748 318.085C243.425 319.365 243.743 320.806 243.421 322.085C243.098 323.365 242.936 324.004 242.775 324.644L242.614 325.284C242.452 325.923 241.811 325.762 241.009 326.24C240.207 326.718 238.124 326.873 236.681 327.189C234.597 327.344 233.154 327.66 230.909 328.455C230.268 328.293 230.107 328.933 229.305 329.411L228.503 329.889L226.096 331.323C220.32 335.31 216.305 340.421 211.81 344.73C209.883 346.966 207.956 349.201 205.388 351.275C209.731 342.165 214.074 333.054 217.933 325.862C219.542 322.185 221.151 318.509 222.598 315.472C224.046 312.435 224.853 309.236 226.139 306.839C228.071 301.883 229.357 299.486 229.357 299.486L228.075 299.163C228.237 298.523 228.878 298.684 229.039 298.045C230.321 298.368 233.363 299.816 236.889 299.345C240.416 298.873 245.067 296.645 247.64 291.85C251.014 286.578 251.508 279.217 250.877 273.615C250.241 270.733 250.245 268.012 249.287 266.41C248.969 264.968 248.651 263.527 248.651 263.527C248.651 263.527 247.848 264.005 246.244 264.962C244.64 265.918 242.234 267.352 240.468 268.948C235.655 271.816 230.681 275.325 228.27 279.479C226.02 282.994 225.854 286.354 226.49 289.237C227.126 292.119 227.601 295.641 228.721 296.604C227.919 297.082 227.757 297.721 226.955 298.199L221.35 296.105C221.35 296.105 220.064 298.502 218.293 302.819C217.007 305.216 216.362 307.775 214.914 310.812C213.789 312.569 212.503 314.966 211.217 317.364C211.539 316.084 211.221 314.643 211.544 313.364C211.872 309.364 212.36 304.724 212.849 300.085C213.172 298.805 213.495 297.526 213.817 296.246C214.14 294.967 214.463 293.687 214.786 292.408C215.108 291.129 215.431 289.849 215.754 288.57L216.238 286.651C216.399 286.011 216.561 285.371 216.561 285.371C218.17 281.694 222.503 278.025 227.316 275.156C231.327 272.766 235.337 270.375 238.868 267.184C239.832 266.066 241.436 265.11 242.4 263.992C244.967 261.918 247.056 259.043 248.983 256.807C249.946 255.689 250.43 253.77 251.394 252.652C252.035 252.814 252.196 252.174 252.837 252.336C254.436 254.1 260.996 260.518 269.492 259.259C274.461 258.471 279.435 254.963 284.728 252.896C287.134 251.462 289.379 250.667 290.983 249.711C292.587 248.755 294.03 248.438 294.03 248.438C294.03 248.438 293.551 247.637 291.951 245.873C290.993 244.27 288.752 242.344 285.71 240.896C280.589 236.882 272.259 234.781 265.846 235.885C255.105 237.939 252.685 247.535 251.878 250.733C252.201 249.454 252.362 248.814 252.685 247.535C254.137 241.777 254.308 235.696 255.438 231.218C255.599 230.579 255.76 229.939 255.922 229.299C256.563 229.461 256.563 229.461 257.844 229.784C259.126 230.107 261.689 230.754 264.413 230.761C269.7 231.414 277.072 231.913 284.604 231.772C292.136 231.63 299.351 230.048 304.482 228.621C307.367 227.988 308.972 227.032 311.055 226.877C312.498 226.56 313.3 226.082 313.3 226.082L312.821 225.281C312.821 225.281 312.019 225.759 310.576 226.076C309.133 226.392 306.888 227.187 304.002 227.819C298.871 229.247 291.818 230.189 284.286 230.33C276.753 230.472 270.023 230.135 264.256 228.68C261.532 228.673 259.13 227.387 257.687 227.703C257.047 227.542 257.047 227.542 256.406 227.38C256.567 226.74 257.369 226.262 257.531 225.623C258.333 225.144 258.333 225.145 260.417 224.99C261.859 224.673 263.302 224.357 264.584 224.68C270.355 223.414 275.486 221.987 279.658 218.957C281.424 217.361 283.189 215.765 284.476 213.368C284.637 212.728 285.601 211.61 285.762 210.971L286.564 210.492C287.205 210.654 288.007 210.176 289.288 210.499C290.727 212.903 296.323 220.439 304.657 219.82C309.627 219.032 314.439 216.163 319.091 213.935C321.497 212.5 323.101 211.544 324.706 210.588C326.31 209.632 327.112 209.154 327.112 209.154C327.112 209.154 326.633 208.352 325.033 206.588C324.074 204.985 321.834 203.059 319.432 201.773C315.431 198.723 309.185 196.467 304.538 195.975C304.538 195.975 304.538 195.975 305.34 195.497C306.945 194.541 307.747 194.063 308.549 193.584C309.351 193.106 309.992 193.268 309.992 193.268L309.513 192.467C309.513 192.467 308.872 192.305 308.07 192.783C307.268 193.261 305.825 193.578 304.861 194.695C304.059 195.173 303.257 195.652 302.616 195.49C297.006 196.116 293.313 199.947 291.866 202.984C290.261 203.941 289.298 205.058 288.334 206.176C289.141 202.978 289.787 200.419 290.271 198.5C290.916 195.941 291.401 194.022 292.364 192.904C292.687 191.624 292.848 190.985 292.848 190.985L289.165 189.375C289.165 189.375 289.004 190.015 288.04 191.133C287.717 192.412 286.592 194.17 285.947 196.728C285.301 199.287 284.495 202.486 283.047 205.523C282.24 208.721 280.152 211.597 276.782 214.149C273.573 216.061 268.443 217.488 263.473 218.276C262.03 218.593 260.749 218.269 259.306 218.586C257.863 218.902 255.779 219.057 253.534 219.852C252.732 220.33 251.769 221.447 251.607 222.087C250.805 222.565 250.644 223.205 250.482 223.845C250.16 225.124 249.196 226.242 248.712 228.161C246.619 233.757 246.448 239.837 245.157 244.955C244.834 246.235 244.512 247.514 243.548 248.632C242.585 249.75 242.262 251.029 241.298 252.147C240.335 253.265 239.371 254.382 238.408 255.5C238.579 249.42 238.114 240.457 237.487 232.134C236.533 227.81 236.22 223.649 234.464 219.804C234.625 219.164 233.984 219.002 234.786 218.524L235.588 218.046C235.75 217.406 236.391 217.568 236.552 216.928C237.515 215.811 239.12 214.855 240.083 213.737C240.083 213.737 240.083 213.737 240.245 213.097C242.646 214.383 250.331 219.043 257.868 216.182C262.519 213.953 267.014 209.643 271.186 206.613C272.952 205.017 274.717 203.422 276.321 202.465C277.926 201.509 278.728 201.031 278.728 201.031C278.728 201.031 278.248 200.23 276.487 199.105C274.727 197.981 272.325 196.694 269.283 195.246C263.036 192.99 255.025 192.33 248.93 194.875C243.638 196.942 241.227 201.097 239.779 204.134C238.972 207.333 238.968 210.053 238.645 211.333C238.484 211.972 237.843 211.811 237.682 212.45C236.077 213.407 235.114 214.524 233.509 215.481L232.707 215.959C232.712 213.238 232.878 209.878 232.565 205.716C232.09 202.195 232.095 199.474 231.459 196.592C230.662 194.349 230.505 192.269 230.505 192.269L229.864 192.107C229.864 192.107 230.182 193.548 230.177 196.269C230.975 198.511 230.809 201.871 230.643 205.231C230.477 208.592 231.113 211.474 230.467 214.033C230.144 215.312 230.462 216.753 230.301 217.393C230.301 217.393 230.301 217.393 230.14 218.033L229.978 218.672C230.458 219.474 230.296 220.113 230.135 220.753C231.25 224.437 231.564 228.598 231.877 232.76C232.503 241.083 231.849 249.083 231.037 255.002C231.032 257.722 230.548 259.641 230.064 261.56C226.855 263.473 223.647 265.385 219.636 267.776C214.021 271.122 208.406 274.469 205.511 280.543C205.35 281.182 204.548 281.66 204.225 282.94L203.741 284.859C203.418 286.138 202.455 287.256 202.132 288.536C201.809 289.815 201.486 291.094 201.164 292.374C200.841 293.653 200.518 294.933 200.195 296.212C198.904 301.33 198.416 305.969 197.927 310.609C198.083 312.69 197.438 315.249 197.595 317.329C197.751 319.41 197.267 321.329 197.424 323.41C197.262 324.05 197.58 325.491 197.419 326.131C197.258 326.77 197.258 326.77 197.737 327.572C197.414 328.851 197.092 330.131 197.41 331.572C196.764 334.131 196.921 336.211 196.598 337.491C196.437 338.13 196.275 338.77 196.275 338.77C196.275 338.77 196.275 338.77 196.114 339.41C194.989 341.167 193.703 343.565 192.416 345.962C191.13 348.359 189.844 350.756 188.558 353.154L187.433 354.911L186.308 356.669C185.345 357.786 185.022 359.066 184.22 359.544C181.168 363.537 177.637 366.729 173.465 369.759C168.652 372.627 163.198 375.334 158.224 378.842C156.62 379.798 155.656 380.916 154.854 381.394C153.891 382.512 152.448 382.829 151.323 384.586C150.359 385.704 148.755 386.66 147.792 387.778C148.437 385.219 148.921 383.3 149.567 380.741C150.696 376.263 152.628 371.307 153.758 366.829C154.403 364.27 155.049 361.711 156.335 359.314C156.658 358.035 156.98 356.755 157.303 355.476L158.271 351.637C159.562 346.52 160.213 341.24 161.342 336.762C161.831 332.123 162.961 327.645 163.449 323.005C164.413 321.887 165.538 320.13 167.303 318.534C169.392 315.659 172.121 312.945 175.814 309.113C177.741 306.878 179.668 304.642 180.954 302.245C181.917 301.127 182.24 299.848 183.204 298.73C184.167 297.612 184.49 296.333 185.615 294.575C191.885 283.229 194.794 268.994 197.063 254.597C199.331 240.2 201.282 224.361 208.677 211.258C211.733 204.544 217.192 199.117 223.77 194.652C227.14 192.1 231.15 189.71 234.682 186.518C235.963 186.841 237.406 186.525 238.688 186.848C240.771 186.693 242.693 187.178 245.418 187.185C248.142 187.192 250.867 187.199 253.591 187.206C256.316 187.212 259.842 186.741 263.207 186.91C266.734 186.438 270.099 186.607 274.266 186.297C276.35 186.142 277.793 185.826 279.876 185.671C281.96 185.516 284.044 185.362 285.648 184.405C287.732 184.251 289.977 183.456 291.419 183.14C291.419 183.14 292.06 183.301 292.222 182.662L292.862 182.823C294.144 183.146 296.868 183.153 299.754 182.52C304.083 181.571 308.734 179.342 313.385 177.113L313.224 177.753C313.224 177.753 314.026 177.275 314.667 177.437C315.308 177.598 315.949 177.76 317.23 178.083C317.548 179.524 317.543 182.245 318.179 185.127C318.815 188.009 320.253 190.413 323.135 192.501C326.016 194.588 331.464 194.602 335.47 194.932C337.554 194.777 339.476 195.262 341.398 195.747C342.68 196.07 343.961 196.394 343.961 196.394C343.961 196.394 344.123 195.754 343.966 193.673C344.45 191.754 344.294 189.673 343.658 186.791C342.224 181.667 339.03 175.417 334.867 173.007C330.705 170.596 327.017 171.707 323.97 172.979C320.923 174.252 318.834 177.127 317.871 178.245C317.23 178.083 315.948 177.76 315.308 177.598C316.11 177.12 316.11 177.12 316.912 176.642C322.527 173.296 327.662 169.148 331.673 166.757C334.079 165.323 335.684 164.367 336.486 163.889C337.929 163.572 338.731 163.094 338.731 163.094L338.251 162.293C338.251 162.293 337.449 162.771 336.006 163.088C334.564 163.404 332.798 165 330.553 165.794C326.542 168.185 320.766 172.171 315.151 175.518C309.536 178.864 303.442 181.409 298.472 182.197C297.03 182.514 296.389 182.352 294.946 182.668C295.748 182.19 295.748 182.19 296.55 181.712C299.92 179.16 302.17 175.645 303.617 172.608C305.065 169.571 307.153 166.696 309.242 163.821C311.971 161.107 315.341 158.555 318.07 155.841L318.711 156.003L319.513 155.525L320.154 155.686C321.435 156.01 322.878 155.693 324.321 155.377C327.847 154.906 332.176 153.956 336.666 152.367C341.156 150.778 344.844 149.667 348.532 148.556C351.579 147.284 354.303 147.29 354.303 147.29L353.824 146.489C353.824 146.489 351.74 146.644 348.053 147.755C344.526 148.226 340.677 149.977 336.348 150.926C332.019 151.875 327.529 153.465 324.164 153.296C323.523 153.134 322.721 153.612 322.081 153.451C322.883 152.973 323.044 152.333 323.846 151.855C324.487 152.017 325.289 151.539 326.091 151.06C327.534 150.744 328.977 150.428 329.94 149.31C330.904 148.192 332.508 147.236 332.992 145.317C333.154 144.677 333.154 144.677 333.315 144.037C334.117 143.559 334.279 142.919 334.919 143.081C337.487 141.007 339.091 140.051 339.091 140.051L337.971 139.088C337.971 139.088 336.367 140.044 334.601 141.64C334.929 137.64 334.616 133.479 332.859 129.633C332.062 127.391 330.462 125.627 329.342 124.664C328.222 123.701 327.743 122.899 327.743 122.899C327.743 122.899 326.941 123.377 325.977 124.495C325.014 125.613 323.248 127.209 321.644 128.165C318.274 130.717 314.425 132.468 312.816 136.144C312.493 137.424 312.009 139.343 312.327 140.784C312.645 142.225 312.963 143.666 313.922 145.269C315.198 148.313 318.079 150.4 319.361 150.723C319.2 151.363 319.2 151.363 319.038 152.003C315.668 154.555 311.658 156.945 307.965 160.777C303.148 166.366 300.732 173.241 294.955 177.227C293.351 178.183 292.388 179.301 290.304 179.456C288.861 179.773 286.616 180.567 284.532 180.722C282.449 180.877 281.006 181.193 278.922 181.348C276.839 181.503 275.396 181.819 273.312 181.974C269.786 182.445 265.78 182.115 262.253 182.586C258.888 182.418 255.523 182.25 252.637 182.882C249.913 182.876 247.188 182.869 244.464 182.862C243.823 182.7 243.182 182.539 242.38 183.017C245.75 180.465 248.479 177.751 251.208 175.037C252.333 173.28 253.938 172.324 254.422 170.405C255.547 168.647 256.51 167.529 256.994 165.61C258.119 163.853 258.442 162.573 259.567 160.816C259.889 159.536 261.014 157.779 261.337 156.499C261.66 155.22 262.623 154.102 262.946 152.823C263.107 152.183 263.748 152.345 263.909 151.705C264.873 150.587 266.639 148.991 269.045 147.557C273.217 144.527 280.275 140.864 286.692 137.039C293.109 133.215 300.167 129.552 305.141 126.043C307.547 124.609 309.313 123.013 310.276 121.895C311.24 120.778 312.042 120.3 312.042 120.3L311.563 119.498C311.563 119.498 310.76 119.976 309.797 121.094C308.833 122.212 306.427 123.646 304.021 125.08C299.208 127.949 292.15 131.612 285.254 134.635C278.357 137.658 271.299 141.321 266.487 144.19L265.685 144.668C268.1 137.793 270.834 132.359 272.766 127.402L272.927 126.763C273.729 126.285 274.532 125.807 275.334 125.329C276.454 126.292 278.856 127.578 281.898 129.026C282.539 129.187 283.179 129.349 284.461 129.672C285.742 129.996 286.545 129.517 287.347 129.039C289.43 128.884 291.035 127.928 292.8 126.333C295.207 124.898 297.295 122.023 298.581 119.626C299.867 117.229 300.513 114.67 301.799 112.272C303.09 107.155 304.058 103.316 304.058 103.316C304.058 103.316 300.053 102.986 294.442 103.612C291.718 103.606 288.832 104.238 285.946 104.871C283.061 105.504 280.816 106.299 279.211 107.255C277.607 108.211 276.482 109.969 276.16 111.248C275.998 111.888 275.837 112.527 275.675 113.167C274.551 114.925 273.426 116.682 271.978 119.719C268.442 125.631 264.74 134.904 259.913 145.934C258.627 148.331 257.82 151.53 256.372 154.567C256.05 155.846 254.925 157.603 254.602 158.883C253.638 160.001 253.154 161.92 252.191 163.038C251.227 164.155 250.743 166.075 249.78 167.192C249.618 167.832 248.816 168.31 248.655 168.95C248.498 166.869 247.862 163.987 247.867 161.266C247.392 157.745 247.079 153.583 246.286 148.62C246.13 146.539 246.134 143.819 245.337 141.576C245.019 140.135 245.18 139.496 244.862 138.055C245.024 137.415 245.024 137.415 244.544 136.614C244.706 135.974 244.706 135.974 244.867 135.334C246.149 135.657 248.873 135.664 251.436 136.311C254.16 136.318 256.723 136.964 258.65 134.729C261.218 132.655 262.989 128.338 264.118 123.86C264.602 121.941 265.248 119.382 265.57 118.103C265.893 116.823 266.216 115.544 266.216 115.544C266.216 115.544 264.934 115.221 263.653 114.897C262.371 114.574 259.808 113.928 257.725 114.082C256.443 113.759 255.641 114.237 254.36 113.914C255.162 113.436 255.485 112.156 255.646 111.517C259.984 105.126 261.754 100.81 261.754 100.81L260.473 100.487C260.473 100.487 258.702 104.803 253.724 111.032C252.76 112.15 251.797 113.267 251.474 114.547C247.947 115.018 244.421 115.489 242.332 118.365C238.801 121.556 238.474 125.556 238.948 129.078C239.105 131.159 240.064 132.762 241.184 133.725C241.023 134.364 241.023 134.364 240.861 135.004C240.538 136.283 240.216 137.563 240.534 139.004C240.852 140.445 240.529 141.724 241.008 142.526C241.004 145.246 241.16 147.327 241.317 149.408C241.469 154.209 241.782 158.371 242.257 161.892C242.565 168.775 243.519 173.098 243.358 173.738C241.592 175.333 239.827 176.929 237.42 178.363C232.285 182.511 225.868 186.336 219.451 190.161C219.612 189.521 219.935 188.242 220.096 187.602C220.746 182.322 218.995 175.757 216.119 170.949C214.681 168.545 213.081 166.78 211.961 165.817C210.841 164.854 209.721 163.891 209.721 163.891C209.721 163.891 208.757 165.009 208.434 166.289C207.471 167.406 206.346 169.164 204.419 171.4C201.367 175.393 197.674 179.224 197.186 183.864C196.701 185.783 196.858 187.864 197.817 189.466C198.776 191.069 199.094 192.51 200.693 194.274C202.772 196.84 205.815 198.288 206.935 199.251C206.773 199.891 207.253 200.692 206.93 201.972C204.201 204.685 202.753 207.722 200.665 210.597C196.806 217.789 194.229 225.304 192.292 232.981C190.356 240.657 189.06 248.495 187.285 255.532C185.016 269.929 181.148 282.562 175.201 292.629C174.878 293.908 173.915 295.026 172.951 296.144C171.988 297.262 171.665 298.541 170.702 299.659C168.936 301.255 167.65 303.652 165.884 305.248C165.082 305.726 164.921 306.366 164.119 306.844C164.446 302.844 164.774 298.844 165.101 294.844C165.775 275.962 168.689 259.006 172.401 244.293C174.983 234.057 177.08 225.741 179.658 218.226C183.521 208.314 187.869 196.483 193.018 184.173C193.341 182.894 194.466 181.136 194.789 179.857C195.914 178.099 196.236 176.82 197.361 175.063C198.809 172.026 200.256 168.989 201.704 165.952C202.829 164.194 203.152 162.915 204.115 161.797L205.401 159.4L207.167 157.804C209.735 155.73 213.105 153.178 215.834 150.464L217.761 148.229C218.563 147.751 218.886 146.471 219.688 145.993C220.813 144.236 221.938 142.478 222.422 140.559C223.708 138.162 224.515 134.963 224.519 132.243C224.519 132.243 225.004 130.323 226.29 127.926C226.613 126.647 227.737 124.889 228.222 122.97C229.346 121.213 229.992 118.654 231.278 116.257C232.564 113.859 233.851 111.462 235.298 108.425C235.621 107.146 236.746 105.388 237.069 104.109C237.553 102.19 237.876 100.91 238.36 98.9911C238.521 98.3514 238.521 98.3514 238.682 97.7117C239.484 97.2336 240.927 96.9171 241.729 96.4391C244.777 95.1665 247.985 93.2541 251.516 90.0624C254.886 87.5103 258.579 83.6788 262.751 80.6487C264.517 79.0529 266.121 78.0967 267.886 76.5008C268.527 76.6625 269.168 76.8241 269.809 76.9857C271.09 77.309 272.372 77.6323 273.653 77.9555C274.935 78.2788 276.857 78.7637 278.779 79.2486C285.666 81.6663 294.955 85.3702 304.243 89.0742C306.645 90.3604 309.208 91.007 311.771 91.6536C314.334 92.3001 317.059 92.3069 319.304 91.5124C320.746 91.1959 321.387 91.3576 322.189 90.8795C322.189 90.8795 322.83 91.0412 323.31 91.8425C323.789 92.6439 324.268 93.4452 324.909 93.6069C323.946 94.7246 322.659 97.1218 322.493 100.482C322.327 103.842 323.443 107.526 326.803 110.415C330.804 113.465 336.894 113.641 340.582 112.53C342.665 112.375 344.269 111.419 345.712 111.102C347.155 110.786 347.796 110.947 347.796 110.947C347.796 110.947 347.957 110.308 348.442 108.389C348.124 106.947 347.488 104.065 346.69 101.823C345.095 97.3381 342.86 92.6916 340.619 90.7657C338.218 89.4794 336.134 89.6342 333.248 90.2671C330.363 90.9 327.315 92.1726 326.513 92.6507C326.034 91.8494 325.555 91.0479 324.914 90.8863L324.434 90.085C327.32 89.4521 329.565 88.6575 331.81 87.863C335.498 86.752 337.905 85.3178 340.15 84.5233C342.395 83.7287 343.197 83.2507 343.197 83.2507L342.717 82.4494C342.717 82.4494 341.274 82.7658 339.67 83.722C337.425 84.5165 335.18 85.311 331.492 86.422C327.804 87.5329 324.116 88.644 319.308 88.7919C317.225 88.9467 314.5 88.9399 312.578 88.455C310.015 87.8085 308.093 87.3235 305.691 86.0373C296.564 81.6936 287.437 77.3499 280.55 74.9322C278.627 74.4473 276.867 73.3228 275.585 72.9995C274.944 72.8379 274.944 72.8379 274.303 72.6762C275.106 72.1982 276.548 71.8816 277.189 72.0433C282.799 71.4172 288.889 71.5925 294.978 71.7678C296.26 72.0911 297.703 71.7746 299.146 71.4582C300.589 71.1418 301.87 71.4651 303.313 71.1486C304.756 70.8322 306.199 70.5157 307.001 70.0376C308.444 69.7212 309.246 69.2431 310.689 68.9266C315.179 67.3376 318.867 66.2266 321.112 65.4321C323.357 64.6376 324.8 64.3211 324.8 64.3211L324.482 62.8801C324.482 62.8801 323.039 63.1965 320.794 63.9911C318.549 64.7856 314.861 65.8965 310.532 66.8458C309.73 67.3239 308.287 67.6404 307.006 67.3171C305.563 67.6336 304.761 68.1117 303.479 67.7884C302.036 68.1048 300.755 67.7815 299.312 68.098C298.671 67.9363 298.671 67.9363 298.03 67.7747C299.796 66.1788 300.921 64.4214 302.686 62.8255C303.973 60.4283 305.9 58.1927 307.025 56.4352C308.15 54.6776 309.113 53.5598 309.113 53.5598L308.634 52.7584C308.634 52.7584 307.67 53.8762 306.545 55.6337C305.42 57.3913 303.493 59.6269 302.207 62.0241C300.28 64.2597 298.353 66.4953 296.749 67.4515C296.108 67.2898 295.947 67.9296 295.306 67.7679C290.019 67.1146 284.09 66.2996 277.839 66.764C274.313 67.2353 271.266 68.5078 268.219 69.7804C265.171 71.053 263.245 73.2886 260.838 74.7228C256.505 78.3927 252.333 81.4229 249.124 83.3352C246.556 85.4091 244.311 86.2036 242.707 87.1597C242.869 86.52 242.869 86.52 243.03 85.8803C243.837 82.6818 244.164 78.6819 244.971 75.4833C245.455 73.5642 245.778 72.2847 246.262 70.3656L246.908 67.8067L247.23 66.5272L247.553 65.2478C248.037 63.3287 248.521 61.4096 249.005 59.4904L249.646 59.6521C249.323 60.9315 249.959 63.8136 252.679 66.5409C255.399 69.2682 259.723 71.0394 264.051 70.0901C269.823 68.8243 274.318 64.5148 276.89 59.7203C279.942 55.7272 280.91 51.8889 280.91 51.8889C280.91 51.8889 277.066 50.9191 272.742 49.1479C268.257 48.0165 263.292 46.0837 259.604 47.1946C256.718 47.8275 255.432 50.2247 254.146 52.622C252.859 55.0192 250.932 57.2548 249.969 58.3726L249.328 58.2109C249.651 56.9315 249.812 56.2918 250.135 55.0124C250.942 51.8138 252.869 49.5782 255.275 48.144C257.682 46.7097 260.729 45.4371 263.615 44.8042C269.386 43.5385 274.356 42.7508 277.882 42.2795C281.409 41.8083 283.492 41.6535 283.492 41.6535L282.695 39.411C282.695 39.411 280.611 39.5659 277.085 40.0371C273.558 40.5084 268.75 40.6564 262.979 41.9221C261.536 42.2386 259.452 42.3933 257.848 43.3495C258.332 41.4304 259.618 39.0332 260.264 36.4743C261.384 37.4373 263.785 38.7236 266.348 39.3701C267.63 39.6934 268.911 40.0166 270.834 40.5015C272.115 40.8248 273.558 40.5084 275.162 39.5522C278.21 38.2796 281.902 34.4482 284.793 31.0948C286.558 29.4989 287.683 27.7414 289.287 26.7852C290.251 25.6674 291.053 25.1893 291.053 25.1893C291.053 25.1893 290.574 24.388 288.813 23.2634C287.693 22.3004 285.452 20.3744 282.889 19.7279C278.086 17.1554 270.876 16.0171 265.584 18.0842C263.339 18.8787 261.573 20.4746 260.449 22.2321C259.324 23.9896 258.199 25.7472 258.517 27.1882C258.033 29.1074 258.189 31.1882 258.507 32.6293C258.346 33.269 258.346 33.2689 258.185 33.9087C257.221 35.0265 256.898 36.3059 255.935 37.4237C254.81 39.1812 254.487 40.4606 253.524 41.5784C253.201 42.8578 252.878 44.1373 252.076 44.6154C251.915 45.2551 251.753 45.8948 251.753 45.8948L252.394 46.0564C249.826 48.1304 247.738 51.0056 246.29 54.0426C244.843 57.0795 244.515 61.0795 243.068 64.1164L242.745 65.3958C242.584 66.0355 242.584 66.0355 242.422 66.6752L241.777 69.2341C241.293 71.1533 240.809 73.0724 240.486 74.3519C239.679 77.5504 239.351 81.5503 237.904 84.5872C237.097 87.7858 236.129 91.6241 235.483 94.183C235.161 95.4624 234.676 97.3815 233.713 98.4993C232.749 99.6171 232.265 101.536 231.302 102.654C230.016 105.051 228.568 108.088 227.282 110.485C227.12 111.125 226.318 111.603 226.157 112.243C226.162 109.522 225.525 106.64 225.369 104.56C225.056 100.398 224.581 96.8761 223.627 92.553C223.632 89.8325 222.996 86.9504 222.839 84.8696C223 84.2299 222.521 83.4285 222.682 82.7888C222.844 82.1491 222.364 81.3478 222.687 80.0684C222.369 78.6273 222.051 77.1862 221.733 75.7451C221.097 72.863 220.461 69.9809 219.825 67.0988C219.189 64.2166 218.553 61.3345 217.917 58.4524C217.917 58.4524 217.917 58.4524 218.078 57.8127C218.401 56.5332 218.885 54.6141 220.171 52.2169C221.942 47.9005 224.196 41.665 226.612 34.7898C227.58 30.9515 228.548 27.1132 229.517 23.2749L230.157 23.4365C230.157 23.4365 229.678 22.6352 230.48 22.1571C230.642 21.5174 231.444 21.0393 231.605 20.3996C232.887 20.7228 235.288 22.0091 237.69 23.2953C238.971 23.6186 240.253 23.9419 241.534 24.2651C242.816 24.5884 243.618 24.1104 245.061 23.7939C247.467 22.3597 250.519 18.3666 252.93 14.2119C254.055 12.4544 255.18 10.6968 255.664 8.77764C255.987 7.49821 256.95 6.38044 256.95 6.38044C256.95 6.38044 253.429 4.1312 249.105 2.36005C244.781 0.588887 238.853 -0.22613 234.201 2.00264C232.597 2.9588 230.831 4.55469 229.706 6.3122C228.582 8.06971 228.259 9.34916 228.415 11.4299C228.411 14.1504 229.208 16.3928 229.526 17.8339C229.203 19.1133 228.881 20.3928 228.558 21.6722C228.397 22.3119 227.756 22.1502 227.756 22.1502L228.397 22.3119C227.428 26.1502 225.819 29.8268 224.851 33.6651C223.237 40.0622 220.342 46.1361 218.572 50.4525C218.41 51.0922 218.088 52.3717 217.286 52.8498C216.493 47.8869 215.7 42.9239 215.866 39.5637C215.871 36.8432 215.876 34.1227 216.199 32.8433C216.521 31.5638 217.162 31.7255 217.323 31.0858L216.203 30.1228C219.25 28.8502 225.985 26.4666 226.156 20.3859C226.64 18.4668 225.202 16.0628 224.405 13.8203C223.607 11.5779 222.008 9.81363 220.408 8.0493C217.209 4.52063 214.167 3.07273 214.167 3.07273C214.167 3.07273 211.438 5.78635 209.188 9.30137C208.063 11.0589 206.298 12.6548 205.173 14.4123C204.048 16.1698 202.923 17.9273 203.08 20.0081C202.909 26.0888 210.754 30.1091 213.958 30.9173C213.797 31.557 213.797 31.557 213.636 32.1967C213.151 34.1159 212.506 36.6748 212.981 40.1966C213.289 47.0787 214.395 56.2031 216.46 66.9302C217.096 69.8124 217.091 72.5329 217.727 75.4151C218.045 76.8561 218.363 78.2971 218.04 79.5766C217.879 80.2163 218.358 81.0177 218.197 81.6574C218.036 82.2971 218.515 83.0985 218.354 83.7382C218.036 82.2971 217.556 81.4957 217.077 80.6944C216.118 79.0917 214.837 78.7684 214.837 78.7684C214.837 78.7684 213.873 79.8862 212.91 81.004C212.91 81.004 212.91 81.004 212.108 81.4821C211.467 81.3204 210.987 80.5191 210.987 80.5191L206.986 77.4685L202.824 75.0577L198.661 72.6467C196.9 71.5221 196.9 71.5222 195.619 71.1989C196.421 70.7208 196.421 70.7208 196.421 70.7208L196.582 70.0811L196.743 69.4414C197.066 68.1619 196.587 67.3606 196.91 66.0812C196.753 64.0004 196.596 61.9197 196.44 59.8389L196.283 57.7581C196.767 55.8389 196.772 53.1184 195.813 51.5157L195.334 50.7144C195.016 49.2733 195.338 47.9939 195.5 47.3542L193.578 46.8693C193.416 47.509 193.255 48.1487 193.093 48.7885C190.853 46.8625 188.451 45.5762 186.05 44.2899C184.289 43.1653 182.367 42.6804 181.247 41.7174C180.126 40.7544 178.845 40.4311 178.845 40.4311C178.845 40.4311 178.043 40.9093 177.559 42.8284C176.434 44.5859 175.95 46.5051 174.663 48.9023C173.372 54.02 172.561 59.9391 174.958 63.9458C176.875 67.1512 180.558 68.7607 183.924 68.9291C187.289 69.0976 190.336 67.825 191.779 67.5086C192.42 67.6702 192.258 68.3099 192.899 68.4716C192.738 69.1113 192.738 69.1113 192.576 69.751L192.415 70.3907L192.092 71.6702L191.447 74.229C194.01 74.8755 195.771 76.0002 197.531 77.1248L201.053 79.374L204.414 82.263L207.774 85.1519L208.253 85.9533C204.243 88.3437 200.232 90.7341 197.982 94.2491C197.019 95.3669 196.696 96.6463 197.014 98.0874C193.654 95.1984 189.33 93.4273 186.449 91.3397C182.927 89.0905 180.848 86.5248 179.092 82.6797C178.133 81.077 177.976 78.9961 177.658 77.555C177.179 76.7537 177.502 75.4743 177.022 74.673C176.543 73.8716 176.225 72.4306 176.386 71.7909C174.156 64.4239 170.961 58.1747 169.048 52.2488C169.048 52.2488 169.21 51.6091 169.371 50.9694C169.694 49.69 169.376 48.2489 169.699 46.9695C170.506 43.7709 171.474 39.9326 172.442 36.0943C172.442 36.0943 173.244 35.6163 174.046 35.1382C174.848 34.6601 175.489 34.8217 177.093 33.8656C178.214 34.8285 180.615 36.1148 183.98 36.2833C187.346 36.4518 191.674 35.5024 194.565 32.149C198.257 28.3176 199.069 22.3985 199.558 17.7588C199.562 15.0383 200.047 13.1192 199.729 11.6781C199.411 10.237 199.733 8.95765 199.733 8.95765C199.733 8.95765 198.452 8.63441 197.009 8.95085C195.566 9.2673 192.842 9.26044 190.597 10.055C186.268 11.0043 180.976 13.0714 178.247 15.7851L178.408 15.1454L177.767 14.9837C177.767 14.9837 177.606 15.6234 177.445 16.2631L177.283 16.9029C176.158 18.6604 175.674 20.5795 175.831 22.6603C175.024 25.8589 173.576 28.8958 171.967 32.5725C170.197 36.8888 169.067 41.3669 168.099 45.2052C167.938 45.8449 167.938 45.8448 167.776 46.4846C166.661 42.8011 165.384 39.7573 165.389 37.0368L165.55 36.3972C165.232 34.9561 165.555 33.6766 165.878 32.3972C166.039 31.7575 166.039 31.7575 166.201 31.1178C168.289 28.2425 170.7 24.0877 169.423 21.0439C168.626 18.8015 165.422 17.9934 163.343 15.4277C162.223 14.4647 161.426 12.2223 161.748 10.9429C161.43 9.50181 161.592 8.86206 161.592 8.86206C161.592 8.86206 157.747 7.89234 152.773 11.4005C150.205 13.4745 148.117 16.3498 147.31 19.5483C146.503 22.7469 146.337 26.1071 147.135 28.3495C150.324 37.3192 159.784 34.9425 162.669 34.3096L163.149 35.1109C163.149 35.1109 163.149 35.1109 162.987 35.7506C163.462 39.2724 164.895 44.397 166.808 50.3229C167.924 54.0064 169.68 57.8514 171.275 62.3362C170.795 61.5349 169.514 61.2116 168.394 60.2487C167.753 60.087 167.273 59.2857 166.633 59.1241C165.992 58.9625 165.513 58.1611 164.872 57.9995C163.752 57.0365 162.631 56.0735 161.673 54.4708C159.594 51.9051 156.874 49.1777 154.795 46.6121C149.997 41.3191 143.432 37.622 139.754 33.292C139.275 32.4906 138.634 32.3289 137.993 32.1673C137.514 31.366 137.514 31.366 137.034 30.5646C136.555 29.7633 136.076 28.9619 135.596 28.1606C134.637 26.5579 134.158 25.7565 134.158 25.7565L133.356 26.2346C133.356 26.2346 133.835 27.036 134.794 28.6387C135.273 29.44 135.753 30.2414 136.232 31.0428C136.712 31.8441 136.712 31.8441 137.191 32.6454C137.67 33.4468 138.311 33.6084 138.791 34.4098C142.469 38.7398 149.033 42.4369 153.832 47.7298C155.911 50.2955 158.469 53.6626 160.709 55.5886C161.829 56.5516 162.788 58.1542 163.908 59.1172C164.388 59.9186 165.028 60.0802 165.508 60.8815C166.149 61.0432 166.628 61.8446 167.269 62.0062C168.389 62.9692 169.509 63.9321 170.15 64.0938C170.629 64.8951 171.911 65.2184 171.749 65.8581C172.869 66.8211 172.708 67.4609 172.708 67.4609C173.187 68.2622 173.026 68.9018 173.505 69.7032C173.985 70.5045 173.823 71.1443 174.141 72.5854C174.621 73.3867 174.298 74.6661 174.777 75.4675C174.934 77.5482 175.731 79.7907 176.69 81.3934C176.529 82.0331 177.008 82.8344 177.649 82.9961C173.007 79.7838 166.604 75.447 161.004 70.6321C154.762 65.6555 149.161 60.8406 144.842 56.349C142.602 54.423 141.002 52.6586 140.044 51.0559C139.085 49.4532 138.444 49.2916 138.444 49.2916L137.642 49.7697C137.642 49.7697 138.121 50.5711 139.08 52.1738C140.039 53.7765 141.638 55.5408 143.879 57.4667C147.557 61.7968 152.997 67.2514 159.077 72.8677L159.717 73.0293C158.915 73.5074 158.754 74.1471 158.113 73.9855C156.993 73.0225 155.393 71.2582 153.153 69.3322C151.554 67.5679 149.313 65.6419 146.589 65.6351C143.224 65.4666 137.77 68.1735 133.76 70.5639C131.353 71.9981 129.749 72.9542 128.145 73.9104C127.67 70.3886 127.034 67.5064 127.68 64.9476C127.523 62.8668 127.846 61.5874 128.168 60.3079C128.33 59.6682 128.33 59.6682 128.491 59.0285L128.652 58.3888L127.532 57.4259C127.532 57.4259 127.532 57.4258 127.371 58.0655C127.371 58.0655 127.21 58.7053 127.048 59.345C126.725 60.6244 126.403 61.9038 126.398 64.6243C126.07 68.6242 127.181 75.0282 127.49 81.9102C127.646 83.991 127.964 85.4321 128.121 87.5129C127.96 88.1526 128.278 89.5937 128.116 90.2334C127.955 90.8731 127.632 92.1525 127.471 92.7922C126.503 96.6305 124.894 100.307 124.884 105.748C124.879 108.469 126.318 110.873 127.756 113.277C129.355 115.041 130.793 117.445 132.393 119.209C133.992 120.974 136.233 122.9 137.832 124.664C138.952 125.627 139.432 126.428 139.911 127.23C141.031 128.193 141.511 128.994 142.469 130.597C142.949 131.398 144.069 132.361 144.548 133.163C141.183 132.994 137.657 133.465 134.771 134.098C130.281 135.687 127.072 137.6 127.072 137.6C127.072 137.6 128.829 141.445 130.746 144.65C133.143 148.657 134.899 152.502 137.14 154.428C139.541 155.714 141.786 154.92 144.193 153.485C146.438 152.691 149.485 151.418 150.928 151.102C151.568 151.263 151.407 151.903 151.407 151.903C151.246 152.543 151.084 153.183 151.725 153.344C151.882 155.425 151.877 158.145 152.034 160.226C152.19 162.307 152.826 165.189 153.144 166.63C153.619 170.152 153.932 174.314 153.766 177.674C154.079 181.835 153.752 185.835 154.227 189.357C152.945 189.034 151.825 188.071 149.903 187.586C148.782 186.623 147.662 185.66 147.022 185.498C145.901 184.535 144.781 183.572 143.661 182.609C139.342 178.118 135.346 172.347 132.631 166.899C127.362 155.364 124.661 141.754 120.195 129.741C117.641 123.653 115.729 117.727 113.654 112.441C112.857 110.199 112.06 107.956 110.621 105.552C110.621 105.552 110.783 104.913 110.944 104.273C111.267 102.994 111.751 101.074 112.876 99.3169C114.001 97.5594 115.287 95.1622 116.735 92.1252C117.057 90.8458 118.182 89.0883 118.505 87.8089C118.989 85.8898 118.671 84.4487 118.514 82.3679L117.717 80.1255C117.238 79.3241 117.399 78.6844 116.92 77.883C116.602 76.442 116.284 75.001 115.966 73.5599C115.648 72.1188 115.33 70.6777 115.011 69.2367C114.693 67.7956 115.016 66.5162 114.537 65.7148C114.542 62.9943 115.026 61.0752 114.708 59.6342C114.39 58.1931 114.551 57.5534 114.551 57.5534L113.108 57.8697C113.108 57.8697 112.947 58.5095 113.265 59.9506C112.942 61.23 113.099 63.3108 112.453 65.8697C112.13 67.1491 112.449 68.5901 112.126 69.8695C112.444 71.3106 112.121 72.5901 112.439 74.0311C112.757 75.4722 113.075 76.9132 113.232 78.994C113.07 79.6337 113.55 80.4351 114.029 81.2365L114.186 83.3173C114.504 84.7583 114.181 86.0377 113.858 87.3171C113.535 88.5965 112.572 89.7144 112.249 90.9938C110.963 93.391 109.036 95.6266 107.75 98.0238C107.588 98.6635 106.786 99.1416 106.625 99.7814C106.146 98.98 105.666 98.1786 105.828 97.5389C103.592 92.8925 101.997 88.4077 100.241 84.5625C98.4849 80.7174 96.5673 77.512 95.2905 74.4682C93.8524 72.0642 93.6957 69.9834 93.3777 68.5423C93.5391 67.9026 93.7004 67.2629 93.7004 67.2629L93.8618 66.6232C96.909 65.3506 102.362 62.6437 103.013 57.3644C102.856 55.2836 102.059 53.0412 101.261 50.7988C100.464 48.5564 98.8643 46.7921 97.2648 45.0278C94.0657 41.4991 91.1847 39.4115 91.1847 39.4115C91.1847 39.4115 88.4556 42.1252 85.5651 45.4786C84.4402 47.2361 82.6746 48.8319 81.5498 50.5894C80.4249 52.3469 79.9407 54.266 79.4566 56.1852C79.2858 62.2659 86.6522 65.485 89.6946 66.9329C89.6946 66.9329 89.5332 67.5726 89.3718 68.2123C89.5285 70.2931 89.6851 72.3739 90.9619 75.4176C92.2387 78.4614 94.1562 81.6668 95.2716 85.3503C95.751 86.1516 96.069 87.5926 96.5484 88.394C93.9853 87.7474 91.4223 87.1009 89.5001 86.616C86.2963 85.8078 83.8946 84.5216 80.8522 83.0737C72.0477 77.4506 64.5295 69.4303 55.8863 63.1675L55.0842 63.6455C62.9252 70.3864 70.4434 78.4068 79.2479 84.0298C82.129 86.1174 85.1714 87.5653 88.3752 88.3735C91.5789 89.1817 94.7828 89.9898 97.1845 91.2761C97.9819 93.5185 98.7792 95.761 100.217 98.165C101.015 100.407 102.453 102.811 103.089 105.694C103.886 107.936 105.163 110.98 105.799 113.862C107.076 116.906 108.191 120.589 108.827 123.471C107.707 122.508 107.228 121.707 106.108 120.744L103.867 118.818C103.388 118.017 102.107 117.693 100.986 116.73C99.2255 115.606 97.4646 114.481 94.9016 113.835C91.2184 112.225 87.3738 111.255 84.6542 108.528C80.0122 105.316 78.4222 98.1104 73.4622 93.4571L71.858 94.4133C73.9369 96.979 74.7342 99.2214 76.011 102.265C76.329 103.706 77.4492 104.669 77.7672 106.11C77.1265 105.949 77.1265 105.949 76.4858 105.787C72.1618 104.016 65.7542 102.399 59.9874 100.945C54.2206 99.49 47.9744 97.234 44.2912 95.6245C43.0097 95.3012 42.5304 94.4998 41.8896 94.3382C41.2489 94.1765 40.7694 93.3753 40.1287 93.2136C39.0086 92.2506 38.3678 92.0889 38.3678 92.0889L37.5656 92.5671C37.5656 92.5671 38.045 93.3684 39.3265 93.6916C39.8059 94.493 40.4467 94.6546 41.0875 94.8163C41.5668 95.6176 42.8483 95.9409 44.1299 96.2642C48.2924 98.6751 53.8979 100.769 60.3055 102.386C66.0723 103.84 72.3185 106.097 76.0016 107.706C77.2831 108.029 77.7625 108.831 78.4033 108.992C79.044 109.154 79.5234 109.955 80.1642 110.117C80.8049 110.279 80.6435 110.918 80.6435 110.918C84.0039 113.807 88.3279 115.578 92.0111 117.188C92.6518 117.35 93.7719 118.313 94.4127 118.474C95.0535 118.636 96.1737 119.599 96.8144 119.761C97.2938 120.562 97.9345 120.723 99.0547 121.686L100.654 123.451C102.733 126.016 104.651 129.222 106.568 132.427C108.486 135.633 110.403 138.838 112.962 142.205C114.87 150.851 117.418 159.659 120.608 168.629C122.844 173.276 125.079 177.922 128.117 182.09L126.835 181.767L126.195 181.606C126.195 181.606 125.074 180.643 124.116 179.04C123.157 177.437 122.839 175.996 121.88 174.393C121.401 173.592 120.921 172.791 120.603 171.35C120.124 170.548 120.124 170.548 119.004 169.585C118.524 168.784 118.524 168.784 118.524 168.784C117.404 167.821 117.884 168.622 117.884 168.622L117.243 168.461C115.482 167.336 113.56 166.851 112.117 167.168C110.033 167.322 109.231 167.8 107.95 167.477C105.705 168.272 104.262 168.588 102.98 168.265C101.699 167.942 101.058 167.78 99.9378 166.817C97.6975 164.891 95.7799 161.686 93.383 157.679C92.9036 156.878 92.9036 156.878 92.4242 156.076L91.3041 155.113C90.8247 154.312 89.7045 153.349 89.2252 152.548C87.6256 150.783 86.6668 149.18 84.9059 148.056C84.2652 147.894 84.4266 147.255 83.7858 147.093C83.9472 146.453 83.9472 146.453 84.1086 145.813C85.5514 145.497 88.4373 144.864 90.6823 144.07C93.0887 142.635 94.8543 141.039 95.4998 138.481C95.5045 135.76 93.4256 133.194 90.7059 130.467C89.7472 128.864 88.627 127.901 88.309 126.46C87.8296 125.659 87.3502 124.858 87.3502 124.858C87.3502 124.858 86.7095 124.696 85.2666 125.013C83.8237 125.329 81.5786 126.124 79.9744 127.08C76.9272 128.352 74.1982 131.066 72.7505 134.103C72.2712 133.302 71.151 132.339 70.6716 131.537C66.3524 127.046 63.9555 123.039 62.038 119.833C61.0792 118.231 60.5998 117.429 60.9225 116.15C60.4431 115.349 60.6046 114.709 60.6046 114.709L56.4372 115.018C56.4372 115.018 56.2759 115.658 56.7553 116.46C57.2347 117.261 57.5526 118.702 57.7093 120.783C58.8247 124.466 61.8624 128.635 66.0202 133.766C69.0579 137.934 73.2157 143.066 77.5349 147.557C74.3312 146.749 70.0071 144.978 65.8446 142.567C61.682 140.156 57.5195 137.745 54.3158 136.937C52.5549 135.813 51.2733 135.489 50.6325 135.328C49.351 135.004 49.351 135.004 49.351 135.004L49.1897 135.644C49.1897 135.644 49.8304 135.806 50.4712 135.967C51.1119 136.129 52.8729 137.254 54.1544 137.577C57.1968 139.025 61.3594 141.436 64.8812 143.685C69.0437 146.096 73.3676 147.867 76.41 149.315C77.6915 149.638 78.3323 149.8 79.6138 150.123C80.5726 151.726 81.6927 152.689 82.6515 154.291C83.1309 155.093 83.6103 155.894 84.0897 156.695L85.0485 158.298C85.6892 158.46 85.5278 159.1 85.5278 159.1C86.0072 159.901 86.3252 161.342 87.4454 162.305C84.8824 161.658 82.96 161.173 80.397 160.527C77.1932 159.719 73.3487 158.749 69.9836 158.58C68.0613 158.096 66.6184 158.412 64.6961 157.927C64.6961 157.927 61.4923 157.119 56.5277 155.186C54.6054 154.701 52.2037 153.415 49.6407 152.768C46.7596 150.681 44.6807 148.115 43.4039 145.071C41.6478 141.226 39.8916 137.381 38.1355 133.536C37.8174 132.095 36.8587 130.492 35.8999 128.89L36.0613 128.25C32.8669 122.001 27.589 115.906 23.5925 110.135L22.7904 110.613C26.7868 116.384 31.4241 122.317 34.6184 128.566C33.9777 128.405 33.3369 128.243 32.6961 128.081C31.8987 125.839 29.3499 117.031 21.338 116.371C16.6914 115.879 10.4357 119.064 6.74311 122.895C4.97749 124.491 3.21184 126.087 2.08697 127.845C1.12347 128.963 0.8007 130.242 0.8007 130.242C0.8007 130.242 2.08226 130.565 3.2024 131.528C4.32254 132.491 6.0834 133.616 8.48506 134.902C12.6476 137.313 16.6488 140.364 20.6547 140.694C21.2955 140.855 22.0976 140.377 22.7384 140.539C23.3791 140.7 23.8585 141.502 23.8585 141.502C27.8597 144.552 33.7831 148.088 39.7066 151.623C45.7914 154.519 51.8762 157.415 56.6795 159.987C57.3203 160.149 57.3203 160.149 57.3203 160.149C51.7102 160.775 45.7772 162.681 40.8078 163.468C37.922 164.101 34.2342 165.212 30.7077 165.683C27.8219 166.316 23.6545 166.626 21.2529 165.34L20.2895 166.458C22.0503 167.582 23.9726 168.067 26.0562 167.912C28.1399 167.757 29.4214 168.081 31.505 167.926C35.0316 167.455 38.5581 166.983 41.4438 166.35C47.8561 165.246 55.0706 163.664 61.1601 163.839C63.8845 163.846 67.2496 164.015 70.4534 164.823C73.6572 165.631 76.861 166.439 80.0648 167.247C85.0295 169.18 90.6349 171.275 95.5996 173.207C97.3605 174.332 99.7621 175.618 101.846 175.463C105.211 175.632 107.456 174.837 109.54 174.683C110.342 174.204 110.983 174.366 111.623 174.528C112.264 174.689 112.264 174.689 112.264 174.689C112.743 175.491 112.582 176.13 113.061 176.932C114.02 178.534 114.177 180.615 115.136 182.218C116.094 183.821 116.892 186.063 119.773 188.151C121.054 188.474 121.534 189.275 122.815 189.598C124.097 189.922 124.576 190.723 125.858 191.046C127.78 191.531 129.702 192.016 130.822 192.979C137.069 195.235 142.351 198.609 144.753 199.895C145.232 200.697 145.873 200.858 145.712 201.498C146.832 202.461 147.15 203.902 147.629 204.703C148.109 205.505 148.427 206.946 148.906 207.747C149.063 209.828 149.699 212.71 149.053 215.269C149.048 217.989 149.044 220.71 149.039 223.43C148.716 224.71 149.034 226.151 149.352 227.592C149.352 227.592 149.191 228.232 149.67 229.033L150.15 229.834C149.988 230.474 150.468 231.276 150.468 231.276C150.781 235.437 150.933 240.238 151.246 244.4C151.559 248.561 151.873 252.723 152.509 255.605C153.145 258.487 154.583 260.891 155.38 263.134C154.085 270.972 153.268 279.611 152.291 288.891C151.802 293.53 151.313 298.17 150.824 302.81C150.179 305.369 150.335 307.449 149.69 310.008C149.044 312.567 149.201 314.648 148.555 317.207C148.394 317.846 148.233 318.486 148.071 319.126C147.91 319.766 147.91 319.766 147.91 319.766C146.942 323.604 146.614 327.604 145.646 331.442C144.355 336.56 143.225 341.038 141.934 346.155L140.966 349.994C140.643 351.273 140.321 352.553 139.998 353.832L137.582 360.707C136.614 364.546 134.844 368.862 133.875 372.7C133.396 371.899 133.557 371.259 132.917 371.097C132.437 370.296 132.119 368.855 131.64 368.054C131.16 367.252 130.842 365.811 130.363 365.01L130.045 363.569L129.727 362.128C129.409 360.687 128.93 359.885 129.252 358.606C128.46 353.643 128.308 348.842 127.838 342.599C127.842 339.879 127.847 337.159 128.013 333.798C128.018 331.078 128.184 327.718 128.189 324.997C128.198 319.556 129.01 313.637 129.983 307.078C130.794 301.159 131.767 294.6 131.459 287.718C131.625 284.358 131.15 280.836 129.874 277.793C129.556 276.352 128.597 274.749 128.44 272.668C127.481 271.065 127.163 269.624 126.205 268.022C123.651 261.934 120.134 256.964 116.455 252.634C112.938 247.665 109.739 244.136 106.702 239.968L106.222 239.166C106.545 237.887 107.191 235.328 107.195 232.607C108.486 227.49 110.423 219.813 110.276 212.291L110.437 211.652C110.598 211.012 111.239 211.174 111.4 210.534C112.521 211.497 114.922 212.783 117.163 214.709C119.564 215.995 121.966 217.282 124.852 216.649C131.587 214.265 139.622 201.323 139.622 201.323C139.622 201.323 136.1 199.074 131.938 196.663C127.775 194.252 122.008 192.797 117.518 194.386C113.83 195.497 111.581 199.012 110.774 202.211C109.967 205.409 110.442 208.931 110.921 209.733C110.921 209.733 110.921 209.732 110.76 210.372L110.921 209.733C111.082 209.093 111.082 209.093 110.603 208.291C110.764 207.652 110.285 206.85 110.285 206.85C109.488 204.608 108.529 203.005 107.57 201.403C105.653 198.197 103.735 194.992 102.297 192.588C100.859 190.184 99.2592 188.419 98.3004 186.817C97.821 186.015 97.1803 185.854 97.3417 185.214C97.3417 185.214 96.7008 185.052 96.8622 184.413C96.8622 184.413 96.8622 184.413 96.2214 184.251C95.5807 184.089 95.5807 184.089 95.5807 184.089L96.0601 184.891C96.0601 184.891 95.2579 185.369 95.8987 185.53C95.8987 185.53 96.3781 186.332 96.8575 187.133C97.8163 188.736 98.775 190.339 100.052 193.382C101.49 195.786 102.767 198.83 104.044 201.874C105.002 203.476 105.32 204.918 105.638 206.359C105.477 206.998 106.118 207.16 106.118 207.16C106.118 207.16 105.956 207.8 105.795 208.439L105.79 211.16C105.458 217.88 103.042 224.756 100.949 230.351L100.788 230.991C97.7501 226.823 95.8325 223.617 94.5557 220.574C93.7583 218.331 92.7995 216.728 92.4815 215.287C92.1635 213.846 91.6842 213.045 91.6842 213.045L91.0434 212.883C91.2047 212.244 90.564 212.082 90.7254 211.442C91.5275 210.964 94.0952 208.89 96.0222 206.655C96.9858 205.537 97.9492 204.419 98.272 203.14C98.7561 201.22 99.0788 199.941 98.2814 197.699C97.9634 196.258 97.0047 194.655 96.6867 193.214C96.2073 192.412 95.7279 191.611 95.0871 191.449C94.6077 190.648 93.967 190.486 93.4876 189.685C90.7679 186.958 88.2049 186.311 85.6418 185.665C83.0788 185.018 80.9952 185.173 79.5523 185.489C78.1094 185.806 76.828 185.483 76.828 185.483C76.828 185.483 76.6666 186.122 76.8232 188.203C77.1412 189.644 77.2978 191.725 77.2931 194.445C77.445 199.247 75.3566 202.122 76.154 204.364C76.472 205.806 77.4308 207.408 78.551 208.371C79.6711 209.334 81.432 210.459 82.5521 211.422C85.5945 212.87 88.319 212.877 90.2413 213.361C90.7207 214.163 90.7206 214.163 90.5592 214.802L83.5062 215.745C83.5062 215.745 83.9856 216.546 84.3036 217.987C84.783 218.789 84.6217 219.428 85.101 220.23C81.4179 218.62 76.6146 216.048 71.0091 213.953C70.3684 213.792 69.8889 212.99 69.2482 212.829C67.0079 210.903 63.8089 207.374 62.0527 203.529C59.6558 199.522 57.7382 196.317 55.8207 193.111C54.5439 190.068 52.9443 188.303 52.9443 188.303L52.1423 188.781C52.1423 188.781 53.101 190.384 55.0185 193.59C56.2953 196.633 58.6922 200.64 60.4484 204.485C62.3659 207.69 64.4449 210.256 65.883 212.66L65.2422 212.499C61.3977 211.529 57.7145 209.919 54.5108 209.111C53.2292 208.788 51.307 208.303 50.0255 207.98L50.1869 207.34C50.1869 207.34 50.1869 207.34 50.0255 207.98C48.744 207.656 46.8217 207.171 45.7016 206.209C43.2999 204.922 41.539 203.798 40.4188 202.835C39.2987 201.872 38.9808 200.431 38.8194 201.07L38.0172 201.548C38.0172 201.548 38.4966 202.35 39.4554 203.952C38.1739 203.629 36.8923 203.306 35.6108 202.983C33.5272 203.137 31.4436 203.292 29.1985 204.087C24.3858 206.955 20.3704 212.066 19.0794 217.184C18.4339 219.743 17.9498 221.662 17.4657 223.581C17.143 224.86 17.4609 226.301 17.4609 226.301C17.4609 226.301 18.7425 226.625 20.1854 226.308C22.269 226.154 24.1913 226.638 26.2749 226.484C31.0829 226.336 36.3704 226.989 39.5789 225.077C41.1832 224.121 42.1466 223.003 43.1101 221.885C44.0736 220.767 44.5578 218.848 44.8806 217.569C45.6874 214.37 46.3329 211.811 46.6556 210.532C47.4578 210.054 48.7392 210.377 49.5414 209.899L50.1822 210.06L50.8229 210.222C52.1044 210.545 53.3859 210.869 54.6674 211.192C57.8712 212 61.5544 213.61 65.2375 215.219C71.9631 218.277 78.5274 221.974 83.9714 224.708C85.0916 225.671 87.0138 226.156 87.6545 226.317C89.0927 228.721 90.3695 231.765 92.287 234.97L91.6463 234.809C91.3283 233.368 89.088 231.442 86.207 229.354C84.4461 228.23 82.5238 227.745 80.6015 227.26C78.6792 226.775 75.9548 226.768 73.5484 228.202C67.6155 230.108 63.6001 235.219 60.3869 239.852C57.1737 244.484 55.5647 248.161 55.5647 248.161C55.5647 248.161 59.8886 249.932 65.1761 250.586C68.3799 251.394 72.3857 251.724 75.9122 251.253L76.553 251.414C78.3139 252.539 80.0748 253.663 81.8357 254.788C83.5966 255.913 85.9982 257.199 87.7591 258.324C90.1608 259.61 92.5625 260.896 94.3234 262.021C96.725 263.307 99.1267 264.593 101.049 265.078C105.212 267.489 108.411 271.018 109.526 274.701C109.844 276.142 110.323 276.943 110.641 278.384C108.881 277.26 107.12 276.135 105.359 275.011C102.316 273.563 98.7945 271.314 95.1113 269.704C91.4281 268.094 87.1042 266.323 82.4575 265.832C81.176 265.508 80.0559 264.545 79.4151 264.384C77.4928 263.899 76.8521 263.737 76.8521 263.737L76.6907 264.377C73.9664 264.37 72.0441 263.885 69.9604 264.04C65.9545 263.71 61.9486 263.38 58.7449 262.572C55.5411 261.763 53.1394 260.477 51.3785 259.353C50.7378 259.191 50.2584 258.39 49.6176 258.228C48.9769 258.066 49.1382 257.427 49.1382 257.427L48.3361 257.905C48.3361 257.905 48.3361 257.905 48.8155 258.706C49.4562 258.868 49.9356 259.669 50.415 260.47C52.1759 261.595 54.5775 262.881 57.7813 263.689L58.4221 263.851C58.4221 263.851 58.9015 264.652 58.0994 265.13C57.938 265.77 57.1358 266.248 56.9745 266.888C54.4114 266.241 47.2065 262.383 40.6281 266.847C37.0968 270.039 34.3629 275.473 33.072 280.591C32.4265 283.15 32.4218 285.87 32.099 287.15C32.2557 289.23 32.0943 289.87 32.0943 289.87C32.0943 289.87 32.8964 289.392 34.9801 289.237C36.423 288.921 38.5066 288.766 41.231 288.773C46.039 288.625 51.6493 287.999 55.1805 284.807C58.5504 282.255 59.5185 278.417 59.6846 275.056C59.8507 271.696 58.574 268.652 57.6153 267.05C58.4174 266.572 58.7401 265.292 58.9014 264.652C59.0628 264.013 59.2242 263.373 59.2242 263.373C61.7872 264.02 65.1524 264.188 68.5176 264.356C70.6012 264.202 73.1643 264.848 75.2479 264.693C75.2479 264.693 75.2479 264.693 75.0865 265.333C74.6024 267.252 74.759 269.333 74.1135 271.892C73.6246 276.532 72.1724 282.289 73.2878 285.972C74.5646 289.016 76.8048 290.942 79.0451 292.868C82.0875 294.316 84.4892 295.602 85.7707 295.925C85.6093 296.565 85.2866 297.845 85.1252 298.484C84.4844 298.323 83.8437 298.161 84.0051 297.521C82.2442 296.397 80.4832 295.272 78.7223 294.147C75.8413 292.06 72.9603 289.972 71.1994 288.848C69.5999 287.083 68.9591 286.922 68.9591 286.922L67.3549 287.878C67.3549 287.878 68.475 288.841 70.0745 290.605C71.674 292.37 73.9144 294.296 77.4361 296.545C79.197 297.669 80.9579 298.794 82.5574 300.558C84.3183 301.683 86.0793 302.808 87.8402 303.932C83.8343 303.602 79.8283 303.272 75.0203 303.42C68.29 303.083 62.2005 302.908 57.5538 302.416C56.2723 302.093 55.6315 301.931 54.35 301.608C53.7092 301.446 52.4277 301.123 51.7869 300.961C50.5054 300.638 50.026 299.837 50.026 299.837L49.8646 300.476C49.8646 300.476 50.5054 300.638 51.6255 301.601C52.2663 301.763 52.9071 301.924 54.1886 302.248C55.4701 302.571 56.1109 302.733 57.3924 303.056C62.5185 304.349 68.608 304.524 75.3383 304.861C82.0686 305.198 88.1581 305.373 92.482 307.144L93.1228 307.306C95.5245 308.592 98.4055 310.68 100.005 312.444C101.125 313.407 102.084 315.01 103.043 316.613C97.7553 315.959 91.6658 315.784 87.4938 318.814C81.8789 322.161 81.7081 328.241 82.0213 332.403C81.86 333.043 81.8599 333.043 81.6986 333.682C81.5372 334.322 81.2144 335.602 80.8917 336.881C80.7303 337.521 80.569 338.16 80.569 338.16C80.0896 337.359 80.251 336.719 79.6102 336.558C79.1308 335.756 78.8128 334.315 78.3334 333.514C77.854 332.712 77.3746 331.911 76.8953 331.11C76.4159 330.308 75.9365 329.507 74.8164 328.544C73.8576 326.941 72.0966 325.817 70.9765 324.854C68.0954 322.766 65.6938 321.48 64.0943 319.716C62.3334 318.591 60.5725 317.466 59.4523 316.503C58.3322 315.54 57.6915 315.379 57.6915 315.379C57.3735 313.938 57.3782 311.217 55.9401 308.813C54.0225 305.608 50.662 302.719 46.1767 301.587C40.2486 300.772 33.6749 302.516 28.8621 305.385C26.4558 306.819 24.0494 308.253 23.0859 309.371C21.4816 310.327 21.1589 311.607 21.1589 311.607C21.1589 311.607 22.279 312.57 23.3991 313.533C24.5193 314.496 26.7595 316.422 28.5204 317.546C32.5216 320.597 37.643 324.61 42.2896 325.102C46.1342 326.072 49.3427 324.16 51.7491 322.725C53.5147 321.129 55.9211 319.695 56.8846 318.577C56.8846 318.577 57.5254 318.739 57.364 319.379C58.4841 320.342 59.6043 321.305 62.0059 322.591C65.3664 325.48 71.2898 329.015 74.6455 334.625C75.1249 335.426 75.6043 336.228 75.4429 336.867L75.761 338.308C75.761 338.308 76.2403 339.11 76.0789 339.749C76.2355 341.83 76.5535 343.271 76.0694 345.19C75.742 349.19 75.4146 353.19 75.5665 357.991C76.8338 366.476 79.2212 375.924 82.5722 384.254C76.1694 379.917 67.8443 375.095 58.5557 371.391C56.6334 370.906 55.5132 369.943 53.5909 369.459C53.7523 368.819 54.0751 367.539 54.2364 366.9C55.6793 366.583 57.9244 365.789 60.6535 363.075C61.617 361.957 62.7419 360.2 63.8668 358.442C64.3509 356.523 64.8349 354.604 64.1989 351.722C63.5676 346.119 58.769 340.826 54.1271 337.614C51.7254 336.328 49.9645 335.203 48.0422 334.718C46.7607 334.395 45.4792 334.072 45.4792 334.072C45.4792 334.072 45.1565 335.351 44.8338 336.631C44.511 337.91 43.8655 340.469 43.3814 342.388C42.2518 346.866 40.3201 351.822 40.7948 355.344C41.1128 356.785 41.4308 358.226 42.5509 359.189C43.671 360.152 44.7912 361.115 45.9114 362.078C48.1516 364.004 51.194 365.452 52.4755 365.775C52.3141 366.415 51.9914 367.694 51.83 368.334C45.1044 365.277 38.2175 362.859 33.4142 360.286C26.6886 357.229 22.526 354.818 22.526 354.818L21.5626 355.936C21.5626 355.936 25.7252 358.347 32.2894 362.044C39.0149 365.101 48.1422 369.445 56.6287 373.627C61.432 376.199 66.2353 378.772 71.0386 381.344C70.3978 381.183 70.2365 381.823 69.5957 381.661C67.9962 379.897 61.598 372.839 51.6545 377.135C46.3623 379.202 41.2221 386.071 39.9311 391.188C39.2856 393.747 38.6401 396.306 38.3174 397.586C37.8333 399.505 37.6719 400.144 37.6719 400.144C37.6719 400.144 38.9534 400.468 40.3963 400.151C42.48 399.996 44.5636 399.842 47.288 399.848C52.096 399.7 57.5448 399.714 61.3941 397.963C64.4412 396.691 66.691 393.176 68.1386 390.139C69.5862 387.102 69.7523 383.742 70.075 382.462C70.8771 381.984 72.3201 381.668 72.9608 381.829C75.3625 383.116 77.6028 385.042 80.0045 386.328C81.7653 387.452 82.8855 388.415 84.0056 389.378C84.485 390.18 85.1258 390.341 85.6051 391.143C86.8819 394.186 87.6793 396.429 88.9561 399.473C90.5509 403.957 91.5049 408.281 93.0997 412.766C93.8971 415.008 94.6946 417.25 95.492 419.493C96.2893 421.735 97.0868 423.978 98.0456 425.58C98.8429 427.823 99.8017 429.425 100.599 431.668C101.558 433.271 102.517 434.873 103.314 437.116C106.67 442.725 107.78 449.129 109.537 452.974C110.334 455.217 111.293 456.819 111.611 458.26L112.09 459.062C106.115 485.452 97.7743 497.589 97.7743 497.589L121.867 497.589C121.867 497.589 122.618 487.573 128.759 457.823C130.05 452.706 130.7 447.426 132.153 441.669L132.314 441.029C133.439 439.271 134.085 436.713 136.173 433.837C137.62 430.8 139.87 427.285 141.641 422.969C141.802 422.329 141.963 421.69 142.765 421.211L142.927 420.572L143.088 419.932C143.411 418.653 144.375 417.535 144.536 416.895C145.661 415.138 146.306 412.579 147.592 410.181C149.363 405.865 151.133 401.549 154.185 397.556C155.149 396.438 155.31 395.798 156.273 394.68C157.237 393.563 158.039 393.085 159.003 391.967C159.805 391.489 160.768 390.371 161.732 389.253C162.695 388.135 163.497 387.657 165.102 386.701C169.274 383.671 174.086 380.802 179.06 377.294L181.144 377.139C181.144 377.139 181.144 377.139 181.785 377.301C182.103 378.742 182.098 381.463 183.375 384.506C183.854 385.308 183.693 385.947 184.172 386.749C184.652 387.55 184.49 388.19 184.97 388.991C185.449 389.793 185.929 390.594 186.569 390.756C187.049 391.557 187.528 392.358 188.169 392.52C190.889 395.247 196.333 397.981 201.136 400.554C203.538 401.84 205.939 403.126 207.059 404.089C208.82 405.214 209.461 405.376 209.461 405.376C209.461 405.376 209.784 404.096 210.268 402.177C210.752 400.258 211.397 397.699 211.564 394.339C211.573 388.898 210.624 381.854 206.466 376.723L225.375 377.41C225.375 377.41 225.855 378.212 226.334 379.013C226.813 379.814 227.293 380.616 227.611 382.057C226.647 383.174 224.72 385.41 224.393 389.41C223.909 391.329 224.706 393.572 225.503 395.814C226.942 398.218 229.021 400.784 231.422 402.07C237.346 405.605 240.554 403.693 245.039 404.825C246.962 405.309 249.525 405.956 250.645 406.919C252.567 407.404 253.047 408.205 253.047 408.205C253.047 408.205 253.369 406.926 253.692 405.646C254.176 403.727 254.181 401.007 253.545 398.125C252.909 395.242 251.153 391.397 249.235 388.192C246.515 385.465 244.437 382.899 242.514 382.414C241.394 381.451 240.592 381.929 239.311 381.606C238.029 381.283 236.586 381.599 235.143 381.916C232.419 381.909 229.054 381.74 227.611 382.057C227.131 381.255 226.652 380.454 226.173 379.653C226.173 379.653 226.334 379.013 225.693 378.851L249.89 380.192L250.051 379.552L225.855 378.212L203.741 376.716L203.262 375.915C202.142 374.952 201.022 373.989 199.902 373.026C198.62 372.702 197.5 371.739 196.218 371.416C194.937 371.093 193.655 370.77 192.853 371.248C191.572 370.924 190.77 371.402 189.968 371.881C186.441 372.352 184.675 373.948 182.91 375.544L181.628 375.22C183.394 373.624 185.16 372.029 186.925 370.433L187.727 369.955C188.529 369.477 189.332 368.998 190.134 368.52C191.738 367.564 192.701 366.446 194.306 365.49C196.873 363.416 199.441 361.342 202.009 359.268C204.415 357.834 206.342 355.599 208.108 354.003C208.749 354.164 210.192 353.848 211.635 353.531C212.275 353.693 212.275 353.693 212.916 353.855C212.593 355.134 212.589 357.855 212.584 360.575C212.902 362.016 212.579 363.296 212.897 364.737C213.215 366.178 213.694 366.979 214.815 367.942C217.534 370.669 222.66 371.962 227.948 372.616C230.511 373.262 232.594 373.108 233.876 373.431C235.157 373.754 236.6 373.438 236.6 373.438C236.6 373.438 236.928 369.438 236.135 364.475C235.661 360.953 234.706 356.63 232.789 353.424C236.795 353.754 240.801 354.085 243.687 353.452C245.77 353.297 247.854 353.142 249.135 353.465C250.578 353.149 251.219 353.31 251.219 353.31L250.901 351.869C250.901 351.869 250.26 351.708 248.817 352.024C247.536 351.701 245.452 351.856 243.53 351.371C239.524 351.041 233.596 350.226 227.829 348.771C226.547 348.448 225.427 347.485 224.146 347.162C222.224 346.677 220.781 346.993 219.338 347.31C216.613 347.303 214.05 346.656 211.967 346.811C212.93 345.693 213.092 345.053 214.055 343.936C217.909 339.464 221.284 334.192 226.258 330.684L227.862 329.728L228.664 329.25L229.466 328.771C230.268 328.293 231.711 327.977 233.154 327.661C234.597 327.344 236.681 327.189 238.285 326.233C239.728 325.917 241.332 324.961 243.098 323.365C243.416 324.806 244.213 327.048 245.172 328.651C246.131 330.253 246.449 331.695 247.569 332.658C248.048 333.459 248.689 333.621 249.168 334.422C249.648 335.223 250.929 335.546 251.409 336.348C255.571 338.759 262.14 339.735 267.907 341.19C270.47 341.837 273.194 341.843 275.117 342.328C277.039 342.813 278.482 342.497 278.482 342.497C278.482 342.497 278.164 341.056 277.846 339.615C277.689 337.534 276.892 335.291 275.615 332.248C274.02 327.763 271.144 322.955 267.304 319.265C269.226 319.749 270.347 320.712 272.43 320.558C274.993 321.204 278.358 321.372 280.442 321.218C285.729 321.871 289.897 321.561 289.897 321.561C289.897 321.561 289.583 317.4 287.671 311.474C286.394 308.43 284.956 306.026 283.038 302.821C282.079 301.218 280.959 300.255 279.198 299.13C285.126 299.945 290.252 301.239 294.576 303.01C296.499 303.495 298.26 304.619 299.541 304.943C300.823 305.266 301.463 305.427 301.463 305.427L301.625 304.788C301.625 304.788 300.984 304.626 299.702 304.303C298.421 303.98 296.66 302.855 294.738 302.37C290.414 300.599 284.647 299.144 278.719 298.329C278.078 298.168 277.437 298.006 276.156 297.683L275.515 297.521C271.993 295.272 268.467 295.743 265.581 296.376C264.299 296.053 263.659 295.891 262.216 296.207C260.934 295.884 259.653 295.561 258.851 296.039C262.059 294.127 265.106 292.854 268.956 291.103C275.852 288.08 282.587 285.696 288.681 283.151C289.322 283.313 289.963 283.475 290.765 282.996C291.562 285.239 297.638 293.576 307.254 293.28C312.703 293.293 318.797 290.748 323.928 289.321C326.813 288.688 329.059 287.893 330.501 287.577C332.585 287.422 333.387 286.944 333.387 286.944C333.387 286.944 341.551 292.405 340.592 290.803ZM291.533 209.705C291.372 210.345 291.372 210.345 291.211 210.984L290.57 210.823C290.731 210.183 291.372 210.345 291.533 209.705ZM279.985 123.1C279.824 123.74 279.824 123.74 279.985 123.1V123.1ZM214.79 197.83C214.629 198.47 213.988 198.308 213.826 198.948L213.988 198.308C213.988 198.308 213.988 198.308 214.79 197.83ZM196.587 67.3606C196.748 66.7209 197.228 67.5222 196.587 67.3606V67.3606ZM178.066 27.3068C178.223 29.3876 178.859 32.2697 179.338 33.0711C178.536 33.5491 177.734 34.0272 177.093 33.8656L176.453 33.7039C176.937 31.7848 177.421 29.8657 178.066 27.3068ZM46.4369 151.96C40.3521 149.064 34.2672 146.169 30.2661 143.118C29.6253 142.957 29.6254 142.956 29.7868 142.317C34.4382 140.088 37.172 134.654 38.2968 132.896C38.9376 133.058 40.2191 133.381 41.0212 132.903L41.662 133.065C41.98 134.506 43.1001 135.469 43.4181 136.91C45.1743 140.755 46.2898 144.439 48.6867 148.445C49.6455 150.048 50.6042 151.651 52.2038 153.415C50.1201 153.57 48.1978 153.085 46.4369 151.96ZM50.6615 210.862L50.1822 210.06C50.8229 210.222 51.4636 210.384 52.1043 210.545C51.4636 210.384 51.3023 211.023 50.6615 210.862ZM120.334 326.418C120.011 327.697 120.49 328.499 120.168 329.778C119.85 328.337 119.37 327.536 119.052 326.094L119.214 325.455C119.536 324.175 120.338 323.697 120.338 323.697C120.818 324.499 120.495 325.778 120.334 326.418ZM110.024 264.62C107.623 263.334 105.06 262.688 102.658 261.401C100.256 260.115 97.6933 259.469 95.9324 258.344C93.5308 257.058 91.7699 255.933 89.8476 255.448C88.7274 254.485 86.8051 254 85.685 253.037C86.3257 253.199 86.4872 252.559 87.1279 252.721C88.7322 251.765 90.3364 250.809 91.2999 249.691C92.2635 248.573 93.3882 246.815 94.3517 245.698C95.7994 242.661 96.6063 239.462 96.929 238.183C97.5698 238.344 97.5697 238.344 98.3719 237.866C100.289 241.072 102.207 244.277 104.765 247.644C110.2 255.819 117.557 264.479 122.507 274.574C122.825 276.015 123.305 276.816 124.263 278.419C124.581 279.86 125.061 280.661 125.379 282.102L125.217 282.742C124.42 280.499 123.623 278.257 122.185 275.853C119.147 271.685 114.989 266.553 110.024 264.62ZM111.543 312.633C107.063 308.781 102.098 306.848 97.7743 305.077C96.4928 304.754 95.3726 303.791 94.7319 303.629C94.8932 302.99 95.216 301.71 95.3773 301.071C96.8202 300.754 99.2266 299.32 101.315 296.444C103.403 293.569 105.174 289.253 103.579 284.768C102.145 279.644 98.3056 275.953 94.3044 272.903C96.8675 273.549 99.2691 274.835 101.191 275.32C104.875 276.93 108.396 279.179 111.439 280.627C114.32 282.715 116.722 284.001 117.842 284.964C118.482 285.125 118.321 285.765 118.962 285.927C119.28 287.368 119.598 288.809 119.916 290.25C121.031 293.933 122.308 296.977 123.105 299.22C123.585 300.021 124.064 300.822 124.544 301.624C123.898 304.183 124.055 306.263 123.409 308.822C122.759 314.101 121.629 318.58 120.979 323.859C120.979 323.859 119.698 323.536 118.578 322.573C118.578 322.573 117.937 322.411 117.296 322.249C116.181 318.566 114.263 315.36 111.543 312.633ZM90.6644 338.666C90.5031 339.305 90.5031 339.305 90.3417 339.945C90.5031 339.305 90.6644 338.666 90.6644 338.666ZM125.275 433.81C124.312 434.928 123.989 436.207 123.666 437.487C123.182 439.406 122.219 440.524 121.896 441.803C120.937 440.2 120.619 438.759 119.66 437.157C118.702 435.554 117.743 433.951 116.784 432.349C115.825 430.746 114.867 429.143 114.069 426.901C113.11 425.298 112.313 423.056 111.354 421.453C110.557 419.21 109.598 417.608 108.801 415.365C107.206 410.881 105.611 406.396 104.016 401.911C101.781 397.264 100.186 392.78 97.9503 388.133C94.12 379.002 90.9304 370.032 89.6631 361.547C89.5065 359.467 89.3498 357.386 89.8339 355.467C89.6773 353.386 90.1614 351.467 90.0048 349.386C90.3275 348.107 89.8481 347.305 90.1708 346.026C90.4936 344.746 90.8163 343.467 91.1391 342.188C91.9412 341.709 92.1026 341.07 92.9047 340.592C95.3063 341.878 103.152 345.898 108.928 341.912C111.496 339.838 114.225 337.124 115.834 333.448C115.991 335.529 116.95 337.131 117.268 338.572C117.904 341.454 119.342 343.858 120.301 345.461C120.291 350.902 120.282 356.343 120.913 361.946C121.231 363.387 121.549 364.828 121.867 366.269C121.706 366.909 122.185 367.71 122.024 368.35C122.503 369.151 122.342 369.791 122.821 370.592C123.139 372.033 123.457 373.474 124.416 375.077C124.734 376.518 125.213 377.319 125.531 378.76C127.126 383.245 128.882 387.09 130.638 390.935C131.754 394.619 133.031 397.663 133.828 399.905C133.828 399.905 133.667 400.545 134.307 400.707C133.823 402.626 133.178 405.185 132.694 407.104C129.632 416.538 127.373 425.494 125.275 433.81ZM204.523 111.549C205.805 111.872 208.206 113.158 211.733 112.687C215.259 112.216 219.108 110.465 221.358 106.95C222.322 105.832 222.806 103.913 223.29 101.994C223.608 103.435 223.285 104.714 223.603 106.155C223.912 113.037 224.22 119.92 223.888 126.64C223.727 127.28 223.727 127.28 223.565 127.919L223.404 128.559C222.759 131.118 222.113 133.677 221.468 136.236C221.145 137.515 220.02 139.273 219.056 140.39C218.254 140.869 218.093 141.508 217.291 141.986L216.489 142.464C216.014 138.943 213.779 134.296 211.543 129.65C210.266 126.606 208.187 124.04 207.072 120.357C206.274 118.114 204.998 115.07 204.523 111.549C204.362 112.188 204.362 112.188 204.523 111.549ZM194.005 169.453C192.881 171.211 192.558 172.49 191.433 174.248C190.308 176.005 189.985 177.284 188.861 179.042C189.022 178.402 188.542 177.601 188.704 176.961C188.709 174.241 188.875 170.88 189.041 167.52C188.884 165.439 189.207 164.16 189.05 162.079C188.894 159.998 188.576 158.557 188.419 156.477C188.742 155.197 188.903 154.558 188.585 153.117C188.746 152.477 188.267 151.675 188.428 151.036C188.59 150.396 187.949 150.234 187.47 149.433C187.152 147.992 186.834 146.551 187.156 145.271C187 143.191 186.682 141.75 186.525 139.669L186.05 136.147L185.894 134.066C185.894 134.066 185.894 134.066 185.253 133.905L184.612 133.743L183.331 133.42L179.648 131.81L176.605 130.362C174.683 129.877 172.922 128.753 170.52 127.466L169.88 127.305C170.041 126.665 169.562 125.864 169.723 125.224C171.968 124.43 180.146 121.73 181.76 115.332C182.087 111.332 180.654 106.208 179.059 101.723C178.261 99.4806 177.303 97.8779 176.344 96.2752C175.385 94.6725 175.546 94.0328 175.546 94.0328C175.546 94.0328 174.744 94.5109 173.14 95.4671C171.536 96.4232 169.932 97.3794 167.525 98.8136C163.353 101.844 159.338 106.955 158.849 111.594C157.392 120.072 166.358 125.056 168.921 125.702C168.759 126.342 169.239 127.143 169.077 127.783C166.035 126.335 162.993 124.887 160.112 122.8C152.907 118.941 147.145 114.766 143.628 109.796C140.11 104.826 137.875 100.18 136.598 97.1359C136.119 96.3346 136.28 95.6948 135.801 94.8935L135.321 94.0921C135.321 94.0921 135.321 94.0922 135.483 93.4525C136.123 93.6141 136.123 93.6141 135.483 93.4525C135.483 93.4525 132.597 94.0853 134.04 93.7688C134.04 93.7688 134.04 93.7689 133.878 94.4086C133.878 94.4086 133.717 95.0483 134.358 95.21C134.837 96.0113 134.676 96.6509 135.155 97.4523C136.432 100.496 137.865 105.621 141.862 111.392C146.02 116.523 151.62 121.338 158.664 125.836C162.186 128.086 165.708 130.335 170.032 132.106C171.792 133.231 173.553 134.355 176.116 135.002L179.159 136.45L181.56 137.736L182.201 137.898L182.04 138.537L182.035 141.258C182.353 142.699 182.51 144.78 182.187 146.059C179.145 144.611 175.3 143.641 172.414 144.274C169.69 144.267 167.924 145.863 166.481 146.18C164.877 147.136 164.716 147.776 164.716 147.776C164.716 147.776 165.195 148.577 165.513 150.018C165.831 151.459 166.79 153.062 166.946 155.143C168.062 158.826 167.094 162.664 168.693 164.429C169.173 165.23 169.813 165.392 170.454 165.553C171.095 165.715 171.574 166.516 172.215 166.678C173.496 167.001 175.419 167.486 176.862 167.17C179.586 167.177 181.831 166.382 183.274 166.066C183.113 166.705 183.431 168.146 183.269 168.786C183.103 172.146 183.098 174.867 182.932 178.227C182.761 184.308 182.273 188.947 182.586 193.109C182.425 193.749 182.425 193.749 183.065 193.91C183.065 193.91 181.134 198.866 179.036 207.183C178.874 207.822 178.713 208.462 178.713 208.462C177.427 210.859 176.781 213.418 175.495 215.815C173.563 220.771 171.632 225.728 170.023 229.404C169.538 231.323 168.575 232.441 168.091 234.36L167.611 233.559C167.611 233.559 167.611 233.559 167.773 232.919C167.455 231.478 167.616 230.838 167.298 229.397C167.303 226.677 167.308 223.956 167.312 221.236C167.317 218.515 167.483 215.155 166.368 211.472C166.05 210.031 165.252 207.788 164.294 206.185C164.294 206.185 164.455 205.546 163.976 204.744C163.496 203.943 163.178 202.502 163.022 200.421C162.708 196.26 162.077 190.657 161.128 183.613C160.653 180.092 160.981 176.092 160.026 171.768C159.87 169.688 159.072 167.445 158.916 165.364C158.759 163.284 158.602 161.203 158.446 159.122C158.133 154.961 158.142 149.52 155.906 144.873C153.832 139.587 149.19 136.375 146.153 132.206C145.033 131.243 144.553 130.442 143.433 129.479C142.313 128.516 141.833 127.715 140.713 126.752C139.114 124.987 136.874 123.061 135.274 121.297C132.075 117.768 128.235 114.078 127.76 110.556C127.447 106.395 129.056 102.718 130.186 98.24C130.508 96.9606 130.67 96.3209 130.352 94.8798C130.675 93.6004 130.195 92.7991 130.357 92.1594C130.2 90.0786 129.882 88.6375 129.725 86.5567C129.407 85.1157 129.569 84.476 129.089 83.6746C130.209 84.6376 131.168 86.2403 132.288 87.2033C135.487 90.7319 140.77 94.1058 146.219 94.1194C151.027 93.9714 154.397 91.4194 156.485 88.5441C158.574 85.6688 158.74 82.3086 158.422 80.8676C159.224 80.3895 160.026 79.9114 160.187 79.2717C165.788 84.0866 170.909 88.1002 175.551 91.3124C177.792 93.2383 180.193 94.5246 181.954 95.6492C182.595 95.8108 183.715 96.7738 183.715 96.7738C184.356 96.9355 184.835 97.7368 184.835 97.7368C188.998 100.148 192.519 102.397 195.239 105.124C195.719 105.926 196.839 106.889 196.839 106.889L196.677 107.528C196.677 107.528 196.355 108.808 196.032 110.087C195.709 111.367 196.188 112.168 195.866 113.447C196.179 117.609 197.935 121.454 199.051 125.138C200.327 128.181 202.245 131.387 203.522 134.43C206.237 139.878 207.831 144.363 207.665 147.723C207.343 149.003 207.661 150.444 206.858 150.922C206.056 151.4 205.093 152.518 204.291 152.996L201.723 155.07L199.796 157.305C198.671 159.063 197.546 160.82 196.583 161.938C196.901 163.379 195.453 166.416 194.005 169.453ZM269.383 321.83C268.742 321.668 267.622 320.706 266.981 320.544C265.7 320.221 264.418 319.897 262.975 320.214C260.251 320.207 258.167 320.362 256.563 321.318C254.959 322.274 253.516 322.591 252.552 323.708L252.714 323.069L252.875 322.429C252.875 322.429 252.875 322.429 253.037 321.789C253.198 321.149 253.359 320.51 253.521 319.87C254.005 317.951 254.65 315.392 256.739 312.517C257.864 310.759 259.629 309.163 261.556 306.928C262.197 307.089 262.197 307.089 262.838 307.251C263.478 307.413 264.599 308.376 265.239 308.537C264.755 310.456 265.064 317.338 269.383 321.83ZM270.375 304.389C268.13 305.184 266.364 306.78 265.562 307.258C264.281 306.935 263.801 306.133 263.16 305.972L262.52 305.81C263.322 305.332 264.124 304.854 264.926 304.376C266.369 304.059 267.65 304.383 270.375 304.389Z" fill="#B49577"/>
</svg>
